<svg width="72" height="74" viewBox="0 0 72 74" fill="none" xmlns="http://www.w3.org/2000/svg">
<path d="M65.2994 23.4756V38.9855L53.3464 45.9241V30.4726L65.2994 23.4756Z" fill="#EDB766"/>
<path d="M65.2993 23.4758L50.9924 15.896L39.3525 22.6014L53.3463 30.4729L65.2993 23.4758Z" fill="#656580"/>
<path d="M39.3525 22.6011V38.3442L44.6001 40.9677L46.9324 42.1341L53.3463 45.924V30.4726L39.3525 22.6011Z" fill="#FFE891"/>
<path d="M65.2994 38.9858L71.4218 48.8399L59.1772 56.1281L53.3464 45.9244L65.2994 38.9858Z" fill="#FF5F4F"/>
<path d="M71.4219 48.8398V66.332L59.1772 73.6204V56.1281L71.4219 48.8398Z" fill="#9E1E23"/>
<path d="M39.3526 38.3442L44.6002 40.9677L46.9324 42.1341L53.3464 45.9241L59.1772 56.1278V73.6201L46.9324 66.9147L44.6002 65.4571L33.522 59.0433V41.8426L39.3526 38.3442Z" fill="#F03939"/>
<path d="M53.3463 34.19L39.3525 26.3488V22.6011L53.3463 30.4726V34.19Z" fill="#3D3D5C"/>
<path d="M65.2994 23.4756V36.8376L58.0109 41.1088V31.4681L53.3464 34.1901V30.4726L65.2994 23.4756Z" fill="#191926"/>
<path d="M46.9324 52.1797V66.9151L50.6228 57.254L46.9324 52.1797Z" fill="white"/>
<path d="M46.9324 52.1795L51.0141 54.9621L53.3464 45.9242L46.9324 42.1343V52.1795Z" fill="white"/>
<path d="M44.6001 40.9677V50.8802L41.1017 48.8395L39.3525 38.3442L44.6001 40.9677Z" fill="white"/>
<path d="M44.6002 50.8804V65.4572L41.3936 50.8804H44.6002Z" fill="white"/>
<path d="M46.9323 42.1342V47.3818L44.6001 45.9241V40.9678L46.9323 42.1342Z" fill="#656580"/>
<path d="M46.9323 47.382L44.6001 45.9243V65.4574L46.9323 66.915V47.382Z" fill="#3D3D5C"/>
<path d="M5.53418 33.9712V45.0495L13.6975 49.714V38.6544L5.53418 33.9712Z" fill="#EDB766"/>
<path d="M5.53418 33.9711L15.1552 28.9316L23.6096 33.0965L13.6975 38.6543L5.53418 33.9711Z" fill="#656580"/>
<path d="M23.6096 33.0967V44.175L19.8197 46.2113L18.362 47.0905L13.6975 49.7141V38.6545L23.6096 33.0967Z" fill="#FFE891"/>
<path d="M5.53401 45.0498L0.578125 51.7969L9.90713 57.2946L13.6973 49.7143L5.53401 45.0498Z" fill="#8BEAFF"/>
<path d="M0.578125 51.7969V63.9998L9.90713 69.5392V57.2946L0.578125 51.7969Z" fill="#3C7FC2"/>
<path d="M23.6095 44.1753L19.8196 46.2116L18.3619 47.0908L13.6974 49.7144L9.90723 57.2946V69.5393L18.3852 64.611L19.8196 63.7085L27.9826 59.0437V46.7991L23.6095 44.1753Z" fill="#5DB8F5"/>
<path d="M13.6975 41.2829L23.6096 35.6973V33.0967L13.6975 38.6545V41.2829Z" fill="#3D3D5C"/>
<path d="M5.53418 33.9712V42.7174L10.4905 45.6326V39.2188L13.6975 41.2828V38.6544L5.53418 33.9712Z" fill="#191926"/>
<path d="M18.362 54.0967V64.6108L15.738 57.5859L18.362 54.0967Z" fill="white"/>
<path d="M18.362 54.0969L15.4465 55.8369L13.6975 49.7145L18.362 47.0908V54.0969Z" fill="white"/>
<path d="M19.8196 46.2116V53.1109L22.4435 51.7551L23.6095 44.1753L19.8196 46.2116Z" fill="white"/>
<path d="M19.8196 53.1108V63.7084L22.4435 53.2128L19.8196 53.1108Z" fill="white"/>
<path d="M18.3618 47.0901V50.4819L19.8195 49.4963V46.2109L18.3618 47.0901Z" fill="#656580"/>
<path d="M18.3618 50.4822L19.8195 49.4966V63.7081L18.3618 64.6106V50.4822Z" fill="#27273B"/>
<path d="M32.0554 27.1845C32.0554 28.6396 30.0016 29.7743 27.44 29.7743C24.8783 29.7743 22.7866 28.6396 22.7866 27.1845C22.7866 25.7296 24.8781 24.5049 27.44 24.5049C30.0016 24.5049 32.0554 25.7296 32.0554 27.1845Z" fill="#D4720A"/>
<path d="M32.0554 25.4122C32.0554 26.8674 30.0016 28.063 27.44 28.063C24.8783 28.063 22.7866 26.8672 22.7866 25.4122C22.7866 23.9574 24.8781 22.7939 27.44 22.7939C30.0016 22.7939 32.0554 23.9574 32.0554 25.4122Z" fill="#FFEE40"/>
<path d="M32.0554 23.7764C32.0554 25.2312 30.0016 26.4275 27.44 26.4275C24.8783 26.4275 22.7866 25.2312 22.7866 23.7764C22.7866 22.3213 24.8781 21.1587 27.44 21.1587C30.0016 21.1587 32.0554 22.3213 32.0554 23.7764Z" fill="#D4720A"/>
<path d="M36.4537 15.0215H36.4416C37.2082 13.5638 37.6442 12.0557 37.6442 10.3531C37.6442 4.8342 33.0754 0.379883 27.4403 0.379883C21.805 0.379883 17.2366 4.86388 17.2366 10.3823C17.2366 12.0855 17.6712 13.6926 18.4374 15.0952C18.5845 15.3638 18.7438 15.6263 18.9136 15.8793L21.3906 19.9447L23.5287 23.1183C24.0404 23.8283 24.901 24.7892 27.4403 24.7892C29.9914 24.7892 30.8475 23.7925 31.3516 23.0794L36.4537 15.0215Z" fill="#EDAC01"/>
<path d="M27.3162 23.9357C29.0068 23.9357 30.3773 23.2592 30.3773 22.4249C30.3773 21.5905 29.0068 20.9141 27.3162 20.9141C25.6256 20.9141 24.2551 21.5905 24.2551 22.4249C24.2551 23.2592 25.6256 23.9357 27.3162 23.9357Z" fill="#FFEE40"/>
<path d="M19.6189 7.21417L21.0148 7.91227C21.3431 6.93184 21.9103 6.06111 22.6472 5.36939L21.4046 4.41895C20.6228 5.20299 20.008 6.15463 19.6189 7.21417Z" fill="#FFEE40"/>
<path d="M19.1316 10.3567H20.6779C20.6903 9.77383 20.7286 9.45781 20.7917 9.13822L19.2582 8.94971C19.1865 9.33683 19.1438 9.77398 19.1316 10.3567Z" fill="#FFEE40"/>
<path d="M23.3181 14.438L28.5658 17.3535L33.8134 6.27516L31.7725 5.10889L27.6911 14.1467L26.2334 13.2718L24.4841 12.1058L23.3181 14.438Z" fill="white"/>
<path d="M24.484 12.1059L23.0263 11.2314L21.8604 13.5637L23.318 14.4381L24.484 12.1059Z" fill="#3C7FC2"/>
<path d="M26.2334 13.2718L30.3148 4.52588L31.7725 5.10894L27.6911 14.1467L26.2334 13.2718Z" fill="#3C7FC2"/>
</svg>
