<svg width="65" height="65" viewBox="0 0 65 65" fill="none" xmlns="http://www.w3.org/2000/svg">
<path d="M32.4177 21.3281H27.4219V16.25H32.4177C33.2698 16.25 33.7431 17.2352 33.2109 17.9004L32.5 18.7891L33.2109 19.6777C33.7431 20.343 33.2698 21.3281 32.4177 21.3281Z" fill="#C80A50"/>
<path d="M26.9141 25.3906C26.6338 25.3906 26.4062 25.1631 26.4062 24.8828V15.7422C26.4062 15.4619 26.6338 15.2344 26.9141 15.2344C27.1944 15.2344 27.4219 15.4619 27.4219 15.7422V24.8828C27.4219 25.1631 27.1944 25.3906 26.9141 25.3906Z" fill="#0A5078"/>
<path d="M56.8754 36.603V51.7968H20.3535L38.6145 33.5358L43.6926 28.4679C45.084 27.0765 47.3387 27.0765 48.7301 28.4679L56.8754 36.603Z" fill="#0082AA"/>
<path d="M56.875 51.797H8.125V40.6251L24.0398 24.7103C24.1617 24.5884 24.2937 24.4767 24.4258 24.3751C25.8883 23.2376 27.9398 23.2376 29.4023 24.3751C29.5344 24.4767 29.6664 24.5884 29.7883 24.7103L38.6141 33.536L56.875 51.797Z" fill="#00A0C8"/>
<path d="M32.5 56.875H20.3125V49.7656C20.3125 48.0827 21.6765 46.7188 23.3594 46.7188H29.4531C31.136 46.7188 32.5 48.0827 32.5 49.7656V56.875Z" fill="#0A5078"/>
<path d="M22.3438 50.7812H20.3125V56.875H22.3438V50.7812Z" fill="#D2AA82"/>
<path d="M32.5 50.7812H30.4688V56.875H32.5V50.7812Z" fill="#F0C8A0"/>
<path d="M17.2656 46.7188H11.1719C10.6112 46.7188 10.1562 46.2638 10.1562 45.7031V42.6562H8.125V56.875H20.3125V49.7656C20.3125 48.0827 18.9485 46.7188 17.2656 46.7188Z" fill="#C80A50"/>
<path d="M20.3125 50.7812H18.2812V56.875H20.3125V50.7812Z" fill="#F0C8A0"/>
<path d="M10.1562 44.6875H8.125V33.5156C8.125 32.955 8.58 32.5 9.14062 32.5C9.70125 32.5 10.1562 32.955 10.1562 33.5156V44.6875Z" fill="#F0C8A0"/>
<path d="M54.8438 42.6562V45.7031C54.8438 46.2638 54.3888 46.7188 53.8281 46.7188H47.7344C46.0515 46.7188 44.6875 48.0827 44.6875 49.7656V56.875H56.875V42.6562H54.8438Z" fill="#0A5078"/>
<path d="M44.6875 56.875L46.7188 56.875L46.7187 50.7812L44.6875 50.7813L44.6875 56.875Z" fill="#D2AA82"/>
<path d="M54.8438 44.6875H56.875V33.5156C56.875 32.955 56.42 32.5 55.8594 32.5C55.2988 32.5 54.8438 32.955 54.8438 33.5156V44.6875Z" fill="#F0C8A0"/>
<path d="M30.4688 9.14062V11.1719C30.4688 11.7335 30.0137 12.1875 29.4531 12.1875C28.8925 12.1875 28.4375 11.7335 28.4375 11.1719V9.14062C28.4375 8.57898 28.8925 8.125 29.4531 8.125C30.0137 8.125 30.4688 8.57898 30.4688 9.14062Z" fill="#C80A50"/>
<path d="M35.2492 12.4849L33.8121 13.921C33.4149 14.3181 32.7721 14.3181 32.376 13.921C31.9788 13.5239 31.9788 12.882 32.376 12.4849L33.8131 11.0488C34.2102 10.6517 34.8531 10.6517 35.2492 11.0488C35.6463 11.4459 35.6463 12.0878 35.2492 12.4849Z" fill="#00A0C8"/>
<path d="M26.5294 13.921C26.1323 14.3181 25.4904 14.3181 25.0933 13.921L23.6572 12.4849C23.2601 12.0878 23.2601 11.4459 23.6572 11.0488C24.0543 10.6517 24.6962 10.6517 25.0933 11.0488L26.5294 12.4849C26.9265 12.882 26.9265 13.5239 26.5294 13.921Z" fill="#FAB400"/>
<path d="M21.8359 33.5156H19.8047C19.5244 33.5156 19.2969 33.2881 19.2969 33.0078C19.2969 32.7275 19.5244 32.5 19.8047 32.5H21.8359C22.1163 32.5 22.3438 32.7275 22.3438 33.0078C22.3438 33.2881 22.1163 33.5156 21.8359 33.5156Z" fill="#0082AA"/>
<path d="M45.1953 32.5H43.1641C42.8838 32.5 42.6562 32.2725 42.6562 31.9922C42.6562 31.7119 42.8838 31.4844 43.1641 31.4844H45.1953C45.4756 31.4844 45.7031 31.7119 45.7031 31.9922C45.7031 32.2725 45.4756 32.5 45.1953 32.5Z" fill="#00A0C8"/>
<path d="M50.2734 35.5469H48.2422C47.9619 35.5469 47.7344 35.3194 47.7344 35.0391C47.7344 34.7588 47.9619 34.5312 48.2422 34.5312H50.2734C50.5538 34.5312 50.7812 34.7588 50.7812 35.0391C50.7812 35.3194 50.5538 35.5469 50.2734 35.5469Z" fill="#00A0C8"/>
<path d="M29.9609 29.4531H27.9297C27.6494 29.4531 27.4219 29.2256 27.4219 28.9453C27.4219 28.665 27.6494 28.4375 27.9297 28.4375H29.9609C30.2413 28.4375 30.4688 28.665 30.4688 28.9453C30.4688 29.2256 30.2413 29.4531 29.9609 29.4531Z" fill="#0082AA"/>
<path d="M33.0078 37.5781H30.9766C30.6963 37.5781 30.4688 37.3506 30.4688 37.0703C30.4688 36.79 30.6963 36.5625 30.9766 36.5625H33.0078C33.2881 36.5625 33.5156 36.79 33.5156 37.0703C33.5156 37.3506 33.2881 37.5781 33.0078 37.5781Z" fill="#0082AA"/>
<path d="M14.2186 46.719C12.5865 46.719 11.2642 45.3966 11.2642 43.7645V40.8101H17.1731V43.7645C17.1731 45.3966 15.8507 46.719 14.2186 46.719Z" fill="#F0C8A0"/>
<path d="M11.2639 43.7644H10.8942C10.2828 43.7644 9.78613 43.2688 9.78613 42.6564C9.78613 42.045 10.2818 41.5483 10.8942 41.5483H11.2639V43.7644Z" fill="#F0C8A0"/>
<path d="M17.1733 41.5483H17.543C18.1544 41.5483 18.6511 42.044 18.6511 42.6564C18.6511 43.2678 18.1554 43.7644 17.543 43.7644H17.1733V41.5483Z" fill="#F0C8A0"/>
<path d="M12.7412 43.7642C12.7412 44.5797 13.4024 45.2419 14.2189 45.2419C15.0355 45.2419 15.6967 44.5807 15.6967 43.7642H12.7412Z" fill="#C80A50"/>
<path d="M11.2642 43.7645V40.8101H12.0025V43.0262C12.0025 43.4334 11.6724 43.7645 11.2642 43.7645Z" fill="#0A5078"/>
<path d="M17.1734 43.7645V40.8101H16.4351V43.0262C16.4351 43.4334 16.7651 43.7645 17.1734 43.7645Z" fill="#0A5078"/>
<path d="M13.4803 40.8098H11.2642V39.3321C11.2642 38.9238 11.5953 38.5938 12.0025 38.5938H12.7409C13.1492 38.5938 13.4792 38.9248 13.4792 39.3321L13.4803 40.8098Z" fill="#0A5078"/>
<path d="M17.1733 40.8098H13.4805V39.3321C13.4805 38.9248 13.8105 38.5938 14.2188 38.5938H16.4349C16.8432 38.5938 17.1733 38.9248 17.1733 39.3321V40.8098Z" fill="#0A5078"/>
<path d="M50.7811 46.719C49.149 46.719 47.8267 45.3966 47.8267 43.7645V40.8101H53.7356V43.7645C53.7356 45.3966 52.4132 46.719 50.7811 46.719Z" fill="#F0C8A0"/>
<path d="M47.8264 43.7644H47.4567C46.8453 43.7644 46.3486 43.2688 46.3486 42.6564C46.3486 42.045 46.8443 41.5483 47.4567 41.5483H47.8264V43.7644Z" fill="#F0C8A0"/>
<path d="M53.7358 41.5483H54.1055C54.7169 41.5483 55.2136 42.044 55.2136 42.6564C55.2136 43.2678 54.7179 43.7644 54.1055 43.7644H53.7358V41.5483Z" fill="#F0C8A0"/>
<path d="M49.3037 43.7642C49.3037 44.5797 49.9649 45.2419 50.7814 45.2419C51.598 45.2419 52.2592 44.5807 52.2592 43.7642H49.3037Z" fill="#C80A50"/>
<path d="M47.8267 43.7645V40.8101H48.565V43.0262C48.565 43.4334 48.2349 43.7645 47.8267 43.7645Z" fill="#0A5078"/>
<path d="M53.7359 43.7645V40.8101H52.9976V43.0262C52.9976 43.4334 53.3276 43.7645 53.7359 43.7645Z" fill="#0A5078"/>
<path d="M50.0428 40.8098H47.8267V39.3321C47.8267 38.9238 48.1578 38.5938 48.565 38.5938H49.3034C49.7117 38.5938 50.0417 38.9248 50.0417 39.3321L50.0428 40.8098Z" fill="#0A5078"/>
<path d="M53.7358 40.8098H50.043V39.3321C50.043 38.9248 50.373 38.5938 50.7813 38.5938H52.9974C53.4057 38.5938 53.7358 38.9248 53.7358 39.3321V40.8098Z" fill="#0A5078"/>
<path d="M26.4066 46.7195C24.7745 46.7195 23.4521 45.3971 23.4521 43.765V40.8105H29.3611V43.765C29.3611 45.3971 28.0387 46.7195 26.4066 46.7195Z" fill="#F0C8A0"/>
<path d="M23.4523 43.7654H23.0827C22.4712 43.7654 21.9746 43.2698 21.9746 42.6574C21.9746 42.046 22.4702 41.5493 23.0827 41.5493H23.4523V43.7654Z" fill="#F0C8A0"/>
<path d="M29.3608 41.5493H29.7305C30.3419 41.5493 30.8386 42.0449 30.8386 42.6574C30.8386 43.2688 30.3429 43.7654 29.7305 43.7654H29.3608V41.5493Z" fill="#F0C8A0"/>
<path d="M24.9292 43.7656C24.9292 44.5812 25.5904 45.2434 26.4069 45.2434C27.2235 45.2434 27.8847 44.5822 27.8847 43.7656H24.9292Z" fill="#C80A50"/>
<path d="M26.4058 38.4243C24.6803 38.4243 23.2817 39.8228 23.2817 41.5484H29.5299C29.5299 39.8228 28.1313 38.4243 26.4058 38.4243Z" fill="#C80A50"/>
<path d="M23.4517 41.5483C23.4517 42.0592 23.8691 42.4766 24.3799 42.4766H28.4333C28.9442 42.4766 29.3616 42.0592 29.3616 41.5483H23.4517Z" fill="#A00028"/>
<path d="M43.0463 49.6721H34.186V42.2886C34.186 39.8419 36.1696 37.8584 38.6162 37.8584C41.0628 37.8584 43.0463 39.8419 43.0463 42.2886V49.6721Z" fill="#0A5078"/>
<path d="M38.6165 46.7189C36.9854 46.7189 35.6631 45.3966 35.6631 43.7655V41.7576C35.6631 41.2772 36.114 40.9248 36.5802 41.0416L41.0104 42.1486C41.3394 42.2309 41.57 42.5264 41.57 42.8646V43.7644C41.57 45.3966 40.2476 46.7189 38.6165 46.7189Z" fill="#F0C8A0"/>
<path d="M37.1392 43.7656C37.1392 44.5812 37.8003 45.2423 38.6159 45.2423C39.4314 45.2423 40.0926 44.5812 40.0926 43.7656H37.1392Z" fill="#C80A50"/>
<path d="M44.6875 56.875H32.5V49.7656C32.5 48.0827 33.864 46.7188 35.5469 46.7188H41.6406C43.3235 46.7188 44.6875 48.0827 44.6875 49.7656V56.875Z" fill="#C80A50"/>
<path d="M34.5312 50.7812H32.5V56.875H34.5312V50.7812Z" fill="#D2AA82"/>
<path d="M44.6875 50.7812H42.6562V56.875H44.6875V50.7812Z" fill="#F0C8A0"/>
</svg>
