<svg width="57" height="57" viewBox="0 0 57 57" fill="none" xmlns="http://www.w3.org/2000/svg">
<g clip-path="url(#clip0_351_1627)">
<path d="M7.6001 6.6499H49.4001V50.3499H7.6001V6.6499Z" fill="#AABECE"/>
<path d="M7.60156 28.5001L28.5016 7.6001L49.402 28.5001L28.5016 49.4001L7.60156 28.5001Z" fill="#394D5C"/>
<path d="M38.001 28.501C38.001 33.7478 33.7478 38.001 28.501 38.001C23.2542 38.001 19.001 33.7478 19.001 28.501C19.001 23.2542 23.2542 19.001 28.501 19.001C33.7478 19.001 38.001 23.2542 38.001 28.501Z" fill="#FDBD40"/>
<path d="M7.59971 6.64971L0.949707 0.949707H56.0497L49.3997 6.64971H7.59971Z" fill="#394D5C"/>
<path d="M3.8 29.4508H0.95C0.425366 29.4508 0 29.0254 0 28.5008C0 27.9761 0.425366 27.5508 0.95 27.5508H3.8C4.32463 27.5508 4.75 27.9761 4.75 28.5008C4.75 29.0254 4.32463 29.4508 3.8 29.4508Z" fill="#DD3E46"/>
<path d="M3.79907 25.6504C3.54719 25.6504 3.30551 25.5502 3.12739 25.3721L0.277386 22.5221C-0.0825751 22.1492 -0.0774725 21.5568 0.288983 21.1903C0.655438 20.8239 1.2478 20.8188 1.62075 21.1788L4.47075 24.0288C4.74211 24.3006 4.82375 24.7092 4.6767 25.0641C4.52966 25.419 4.18315 25.6504 3.79907 25.6504Z" fill="#DD3E46"/>
<path d="M0.949901 36.1006C0.565819 36.1006 0.21931 35.8692 0.0722643 35.5143C-0.0747816 35.1594 0.006859 34.7508 0.278221 34.4789L3.12822 31.6289C3.50117 31.269 4.09353 31.2741 4.45998 31.6405C4.82644 32.007 4.83154 32.5994 4.47158 32.9723L1.62158 35.8223C1.44346 36.0004 1.20178 36.1006 0.949901 36.1006Z" fill="#DD3E46"/>
<path d="M56.049 29.4508H53.199C52.6744 29.4508 52.249 29.0254 52.249 28.5008C52.249 27.9761 52.6744 27.5508 53.199 27.5508H56.049C56.5737 27.5508 56.999 27.9761 56.999 28.5008C56.999 29.0254 56.5737 29.4508 56.049 29.4508Z" fill="#DD3E46"/>
<path d="M53.1989 25.6504C52.8148 25.6504 52.4683 25.419 52.3213 25.0641C52.1742 24.7092 52.2559 24.3006 52.5272 24.0288L55.3772 21.1788C55.7502 20.8188 56.3426 20.8239 56.709 21.1903C57.0755 21.5568 57.0806 22.1492 56.7206 22.5221L53.8706 25.3721C53.6925 25.5502 53.4508 25.6504 53.1989 25.6504Z" fill="#DD3E46"/>
<path d="M56.0505 36.1006C55.7987 36.1006 55.557 36.0004 55.3789 35.8223L52.5289 32.9723C52.1689 32.5994 52.174 32.007 52.5404 31.6405C52.9069 31.2741 53.4993 31.269 53.8722 31.6289L56.7222 34.4789C56.9936 34.7508 57.0752 35.1594 56.9282 35.5143C56.7811 35.8692 56.4346 36.1006 56.0505 36.1006Z" fill="#DD3E46"/>
<path d="M24.6997 50.3501H32.2997V56.0501H24.6997V50.3501Z" fill="#394D5C"/>
<path d="M22.8001 28.5001C22.2755 28.5001 21.8501 28.0747 21.8501 27.5501C21.8533 24.4032 24.4032 21.8533 27.5501 21.8501C28.0747 21.8501 28.5001 22.2755 28.5001 22.8001C28.5001 23.3247 28.0747 23.7501 27.5501 23.7501C25.4516 23.7501 23.7501 25.4516 23.7501 27.5501C23.7501 28.0747 23.3247 28.5001 22.8001 28.5001Z" fill="white"/>
</g>
<defs>
<clipPath id="clip0_351_1627">
<rect width="57" height="57" fill="white"/>
</clipPath>
</defs>
</svg>
