<svg width="82" height="82" viewBox="0 0 82 82" fill="none" xmlns="http://www.w3.org/2000/svg">
<g opacity="0.8">
<path d="M21.7812 0C20.4534 0 19.3789 1.07449 19.3789 2.40234C19.3789 3.7302 20.4534 4.80469 21.7812 4.80469C23.7401 4.80469 26.5859 9.48509 26.5859 16.8164C26.5859 24.1477 23.7401 28.8281 21.7812 28.8281C20.4534 28.8281 19.3789 29.9026 19.3789 31.2305C19.3789 32.5583 20.4534 33.6328 21.7812 33.6328C33.5138 33.6328 41 38.0605 41 41C41 43.9395 33.5138 48.3672 21.7812 48.3672C20.4534 48.3672 19.3789 49.4417 19.3789 50.7695C19.3789 52.0974 20.4534 53.1719 21.7812 53.1719C23.7401 53.1719 26.5859 57.8523 26.5859 65.1836C26.5859 72.5149 23.7401 77.1953 21.7812 77.1953C20.4534 77.1953 19.3789 78.2698 19.3789 79.5977C19.3789 80.9255 20.4534 82 21.7812 82C48.2751 82 69.8281 63.5196 69.8281 41C69.8281 18.4804 48.2751 0 21.7812 0Z" fill="url(#paint0_linear_284_795)"/>
<path d="M21.7812 33.6328C27.2592 33.6328 31.3906 26.4024 31.3906 16.8164C31.3906 7.23041 27.2592 0 21.7812 0C16.3033 0 12.1719 7.23041 12.1719 16.8164C12.1719 26.4024 16.3033 33.6328 21.7812 33.6328ZM21.7812 48.3672C16.3033 48.3672 12.1719 55.5976 12.1719 65.1836C12.1719 74.7696 16.3033 82 21.7812 82C27.2592 82 31.3906 74.7696 31.3906 65.1836C31.3906 55.5976 27.2592 48.3672 21.7812 48.3672Z" fill="url(#paint1_linear_284_795)"/>
</g>
<defs>
<linearGradient id="paint0_linear_284_795" x1="44.6035" y1="82" x2="44.6035" y2="0" gradientUnits="userSpaceOnUse">
<stop stop-color="#A93AFF"/>
<stop offset="1" stop-color="#FF81FF"/>
</linearGradient>
<linearGradient id="paint1_linear_284_795" x1="21.7812" y1="82" x2="21.7812" y2="0" gradientUnits="userSpaceOnUse">
<stop stop-color="#FFBEF9"/>
<stop offset="1" stop-color="#FFF1FF"/>
</linearGradient>
</defs>
</svg>
