<svg width="139" height="139" viewBox="0 0 139 139" fill="none" xmlns="http://www.w3.org/2000/svg">
<g opacity="0.8" clip-path="url(#clip0_284_811)">
<path d="M85.1848 116.27L92.421 47.5674C92.5923 45.9798 91.4386 44.5519 89.8477 44.3712C88.2562 44.2005 86.8261 45.3524 86.6514 46.9445L79.4152 115.648C79.3682 116.091 79.4268 116.522 79.5661 116.917C79.3687 116.548 79.091 116.214 78.7314 115.949L22.3972 74.4052C22.0376 74.14 21.6371 73.9734 21.2262 73.8941C21.6448 73.9102 22.073 73.8391 22.4836 73.6628L85.9811 46.4502C87.4506 45.8129 88.1285 44.1062 87.4952 42.6363C86.8591 41.1747 85.1519 40.4928 83.6813 41.1222L20.1836 68.3348C18.7141 68.9721 18.0362 70.6788 18.6695 72.1487C19.0636 73.0565 19.8638 73.6594 20.7643 73.8408C19.8453 73.8134 18.9291 74.2213 18.3415 75.018C17.39 76.3083 17.6641 78.1223 18.9543 79.0738L75.2885 120.618C76.5788 121.569 78.3928 121.295 79.3443 120.005C79.9318 119.208 80.0507 118.212 79.7528 117.342C80.1916 118.148 81.0031 118.735 81.9883 118.844C83.5799 119.015 85.0102 117.863 85.1848 116.27Z" fill="url(#paint0_linear_284_811)"/>
<path d="M21.1715 66.2937C17.3099 63.446 11.852 64.2707 9.00428 68.1323C6.15656 71.9938 6.9813 77.4518 10.8428 80.2995C14.7044 83.1472 20.1623 82.3225 23.01 78.4609C25.8577 74.5994 25.033 69.1415 21.1715 66.2937ZM95.3217 34.4857C91.4602 31.638 86.0022 32.4627 83.1545 36.3242C80.3068 40.1858 81.1315 45.6437 84.9931 48.4914C88.8546 51.3391 94.3125 50.5144 97.1603 46.6529C100.008 42.7913 99.1832 37.3334 95.3217 34.4857ZM86.8428 114.724C82.9813 111.876 77.5234 112.701 74.6757 116.562C71.8279 120.424 72.6527 125.882 76.5142 128.729C80.3757 131.577 85.8337 130.752 88.6814 126.891C91.5291 123.029 90.7044 117.571 86.8428 114.724Z" fill="url(#paint1_linear_284_811)"/>
</g>
<defs>
<linearGradient id="paint0_linear_284_811" x1="47.1214" y1="99.8458" x2="88.9032" y2="43.1893" gradientUnits="userSpaceOnUse">
<stop stop-color="#FFBEF9"/>
<stop offset="1" stop-color="#FFF1FF"/>
</linearGradient>
<linearGradient id="paint1_linear_284_811" x1="43.6785" y1="104.514" x2="95.3217" y2="34.4857" gradientUnits="userSpaceOnUse">
<stop stop-color="#A93AFF"/>
<stop offset="1" stop-color="#FF81FF"/>
</linearGradient>
<clipPath id="clip0_284_811">
<rect width="99" height="99" fill="white" transform="translate(59.0408 0.282227) rotate(36.4072)"/>
</clipPath>
</defs>
</svg>
