<svg width="108" height="151" viewBox="0 0 108 151" fill="none" xmlns="http://www.w3.org/2000/svg">
<g clip-path="url(#clip0_288_1638)">
<path d="M135.08 114.433C134.281 113.832 133.341 113.549 132.409 113.553C132.969 112.812 133.305 111.892 133.305 110.891C133.305 110.154 133.123 109.462 132.805 108.851C133.462 108.644 134.08 108.284 134.601 107.763C136.329 106.035 136.329 103.235 134.601 101.507L49.4926 16.3991C47.7647 14.6712 44.965 14.6712 43.237 16.3991C41.5091 18.1271 41.5091 20.9268 43.237 22.6547L127.049 106.467H22.1191C19.6739 106.467 17.6953 108.445 17.6953 110.891C17.6953 111.893 18.0315 112.814 18.5925 113.555C17.6614 113.551 16.7215 113.834 15.9199 114.433C13.9672 115.902 13.5741 118.676 15.0387 120.628C29.3987 139.74 51.6225 151 75.5 151C99.3775 151 121.601 139.74 135.962 120.628C137.426 118.675 137.033 115.902 135.08 114.433ZM128.885 115.314C116.214 132.185 96.5692 142.152 75.5 142.152C54.4308 142.152 34.7857 132.185 22.1147 115.314C22.1147 115.314 22.1147 115.314 22.1144 115.314C22.1159 115.314 22.1174 115.314 22.1188 115.314H128.881C128.882 115.314 128.884 115.314 128.885 115.314ZM75.5 0C65.4774 0 55.7441 1.9397 46.5679 5.76749C44.3129 6.70918 43.2456 9.29712 44.1876 11.5521C45.1295 13.8071 47.7172 14.8744 49.9722 13.9324C58.0639 10.5585 66.6523 8.84766 75.5 8.84766C112.092 8.84766 142.152 38.9085 142.152 75.5C142.152 84.3477 140.441 92.9361 137.068 101.028C136.126 103.283 137.193 105.871 139.448 106.812C141.678 107.746 144.285 106.704 145.233 104.432C149.06 95.2559 151 85.5226 151 75.5C151 34.031 116.969 0 75.5 0ZM19.8683 103.516L42.0491 22.9703C42.6929 20.6159 41.3017 18.1837 38.943 17.5399C38.3915 17.3865 37.8335 17.3511 37.2935 17.4116C37.1507 16.8875 36.9124 16.3803 36.5668 15.9196C35.1066 13.9713 32.3287 13.5823 30.3716 15.0384C11.2595 29.3987 0 51.6225 0 75.5C0 85.5226 1.9397 95.2559 5.76749 104.432C6.71714 106.708 9.32336 107.746 11.5521 106.812C12.0874 106.589 12.5531 106.27 12.9435 105.888C13.3788 106.215 13.8802 106.47 14.4379 106.623C16.7215 107.257 19.2124 105.929 19.8683 103.516ZM12.4522 97.1237C10.0618 90.1927 8.84766 82.9385 8.84766 75.5C8.84766 55.8485 17.5216 37.4386 32.3774 24.7684L12.4522 97.1237Z" fill="url(#paint0_linear_288_1638)"/>
<path d="M40.1094 0C32.7912 0 26.8379 5.95329 26.8379 13.2715C26.8379 20.5897 32.7912 26.543 40.1094 26.543C47.4276 26.543 53.3809 20.5897 53.3809 13.2715C53.3809 5.95329 47.4276 0 40.1094 0ZM137.729 97.6191C130.41 97.6191 124.457 103.572 124.457 110.891C124.457 118.209 130.41 124.162 137.729 124.162C145.047 124.162 151 118.209 151 110.891C151 103.572 145.047 97.6191 137.729 97.6191ZM13.2715 97.6191C5.95329 97.6191 0 103.572 0 110.891C0 118.209 5.95329 124.162 13.2715 124.162C20.5897 124.162 26.543 118.209 26.543 110.891C26.543 103.572 20.5897 97.6191 13.2715 97.6191Z" fill="url(#paint1_linear_288_1638)"/>
</g>
<defs>
<linearGradient id="paint0_linear_288_1638" x1="75.5" y1="151" x2="75.5" y2="0" gradientUnits="userSpaceOnUse">
<stop stop-color="#FFBEF9"/>
<stop offset="1" stop-color="#FFF1FF"/>
</linearGradient>
<linearGradient id="paint1_linear_288_1638" x1="75.5" y1="124.162" x2="75.5" y2="0" gradientUnits="userSpaceOnUse">
<stop stop-color="#A93AFF"/>
<stop offset="1" stop-color="#FF81FF"/>
</linearGradient>
<clipPath id="clip0_288_1638">
<rect width="151" height="151" fill="white"/>
</clipPath>
</defs>
</svg>
