<svg width="230" height="230" viewBox="0 0 230 230" fill="none" xmlns="http://www.w3.org/2000/svg">
<g opacity="0.8" clip-path="url(#clip0_284_803)">
<path d="M90.1354 98.1747C91.9427 96.2531 91.8492 93.23 89.9274 91.4224C88.0055 89.6148 84.9789 89.6814 83.175 91.6304C61.5279 114.645 57.359 149.929 73.3929 177.154C74.7316 179.427 77.6597 180.185 79.9328 178.847C82.1958 177.514 82.9668 174.585 81.626 172.307C67.7276 148.718 71.3736 118.114 90.1354 98.1747ZM184.692 88.2262C161.677 66.579 126.343 62.8576 99.1187 78.8915C96.85 80.2506 96.0928 83.1657 97.4255 85.4314C98.7641 87.7046 101.692 88.4632 103.965 87.1246C127.554 73.2261 158.208 76.4247 178.147 95.1865C180.083 97.0071 183.107 96.8843 184.899 94.9784C186.707 93.0568 186.613 90.0335 184.692 88.2262ZM177.449 100.961L87.4129 172.9C85.3508 174.548 85.0154 177.549 86.663 179.612C88.3106 181.674 91.3125 182.009 93.3746 180.361L183.411 108.423C185.473 106.775 185.808 103.773 184.161 101.711C182.513 99.6492 179.511 99.3138 177.449 100.961Z" fill="url(#paint0_linear_284_803)"/>
<path d="M73.9896 171.4C67.8179 176.331 66.8087 185.363 71.7399 191.535C76.6711 197.707 85.7032 198.716 91.8749 193.785C98.0466 188.854 99.0557 179.821 94.1246 173.65C89.1934 167.478 80.1613 166.469 73.9896 171.4ZM178.949 87.538C172.777 92.4692 171.768 101.501 176.699 107.673C181.63 113.845 190.662 114.854 196.834 109.923C203.006 104.992 204.015 95.9594 199.084 89.7877C194.153 83.616 185.121 82.6069 178.949 87.538ZM84.7369 77.2381C78.5652 82.1693 77.556 91.2014 82.4872 97.3731C87.4184 103.545 96.4505 104.554 102.622 99.6228C108.794 94.6917 109.803 85.6596 104.872 79.4878C99.9407 73.3161 90.9086 72.307 84.7369 77.2381Z" fill="url(#paint1_linear_284_803)"/>
</g>
<defs>
<linearGradient id="paint0_linear_284_803" x1="138.393" y1="144.392" x2="91.1134" y2="85.2188" gradientUnits="userSpaceOnUse">
<stop stop-color="#FFBEF9"/>
<stop offset="1" stop-color="#FFF1FF"/>
</linearGradient>
<linearGradient id="paint1_linear_284_803" x1="144.354" y1="151.854" x2="84.7369" y2="77.2381" gradientUnits="userSpaceOnUse">
<stop stop-color="#A93AFF"/>
<stop offset="1" stop-color="#FF81FF"/>
</linearGradient>
<clipPath id="clip0_284_803">
<rect width="163" height="163" fill="white" transform="translate(0 101.748) rotate(-38.6247)"/>
</clipPath>
</defs>
</svg>
