<svg width="106" height="106" viewBox="0 0 106 106" fill="none" xmlns="http://www.w3.org/2000/svg">
<g clip-path="url(#clip0_288_1699)">
<path d="M94.8247 80.3306C94.2632 79.9085 93.6034 79.7097 92.9496 79.7128C93.3425 79.1926 93.5783 78.5468 93.5783 77.8438C93.5783 77.3268 93.4504 76.8407 93.2274 76.4121C93.6883 76.2668 94.1226 76.0136 94.488 75.6482C95.701 74.4352 95.701 72.4698 94.488 71.2568L34.7432 11.512C33.5302 10.299 31.5648 10.299 30.3518 11.512C29.1388 12.725 29.1388 14.6903 30.3518 15.9033L89.1868 74.7383H15.5273C13.8108 74.7383 12.4219 76.1273 12.4219 77.8438C12.4219 78.5472 12.6579 79.1936 13.0517 79.7141C12.3981 79.7112 11.7383 79.9097 11.1755 80.3306C9.80479 81.3616 9.52882 83.3088 10.5569 84.6795C20.6375 98.096 36.2383 106 53 106C69.7617 106 85.3625 98.096 95.4433 84.6795C96.4714 83.3085 96.1954 81.3616 94.8247 80.3306ZM90.4758 80.9492C81.5809 92.7918 67.7903 99.7891 53 99.7891C38.2097 99.7891 24.4191 92.7918 15.5242 80.9492C15.5242 80.9492 15.5242 80.9492 15.524 80.949C15.5251 80.949 15.5261 80.9492 15.5271 80.9492H90.4725C90.4737 80.9492 90.4747 80.949 90.4758 80.9492ZM53 0C45.9642 0 39.1316 1.36164 32.69 4.0487C31.1071 4.70975 30.3578 6.52645 31.0191 8.10941C31.6803 9.69237 33.4968 10.4416 35.0798 9.78036C40.7601 7.41193 46.7891 6.21094 53 6.21094C78.6868 6.21094 99.7891 27.3132 99.7891 53C99.7891 59.2109 98.5881 65.2399 96.2196 70.9202C95.5586 72.5032 96.3076 74.3199 97.8906 74.9809C99.4559 75.6362 101.286 74.9045 101.951 73.31C104.638 66.8684 106 60.0358 106 53C106 23.8893 82.1107 0 53 0ZM13.9473 72.6669L29.5179 16.1248C29.9698 14.4721 28.9933 12.7647 27.3374 12.3128C26.9503 12.2051 26.5586 12.1803 26.1795 12.2227C26.0793 11.8548 25.912 11.4987 25.6694 11.1753C24.6444 9.80769 22.6944 9.53462 21.3205 10.5567C7.90404 20.6375 0 36.2383 0 53C0 60.0358 1.36164 66.8684 4.0487 73.31C4.71534 74.9074 6.54488 75.636 8.10941 74.9809C8.48518 74.824 8.81208 74.6004 9.08619 74.3319C9.39177 74.5617 9.74372 74.7408 10.1352 74.8476C11.7383 75.2927 13.4868 74.3607 13.9473 72.6669ZM8.74127 68.1795C7.06329 63.3141 6.21094 58.2217 6.21094 53C6.21094 39.2049 12.2999 26.2814 22.7285 17.3871L8.74127 68.1795Z" fill="url(#paint0_linear_288_1699)"/>
<path d="M28.1562 0C23.019 0 18.8398 4.17913 18.8398 9.31641C18.8398 14.4537 23.019 18.6328 28.1562 18.6328C33.2935 18.6328 37.4727 14.4537 37.4727 9.31641C37.4727 4.17913 33.2935 0 28.1562 0ZM96.6836 68.5273C91.5463 68.5273 87.3672 72.7065 87.3672 77.8438C87.3672 82.981 91.5463 87.1602 96.6836 87.1602C101.821 87.1602 106 82.981 106 77.8438C106 72.7065 101.821 68.5273 96.6836 68.5273ZM9.31641 68.5273C4.17913 68.5273 0 72.7065 0 77.8438C0 82.981 4.17913 87.1602 9.31641 87.1602C14.4537 87.1602 18.6328 82.981 18.6328 77.8438C18.6328 72.7065 14.4537 68.5273 9.31641 68.5273Z" fill="url(#paint1_linear_288_1699)"/>
</g>
<defs>
<linearGradient id="paint0_linear_288_1699" x1="53" y1="106" x2="53" y2="0" gradientUnits="userSpaceOnUse">
<stop stop-color="#FFBEF9"/>
<stop offset="1" stop-color="#FFF1FF"/>
</linearGradient>
<linearGradient id="paint1_linear_288_1699" x1="53" y1="87.1602" x2="53" y2="0" gradientUnits="userSpaceOnUse">
<stop stop-color="#A93AFF"/>
<stop offset="1" stop-color="#FF81FF"/>
</linearGradient>
<clipPath id="clip0_288_1699">
<rect width="106" height="106" fill="white"/>
</clipPath>
</defs>
</svg>
