<svg width="111" height="111" viewBox="0 0 111 111" fill="none" xmlns="http://www.w3.org/2000/svg">
<g opacity="0.8" clip-path="url(#clip0_284_787)">
<path d="M7.17407 29.2666V81.7323C7.17407 82.8945 7.79325 83.9679 8.80007 84.5491L53.8739 110.565C54.8816 111.146 56.1196 111.145 57.1259 110.565L102.2 84.5491C103.207 83.9679 103.826 82.8945 103.826 81.7323V29.2666H7.17407Z" fill="url(#paint0_linear_284_787)"/>
<path d="M102.2 26.4495L57.1259 0.433492C56.1224 -0.144497 54.8775 -0.144497 53.8739 0.433492L8.80007 26.4495C7.79325 27.0308 7.17407 28.1041 7.17407 29.2664C7.17407 30.4287 7.79325 31.5021 8.80007 32.0833L53.8739 58.0993C54.8816 58.6797 56.1196 58.6791 57.1259 58.0993L102.2 32.0833C103.207 31.5021 103.826 30.4287 103.826 29.2664C103.826 28.1041 103.207 27.0305 102.2 26.4495Z" fill="url(#paint1_linear_284_787)"/>
</g>
<defs>
<linearGradient id="paint0_linear_284_787" x1="55.4999" y1="111" x2="55.4999" y2="29.2666" gradientUnits="userSpaceOnUse">
<stop stop-color="#A93AFF"/>
<stop offset="1" stop-color="#FF81FF"/>
</linearGradient>
<linearGradient id="paint1_linear_284_787" x1="55.4999" y1="58.5344" x2="55.4999" y2="-0.000108157" gradientUnits="userSpaceOnUse">
<stop stop-color="#FFBEF9"/>
<stop offset="1" stop-color="#FFF1FF"/>
</linearGradient>
<clipPath id="clip0_284_787">
<rect width="111" height="111" fill="white"/>
</clipPath>
</defs>
</svg>
