<svg width="776" height="626" viewBox="0 0 776 626" fill="none" xmlns="http://www.w3.org/2000/svg">
<g opacity="0.11" clip-path="url(#clip0_222_1399)">
<path d="M369.439 408.995V545.71C369.439 554.415 366.11 562.863 360.094 569.264C346.141 584.113 332.06 599.09 318.107 613.94C310.938 621.492 300.953 625.46 290.584 624.692C251.157 621.876 162.83 607.539 88.5836 534.061C30.7228 476.968 8.96104 411.043 0.640352 368.031C-3.45599 346.782 12.8014 327.068 34.4351 327.068H287.384C296.473 327.068 305.305 330.652 311.706 337.181L359.326 384.801C365.726 391.201 369.439 400.034 369.439 409.123V408.995Z" fill="#5B45AB"/>
<path d="M369.439 79.8798V216.595C369.439 225.684 365.854 234.389 359.326 240.917C343.453 256.79 327.579 272.664 311.706 288.665C305.305 295.194 296.473 298.778 287.384 298.778H34.4351C12.8014 298.778 -3.45599 279.064 0.640352 257.814C8.96104 214.675 30.7228 148.75 88.5836 91.5288C162.83 17.9227 251.157 3.71357 290.584 0.769329C300.953 0.00126624 310.938 3.96959 318.107 11.5222C332.188 26.3714 346.141 41.3487 360.222 56.3259C366.238 62.7264 369.567 71.1751 369.567 79.8798H369.439Z" fill="#A576FF"/>
<path d="M776.002 82.1833V218.899C776.002 227.603 772.674 236.052 766.786 242.452C752.577 257.558 738.367 272.663 724.158 287.768C717.63 294.681 708.669 298.649 699.068 298.649H480.426C470.953 298.649 461.865 294.681 455.336 287.896C441.127 272.791 426.79 257.686 412.709 242.452C406.692 236.052 403.364 227.603 403.364 218.899V82.0553C403.364 72.9665 406.948 64.2618 413.477 57.7332C429.35 41.8599 445.223 25.9866 461.097 9.98531C467.497 3.71279 476.33 0.000488281 485.419 0.000488281H693.948C703.036 0.000488281 711.869 3.71279 718.27 10.1133C734.143 26.1146 750.016 41.8599 765.89 57.7332C772.29 64.1338 776.002 72.9665 776.002 82.0553V82.1833Z" fill="#A576FF"/>
<path d="M776.002 557.615V406.69C776.002 397.985 772.674 389.537 766.657 383.136C752.704 368.159 738.623 353.31 724.542 338.332C717.501 330.908 707.517 326.811 697.276 327.58C674.106 329.244 633.911 334.876 589.619 354.206C558.64 367.775 525.614 387.872 495.019 418.211C453.032 459.814 429.99 506.154 417.445 544.941C413.476 557.358 416.549 570.928 425.765 580.144C437.542 591.921 449.319 603.698 460.968 615.475C467.369 622.004 476.202 625.588 485.29 625.588H693.691C702.78 625.588 711.613 621.876 718.013 615.475C734.527 598.834 751.04 582.321 767.682 565.807C770.37 563.119 773.058 560.431 775.746 557.742L776.002 557.615Z" fill="#5B45AB"/>
</g>
<defs>
<clipPath id="clip0_222_1399">
<rect width="776" height="625.588" fill="white"/>
</clipPath>
</defs>
</svg>
