<svg width="1440" height="438" viewBox="0 0 1440 438" fill="none" xmlns="http://www.w3.org/2000/svg">
<mask id="path-1-inside-1_222_1622" fill="white">
<path fill-rule="evenodd" clip-rule="evenodd" d="M1317.35 235.196C1327.48 233.918 1335.77 227.733 1340.14 219.329C1346.33 224.454 1354.54 227.11 1363.12 226.028L1730.25 179.727C1739.82 178.52 1747.74 172.935 1752.27 165.237C1758.37 169.97 1766.27 172.379 1774.51 171.339L1802.69 167.784C1812.82 166.507 1821.11 160.322 1825.48 151.918C1831.67 157.043 1839.88 159.7 1848.46 158.617L2215.59 112.316C2232.03 110.243 2243.62 95.2434 2241.48 78.8135L2235.86 35.6796C2233.72 19.2498 2218.66 7.61139 2202.23 9.68453L1835.1 55.9853C1824.97 57.2627 1816.68 63.4481 1812.31 71.8519C1806.12 66.7266 1797.91 64.0701 1789.33 65.1527L1761.15 68.7072C1751.58 69.9138 1743.65 75.4993 1739.12 83.197C1733.03 78.4645 1725.13 76.0554 1716.88 77.0952L1349.76 123.396C1339.63 124.673 1331.34 130.859 1326.97 139.263C1320.78 134.138 1312.57 131.481 1303.99 132.564L1275.81 136.118C1266.24 137.325 1258.31 142.91 1253.78 150.608C1247.68 145.876 1239.79 143.467 1231.54 144.506L864.417 190.807C854.288 192.085 846 198.27 841.63 206.674C835.441 201.548 827.232 198.892 818.648 199.975L790.464 203.529C780.897 204.736 772.971 210.321 768.439 218.019C762.344 213.286 754.447 210.877 746.202 211.917L379.076 258.218C368.947 259.495 360.659 265.681 356.289 274.084C350.1 268.959 341.892 266.303 333.307 267.385L305.124 270.94C294.146 272.324 285.33 279.473 281.321 288.963C274.949 282.39 265.672 278.784 255.909 280.016L-111.217 326.316C-127.655 328.39 -139.247 343.389 -137.108 359.819L-131.491 402.953C-129.351 419.383 -114.291 431.021 -97.8529 428.948L269.273 382.647C280.25 381.263 289.066 374.114 293.075 364.624C299.448 371.197 308.725 374.803 318.488 373.571L346.672 370.017C356.801 368.739 365.089 362.554 369.459 354.15C375.648 359.276 383.856 361.932 392.441 360.849L759.567 314.549C769.134 313.342 777.06 307.757 781.592 300.059C787.687 304.791 795.584 307.2 803.828 306.161L832.012 302.606C842.141 301.329 850.43 295.143 854.8 286.74C860.989 291.865 869.197 294.521 877.782 293.439L1244.91 247.138C1254.47 245.931 1262.4 240.346 1266.93 232.648C1273.03 237.381 1280.93 239.79 1289.17 238.75L1317.35 235.196Z"/>
</mask>
<path fill-rule="evenodd" clip-rule="evenodd" d="M1317.35 235.196C1327.48 233.918 1335.77 227.733 1340.14 219.329C1346.33 224.454 1354.54 227.11 1363.12 226.028L1730.25 179.727C1739.82 178.52 1747.74 172.935 1752.27 165.237C1758.37 169.97 1766.27 172.379 1774.51 171.339L1802.69 167.784C1812.82 166.507 1821.11 160.322 1825.48 151.918C1831.67 157.043 1839.88 159.7 1848.46 158.617L2215.59 112.316C2232.03 110.243 2243.62 95.2434 2241.48 78.8135L2235.86 35.6796C2233.72 19.2498 2218.66 7.61139 2202.23 9.68453L1835.1 55.9853C1824.97 57.2627 1816.68 63.4481 1812.31 71.8519C1806.12 66.7266 1797.91 64.0701 1789.33 65.1527L1761.15 68.7072C1751.58 69.9138 1743.65 75.4993 1739.12 83.197C1733.03 78.4645 1725.13 76.0554 1716.88 77.0952L1349.76 123.396C1339.63 124.673 1331.34 130.859 1326.97 139.263C1320.78 134.138 1312.57 131.481 1303.99 132.564L1275.81 136.118C1266.24 137.325 1258.31 142.91 1253.78 150.608C1247.68 145.876 1239.79 143.467 1231.54 144.506L864.417 190.807C854.288 192.085 846 198.27 841.63 206.674C835.441 201.548 827.232 198.892 818.648 199.975L790.464 203.529C780.897 204.736 772.971 210.321 768.439 218.019C762.344 213.286 754.447 210.877 746.202 211.917L379.076 258.218C368.947 259.495 360.659 265.681 356.289 274.084C350.1 268.959 341.892 266.303 333.307 267.385L305.124 270.94C294.146 272.324 285.33 279.473 281.321 288.963C274.949 282.39 265.672 278.784 255.909 280.016L-111.217 326.316C-127.655 328.39 -139.247 343.389 -137.108 359.819L-131.491 402.953C-129.351 419.383 -114.291 431.021 -97.8529 428.948L269.273 382.647C280.25 381.263 289.066 374.114 293.075 364.624C299.448 371.197 308.725 374.803 318.488 373.571L346.672 370.017C356.801 368.739 365.089 362.554 369.459 354.15C375.648 359.276 383.856 361.932 392.441 360.849L759.567 314.549C769.134 313.342 777.06 307.757 781.592 300.059C787.687 304.791 795.584 307.2 803.828 306.161L832.012 302.606C842.141 301.329 850.43 295.143 854.8 286.74C860.989 291.865 869.197 294.521 877.782 293.439L1244.91 247.138C1254.47 245.931 1262.4 240.346 1266.93 232.648C1273.03 237.381 1280.93 239.79 1289.17 238.75L1317.35 235.196Z" fill="#211A41"/>
<path d="M1340.14 219.329L1341.42 217.788L1339.51 216.209L1338.37 218.406L1340.14 219.329ZM1317.35 235.196L1317.6 237.18L1317.35 235.196ZM1363.12 226.028L1363.37 228.012L1363.12 226.028ZM1730.25 179.727L1730.5 181.711L1730.25 179.727ZM1752.27 165.237L1753.5 163.657L1751.7 162.263L1750.55 164.222L1752.27 165.237ZM1774.51 171.339L1774.76 173.323L1774.51 171.339ZM1802.69 167.784L1802.44 165.8L1802.69 167.784ZM1825.48 151.918L1826.76 150.377L1824.85 148.798L1823.71 150.995L1825.48 151.918ZM1848.46 158.617L1848.21 156.633L1848.46 158.617ZM2215.59 112.316L2215.34 110.332L2215.59 112.316ZM2241.48 78.8135L2239.5 79.0718L2239.5 79.0718L2241.48 78.8135ZM2235.86 35.6796L2237.85 35.4213L2237.85 35.4213L2235.86 35.6796ZM2202.23 9.68453L2201.97 7.70024L2202.23 9.68453ZM1835.1 55.9853L1834.85 54.001L1835.1 55.9853ZM1812.31 71.8519L1811.04 73.3923L1812.94 74.972L1814.09 72.7747L1812.31 71.8519ZM1789.33 65.1527L1789.58 67.137L1789.33 65.1527ZM1761.15 68.7072L1761.4 70.6915L1761.15 68.7072ZM1739.12 83.197L1737.89 84.7767L1739.69 86.1714L1740.84 84.2117L1739.12 83.197ZM1716.88 77.0952L1716.63 75.1109L1716.88 77.0952ZM1349.76 123.396L1350.01 125.38L1349.76 123.396ZM1326.97 139.263L1325.69 140.803L1327.6 142.383L1328.74 140.186L1326.97 139.263ZM1303.99 132.564L1304.24 134.548L1303.99 132.564ZM1275.81 136.118L1276.06 138.103L1275.81 136.118ZM1253.78 150.608L1252.55 152.188L1254.35 153.583L1255.5 151.623L1253.78 150.608ZM1231.54 144.506L1231.29 142.522L1231.54 144.506ZM864.417 190.807L864.668 192.791L864.417 190.807ZM841.63 206.674L840.354 208.214L842.261 209.794L843.404 207.596L841.63 206.674ZM818.648 199.975L818.398 197.99L818.648 199.975ZM790.464 203.529L790.715 205.513L790.464 203.529ZM768.439 218.019L767.212 219.599L769.009 220.993L770.162 219.034L768.439 218.019ZM746.202 211.917L746.453 213.901L746.202 211.917ZM379.076 258.218L378.826 256.233L379.076 258.218ZM356.289 274.084L355.013 275.625L356.92 277.204L358.063 275.007L356.289 274.084ZM333.307 267.385L333.558 269.369L333.307 267.385ZM305.124 270.94L304.873 268.955L305.124 270.94ZM281.321 288.963L279.885 290.355L281.988 292.524L283.164 289.741L281.321 288.963ZM255.909 280.016L255.659 278.031L255.909 280.016ZM-111.217 326.316L-111.467 324.332L-111.217 326.316ZM-137.108 359.819L-135.124 359.561L-137.108 359.819ZM-131.491 402.953L-133.474 403.211L-131.491 402.953ZM-97.8529 428.948L-98.1032 426.964L-97.8529 428.948ZM269.273 382.647L269.023 380.663L269.273 382.647ZM293.075 364.624L294.511 363.232L292.408 361.063L291.233 363.846L293.075 364.624ZM318.488 373.571L318.738 375.556L318.488 373.571ZM346.672 370.017L346.421 368.033L346.672 370.017ZM369.459 354.15L370.735 352.61L368.828 351.03L367.685 353.228L369.459 354.15ZM392.441 360.849L392.691 362.834L392.441 360.849ZM759.567 314.549L759.817 316.533L759.567 314.549ZM781.592 300.059L782.818 298.479L781.022 297.084L779.868 299.044L781.592 300.059ZM803.828 306.161L803.578 304.176L803.828 306.161ZM832.012 302.606L832.263 304.59L832.012 302.606ZM854.8 286.74L856.076 285.199L854.169 283.62L853.026 285.817L854.8 286.74ZM877.782 293.439L877.531 291.454L877.782 293.439ZM1244.91 247.138L1245.16 249.122L1244.91 247.138ZM1266.93 232.648L1268.16 231.069L1266.36 229.674L1265.21 231.634L1266.93 232.648ZM1289.17 238.75L1288.92 236.766L1289.17 238.75ZM1338.37 218.406C1334.29 226.251 1326.55 232.019 1317.1 233.211L1317.6 237.18C1328.41 235.817 1337.26 229.214 1341.92 220.251L1338.37 218.406ZM1362.87 224.043C1354.86 225.054 1347.2 222.577 1341.42 217.788L1338.87 220.869C1345.46 226.331 1354.22 229.167 1363.37 228.012L1362.87 224.043ZM1730 177.743L1362.87 224.043L1363.37 228.012L1730.5 181.711L1730 177.743ZM1750.55 164.222C1746.32 171.408 1738.93 176.617 1730 177.743L1730.5 181.711C1740.71 180.424 1749.16 174.462 1754 166.252L1750.55 164.222ZM1774.26 169.355C1766.56 170.325 1759.19 168.079 1753.5 163.657L1751.05 166.817C1757.54 171.861 1765.97 174.432 1774.76 173.323L1774.26 169.355ZM1802.44 165.8L1774.26 169.355L1774.76 173.323L1802.94 169.769L1802.44 165.8ZM1823.71 150.995C1819.63 158.84 1811.9 164.608 1802.44 165.8L1802.94 169.769C1813.75 168.406 1822.6 161.803 1827.26 152.84L1823.71 150.995ZM1848.21 156.633C1840.2 157.643 1832.54 155.166 1826.76 150.377L1824.21 153.458C1830.8 158.92 1839.56 161.756 1848.71 160.601L1848.21 156.633ZM2215.34 110.332L1848.21 156.633L1848.71 160.601L2215.84 114.3L2215.34 110.332ZM2239.5 79.0718C2241.49 94.4032 2230.68 108.397 2215.34 110.332L2215.84 114.3C2233.38 112.089 2245.75 96.0836 2243.46 78.5553L2239.5 79.0718ZM2233.88 35.9379L2239.5 79.0718L2243.46 78.5553L2237.85 35.4213L2233.88 35.9379ZM2202.48 11.6688C2217.82 9.73349 2231.88 20.6002 2233.88 35.9379L2237.85 35.4213C2235.56 17.8993 2219.51 5.48929 2201.97 7.70024L2202.48 11.6688ZM1835.35 57.9695L2202.48 11.6688L2201.97 7.70024L1834.85 54.001L1835.35 57.9695ZM1814.09 72.7747C1818.16 64.9299 1825.9 59.1615 1835.35 57.9695L1834.85 54.001C1824.04 55.3639 1815.2 61.9664 1810.54 70.9292L1814.09 72.7747ZM1789.58 67.137C1797.59 66.1265 1805.25 68.6038 1811.04 73.3923L1813.59 70.3116C1806.99 64.8495 1798.24 62.0137 1789.08 63.1685L1789.58 67.137ZM1761.4 70.6915L1789.58 67.137L1789.08 63.1685L1760.9 66.7229L1761.4 70.6915ZM1740.84 84.2117C1745.07 77.0262 1752.47 71.8175 1761.4 70.6915L1760.9 66.7229C1750.69 68.0102 1742.23 73.9724 1737.4 82.1822L1740.84 84.2117ZM1717.13 79.0794C1724.83 78.1089 1732.2 80.3555 1737.89 84.7767L1740.35 81.6173C1733.85 76.5734 1725.43 74.0019 1716.63 75.1109L1717.13 79.0794ZM1350.01 125.38L1717.13 79.0794L1716.63 75.1109L1349.51 121.412L1350.01 125.38ZM1328.74 140.186C1332.82 132.341 1340.56 126.572 1350.01 125.38L1349.51 121.412C1338.7 122.775 1329.86 129.377 1325.2 138.34L1328.74 140.186ZM1304.24 134.548C1312.25 133.538 1319.91 136.015 1325.69 140.803L1328.25 137.723C1321.65 132.261 1312.89 129.425 1303.74 130.58L1304.24 134.548ZM1276.06 138.103L1304.24 134.548L1303.74 130.58L1275.55 134.134L1276.06 138.103ZM1255.5 151.623C1259.73 144.437 1267.13 139.229 1276.06 138.103L1275.55 134.134C1265.35 135.421 1256.89 141.384 1252.06 149.593L1255.5 151.623ZM1231.79 146.491C1239.49 145.52 1246.86 147.767 1252.55 152.188L1255.01 149.028C1248.51 143.985 1240.09 141.413 1231.29 142.522L1231.79 146.491ZM864.668 192.791L1231.79 146.491L1231.29 142.522L864.167 188.823L864.668 192.791ZM843.404 207.596C847.483 199.752 855.216 193.983 864.668 192.791L864.167 188.823C853.361 190.186 844.516 196.788 839.855 205.751L843.404 207.596ZM818.898 201.959C826.911 200.948 834.572 203.426 840.354 208.214L842.905 205.133C836.31 199.671 827.554 196.836 818.398 197.99L818.898 201.959ZM790.715 205.513L818.898 201.959L818.398 197.99L790.214 201.545L790.715 205.513ZM770.162 219.034C774.393 211.848 781.786 206.639 790.715 205.513L790.214 201.545C780.007 202.832 771.549 208.794 766.715 217.004L770.162 219.034ZM746.453 213.901C754.148 212.931 761.518 215.177 767.212 219.599L769.666 216.439C763.17 211.395 754.745 208.824 745.952 209.933L746.453 213.901ZM379.327 260.202L746.453 213.901L745.952 209.933L378.826 256.233L379.327 260.202ZM358.063 275.007C362.142 267.162 369.875 261.394 379.327 260.202L378.826 256.233C368.02 257.596 359.175 264.199 354.514 273.161L358.063 275.007ZM333.558 269.369C341.57 268.359 349.231 270.836 355.013 275.625L357.564 272.544C350.969 267.082 342.213 264.246 333.057 265.401L333.558 269.369ZM305.374 272.924L333.558 269.369L333.057 265.401L304.873 268.955L305.374 272.924ZM283.164 289.741C286.906 280.883 295.131 274.216 305.374 272.924L304.873 268.955C293.161 270.432 283.755 278.063 279.479 288.184L283.164 289.741ZM256.159 282C265.27 280.851 273.931 284.213 279.885 290.355L282.757 287.571C275.967 280.566 266.073 276.718 255.659 278.031L256.159 282ZM-110.967 328.301L256.159 282L255.659 278.031L-111.467 324.332L-110.967 328.301ZM-135.124 359.561C-137.121 344.229 -126.306 330.235 -110.967 328.301L-111.467 324.332C-129.005 326.544 -141.373 342.549 -139.091 360.077L-135.124 359.561ZM-129.508 402.695L-135.124 359.561L-139.091 360.077L-133.474 403.211L-129.508 402.695ZM-98.1032 426.964C-113.449 428.899 -127.51 418.032 -129.508 402.695L-133.474 403.211C-131.193 420.733 -115.134 433.143 -97.6027 430.932L-98.1032 426.964ZM269.023 380.663L-98.1032 426.964L-97.6027 430.932L269.523 384.632L269.023 380.663ZM291.233 363.846C287.491 372.704 279.265 379.371 269.023 380.663L269.523 384.632C281.236 383.154 290.642 375.524 294.918 365.403L291.233 363.846ZM318.237 371.587C309.126 372.736 300.466 369.374 294.511 363.232L291.639 366.016C298.43 373.02 308.323 376.869 318.738 375.556L318.237 371.587ZM346.421 368.033L318.237 371.587L318.738 375.556L346.922 372.001L346.421 368.033ZM367.685 353.228C363.606 361.072 355.873 366.841 346.421 368.033L346.922 372.001C357.728 370.638 366.573 364.036 371.234 355.073L367.685 353.228ZM392.19 358.865C384.178 359.876 376.517 357.398 370.735 352.61L368.184 355.691C374.779 361.153 383.535 363.988 392.691 362.834L392.19 358.865ZM759.316 312.564L392.19 358.865L392.691 362.834L759.817 316.533L759.316 312.564ZM779.868 299.044C775.638 306.23 768.244 311.438 759.316 312.564L759.817 316.533C770.024 315.246 778.482 309.283 783.315 301.073L779.868 299.044ZM803.578 304.176C795.883 305.147 788.512 302.9 782.818 298.479L780.365 301.638C786.861 306.682 795.286 309.254 804.079 308.145L803.578 304.176ZM831.762 300.622L803.578 304.176L804.079 308.145L832.263 304.59L831.762 300.622ZM853.026 285.817C848.946 293.662 841.214 299.43 831.762 300.622L832.263 304.59C843.069 303.228 851.914 296.625 856.575 287.662L853.026 285.817ZM877.531 291.454C869.519 292.465 861.858 289.988 856.076 285.199L853.525 288.28C860.12 293.742 868.876 296.578 878.032 295.423L877.531 291.454ZM1244.66 245.154L877.531 291.454L878.032 295.423L1245.16 249.122L1244.66 245.154ZM1265.21 231.634C1260.98 238.819 1253.59 244.028 1244.66 245.154L1245.16 249.122C1255.36 247.835 1263.82 241.873 1268.66 233.663L1265.21 231.634ZM1288.92 236.766C1281.22 237.736 1273.85 235.49 1268.16 231.069L1265.71 234.228C1272.2 239.272 1280.63 241.843 1289.42 240.734L1288.92 236.766ZM1317.1 233.211L1288.92 236.766L1289.42 240.734L1317.6 237.18L1317.1 233.211Z" fill="#E4E1EE" fill-opacity="0.4" mask="url(#path-1-inside-1_222_1622)"/>
<path d="M831.8 249C826.9 249 821.9 249 817 249C816.2 246.5 815.4 244 814.6 241.5C814 239.7 813.4 237.8 812.8 236C812.5 235 812.3 233.9 811 233.9C810.4 233.9 809.9 234.2 809.6 234.8C809.2 235.8 808.9 236.9 808.6 238C808.3 239.1 807.9 240.2 807.5 241.3C806.7 243.9 805.8 246.4 805 249C800.1 249 795.1 249 790.2 249C788.6 249 788.3 251 789.4 251.8C793.4 254.7 797.3 257.6 801.3 260.4C799.8 265.1 798.2 269.9 796.7 274.6C796.3 275.8 797.8 277.1 798.9 276.3C802.9 273.4 807 270.4 811 267.5C815 270.4 819.1 273.4 823.1 276.3C824.2 277.1 825.7 275.8 825.3 274.6C823.8 269.9 822.2 265.1 820.7 260.4C824.7 257.5 828.6 254.6 832.6 251.8C833.7 251 833.4 249 831.8 249Z" fill="#FFCB00"/>
<path d="M796.1 244.4C798.3 244.4 800.1 242.6 800.1 240.4C800.1 238.2 798.3 236.4 796.1 236.4C793.9 236.4 792.1 238.2 792.1 240.4C792.1 242.6 793.9 244.4 796.1 244.4Z" fill="#FFCB00"/>
<path d="M825.9 244.4C828.1 244.4 829.9 242.6 829.9 240.4C829.9 238.2 828.1 236.4 825.9 236.4C823.7 236.4 821.9 238.2 821.9 240.4C821.9 242.6 823.6 244.4 825.9 244.4Z" fill="#FFCB00"/>
<path d="M811 270C810.2 270 809.5 270.7 809.5 271.5V276V276.6C809.5 277.4 810.2 278.1 811 278.1C811.8 278.1 812.5 277.4 812.5 276.6C812.5 275.1 812.5 273.6 812.5 272.1C812.5 271.9 812.5 271.7 812.5 271.5C812.5 270.7 811.8 270 811 270Z" fill="#FFCB00"/>
<path d="M345.8 315C340.9 315 335.9 315 331 315C330.2 312.5 329.4 310 328.6 307.5C328 305.7 327.4 303.8 326.8 302C326.5 301 326.3 299.9 325 299.9C324.4 299.9 323.9 300.2 323.6 300.8C323.2 301.8 322.9 302.9 322.6 304C322.3 305.1 321.9 306.2 321.5 307.3C320.7 309.9 319.8 312.4 319 315C314.1 315 309.1 315 304.2 315C302.6 315 302.3 317 303.4 317.8C307.4 320.7 311.3 323.6 315.3 326.4C313.8 331.1 312.2 335.9 310.7 340.6C310.3 341.8 311.8 343.1 312.9 342.3C316.9 339.4 321 336.4 325 333.5C329 336.4 333.1 339.4 337.1 342.3C338.2 343.1 339.7 341.8 339.3 340.6C337.8 335.9 336.2 331.1 334.7 326.4C338.7 323.5 342.6 320.6 346.6 317.8C347.7 317 347.4 315 345.8 315Z" fill="#FFCB00"/>
<path d="M310.1 310.4C312.3 310.4 314.1 308.6 314.1 306.4C314.1 304.2 312.3 302.4 310.1 302.4C307.9 302.4 306.1 304.2 306.1 306.4C306.1 308.6 307.9 310.4 310.1 310.4Z" fill="#FFCB00"/>
<path d="M339.9 310.4C342.1 310.4 343.9 308.6 343.9 306.4C343.9 304.2 342.1 302.4 339.9 302.4C337.7 302.4 335.9 304.2 335.9 306.4C335.9 308.6 337.6 310.4 339.9 310.4Z" fill="#FFCB00"/>
<path d="M325 336C324.2 336 323.5 336.7 323.5 337.5V342V342.6C323.5 343.4 324.2 344.1 325 344.1C325.8 344.1 326.5 343.4 326.5 342.6C326.5 341.1 326.5 339.6 326.5 338.1C326.5 337.9 326.5 337.7 326.5 337.5C326.5 336.7 325.8 336 325 336Z" fill="#FFCB00"/>
<path d="M1323.8 180C1318.9 180 1313.9 180 1309 180C1308.2 177.5 1307.4 175 1306.6 172.5C1306 170.7 1305.4 168.8 1304.8 167C1304.5 166 1304.3 164.9 1303 164.9C1302.4 164.9 1301.9 165.2 1301.6 165.8C1301.2 166.8 1300.9 167.9 1300.6 169C1300.3 170.1 1299.9 171.2 1299.5 172.3C1298.7 174.9 1297.8 177.4 1297 180C1292.1 180 1287.1 180 1282.2 180C1280.6 180 1280.3 182 1281.4 182.8C1285.4 185.7 1289.3 188.6 1293.3 191.4C1291.8 196.1 1290.2 200.9 1288.7 205.6C1288.3 206.8 1289.8 208.1 1290.9 207.3C1294.9 204.4 1299 201.4 1303 198.5C1307 201.4 1311.1 204.4 1315.1 207.3C1316.2 208.1 1317.7 206.8 1317.3 205.6C1315.8 200.9 1314.2 196.1 1312.7 191.4C1316.7 188.5 1320.6 185.6 1324.6 182.8C1325.7 182 1325.4 180 1323.8 180Z" fill="#FFCB00"/>
<path d="M1288.1 175.4C1290.3 175.4 1292.1 173.6 1292.1 171.4C1292.1 169.2 1290.3 167.4 1288.1 167.4C1285.9 167.4 1284.1 169.2 1284.1 171.4C1284.1 173.6 1285.9 175.4 1288.1 175.4Z" fill="#FFCB00"/>
<path d="M1317.9 175.4C1320.1 175.4 1321.9 173.6 1321.9 171.4C1321.9 169.2 1320.1 167.4 1317.9 167.4C1315.7 167.4 1313.9 169.2 1313.9 171.4C1313.9 173.6 1315.6 175.4 1317.9 175.4Z" fill="#FFCB00"/>
<path d="M1303 201C1302.2 201 1301.5 201.7 1301.5 202.5V207V207.6C1301.5 208.4 1302.2 209.1 1303 209.1C1303.8 209.1 1304.5 208.4 1304.5 207.6C1304.5 206.1 1304.5 204.6 1304.5 203.1C1304.5 202.9 1304.5 202.7 1304.5 202.5C1304.5 201.7 1303.8 201 1303 201Z" fill="#FFCB00"/>
</svg>
