<svg width="1440" height="579" viewBox="0 0 1440 579" fill="none" xmlns="http://www.w3.org/2000/svg">
<mask id="path-1-inside-1_905_744" fill="white">
<path fill-rule="evenodd" clip-rule="evenodd" d="M1275.51 392.968C1285.48 395.154 1295.36 392.099 1302.29 385.642C1306.41 392.543 1313.25 397.794 1321.71 399.646L1683.16 478.886C1692.58 480.951 1701.91 478.34 1708.76 472.603C1712.92 479.102 1719.56 484.015 1727.67 485.795L1755.42 491.878C1765.39 494.064 1775.27 491.01 1782.21 484.553C1786.32 491.454 1793.17 496.704 1801.62 498.557L2163.07 577.796C2179.25 581.344 2195.2 571.089 2198.68 554.891L2207.82 512.365C2211.31 496.166 2201.01 480.159 2184.82 476.611L1823.37 397.371C1813.4 395.185 1803.52 398.24 1796.59 404.696C1792.47 397.795 1785.63 392.545 1777.18 390.692L1749.43 384.609C1740.01 382.544 1730.67 385.155 1723.82 390.892C1719.66 384.392 1713.03 379.479 1704.91 377.7L1343.46 298.461C1333.49 296.274 1323.61 299.329 1316.68 305.786C1312.56 298.885 1305.71 293.635 1297.26 291.782L1269.51 285.699C1260.1 283.634 1250.76 286.245 1243.91 291.981C1239.75 285.482 1233.12 280.569 1225 278.79L863.548 199.55C853.576 197.364 843.695 200.419 836.764 206.875C832.647 199.974 825.801 194.724 817.35 192.871L789.602 186.788C780.182 184.723 770.844 187.334 763.997 193.071C759.838 186.571 753.202 181.658 745.085 179.879L383.635 100.639C373.662 98.4532 363.781 101.508 356.851 107.964C352.734 101.063 345.888 95.813 337.437 93.9602L309.689 87.8771C298.881 85.5078 288.181 89.2939 281.227 96.8946C277.422 88.5678 269.887 82.0657 260.275 79.9585L-101.176 0.719323C-117.36 -2.82867 -133.303 7.42651 -136.786 23.6249L-145.929 66.1511C-149.412 82.3495 -139.115 98.3571 -122.931 101.905L238.519 181.144C249.327 183.514 260.027 179.728 266.981 172.127C270.786 180.454 278.321 186.956 287.933 189.063L315.682 195.146C325.654 197.332 335.535 194.278 342.466 187.821C346.582 194.722 353.428 199.972 361.879 201.825L723.33 281.064C732.749 283.129 742.087 280.519 748.934 274.782C753.094 281.281 759.73 286.194 767.847 287.974L795.595 294.057C805.567 296.243 815.448 293.188 822.379 286.732C826.495 293.633 833.341 298.883 841.793 300.736L1203.24 379.975C1212.66 382.04 1222 379.429 1228.85 373.693C1233.01 380.192 1239.64 385.105 1247.76 386.885L1275.51 392.968Z"/>
</mask>
<path fill-rule="evenodd" clip-rule="evenodd" d="M1275.51 392.968C1285.48 395.154 1295.36 392.099 1302.29 385.642C1306.41 392.543 1313.25 397.794 1321.71 399.646L1683.16 478.886C1692.58 480.951 1701.91 478.34 1708.76 472.603C1712.92 479.102 1719.56 484.015 1727.67 485.795L1755.42 491.878C1765.39 494.064 1775.27 491.01 1782.21 484.553C1786.32 491.454 1793.17 496.704 1801.62 498.557L2163.07 577.796C2179.25 581.344 2195.2 571.089 2198.68 554.891L2207.82 512.365C2211.31 496.166 2201.01 480.159 2184.82 476.611L1823.37 397.371C1813.4 395.185 1803.52 398.24 1796.59 404.696C1792.47 397.795 1785.63 392.545 1777.18 390.692L1749.43 384.609C1740.01 382.544 1730.67 385.155 1723.82 390.892C1719.66 384.392 1713.03 379.479 1704.91 377.7L1343.46 298.461C1333.49 296.274 1323.61 299.329 1316.68 305.786C1312.56 298.885 1305.71 293.635 1297.26 291.782L1269.51 285.699C1260.1 283.634 1250.76 286.245 1243.91 291.981C1239.75 285.482 1233.12 280.569 1225 278.79L863.548 199.55C853.576 197.364 843.695 200.419 836.764 206.875C832.647 199.974 825.801 194.724 817.35 192.871L789.602 186.788C780.182 184.723 770.844 187.334 763.997 193.071C759.838 186.571 753.202 181.658 745.085 179.879L383.635 100.639C373.662 98.4532 363.781 101.508 356.851 107.964C352.734 101.063 345.888 95.813 337.437 93.9602L309.689 87.8771C298.881 85.5078 288.181 89.2939 281.227 96.8946C277.422 88.5678 269.887 82.0657 260.275 79.9585L-101.176 0.719323C-117.36 -2.82867 -133.303 7.42651 -136.786 23.6249L-145.929 66.1511C-149.412 82.3495 -139.115 98.3571 -122.931 101.905L238.519 181.144C249.327 183.514 260.027 179.728 266.981 172.127C270.786 180.454 278.321 186.956 287.933 189.063L315.682 195.146C325.654 197.332 335.535 194.278 342.466 187.821C346.582 194.722 353.428 199.972 361.879 201.825L723.33 281.064C732.749 283.129 742.087 280.519 748.934 274.782C753.094 281.281 759.73 286.194 767.847 287.974L795.595 294.057C805.567 296.243 815.448 293.188 822.379 286.732C826.495 293.633 833.341 298.883 841.793 300.736L1203.24 379.975C1212.66 382.04 1222 379.429 1228.85 373.693C1233.01 380.192 1239.64 385.105 1247.76 386.885L1275.51 392.968Z" fill="#211A41"/>
<path d="M1302.29 385.642L1304.01 384.618L1302.74 382.491L1300.93 384.179L1302.29 385.642ZM1275.51 392.968L1275.08 394.921L1275.51 392.968ZM1321.71 399.646L1321.28 401.6L1321.71 399.646ZM1683.16 478.886L1682.73 480.839L1683.16 478.886ZM1708.76 472.603L1710.45 471.525L1709.22 469.609L1707.48 471.07L1708.76 472.603ZM1727.67 485.795L1727.24 487.748L1727.67 485.795ZM1755.42 491.878L1755.85 489.924L1755.42 491.878ZM1782.21 484.553L1783.92 483.528L1782.65 481.401L1780.84 483.09L1782.21 484.553ZM1801.62 498.557L1802.05 496.604L1801.62 498.557ZM2163.07 577.796L2163.5 575.843L2163.07 577.796ZM2198.68 554.891L2196.72 554.47L2196.72 554.47L2198.68 554.891ZM2207.82 512.365L2209.78 512.785L2209.78 512.785L2207.82 512.365ZM2184.82 476.611L2185.25 474.657L2184.82 476.611ZM1823.37 397.371L1823.8 395.418L1823.37 397.371ZM1796.59 404.696L1794.87 405.721L1796.14 407.848L1797.95 406.16L1796.59 404.696ZM1777.18 390.692L1776.75 392.646L1777.18 390.692ZM1749.43 384.609L1749 386.563L1749.43 384.609ZM1723.82 390.892L1722.14 391.97L1723.36 393.885L1725.11 392.425L1723.82 390.892ZM1704.91 377.7L1705.34 375.746L1704.91 377.7ZM1343.46 298.461L1343.03 300.414L1343.46 298.461ZM1316.68 305.786L1314.96 306.81L1316.23 308.937L1318.04 307.249L1316.68 305.786ZM1297.26 291.782L1296.83 293.735L1297.26 291.782ZM1269.51 285.699L1269.09 287.652L1269.51 285.699ZM1243.91 291.981L1242.23 293.06L1243.45 294.975L1245.19 293.515L1243.91 291.981ZM1225 278.79L1225.43 276.836L1225 278.79ZM863.548 199.55L863.12 201.504L863.548 199.55ZM836.764 206.875L835.046 207.9L836.315 210.027L838.127 208.339L836.764 206.875ZM817.35 192.871L817.778 190.917L817.35 192.871ZM789.602 186.788L789.174 188.742L789.602 186.788ZM763.997 193.071L762.313 194.149L763.538 196.064L765.282 194.604L763.997 193.071ZM745.085 179.879L744.657 181.832L745.085 179.879ZM383.635 100.639L384.063 98.6858L383.635 100.639ZM356.851 107.964L355.133 108.989L356.402 111.116L358.214 109.428L356.851 107.964ZM337.437 93.9602L337.009 95.9138L337.437 93.9602ZM309.689 87.8771L310.117 85.9235L309.689 87.8771ZM281.227 96.8946L279.408 97.7259L280.664 100.473L282.703 98.2447L281.227 96.8946ZM260.275 79.9585L260.703 78.0049L260.275 79.9585ZM-101.176 0.719323L-100.747 -1.23428L-101.176 0.719323ZM-136.786 23.6249L-134.83 24.0453L-136.786 23.6249ZM-145.929 66.1511L-147.884 65.7307L-145.929 66.1511ZM-122.931 101.905L-122.503 99.9515L-122.931 101.905ZM238.519 181.144L238.948 179.191L238.519 181.144ZM266.981 172.127L268.8 171.295L267.544 168.548L265.505 170.777L266.981 172.127ZM287.933 189.063L287.505 191.016L287.933 189.063ZM315.682 195.146L316.11 193.192L315.682 195.146ZM342.466 187.821L344.183 186.797L342.914 184.67L341.102 186.358L342.466 187.821ZM361.879 201.825L361.451 203.779L361.879 201.825ZM723.33 281.064L722.902 283.018L723.33 281.064ZM748.934 274.782L750.619 273.703L749.393 271.788L747.65 273.249L748.934 274.782ZM767.847 287.974L768.275 286.02L767.847 287.974ZM795.595 294.057L795.166 296.01L795.595 294.057ZM822.379 286.732L824.096 285.707L822.828 283.58L821.015 285.269L822.379 286.732ZM841.793 300.736L842.221 298.782L841.793 300.736ZM1203.24 379.975L1202.81 381.929L1203.24 379.975ZM1228.85 373.693L1230.53 372.614L1229.31 370.699L1227.56 372.16L1228.85 373.693ZM1247.76 386.885L1248.19 384.931L1247.76 386.885ZM1300.93 384.179C1294.46 390.206 1285.24 393.054 1275.94 391.014L1275.08 394.921C1285.72 397.254 1296.26 393.992 1303.66 387.106L1300.93 384.179ZM1322.13 397.693C1314.25 395.963 1307.86 391.065 1304.01 384.618L1300.57 386.667C1304.96 394.021 1312.26 399.624 1321.28 401.6L1322.13 397.693ZM1683.58 476.932L1322.13 397.693L1321.28 401.6L1682.73 480.839L1683.58 476.932ZM1707.48 471.07C1701.08 476.425 1692.37 478.859 1683.58 476.932L1682.73 480.839C1692.78 483.042 1702.74 480.254 1710.05 474.136L1707.48 471.07ZM1728.1 483.841C1720.52 482.18 1714.33 477.597 1710.45 471.525L1707.08 473.681C1711.51 480.608 1718.59 485.851 1727.24 487.748L1728.1 483.841ZM1755.85 489.924L1728.1 483.841L1727.24 487.748L1754.99 493.832L1755.85 489.924ZM1780.84 483.09C1774.37 489.117 1765.15 491.964 1755.85 489.924L1754.99 493.832C1765.63 496.164 1776.18 492.902 1783.57 486.016L1780.84 483.09ZM1802.05 496.604C1794.16 494.874 1787.77 489.976 1783.92 483.528L1780.49 485.578C1784.87 492.932 1792.18 498.535 1801.19 500.511L1802.05 496.604ZM2163.5 575.843L1802.05 496.604L1801.19 500.511L2162.64 579.75L2163.5 575.843ZM2196.72 554.47C2193.47 569.586 2178.6 579.154 2163.5 575.843L2162.64 579.75C2179.91 583.535 2196.92 572.593 2200.63 555.311L2196.72 554.47ZM2205.87 511.944L2196.72 554.47L2200.63 555.311L2209.78 512.785L2205.87 511.944ZM2184.4 478.564C2199.5 481.876 2209.12 496.823 2205.87 511.944L2209.78 512.785C2213.49 495.51 2202.51 478.441 2185.25 474.657L2184.4 478.564ZM1822.95 399.325L2184.4 478.564L2185.25 474.657L1823.8 395.418L1822.95 399.325ZM1797.95 406.16C1804.42 400.133 1813.64 397.285 1822.95 399.325L1823.8 395.418C1813.16 393.085 1802.62 396.347 1795.23 403.233L1797.95 406.16ZM1776.75 392.646C1784.64 394.375 1791.03 399.274 1794.87 405.721L1798.31 403.672C1793.92 396.317 1786.62 390.715 1777.6 388.739L1776.75 392.646ZM1749 386.563L1776.75 392.646L1777.6 388.739L1749.86 382.655L1749 386.563ZM1725.11 392.425C1731.5 387.07 1740.21 384.636 1749 386.563L1749.86 382.655C1739.81 380.452 1729.84 383.24 1722.54 389.359L1725.11 392.425ZM1704.48 379.653C1712.06 381.314 1718.25 385.898 1722.14 391.97L1725.51 389.814C1721.07 382.887 1714 377.644 1705.34 375.746L1704.48 379.653ZM1343.03 300.414L1704.48 379.653L1705.34 375.746L1343.89 296.507L1343.03 300.414ZM1318.04 307.249C1324.51 301.222 1333.73 298.374 1343.03 300.414L1343.89 296.507C1333.25 294.175 1322.71 297.436 1315.31 304.323L1318.04 307.249ZM1296.83 293.735C1304.72 295.465 1311.11 300.363 1314.96 306.81L1318.39 304.761C1314.01 297.407 1306.71 291.804 1297.69 289.828L1296.83 293.735ZM1269.09 287.652L1296.83 293.735L1297.69 289.828L1269.94 283.745L1269.09 287.652ZM1245.19 293.515C1251.59 288.159 1260.3 285.725 1269.09 287.652L1269.94 283.745C1259.89 281.542 1249.93 284.33 1242.63 290.448L1245.19 293.515ZM1224.57 280.743C1232.15 282.404 1238.34 286.988 1242.23 293.06L1245.59 290.903C1241.16 283.976 1234.08 278.734 1225.43 276.836L1224.57 280.743ZM863.12 201.504L1224.57 280.743L1225.43 276.836L863.976 197.597L863.12 201.504ZM838.127 208.339C844.597 202.312 853.814 199.464 863.12 201.504L863.976 197.597C853.337 195.264 842.792 198.526 835.401 205.412L838.127 208.339ZM816.922 194.825C824.81 196.554 831.2 201.452 835.046 207.9L838.482 205.851C834.094 198.496 826.793 192.894 817.778 190.917L816.922 194.825ZM789.174 188.742L816.922 194.825L817.778 190.917L790.03 184.834L789.174 188.742ZM765.282 194.604C771.673 189.248 780.383 186.815 789.174 188.742L790.03 184.834C779.981 182.631 770.015 185.419 762.713 191.538L765.282 194.604ZM744.657 181.832C752.233 183.493 758.427 188.077 762.313 194.149L765.682 191.993C761.249 185.066 754.17 179.823 745.513 177.925L744.657 181.832ZM383.206 102.593L744.657 181.832L745.513 177.925L384.063 98.6858L383.206 102.593ZM358.214 109.428C364.684 103.401 373.901 100.553 383.206 102.593L384.063 98.6858C373.424 96.3533 362.879 99.6149 355.488 106.501L358.214 109.428ZM337.009 95.9138C344.897 97.6432 351.287 102.541 355.133 108.989L358.568 106.94C354.181 99.5852 346.88 93.9828 337.865 92.0066L337.009 95.9138ZM309.26 89.8307L337.009 95.9138L337.865 92.0066L310.117 85.9235L309.26 89.8307ZM282.703 98.2447C289.194 91.1497 299.177 87.62 309.26 89.8307L310.117 85.9235C298.586 83.3955 287.168 87.438 279.752 95.5446L282.703 98.2447ZM259.846 81.9121C268.817 83.8787 275.853 89.9451 279.408 97.7259L283.046 96.0634C278.992 87.1905 270.957 80.2528 260.703 78.0049L259.846 81.9121ZM-101.604 2.67293L259.846 81.9121L260.703 78.0049L-100.747 -1.23428L-101.604 2.67293ZM-134.83 24.0453C-131.581 8.92988 -116.706 -0.637855 -101.604 2.67293L-100.747 -1.23428C-118.014 -5.01948 -135.025 5.92314 -138.741 23.2045L-134.83 24.0453ZM-143.974 66.5715L-134.83 24.0453L-138.741 23.2045L-147.884 65.7307L-143.974 66.5715ZM-122.503 99.9515C-137.611 96.6394 -147.225 81.6931 -143.974 66.5715L-147.884 65.7307C-151.599 83.0059 -140.619 100.075 -123.359 103.859L-122.503 99.9515ZM238.948 179.191L-122.503 99.9515L-123.359 103.859L238.091 183.098L238.948 179.191ZM265.505 170.777C259.014 177.872 249.032 181.401 238.948 179.191L238.091 183.098C249.622 185.626 261.04 181.583 268.457 173.477L265.505 170.777ZM288.362 187.109C279.391 185.143 272.356 179.076 268.8 171.295L265.162 172.958C269.217 181.831 277.252 188.769 287.505 191.016L288.362 187.109ZM316.11 193.192L288.362 187.109L287.505 191.016L315.253 197.1L316.11 193.192ZM341.102 186.358C334.633 192.385 325.415 195.232 316.11 193.192L315.253 197.1C325.893 199.432 336.437 196.17 343.829 189.285L341.102 186.358ZM362.308 199.872C354.419 198.142 348.029 193.244 344.183 186.797L340.748 188.846C345.135 196.2 352.437 201.803 361.451 203.779L362.308 199.872ZM723.758 279.111L362.308 199.872L361.451 203.779L722.902 283.018L723.758 279.111ZM747.65 273.249C741.258 278.604 732.548 281.038 723.758 279.111L722.902 283.018C732.951 285.221 742.916 282.433 750.219 276.315L747.65 273.249ZM768.275 286.02C760.698 284.359 754.505 279.775 750.619 273.703L747.25 275.86C751.683 282.787 758.761 288.029 767.418 289.927L768.275 286.02ZM796.023 292.103L768.275 286.02L767.418 289.927L795.166 296.01L796.023 292.103ZM821.015 285.269C814.546 291.296 805.328 294.143 796.023 292.103L795.166 296.01C805.806 298.343 816.35 295.081 823.742 288.195L821.015 285.269ZM842.221 298.782C834.333 297.053 827.942 292.155 824.096 285.707L820.661 287.756C825.048 295.111 832.35 300.714 841.364 302.69L842.221 298.782ZM1203.67 378.022L842.221 298.782L841.364 302.69L1202.81 381.929L1203.67 378.022ZM1227.56 372.16C1221.17 377.515 1212.46 379.949 1203.67 378.022L1202.81 381.929C1212.86 384.132 1222.83 381.344 1230.13 375.226L1227.56 372.16ZM1248.19 384.931C1240.61 383.27 1234.42 378.686 1230.53 372.614L1227.16 374.771C1231.6 381.698 1238.67 386.94 1247.33 388.838L1248.19 384.931ZM1275.94 391.014L1248.19 384.931L1247.33 388.838L1275.08 394.921L1275.94 391.014Z" fill="#E4E1EE" fill-opacity="0.4" mask="url(#path-1-inside-1_905_744)"/>
</svg>
