<svg width="65" height="65" viewBox="0 0 65 65" fill="none" xmlns="http://www.w3.org/2000/svg">
<g clip-path="url(#clip0_288_953)">
<path d="M32.5006 12.9922C44.532 12.9922 54.2846 22.7461 54.2846 34.7775C54.2846 46.8089 44.532 56.5628 32.5006 56.5628C20.4692 56.5628 10.7153 46.8089 10.7153 34.7775C10.7153 22.7461 20.4692 12.9922 32.5006 12.9922Z" fill="#C8EFFE"/>
<path d="M48.7537 48.7156L48.9734 49.0336C45.6657 52.8531 41.0525 55.5094 35.8291 56.3108C39.1911 54.8218 42.0245 51.1288 43.7565 46.2002C44.8901 46.597 45.9578 47.0533 46.9492 47.56L48.7537 48.7156Z" fill="#01C0FA"/>
<path d="M43.7563 46.2002C42.0243 51.1288 39.1909 54.8217 35.8289 56.3108C34.7431 56.4762 33.6315 56.5628 32.5005 56.5628V54.2194V44.3789C36.6109 44.3789 40.459 45.0433 43.7563 46.2002Z" fill="#08A9F1"/>
<path d="M21.2447 46.2002C22.9754 51.1275 25.8088 54.8205 29.1695 56.3095C23.9423 55.5081 19.3278 52.848 16.02 49.0245L18.0507 47.56C19.0421 47.0533 20.1111 46.597 21.2447 46.2002Z" fill="#017BAE"/>
<path d="M32.5005 54.2194V56.5628C31.3682 56.5628 30.2553 56.4762 29.1695 56.3095C25.8088 54.8204 22.9754 51.1275 21.2446 46.2002C24.542 45.0433 28.3901 44.3789 32.5005 44.3789V54.2194Z" fill="#0290CF"/>
<path d="M51.6334 34.9248H54.2832C54.2483 40.3188 52.2525 45.2474 48.9732 49.0334L48.7535 48.7154L46.949 47.5599C45.9576 47.0532 44.8899 46.5969 43.7563 46.2001C44.9171 42.8988 45.5828 39.043 45.5828 34.9248H51.6334Z" fill="#01D0FB"/>
<path d="M35.5859 34.9245H45.5828C45.5828 39.0427 44.9171 42.8985 43.7563 46.1998C40.459 45.0429 36.6109 44.3785 32.5005 44.3785V37.8096V34.8896L35.5859 34.9245Z" fill="#01C0FA"/>
<path d="M32.5006 37.8097V44.3786C28.3901 44.3786 24.5421 45.043 21.2447 46.1999C20.084 42.8986 19.417 39.0428 19.417 34.9246C19.417 34.9013 19.417 34.8768 19.417 34.8535H29.2833L32.5006 34.8897V37.8097Z" fill="#08A9F1"/>
<path d="M19.417 34.9246C19.417 39.0428 20.084 42.8986 21.2448 46.1999C20.1112 46.5967 19.0422 47.053 18.0508 47.5597L16.0201 49.0242C12.7305 45.2227 10.7334 40.2708 10.7153 34.8535H13.3445H19.417V34.9246Z" fill="#0290CF"/>
<path d="M21.1672 23.6222C21.1672 23.6222 21.1931 23.6338 21.2422 23.6558C20.0892 26.9363 19.4248 30.7637 19.417 34.8535H13.3445H10.7153C10.7153 34.8276 10.7153 34.803 10.7153 34.7772C10.7153 29.497 12.5948 24.6562 15.7202 20.8857L18.0508 22.2882C19.0202 22.7846 20.062 23.2305 21.1672 23.6222Z" fill="#08A9F1"/>
<path d="M32.5006 25.9915V34.8896L29.2833 34.8535H19.417C19.4247 30.7637 20.0891 26.9364 21.2421 23.6558C21.8833 23.9311 26.5624 25.857 32.5006 25.9915Z" fill="#01C0FA"/>
<path d="M45.5828 34.9247H35.5859L32.5005 34.8898V25.9916C36.0047 26.0704 39.9471 25.5263 43.7563 23.6494C44.9158 26.9507 45.5828 30.8065 45.5828 34.9247Z" fill="#01D0FB"/>
<path d="M54.2845 34.7775C54.2845 34.8266 54.2845 34.8757 54.2832 34.9249H51.6334H45.5828C45.5828 30.8067 44.9158 26.9509 43.7563 23.6496C44.8331 23.1184 45.9576 22.7965 46.949 22.2885L49.2809 20.8848C52.4063 24.6552 54.2845 29.4973 54.2845 34.7775Z" fill="#62DBFB"/>
<path d="M29.4113 13.2104C25.7145 14.715 22.4572 20.7514 22.4572 20.7514C22.0074 21.6601 21.6002 22.6308 21.2422 23.6559C21.193 23.6339 21.1672 23.6222 21.1672 23.6222C20.062 23.2306 19.0202 22.7847 18.0508 22.2883L15.7202 20.8858C19.0939 16.8116 23.9243 13.9886 29.4113 13.2104Z" fill="#01D0FB"/>
<path d="M32.5006 12.9922V25.9917C26.5625 25.8573 21.8833 23.9314 21.2422 23.656C21.6002 22.631 22.0074 21.6603 22.4572 20.7516C22.4572 20.7516 25.7145 14.7152 29.4113 13.2106C29.4126 13.2106 29.4126 13.2093 29.4139 13.2093C30.4222 13.0659 31.4523 12.9922 32.5006 12.9922Z" fill="#62DBFB"/>
<path d="M42.5491 20.7645C42.995 21.668 43.3996 22.6323 43.7563 23.6496C39.9471 25.5264 36.0047 26.0706 32.5005 25.9917V12.9922C34.9461 12.9922 37.2973 13.3955 39.4921 14.1387L42.5491 20.7645Z" fill="#99E6FC"/>
<path d="M15.5183 23.7206C17.1507 23.7206 18.474 22.3973 18.474 20.7648C18.474 19.1324 17.1507 17.8091 15.5183 17.8091C13.8858 17.8091 12.5625 19.1324 12.5625 20.7648C12.5625 22.3973 13.8858 23.7206 15.5183 23.7206Z" fill="#FE9901"/>
<path d="M49.4816 23.7206C51.1141 23.7206 52.4374 22.3973 52.4374 20.7648C52.4374 19.1324 51.1141 17.8091 49.4816 17.8091C47.8492 17.8091 46.5259 19.1324 46.5259 20.7648C46.5259 22.3973 47.8492 23.7206 49.4816 23.7206Z" fill="#FEE8C7"/>
<path d="M32.3708 60.1303C34.0032 60.1303 35.3266 58.8069 35.3266 57.1745C35.3266 55.5421 34.0032 54.2188 32.3708 54.2188C30.7384 54.2188 29.415 55.5421 29.415 57.1745C29.415 58.8069 30.7384 60.1303 32.3708 60.1303Z" fill="#FEC165"/>
<path d="M10.3894 37.8095C12.0218 37.8095 13.3451 36.4861 13.3451 34.8537C13.3451 33.2213 12.0218 31.8979 10.3894 31.8979C8.75693 31.8979 7.43359 33.2213 7.43359 34.8537C7.43359 36.4861 8.75693 37.8095 10.3894 37.8095Z" fill="#FEA613"/>
<path d="M54.5895 37.8095C56.222 37.8095 57.5453 36.4861 57.5453 34.8537C57.5453 33.2213 56.222 31.8979 54.5895 31.8979C52.9571 31.8979 51.6338 33.2213 51.6338 34.8537C51.6338 36.4861 52.9571 37.8095 54.5895 37.8095Z" fill="#FEDBA6"/>
<path d="M15.5183 52.0399C17.1507 52.0399 18.474 50.7166 18.474 49.0842C18.474 47.4518 17.1507 46.1284 15.5183 46.1284C13.8858 46.1284 12.5625 47.4518 12.5625 49.0842C12.5625 50.7166 13.8858 52.0399 15.5183 52.0399Z" fill="#FDB441"/>
<path d="M49.4816 52.0399C51.1141 52.0399 52.4374 50.7166 52.4374 49.0842C52.4374 47.4518 51.1141 46.1284 49.4816 46.1284C47.8492 46.1284 46.5259 47.4518 46.5259 49.0842C46.5259 50.7166 47.8492 52.0399 49.4816 52.0399Z" fill="#FEDBA6"/>
<path d="M14.6919 12.872C14.4022 12.872 14.1158 12.7429 13.9247 12.4962C13.5969 12.073 13.6742 11.464 14.0975 11.1362C14.4834 10.8374 14.8812 10.5445 15.2797 10.2655C15.7186 9.95867 16.323 10.0653 16.6298 10.504C16.9368 10.9427 16.8301 11.547 16.3914 11.854C16.0182 12.1152 15.6458 12.3895 15.2845 12.6692C15.1081 12.8059 14.8992 12.872 14.6919 12.872Z" fill="#FDB441"/>
<path d="M32.4999 64.9998C31.8882 64.9998 31.2702 64.9812 30.6634 64.9446C30.129 64.9124 29.7218 64.4531 29.754 63.9186C29.7862 63.3841 30.2438 62.9763 30.7801 63.0092C31.681 63.0635 32.606 63.0748 33.5067 63.0434C33.5182 63.0428 33.5298 63.0427 33.5413 63.0427C34.0611 63.0427 34.4912 63.4547 34.5095 63.9782C34.5283 64.5133 34.1097 64.9622 33.5747 64.9809C33.2196 64.9935 32.8581 64.9998 32.4999 64.9998ZM36.3483 64.7476C35.8694 64.7476 35.4529 64.3928 35.3884 63.905C35.3184 63.3743 35.6918 62.8871 36.2225 62.8169C37.1206 62.6982 38.0225 62.5342 38.903 62.3295C39.4239 62.2082 39.9453 62.5324 40.0668 63.054C40.1881 63.5754 39.8639 64.0964 39.3423 64.2178C38.4009 64.4369 37.4367 64.6123 36.4765 64.7391C36.4336 64.7448 36.3907 64.7476 36.3483 64.7476ZM27.921 64.6416C27.8706 64.6416 27.8198 64.6378 27.7685 64.6296C26.812 64.4784 25.8525 64.2786 24.9166 64.0354C24.3985 63.9009 24.0875 63.3717 24.222 62.8533C24.3567 62.335 24.8864 62.0238 25.4041 62.1588C26.2793 62.3861 27.1765 62.573 28.0712 62.7144C28.6 62.7979 28.961 63.2944 28.8774 63.8233C28.8019 64.3009 28.3896 64.6416 27.921 64.6416ZM41.8337 63.4713C41.4295 63.4713 41.0522 63.2164 40.9154 62.8122C40.7439 62.305 41.0158 61.7548 41.523 61.5832C42.3803 61.2932 43.2331 60.9574 44.0579 60.5852C44.5456 60.3646 45.1201 60.582 45.3403 61.0701C45.5606 61.558 45.3434 62.1323 44.8555 62.3525C43.9733 62.7506 43.0611 63.1097 42.1443 63.4199C42.0414 63.4548 41.9367 63.4713 41.8337 63.4713ZM22.4698 63.2257C22.3589 63.2257 22.246 63.2066 22.1358 63.166C21.2275 62.8325 20.3249 62.4503 19.453 62.03C18.9707 61.7974 18.7683 61.218 19.0007 60.7356C19.2331 60.2532 19.813 60.051 20.295 60.2834C21.1104 60.6766 21.9544 61.0342 22.8039 61.3461C23.3065 61.5305 23.5643 62.0875 23.3799 62.5902C23.2359 62.9826 22.8648 63.2257 22.4698 63.2257ZM46.9682 61.1555C46.6323 61.1555 46.3058 60.9808 46.1265 60.6685C45.8599 60.2042 46.0203 59.6117 46.4846 59.3451C47.2685 58.8953 48.0408 58.4008 48.7802 57.8756C49.217 57.5655 49.822 57.6681 50.1319 58.1045C50.4419 58.541 50.3395 59.1463 49.903 59.4563C49.113 60.0175 48.2877 60.5459 47.4498 61.0268C47.2977 61.114 47.1318 61.1555 46.9682 61.1555ZM17.3962 60.78C17.2246 60.78 17.051 60.7344 16.8936 60.6388C16.0676 60.1366 15.2558 59.5874 14.4807 59.0066C14.0522 58.6855 13.9652 58.0779 14.2863 57.6494C14.6073 57.221 15.2149 57.1339 15.6434 57.455C16.3686 57.9985 17.128 58.5123 17.9007 58.982C18.3582 59.2601 18.5036 59.8566 18.2254 60.3141C18.0431 60.6141 17.7237 60.78 17.3962 60.78ZM51.5584 57.8932C51.2871 57.8932 51.0172 57.7799 50.8257 57.5588C50.4749 57.1543 50.5184 56.542 50.923 56.1913C51.607 55.5982 52.2701 54.9647 52.8941 54.3084C53.2632 53.9203 53.8768 53.905 54.2647 54.2738C54.6528 54.6427 54.6683 55.2564 54.2994 55.6444C53.6328 56.3457 52.9241 57.0225 52.1932 57.6561C52.0098 57.8151 51.7837 57.8932 51.5584 57.8932ZM12.8899 57.4029C12.6566 57.4029 12.4227 57.3193 12.2367 57.1497C11.5221 56.4976 10.8307 55.8032 10.1819 55.0854C9.82296 54.6882 9.85386 54.0752 10.2511 53.7162C10.6483 53.3571 11.2612 53.3881 11.6203 53.7852C12.2274 54.4568 12.8745 55.107 13.5434 55.7171C13.939 56.078 13.9671 56.6911 13.6062 57.0867C13.4151 57.2964 13.1529 57.4029 12.8899 57.4029ZM55.4384 53.8114C55.2295 53.8114 55.0191 53.7442 54.8417 53.6055C54.42 53.2757 54.3455 52.6663 54.6755 52.2447C55.2335 51.531 55.7631 50.7824 56.2492 50.0194C56.537 49.5677 57.136 49.4349 57.5876 49.7226C58.0392 50.0102 58.172 50.6094 57.8844 51.0609C57.3649 51.8766 56.7991 52.6765 56.2026 53.4392C56.0115 53.6837 55.7263 53.8114 55.4384 53.8114ZM9.11437 53.2246C8.81798 53.2246 8.52546 53.0893 8.33519 52.8331C7.75818 52.0556 7.21271 51.2414 6.71403 50.4127C6.43793 49.954 6.58593 49.3583 7.04467 49.0822C7.50341 48.806 8.09917 48.9541 8.37513 49.413C8.84163 50.188 9.35207 50.95 9.89199 51.6774C10.2111 52.1073 10.1213 52.7145 9.69138 53.0337C9.51778 53.1626 9.31511 53.2246 9.11437 53.2246ZM58.4635 49.0616C58.3156 49.0616 58.1656 49.0276 58.0249 48.9561C57.5477 48.7136 57.3574 48.13 57.6 47.6526C58.0103 46.8453 58.3853 46.0088 58.7146 45.1666C58.9095 44.668 59.4722 44.4217 59.9705 44.6166C60.4692 44.8117 60.7154 45.3738 60.5205 45.8725C60.1682 46.7734 59.7673 47.6679 59.3283 48.5312C59.1573 48.8677 58.8168 49.0616 58.4635 49.0616ZM6.21031 48.3995C5.84812 48.3995 5.50068 48.1957 5.33445 47.8469C4.91798 46.9729 4.5399 46.0684 4.21067 45.1586C4.02855 44.655 4.289 44.0993 4.79247 43.9172C5.29606 43.7352 5.85174 43.9954 6.03387 44.499C6.34163 45.3498 6.69529 46.1955 7.08474 47.0128C7.31508 47.4961 7.10995 48.0747 6.62665 48.305C6.49209 48.3691 6.35004 48.3995 6.21031 48.3995ZM60.5153 43.8169C60.4281 43.8169 60.3395 43.805 60.2514 43.7802C59.7361 43.6348 59.4364 43.099 59.5818 42.5837C59.8273 41.714 60.033 40.8207 60.1931 39.929C60.2877 39.4022 60.7911 39.0508 61.3185 39.1461C61.8455 39.2406 62.1961 39.7446 62.1014 40.2716C61.9303 41.2251 61.7104 42.1803 61.4477 43.1106C61.3273 43.5378 60.9384 43.8169 60.5153 43.8169ZM4.29301 43.1041C3.86038 43.1041 3.46614 42.8124 3.35433 42.374C3.11559 41.4376 2.92015 40.4772 2.77319 39.5194C2.69201 38.9902 3.05523 38.4954 3.58441 38.4142C4.11386 38.3323 4.6084 38.6963 4.68958 39.2255C4.82698 40.1212 5.00988 41.0193 5.23311 41.8949C5.36534 42.4138 5.05202 42.9415 4.53317 43.0738C4.45278 43.0942 4.37225 43.1041 4.29301 43.1041ZM61.5112 38.2746C61.4849 38.2746 61.4585 38.2736 61.4319 38.2715C60.8982 38.2282 60.5007 37.7607 60.5439 37.227C60.6055 36.4661 60.6368 35.6914 60.6368 34.9243C60.6368 34.7832 60.6358 34.6425 60.6338 34.502C60.6258 33.9666 61.0534 33.5263 61.5888 33.5184C61.5937 33.5183 61.5986 33.5183 61.6034 33.5183C62.1322 33.5183 62.5647 33.9429 62.5725 34.4734C62.5748 34.6233 62.5757 34.7737 62.5757 34.9243C62.5757 35.7435 62.5423 36.5709 62.4764 37.3835C62.4354 37.8906 62.0112 38.2746 61.5112 38.2746ZM3.43848 37.5385C2.92778 37.5385 2.50019 37.1392 2.4715 36.623C2.44022 36.0612 2.42432 35.4896 2.42432 34.9241C2.42432 34.5221 2.43233 34.1139 2.44836 33.7114C2.46956 33.1764 2.92067 32.7607 3.45554 32.7813C3.99055 32.8025 4.40702 33.2535 4.38582 33.7885C4.37083 34.1653 4.36333 34.5473 4.36333 34.924C4.36333 35.4538 4.37819 35.9891 4.40753 36.5152C4.43726 37.0497 4.02816 37.5072 3.49355 37.537C3.47493 37.538 3.45671 37.5385 3.43848 37.5385ZM61.4255 32.6434C60.9381 32.6434 60.5183 32.2766 60.4632 31.7808C60.3632 30.8799 60.2176 29.9743 60.0308 29.0891C59.9205 28.5652 60.2555 28.051 60.7794 27.9404C61.3029 27.8304 61.8175 28.1651 61.9281 28.6889C62.1277 29.6354 62.2832 30.6036 62.3902 31.5668C62.4494 32.0988 62.0659 32.5781 61.5337 32.6373C61.4974 32.6413 61.4613 32.6434 61.4255 32.6434ZM3.66507 31.9112C3.62125 31.9112 3.57705 31.9083 3.53245 31.9022C3.00197 31.8295 2.63087 31.3407 2.70339 30.8103C2.83471 29.8507 3.01464 28.8874 3.23813 27.9469C3.36196 27.4261 3.88455 27.1041 4.40547 27.2278C4.92638 27.3516 5.24823 27.8742 5.12453 28.3951C4.91539 29.2747 4.74723 30.1755 4.6243 31.0731C4.55786 31.5589 4.14204 31.9112 3.66507 31.9112ZM60.2634 27.1311C59.8514 27.1311 59.4695 26.8666 59.3392 26.453C59.067 25.5898 58.7487 24.7299 58.3935 23.8971C58.1835 23.4046 58.4124 22.8351 58.9049 22.625C59.3972 22.4152 59.9669 22.6439 60.1769 23.1364C60.5568 24.0271 60.8971 24.9468 61.1882 25.8698C61.3493 26.3804 61.0659 26.9248 60.5554 27.0859C60.4583 27.1166 60.3599 27.1311 60.2634 27.1311ZM4.96632 26.433C4.86188 26.433 4.75563 26.4159 4.65132 26.3801C4.14501 26.2061 3.87551 25.6547 4.04936 25.1484C4.36346 24.234 4.72693 23.3235 5.12957 22.4421C5.35216 21.9551 5.9271 21.741 6.41415 21.9631C6.9012 22.1857 7.11551 22.7607 6.89305 23.2477C6.51652 24.0719 6.1767 24.9232 5.88302 25.7782C5.74511 26.1803 5.36896 26.433 4.96632 26.433ZM58.0546 21.9494C57.7117 21.9494 57.3794 21.7671 57.2032 21.445C56.7693 20.6515 56.2906 19.8694 55.7808 19.1199C55.4796 18.6772 55.5944 18.0742 56.037 17.773C56.48 17.4717 57.0827 17.5868 57.3839 18.0292C57.9288 18.8302 58.4403 19.6664 58.9042 20.5147C59.1611 20.9845 58.9886 21.5735 58.5189 21.8305C58.3713 21.9111 58.2118 21.9494 58.0546 21.9494ZM7.30539 21.3099C7.1402 21.3099 6.97281 21.2678 6.81963 21.1787C6.3565 20.91 6.19906 20.3167 6.46779 19.8537C6.95342 19.0169 7.48583 18.194 8.05018 17.4079C8.36247 16.9729 8.96817 16.8735 9.403 17.1855C9.83796 17.4977 9.93749 18.1035 9.6252 18.5384C9.09717 19.274 8.59901 20.044 8.14467 20.8269C7.965 21.1369 7.63965 21.3099 7.30539 21.3099ZM54.8861 17.2922C54.6082 17.2922 54.3321 17.1733 54.1403 16.9428C53.5613 16.247 52.9415 15.571 52.2977 14.9335C51.9173 14.5567 51.9142 13.943 52.291 13.5626C52.6677 13.1823 53.2816 13.179 53.6619 13.5558C54.3497 14.237 55.012 14.9592 55.6306 15.7027C55.973 16.1143 55.9171 16.7255 55.5054 17.0679C55.3244 17.2188 55.1047 17.2922 54.8861 17.2922ZM10.5902 16.7342C10.3637 16.7342 10.136 16.6552 9.95209 16.4943C9.54919 16.1415 9.50848 15.5291 9.86122 15.1262C10.4986 14.3982 11.1788 13.6927 11.8831 13.0292C12.2729 12.6624 12.8864 12.6806 13.2535 13.0702C13.6206 13.46 13.6022 14.0735 13.2125 14.4407C12.5533 15.0616 11.9167 15.7218 11.32 16.4034C11.1283 16.6222 10.86 16.7342 10.5902 16.7342Z" fill="#FDB441"/>
<path d="M50.8485 13.3014C50.6336 13.3014 50.4173 13.2303 50.2375 13.0841C49.8837 12.7964 49.5181 12.5135 49.1504 12.2431C48.7191 11.9258 48.6267 11.3191 48.944 10.8878C49.2612 10.4566 49.8677 10.3639 50.2993 10.6813C50.6919 10.9701 51.0827 11.2723 51.4606 11.5797C51.876 11.9174 51.939 12.5281 51.6012 12.9435C51.4098 13.1793 51.1303 13.3014 50.8485 13.3014Z" fill="#FDB441"/>
<path d="M45.3148 12.6022C45.3148 5.58127 39.5734 -0.0986187 32.5295 0.00129835C25.7705 0.0972084 20.2445 5.59226 20.1128 12.3508C20.0164 17.2976 22.7711 21.61 26.8445 23.7571C27.4672 24.0854 27.8576 24.7306 27.8576 25.4347V28.8333H37.42V25.5112C37.42 24.7968 37.8232 24.1465 38.4588 23.8202C42.5293 21.7311 45.3148 17.4922 45.3148 12.6022Z" fill="#FEE45A"/>
<path d="M32.6779 23.757C28.6045 21.6099 25.8498 17.2974 25.9463 12.3507C26.0597 6.52861 30.1763 1.64457 35.6356 0.34151C34.6407 0.105225 33.6003 -0.0139514 32.5295 0.00130111C25.7705 0.0972112 20.2445 5.59226 20.1128 12.3508C20.0164 17.2976 22.7711 21.61 26.8445 23.7571C27.4672 24.0855 27.8576 24.7306 27.8576 25.4347V28.8333H33.6909V25.4347C33.6911 24.7305 33.3007 24.0853 32.6779 23.757Z" fill="#FEC165"/>
<path d="M35.5854 31.4927H29.4141V35.7596C29.4141 36.7456 30.2134 37.545 31.1994 37.545H33.8001C34.7861 37.545 35.5854 36.7456 35.5854 35.7596V31.4927Z" fill="#D8E8F0"/>
<path d="M32.7435 35.7601V31.4932H29.4146V35.7601C29.4146 36.7461 30.2139 37.5455 31.1999 37.5455H33.8006C33.9254 37.5455 34.0471 37.5324 34.1647 37.5081C33.3533 37.3398 32.7435 36.6212 32.7435 35.7601Z" fill="#B4D2E2"/>
<path d="M32.7129 21.3574C37.5483 21.3574 41.4682 17.4375 41.4682 12.602C41.4682 7.76658 37.5483 3.84668 32.7129 3.84668C27.8774 3.84668 23.9575 7.76658 23.9575 12.602C23.9575 17.4375 27.8774 21.3574 32.7129 21.3574Z" fill="#FEF0AE"/>
<path d="M38.2889 28.4453H26.9589C26.8168 28.4453 26.7017 28.5605 26.7017 28.7025V31.0656C26.7017 31.5253 27.0743 31.8978 27.5338 31.8978H37.7139C38.1735 31.8978 38.546 31.5252 38.546 31.0656V28.7025C38.5462 28.5605 38.431 28.4453 38.2889 28.4453Z" fill="#B4D2E2"/>
<path d="M30.8739 31.0656V28.7025C30.8739 28.5605 30.989 28.4453 31.1311 28.4453H26.9589C26.8168 28.4453 26.7017 28.5605 26.7017 28.7025V31.0656C26.7017 31.5253 27.0743 31.8978 27.5338 31.8978H31.706C31.2464 31.8978 30.8739 31.5253 30.8739 31.0656Z" fill="#8ABBD5"/>
<path d="M33.5742 7.86078L34.1308 9.57385C34.2559 9.95904 34.6149 10.2198 35.0198 10.2198H36.821C37.7265 10.2198 38.103 11.3784 37.3705 11.9107L35.9134 12.9694C35.5857 13.2073 35.4487 13.6293 35.5738 14.0144L36.1304 15.7275C36.4103 16.5887 35.4245 17.3048 34.692 16.7725L33.2349 15.7139C32.9072 15.4759 32.4636 15.4759 32.1361 15.7139L30.6789 16.7725C29.9463 17.3048 28.9607 16.5886 29.2405 15.7275L29.7971 14.0144C29.9222 13.6292 29.7852 13.2073 29.4576 12.9694L28.0004 11.9107C27.2678 11.3784 27.6443 10.2198 28.5499 10.2198H30.3511C30.7561 10.2198 31.115 9.95904 31.2402 9.57385L31.7968 7.86078C32.0761 6.99953 33.2945 6.99953 33.5742 7.86078Z" fill="#FE646F"/>
</g>
<defs>
<clipPath id="clip0_288_953">
<rect width="65" height="65" fill="white"/>
</clipPath>
</defs>
</svg>
