<svg width="164" height="140" viewBox="0 0 164 140" fill="none" xmlns="http://www.w3.org/2000/svg">
<g clip-path="url(#clip0_402_5586)">
<path d="M23.896 63.1107L27.7067 102.321L73.3223 79.7145V34.5762L23.896 63.1107ZM65.2307 46.8391C65.4428 46.6446 65.6726 46.4679 65.9059 46.3336L67.1926 45.5948C67.479 45.4286 67.7512 45.3296 68.0057 45.2907C68.0764 45.5028 68.1153 45.7538 68.1153 46.0366V50.1054C68.1153 50.3953 68.0764 50.6958 67.9986 51.0033C67.7017 52.237 66.8321 53.5096 65.8069 54.1035L64.6086 54.7928C64.3152 54.9625 64.0359 55.0615 63.7778 55.0968C63.7071 54.8883 63.6683 54.6443 63.6647 54.3722L63.6258 50.2998C63.6152 49.1121 64.2904 47.7193 65.2307 46.8391ZM54.1308 53.2445C54.3429 53.0465 54.5727 52.8733 54.806 52.739L56.0928 52.0002C56.3791 51.834 56.6548 51.735 56.9093 51.6962C56.9765 51.9083 57.0154 52.1592 57.0154 52.4385V56.5073C57.0154 56.7972 56.9765 57.1012 56.8987 57.4087C56.5983 58.646 55.7322 59.915 54.707 60.5089L53.5087 61.1982C53.2153 61.3679 52.936 61.4669 52.6779 61.5022C52.6072 61.2937 52.5684 61.0498 52.5648 60.7776L52.5259 56.7052C52.5153 55.5175 53.1905 54.1247 54.1308 53.2445ZM43.4339 59.4024C43.6354 59.2151 43.8511 59.0525 44.0738 58.9288L45.357 58.1864C45.661 58.0097 45.9473 57.9107 46.2124 57.8789C46.2796 58.0804 46.3185 58.3137 46.3256 58.5753L46.4069 62.6617C46.4139 62.9374 46.3786 63.2309 46.3114 63.5243C46.0321 64.7438 45.1767 66.0058 44.1515 66.5926L42.9638 67.2749C42.6527 67.4516 42.3522 67.5577 42.08 67.5895C42.0129 67.3951 41.974 67.1724 41.9669 66.9214L41.8432 62.8314C41.8078 61.6613 42.483 60.265 43.4339 59.4024ZM31.3867 73.0652L31.171 68.9611C31.1074 67.8122 31.7755 66.423 32.7406 65.5639C32.9315 65.3943 33.1329 65.2458 33.345 65.1221L34.6247 64.3868C34.9464 64.203 35.2539 64.0969 35.5367 64.0651C35.6004 64.2525 35.6393 64.4681 35.6499 64.7085L35.816 68.8055C35.8266 69.0777 35.8019 69.3535 35.7418 69.6363C35.4873 70.8382 34.6459 72.0789 33.6172 72.6728L32.4366 73.3586C32.1078 73.5495 31.7932 73.6556 31.5033 73.6838C31.4397 73.5036 31.3973 73.295 31.3867 73.0652ZM38.6758 84.508L38.4602 80.4039C38.3966 79.255 39.0647 77.8657 40.0297 77.0067C40.2206 76.8371 40.4221 76.6886 40.6342 76.5649L41.9139 75.8296C42.2356 75.6458 42.5431 75.5397 42.8259 75.5079C42.8895 75.6953 42.9284 75.9109 42.939 76.1513L43.1052 80.2483C43.1158 80.5205 43.091 80.7962 43.0309 81.079C42.7764 82.2774 41.9351 83.5217 40.9064 84.1156L39.7257 84.8014C39.397 84.9923 39.0823 85.0983 38.7925 85.1266C38.7288 84.9463 38.6864 84.7378 38.6758 84.508ZM49.2561 78.3642L49.1323 74.2777C49.097 73.1041 49.7722 71.7113 50.7231 70.8452C50.9246 70.6579 51.1402 70.4988 51.3629 70.3715L52.6461 69.6292C52.9501 69.4524 53.2365 69.3535 53.5016 69.3181C53.5688 69.5231 53.6076 69.7565 53.6147 70.0216L53.696 74.1045C53.7031 74.3838 53.6677 74.6736 53.6006 74.967C53.3213 76.1902 52.4658 77.4486 51.4407 78.0389L50.2529 78.7212C49.9419 78.898 49.6449 79.0005 49.3727 79.0323C49.302 78.8379 49.2631 78.6152 49.2561 78.3642ZM59.854 72.2239L59.8151 68.148C59.8045 66.9638 60.4797 65.5675 61.42 64.6873C61.6321 64.4928 61.8619 64.3196 62.0952 64.1818L63.3819 63.443C63.6683 63.2768 63.9404 63.1778 64.195 63.1389C64.2657 63.351 64.3046 63.602 64.3046 63.8848V67.9536C64.3046 68.2435 64.2657 68.5475 64.1879 68.8515C63.8874 70.0887 63.0214 71.3578 61.9962 71.9517L60.7978 72.641C60.5044 72.8107 60.2252 72.9097 59.9671 72.945C59.8964 72.7365 59.8575 72.4961 59.854 72.2239Z" fill="#92BC4A"/>
<path opacity="0.6" d="M23.896 63.1107L27.7067 102.321L73.3223 79.7145V34.5762L23.896 63.1107ZM65.2307 46.8391C65.4428 46.6446 65.6726 46.4679 65.9059 46.3336L67.1926 45.5948C67.479 45.4286 67.7512 45.3296 68.0057 45.2907C68.0764 45.5028 68.1153 45.7538 68.1153 46.0366V50.1054C68.1153 50.3953 68.0764 50.6958 67.9986 51.0033C67.7017 52.237 66.8321 53.5096 65.8069 54.1035L64.6086 54.7928C64.3152 54.9625 64.0359 55.0615 63.7778 55.0968C63.7071 54.8883 63.6683 54.6443 63.6647 54.3722L63.6258 50.2998C63.6152 49.1121 64.2904 47.7193 65.2307 46.8391ZM54.1308 53.2445C54.3429 53.0465 54.5727 52.8733 54.806 52.739L56.0928 52.0002C56.3791 51.834 56.6548 51.735 56.9093 51.6962C56.9765 51.9083 57.0154 52.1592 57.0154 52.4385V56.5073C57.0154 56.7972 56.9765 57.1012 56.8987 57.4087C56.5983 58.646 55.7322 59.915 54.707 60.5089L53.5087 61.1982C53.2153 61.3679 52.936 61.4669 52.6779 61.5022C52.6072 61.2937 52.5684 61.0498 52.5648 60.7776L52.5259 56.7052C52.5153 55.5175 53.1905 54.1247 54.1308 53.2445ZM43.4339 59.4024C43.6354 59.2151 43.8511 59.0525 44.0738 58.9288L45.357 58.1864C45.661 58.0097 45.9473 57.9107 46.2124 57.8789C46.2796 58.0804 46.3185 58.3137 46.3256 58.5753L46.4069 62.6617C46.4139 62.9374 46.3786 63.2309 46.3114 63.5243C46.0321 64.7438 45.1767 66.0058 44.1515 66.5926L42.9638 67.2749C42.6527 67.4516 42.3522 67.5577 42.08 67.5895C42.0129 67.3951 41.974 67.1724 41.9669 66.9214L41.8432 62.8314C41.8078 61.6613 42.483 60.265 43.4339 59.4024ZM31.3867 73.0652L31.171 68.9611C31.1074 67.8122 31.7755 66.423 32.7406 65.5639C32.9315 65.3943 33.1329 65.2458 33.345 65.1221L34.6247 64.3868C34.9464 64.203 35.2539 64.0969 35.5367 64.0651C35.6004 64.2525 35.6393 64.4681 35.6499 64.7085L35.816 68.8055C35.8266 69.0777 35.8019 69.3535 35.7418 69.6363C35.4873 70.8382 34.6459 72.0789 33.6172 72.6728L32.4366 73.3586C32.1078 73.5495 31.7932 73.6556 31.5033 73.6838C31.4397 73.5036 31.3973 73.295 31.3867 73.0652ZM38.6758 84.508L38.4602 80.4039C38.3966 79.255 39.0647 77.8657 40.0297 77.0067C40.2206 76.8371 40.4221 76.6886 40.6342 76.5649L41.9139 75.8296C42.2356 75.6458 42.5431 75.5397 42.8259 75.5079C42.8895 75.6953 42.9284 75.9109 42.939 76.1513L43.1052 80.2483C43.1158 80.5205 43.091 80.7962 43.0309 81.079C42.7764 82.2774 41.9351 83.5217 40.9064 84.1156L39.7257 84.8014C39.397 84.9923 39.0823 85.0983 38.7925 85.1266C38.7288 84.9463 38.6864 84.7378 38.6758 84.508ZM49.2561 78.3642L49.1323 74.2777C49.097 73.1041 49.7722 71.7113 50.7231 70.8452C50.9246 70.6579 51.1402 70.4988 51.3629 70.3715L52.6461 69.6292C52.9501 69.4524 53.2365 69.3535 53.5016 69.3181C53.5688 69.5231 53.6076 69.7565 53.6147 70.0216L53.696 74.1045C53.7031 74.3838 53.6677 74.6736 53.6006 74.967C53.3213 76.1902 52.4658 77.4486 51.4407 78.0389L50.2529 78.7212C49.9419 78.898 49.6449 79.0005 49.3727 79.0323C49.302 78.8379 49.2631 78.6152 49.2561 78.3642ZM59.854 72.2239L59.8151 68.148C59.8045 66.9638 60.4797 65.5675 61.42 64.6873C61.6321 64.4928 61.8619 64.3196 62.0952 64.1818L63.3819 63.443C63.6683 63.2768 63.9404 63.1778 64.195 63.1389C64.2657 63.351 64.3046 63.602 64.3046 63.8848V67.9536C64.3046 68.2435 64.2657 68.5475 64.1879 68.8515C63.8874 70.0887 63.0214 71.3578 61.9962 71.9517L60.7978 72.641C60.5044 72.8107 60.2252 72.9097 59.9671 72.945C59.8964 72.7365 59.8575 72.4961 59.854 72.2239Z" fill="white"/>
<path d="M44.4909 81.1326C44.5015 81.4048 44.4768 81.6805 44.4167 81.9669C44.1621 83.1652 43.3208 84.4095 42.2921 85.0034L41.1114 85.6857C40.0509 86.2972 39.1142 86.0356 38.7925 85.1271C39.0824 85.0989 39.397 84.9928 39.7257 84.8019L40.9064 84.1161C41.9351 83.5223 42.7764 82.2779 43.0309 81.0796C43.091 80.7968 43.1158 80.521 43.1052 80.2488L42.939 76.1518C42.9284 75.9114 42.8895 75.6958 42.8259 75.5084C43.6672 75.4165 44.2823 75.9856 44.3248 77.0391L44.4909 81.1326Z" fill="#92BC4A"/>
<path d="M37.2018 69.6897C37.2124 69.9619 37.1877 70.2377 37.1276 70.524C36.8731 71.7224 36.0317 72.9667 35.0031 73.5606L33.8224 74.2428C32.7619 74.8544 31.8251 74.5928 31.5034 73.6843C31.7933 73.656 32.1079 73.55 32.4367 73.3591L33.6173 72.6733C34.646 72.0794 35.4874 70.8386 35.7419 69.6367C35.802 69.3539 35.8267 69.0782 35.8161 68.806L35.65 64.7089C35.6394 64.4685 35.6005 64.2529 35.5368 64.0656C36.3782 63.9736 36.9933 64.5428 37.0357 65.5962L37.2018 69.6897Z" fill="#92BC4A"/>
<path d="M65.6904 64.7684V68.8372C65.6904 69.1271 65.6516 69.4311 65.5738 69.7351C65.2733 70.9723 64.4072 72.2414 63.3821 72.8353L62.1837 73.5281C61.148 74.122 60.2678 73.8498 59.9673 72.9449C60.2253 72.9095 60.5046 72.8105 60.798 72.6409L61.9964 71.9515C63.0215 71.3576 63.8876 70.0886 64.1881 68.8513C64.2658 68.5473 64.3047 68.2433 64.3047 67.9534V63.8847C64.3047 63.6019 64.2658 63.3509 64.1951 63.1388C65.0683 63.0151 65.6904 63.6266 65.6904 64.7684Z" fill="#92BC4A"/>
<path d="M69.501 46.921V50.9898C69.501 51.2797 69.4621 51.5837 69.3843 51.8877C69.0874 53.1214 68.2178 54.394 67.1926 54.9879L65.9943 55.6772C64.9621 56.2746 64.0783 56.0024 63.7778 55.0975C64.0359 55.0621 64.3152 54.9631 64.6086 54.7934L65.8069 54.1041C66.8321 53.5102 67.7017 52.2376 67.9986 51.0039C68.0764 50.6964 68.1153 50.3959 68.1153 50.106V46.0373C68.1153 45.7545 68.0764 45.5035 68.0057 45.2914C68.8788 45.1676 69.501 45.7792 69.501 46.921Z" fill="#92BC4A"/>
<path d="M47.7926 63.5464C47.7997 63.8257 47.7644 64.1156 47.6972 64.409C47.4179 65.6286 46.5625 66.8906 45.5373 67.4809L44.3495 68.1632C43.2997 68.7676 42.3912 68.499 42.0801 67.5905C42.3523 67.5587 42.6527 67.4526 42.9638 67.2759L44.1516 66.5936C45.1767 66.0068 46.0322 64.7448 46.3115 63.5252C46.3786 63.2318 46.414 62.9384 46.4069 62.6627L46.3256 58.5762C46.3185 58.3146 46.2797 58.0813 46.2125 57.8798C47.0715 57.7703 47.6901 58.3641 47.7113 59.46L47.7926 63.5464Z" fill="#92BC4A"/>
<path d="M55.0821 74.9887C55.0891 75.2679 55.0538 75.5613 54.9866 75.8512C54.7074 77.0743 53.8519 78.3328 52.8267 78.9231L51.639 79.6054C50.5891 80.2099 49.6806 79.9412 49.373 79.0327C49.6452 79.0009 49.9422 78.8984 50.2533 78.7216L51.441 78.0394C52.4662 77.449 53.3216 76.1906 53.6009 74.9675C53.6681 74.6741 53.7034 74.3842 53.6963 74.1049L53.615 70.022C53.608 69.7569 53.5691 69.5236 53.5019 69.3185C54.3609 69.2125 54.9796 69.8064 55.0008 70.9057L55.0821 74.9887Z" fill="#92BC4A"/>
<path d="M58.4014 53.3262V57.395C58.4014 57.6849 58.3625 57.9853 58.2847 58.2929C57.9843 59.5301 57.1182 60.7992 56.093 61.3931L54.8947 62.0824C53.8624 62.6798 52.9787 62.4041 52.6782 61.5027C52.9363 61.4673 53.2155 61.3683 53.5089 61.1986L54.7073 60.5093C55.7325 59.9154 56.5985 58.6464 56.899 57.4091C56.9768 57.1016 57.0157 56.7976 57.0157 56.5077V52.4389C57.0157 52.1597 56.9768 51.9087 56.9096 51.6966C57.7828 51.5729 58.4014 52.1879 58.4014 53.3262Z" fill="#92BC4A"/>
<path opacity="0.2" d="M44.4909 81.1326C44.5015 81.4048 44.4768 81.6805 44.4167 81.9669C44.1621 83.1652 43.3208 84.4095 42.2921 85.0034L41.1114 85.6857C40.0509 86.2972 39.1142 86.0356 38.7925 85.1271C39.0824 85.0989 39.397 84.9928 39.7257 84.8019L40.9064 84.1161C41.9351 83.5223 42.7764 82.2779 43.0309 81.0796C43.091 80.7968 43.1158 80.521 43.1052 80.2488L42.939 76.1518C42.9284 75.9114 42.8895 75.6958 42.8259 75.5084C43.6672 75.4165 44.2823 75.9856 44.3248 77.0391L44.4909 81.1326Z" fill="white"/>
<path opacity="0.2" d="M37.2018 69.6897C37.2124 69.9619 37.1877 70.2377 37.1276 70.524C36.8731 71.7224 36.0317 72.9667 35.0031 73.5606L33.8224 74.2428C32.7619 74.8544 31.8251 74.5928 31.5034 73.6843C31.7933 73.656 32.1079 73.55 32.4367 73.3591L33.6173 72.6733C34.646 72.0794 35.4874 70.8386 35.7419 69.6367C35.802 69.3539 35.8267 69.0782 35.8161 68.806L35.65 64.7089C35.6394 64.4685 35.6005 64.2529 35.5368 64.0656C36.3782 63.9736 36.9933 64.5428 37.0357 65.5962L37.2018 69.6897Z" fill="white"/>
<path opacity="0.2" d="M65.6904 64.7684V68.8372C65.6904 69.1271 65.6516 69.4311 65.5738 69.7351C65.2733 70.9723 64.4072 72.2414 63.3821 72.8353L62.1837 73.5281C61.148 74.122 60.2678 73.8498 59.9673 72.9449C60.2253 72.9095 60.5046 72.8105 60.798 72.6409L61.9964 71.9515C63.0215 71.3576 63.8876 70.0886 64.1881 68.8513C64.2658 68.5473 64.3047 68.2433 64.3047 67.9534V63.8847C64.3047 63.6019 64.2658 63.3509 64.1951 63.1388C65.0683 63.0151 65.6904 63.6266 65.6904 64.7684Z" fill="white"/>
<path opacity="0.2" d="M69.501 46.921V50.9898C69.501 51.2797 69.4621 51.5837 69.3843 51.8877C69.0874 53.1214 68.2178 54.394 67.1926 54.9879L65.9943 55.6772C64.9621 56.2746 64.0783 56.0024 63.7778 55.0975C64.0359 55.0621 64.3152 54.9631 64.6086 54.7934L65.8069 54.1041C66.8321 53.5102 67.7017 52.2376 67.9986 51.0039C68.0764 50.6964 68.1153 50.3959 68.1153 50.106V46.0373C68.1153 45.7545 68.0764 45.5035 68.0057 45.2914C68.8788 45.1676 69.501 45.7792 69.501 46.921Z" fill="white"/>
<path opacity="0.2" d="M47.7926 63.5464C47.7997 63.8257 47.7644 64.1156 47.6972 64.409C47.4179 65.6286 46.5625 66.8906 45.5373 67.4809L44.3495 68.1632C43.2997 68.7676 42.3912 68.499 42.0801 67.5905C42.3523 67.5587 42.6527 67.4526 42.9638 67.2759L44.1516 66.5936C45.1767 66.0068 46.0322 64.7448 46.3115 63.5252C46.3786 63.2318 46.414 62.9384 46.4069 62.6627L46.3256 58.5762C46.3185 58.3146 46.2797 58.0813 46.2125 57.8798C47.0715 57.7703 47.6901 58.3641 47.7113 59.46L47.7926 63.5464Z" fill="white"/>
<path opacity="0.2" d="M55.0821 74.9887C55.0891 75.2679 55.0538 75.5613 54.9866 75.8512C54.7074 77.0743 53.8519 78.3328 52.8267 78.9231L51.639 79.6054C50.5891 80.2099 49.6806 79.9412 49.373 79.0327C49.6452 79.0009 49.9422 78.8984 50.2533 78.7216L51.441 78.0394C52.4662 77.449 53.3216 76.1906 53.6009 74.9675C53.6681 74.6741 53.7034 74.3842 53.6963 74.1049L53.615 70.022C53.608 69.7569 53.5691 69.5236 53.5019 69.3185C54.3609 69.2125 54.9796 69.8064 55.0008 70.9057L55.0821 74.9887Z" fill="white"/>
<path opacity="0.2" d="M58.4014 53.3262V57.395C58.4014 57.6849 58.3625 57.9853 58.2847 58.2929C57.9843 59.5301 57.1182 60.7992 56.093 61.3931L54.8947 62.0824C53.8624 62.6798 52.9787 62.4041 52.6782 61.5027C52.9363 61.4673 53.2155 61.3683 53.5089 61.1986L54.7073 60.5093C55.7325 59.9154 56.5985 58.6464 56.899 57.4091C56.9768 57.1016 57.0157 56.7976 57.0157 56.5077V52.4389C57.0157 52.1597 56.9768 51.9087 56.9096 51.6966C57.7828 51.5729 58.4014 52.1879 58.4014 53.3262Z" fill="white"/>
<path d="M73.3223 34.5762V79.7145L133.651 114.566L140.742 73.4965L73.3223 34.5762ZM122.802 70.5518L124.081 71.2906C124.279 71.4038 124.47 71.5416 124.65 71.7007C125.623 72.542 126.284 73.9207 126.199 75.059L125.884 79.1772C125.87 79.3858 125.828 79.5732 125.767 79.7393C125.463 79.711 125.124 79.605 124.778 79.4035L123.604 78.7283C122.572 78.1344 121.745 76.8972 121.515 75.72C121.462 75.4513 121.441 75.1791 121.458 74.9246L121.723 70.8099C121.738 70.5907 121.776 70.3963 121.84 70.2231C122.137 70.2478 122.466 70.3574 122.802 70.5518ZM112.08 64.3727L113.36 65.1079C113.572 65.2317 113.773 65.3801 113.964 65.5498C114.929 66.4088 115.597 67.7981 115.534 68.9469L115.318 73.0511C115.307 73.2808 115.265 73.4894 115.201 73.6697C114.912 73.6414 114.597 73.5354 114.268 73.3445L113.087 72.6587C112.059 72.0648 111.217 70.824 110.963 69.6221C110.903 69.3393 110.878 69.0636 110.889 68.7914L111.055 64.6943C111.065 64.454 111.104 64.2383 111.168 64.051C111.451 64.0828 111.758 64.1888 112.08 64.3727ZM101.348 58.1723L102.631 58.9146C102.854 59.0384 103.069 59.201 103.271 59.3883C104.222 60.2509 104.897 61.6472 104.862 62.8173L104.738 66.9073C104.731 67.1582 104.692 67.3809 104.625 67.5754C104.352 67.5436 104.052 67.4375 103.741 67.2608L102.553 66.5785C101.528 65.9917 100.673 64.7297 100.393 63.5101C100.326 63.2167 100.291 62.9233 100.298 62.6476L100.379 58.5611C100.386 58.2995 100.425 58.0662 100.492 57.8647C100.757 57.8965 101.044 57.9955 101.348 58.1723ZM90.6119 51.986L91.8987 52.7248C92.132 52.8592 92.3618 53.0324 92.5739 53.2304C93.5142 54.1106 94.1894 55.5034 94.1788 56.6911L94.1399 60.7634C94.1399 61.0356 94.0974 61.2795 94.0267 61.4881C93.7687 61.4528 93.4894 61.3538 93.196 61.1841L91.9977 60.4948C90.9725 59.9009 90.1064 58.6318 89.806 57.3946C89.7282 57.087 89.6893 56.783 89.6893 56.4932V52.4244C89.6893 52.1451 89.7282 51.8941 89.7954 51.682C90.0499 51.7209 90.3256 51.8199 90.6119 51.986ZM79.512 45.5806L80.7988 46.3194C81.0321 46.4538 81.2619 46.6305 81.474 46.8249C82.4143 47.7052 83.0895 49.0979 83.0789 50.2857L83.04 54.358C83.0364 54.6302 82.9976 54.8741 82.9269 55.0827C82.6688 55.0473 82.3895 54.9484 82.0961 54.7787L80.8978 54.0894C79.8726 53.4955 79.003 52.2229 78.7061 50.9892C78.6283 50.6816 78.5894 50.3811 78.5894 50.0913V46.0225C78.5894 45.7397 78.6283 45.4887 78.699 45.2766C78.9535 45.3155 79.2257 45.4145 79.512 45.5806ZM85.9069 72.6269L84.7085 71.9376C83.6833 71.3437 82.8173 70.0746 82.5168 68.8374C82.439 68.5334 82.4001 68.2293 82.4001 67.9395V63.8707C82.4001 63.5879 82.439 63.3369 82.5097 63.1248C82.7642 63.1637 83.0364 63.2627 83.3228 63.4288L84.6095 64.1676C84.8428 64.3055 85.0726 64.4787 85.2847 64.6731C86.225 65.5533 86.9002 66.9497 86.8896 68.1339L86.8507 72.2098C86.8472 72.4819 86.8083 72.7223 86.7376 72.9309C86.4795 72.8955 86.2003 72.7966 85.9069 72.6269ZM96.4518 78.7071L95.264 78.0248C94.2388 77.4345 93.3834 76.176 93.1041 74.9529C93.0369 74.6595 93.0016 74.3696 93.0087 74.0904L93.09 70.0074C93.097 69.7423 93.1359 69.509 93.2031 69.304C93.4682 69.3393 93.7546 69.4383 94.0586 69.6151L95.3418 70.3574C95.5645 70.4847 95.7801 70.6437 95.9816 70.8311C96.9325 71.6972 97.6077 73.09 97.5723 74.2636L97.4486 78.35C97.4416 78.601 97.4027 78.8237 97.332 79.0182C97.0598 78.9863 96.7628 78.8838 96.4518 78.7071ZM106.979 84.7873L105.798 84.1015C104.77 83.5076 103.928 82.2633 103.674 81.0649C103.614 80.7821 103.589 80.5064 103.6 80.2342L103.766 76.1371C103.776 75.8968 103.815 75.6811 103.879 75.4938C104.162 75.5256 104.469 75.6316 104.791 75.8154L106.07 76.5507C106.283 76.6744 106.484 76.8229 106.675 76.9926C107.64 77.8516 108.308 79.2409 108.245 80.3897L108.029 84.4939C108.018 84.7236 107.976 84.9322 107.912 85.1125C107.622 85.0842 107.308 84.9782 106.979 84.7873ZM117.489 90.8498L116.315 90.1711C115.283 89.5772 114.455 88.3435 114.226 87.1663C114.173 86.8977 114.151 86.6255 114.169 86.3709L114.434 82.2562C114.448 82.037 114.487 81.8426 114.551 81.6694C114.851 81.6977 115.173 81.8037 115.512 81.9982L116.792 82.737C116.99 82.8501 117.181 82.988 117.361 83.147C118.333 83.9884 118.994 85.367 118.91 86.5053L118.595 90.6235C118.581 90.8321 118.538 91.0195 118.478 91.1856C118.171 91.1573 117.838 91.0513 117.489 90.8498ZM127.97 96.9088L126.81 96.2407C125.775 95.6432 124.962 94.4201 124.756 93.2677C124.714 93.0097 124.7 92.7551 124.721 92.5077L125.092 88.3859C125.11 88.1879 125.149 88.0112 125.209 87.8521C125.524 87.8769 125.87 87.9864 126.227 88.1915L127.5 88.9267C127.687 89.0328 127.864 89.1601 128.033 89.305C129.02 90.1428 129.674 91.5108 129.561 92.6279L129.136 96.7603C129.119 96.9406 129.08 97.1032 129.023 97.2517C128.698 97.234 128.337 97.1209 127.97 96.9088ZM135.259 85.466L134.099 84.7979C133.064 84.2005 132.251 82.9773 132.046 81.8249C132.003 81.5669 131.989 81.3124 132.01 81.0649L132.381 76.9431C132.399 76.7452 132.438 76.5684 132.498 76.4093C132.813 76.4341 133.159 76.5437 133.516 76.7487L134.789 77.484C134.976 77.59 135.153 77.7173 135.323 77.8622C136.309 78.6965 136.963 80.068 136.85 81.1851L136.426 85.3175C136.408 85.4978 136.369 85.6604 136.312 85.8089C135.987 85.7912 135.63 85.6781 135.259 85.466Z" fill="#92BC4A"/>
<path opacity="0.45" d="M73.3223 34.5762V79.7145L133.651 114.566L140.742 73.4965L73.3223 34.5762ZM122.802 70.5518L124.081 71.2906C124.279 71.4038 124.47 71.5416 124.65 71.7007C125.623 72.542 126.284 73.9207 126.199 75.059L125.884 79.1772C125.87 79.3858 125.828 79.5732 125.767 79.7393C125.463 79.711 125.124 79.605 124.778 79.4035L123.604 78.7283C122.572 78.1344 121.745 76.8972 121.515 75.72C121.462 75.4513 121.441 75.1791 121.458 74.9246L121.723 70.8099C121.738 70.5907 121.776 70.3963 121.84 70.2231C122.137 70.2478 122.466 70.3574 122.802 70.5518ZM112.08 64.3727L113.36 65.1079C113.572 65.2317 113.773 65.3801 113.964 65.5498C114.929 66.4088 115.597 67.7981 115.534 68.9469L115.318 73.0511C115.307 73.2808 115.265 73.4894 115.201 73.6697C114.912 73.6414 114.597 73.5354 114.268 73.3445L113.087 72.6587C112.059 72.0648 111.217 70.824 110.963 69.6221C110.903 69.3393 110.878 69.0636 110.889 68.7914L111.055 64.6943C111.065 64.454 111.104 64.2383 111.168 64.051C111.451 64.0828 111.758 64.1888 112.08 64.3727ZM101.348 58.1723L102.631 58.9146C102.854 59.0384 103.069 59.201 103.271 59.3883C104.222 60.2509 104.897 61.6472 104.862 62.8173L104.738 66.9073C104.731 67.1582 104.692 67.3809 104.625 67.5754C104.352 67.5436 104.052 67.4375 103.741 67.2608L102.553 66.5785C101.528 65.9917 100.673 64.7297 100.393 63.5101C100.326 63.2167 100.291 62.9233 100.298 62.6476L100.379 58.5611C100.386 58.2995 100.425 58.0662 100.492 57.8647C100.757 57.8965 101.044 57.9955 101.348 58.1723ZM90.6119 51.986L91.8987 52.7248C92.132 52.8592 92.3618 53.0324 92.5739 53.2304C93.5142 54.1106 94.1894 55.5034 94.1788 56.6911L94.1399 60.7634C94.1399 61.0356 94.0974 61.2795 94.0267 61.4881C93.7687 61.4528 93.4894 61.3538 93.196 61.1841L91.9977 60.4948C90.9725 59.9009 90.1064 58.6318 89.806 57.3946C89.7282 57.087 89.6893 56.783 89.6893 56.4932V52.4244C89.6893 52.1451 89.7282 51.8941 89.7954 51.682C90.0499 51.7209 90.3256 51.8199 90.6119 51.986ZM79.512 45.5806L80.7988 46.3194C81.0321 46.4538 81.2619 46.6305 81.474 46.8249C82.4143 47.7052 83.0895 49.0979 83.0789 50.2857L83.04 54.358C83.0364 54.6302 82.9976 54.8741 82.9269 55.0827C82.6688 55.0473 82.3895 54.9484 82.0961 54.7787L80.8978 54.0894C79.8726 53.4955 79.003 52.2229 78.7061 50.9892C78.6283 50.6816 78.5894 50.3811 78.5894 50.0913V46.0225C78.5894 45.7397 78.6283 45.4887 78.699 45.2766C78.9535 45.3155 79.2257 45.4145 79.512 45.5806ZM85.9069 72.6269L84.7085 71.9376C83.6833 71.3437 82.8173 70.0746 82.5168 68.8374C82.439 68.5334 82.4001 68.2293 82.4001 67.9395V63.8707C82.4001 63.5879 82.439 63.3369 82.5097 63.1248C82.7642 63.1637 83.0364 63.2627 83.3228 63.4288L84.6095 64.1676C84.8428 64.3055 85.0726 64.4787 85.2847 64.6731C86.225 65.5533 86.9002 66.9497 86.8896 68.1339L86.8507 72.2098C86.8472 72.4819 86.8083 72.7223 86.7376 72.9309C86.4795 72.8955 86.2003 72.7966 85.9069 72.6269ZM96.4518 78.7071L95.264 78.0248C94.2388 77.4345 93.3834 76.176 93.1041 74.9529C93.0369 74.6595 93.0016 74.3696 93.0087 74.0904L93.09 70.0074C93.097 69.7423 93.1359 69.509 93.2031 69.304C93.4682 69.3393 93.7546 69.4383 94.0586 69.6151L95.3418 70.3574C95.5645 70.4847 95.7801 70.6437 95.9816 70.8311C96.9325 71.6972 97.6077 73.09 97.5723 74.2636L97.4486 78.35C97.4416 78.601 97.4027 78.8237 97.332 79.0182C97.0598 78.9863 96.7628 78.8838 96.4518 78.7071ZM106.979 84.7873L105.798 84.1015C104.77 83.5076 103.928 82.2633 103.674 81.0649C103.614 80.7821 103.589 80.5064 103.6 80.2342L103.766 76.1371C103.776 75.8968 103.815 75.6811 103.879 75.4938C104.162 75.5256 104.469 75.6316 104.791 75.8154L106.07 76.5507C106.283 76.6744 106.484 76.8229 106.675 76.9926C107.64 77.8516 108.308 79.2409 108.245 80.3897L108.029 84.4939C108.018 84.7236 107.976 84.9322 107.912 85.1125C107.622 85.0842 107.308 84.9782 106.979 84.7873ZM117.489 90.8498L116.315 90.1711C115.283 89.5772 114.455 88.3435 114.226 87.1663C114.173 86.8977 114.151 86.6255 114.169 86.3709L114.434 82.2562C114.448 82.037 114.487 81.8426 114.551 81.6694C114.851 81.6977 115.173 81.8037 115.512 81.9982L116.792 82.737C116.99 82.8501 117.181 82.988 117.361 83.147C118.333 83.9884 118.994 85.367 118.91 86.5053L118.595 90.6235C118.581 90.8321 118.538 91.0195 118.478 91.1856C118.171 91.1573 117.838 91.0513 117.489 90.8498ZM127.97 96.9088L126.81 96.2407C125.775 95.6432 124.962 94.4201 124.756 93.2677C124.714 93.0097 124.7 92.7551 124.721 92.5077L125.092 88.3859C125.11 88.1879 125.149 88.0112 125.209 87.8521C125.524 87.8769 125.87 87.9864 126.227 88.1915L127.5 88.9267C127.687 89.0328 127.864 89.1601 128.033 89.305C129.02 90.1428 129.674 91.5108 129.561 92.6279L129.136 96.7603C129.119 96.9406 129.08 97.1032 129.023 97.2517C128.698 97.234 128.337 97.1209 127.97 96.9088ZM135.259 85.466L134.099 84.7979C133.064 84.2005 132.251 82.9773 132.046 81.8249C132.003 81.5669 131.989 81.3124 132.01 81.0649L132.381 76.9431C132.399 76.7452 132.438 76.5684 132.498 76.4093C132.813 76.4341 133.159 76.5437 133.516 76.7487L134.789 77.484C134.976 77.59 135.153 77.7173 135.323 77.8622C136.309 78.6965 136.963 80.068 136.85 81.1851L136.426 85.3175C136.408 85.4978 136.369 85.6604 136.312 85.8089C135.987 85.7912 135.63 85.6781 135.259 85.466Z" fill="white"/>
<path d="M135.259 85.4659L134.1 84.7977C133.064 84.2003 132.251 82.9772 132.046 81.8248C132.004 81.5668 131.989 81.3122 132.011 81.0648L132.382 76.943C132.4 76.745 132.438 76.5683 132.499 76.4092C131.689 76.3526 131.081 76.8687 130.996 77.8267L130.625 81.9485C130.604 82.196 130.618 82.4505 130.66 82.7086C130.865 83.861 131.678 85.0841 132.714 85.6815L133.874 86.3496C134.973 86.9859 135.97 86.7278 136.313 85.8088C135.988 85.7911 135.631 85.678 135.259 85.4659ZM117.489 90.8497L116.315 90.1709C115.283 89.5771 114.456 88.3433 114.226 87.1662C114.173 86.8975 114.152 86.6253 114.17 86.3708L114.435 82.2561C114.449 82.0369 114.488 81.8425 114.551 81.6693C113.728 81.595 113.113 82.1359 113.049 83.1398L112.784 87.2546C112.766 87.5091 112.784 87.7813 112.84 88.0499C113.07 89.2271 113.897 90.4608 114.93 91.0582L116.103 91.7334C117.178 92.3556 118.143 92.0975 118.479 91.1855C118.171 91.1572 117.839 91.0511 117.489 90.8497ZM127.97 96.9086L126.811 96.2405C125.775 95.6431 124.962 94.42 124.757 93.2676C124.714 93.0095 124.7 92.755 124.722 92.5076L125.093 88.3858C125.11 88.1878 125.149 88.0111 125.209 87.852C124.4 87.7954 123.792 88.3115 123.707 89.2695L123.336 93.3913C123.315 93.6388 123.329 93.8968 123.371 94.1513C123.576 95.3037 124.389 96.5269 125.425 97.1243L126.584 97.7924C127.684 98.4287 128.681 98.1706 129.024 97.2515C128.698 97.2338 128.338 97.1207 127.97 96.9086ZM124.778 79.4033L123.604 78.7282C122.572 78.1343 121.745 76.897 121.515 75.7199C121.462 75.4512 121.441 75.179 121.459 74.9245L121.724 70.8098C121.738 70.5906 121.777 70.3962 121.841 70.2229C121.013 70.1522 120.402 70.6931 120.338 71.697L120.073 75.8082C120.055 76.0628 120.077 76.335 120.13 76.6036C120.359 77.7808 121.187 79.018 122.219 79.6119L123.392 80.2871C124.467 80.9092 125.432 80.6512 125.768 79.7392C125.464 79.7109 125.125 79.6048 124.778 79.4033ZM106.979 84.7871L105.799 84.1013C104.77 83.5075 103.929 82.2631 103.674 81.0648C103.614 80.782 103.589 80.5063 103.6 80.2341L103.766 76.137C103.777 75.8966 103.816 75.681 103.879 75.4936C103.038 75.4017 102.423 75.9709 102.38 77.0243L102.214 81.1178C102.204 81.39 102.228 81.6657 102.288 81.9521C102.543 83.1504 103.384 84.3947 104.413 84.9886L105.594 85.6709C106.654 86.2824 107.591 86.0208 107.913 85.1124C107.623 85.0841 107.308 84.978 106.979 84.7871ZM114.269 73.3443L113.088 72.6586C112.059 72.0647 111.218 70.8239 110.963 69.622C110.903 69.3392 110.878 69.0635 110.889 68.7913L111.055 64.6942C111.066 64.4538 111.105 64.2382 111.168 64.0508C110.327 63.9589 109.712 64.5281 109.67 65.5815L109.503 69.675C109.493 69.9472 109.518 70.223 109.578 70.5093C109.832 71.7077 110.673 72.952 111.702 73.5458L112.883 74.2281C113.943 74.8397 114.88 74.5781 115.202 73.6696C114.912 73.6413 114.597 73.5352 114.269 73.3443ZM85.9073 72.6267L84.7089 71.9374C83.6838 71.3435 82.8177 70.0745 82.5172 68.8372C82.4394 68.5332 82.4006 68.2292 82.4006 67.9393V63.8706C82.4006 63.5878 82.4394 63.3368 82.5101 63.1247C81.637 63.001 81.0148 63.6125 81.0148 64.7543V68.8231C81.0148 69.113 81.0537 69.417 81.1315 69.721C81.432 70.9582 82.298 72.2273 83.3232 72.8212L84.5215 73.514C85.5573 74.1079 86.4375 73.8357 86.738 72.9308C86.4799 72.8954 86.2007 72.7964 85.9073 72.6267ZM82.0965 54.7786L80.8982 54.0892C79.873 53.4953 79.0034 52.2228 78.7065 50.989C78.6287 50.6815 78.5898 50.381 78.5898 50.0911V46.0224C78.5898 45.7396 78.6287 45.4886 78.6994 45.2765C77.8263 45.1528 77.2041 45.7643 77.2041 46.9061V50.9749C77.2041 51.2648 77.243 51.5688 77.3208 51.8728C77.6177 53.1065 78.4873 54.3791 79.5125 54.973L80.7108 55.6623C81.743 56.2597 82.6268 55.9875 82.9273 55.0826C82.6692 55.0472 82.3899 54.9482 82.0965 54.7786ZM103.741 67.2606L102.554 66.5784C101.528 65.9916 100.673 64.7296 100.394 63.51C100.327 63.2166 100.291 62.9232 100.298 62.6475L100.38 58.561C100.387 58.2994 100.426 58.0661 100.493 57.8646C99.6337 57.755 99.015 58.3489 98.9938 59.4447L98.9125 63.5312C98.9055 63.8105 98.9408 64.1003 99.008 64.3937C99.2872 65.6133 100.143 66.8753 101.168 67.4657L102.356 68.1479C103.406 68.7524 104.314 68.4837 104.625 67.5752C104.353 67.5434 104.052 67.4374 103.741 67.2606ZM96.4522 78.7069L95.2644 78.0247C94.2393 77.4343 93.3838 76.1759 93.1045 74.9528C93.0374 74.6594 93.002 74.3695 93.0091 74.0902L93.0904 70.0073C93.0975 69.7422 93.1363 69.5089 93.2035 69.3039C92.3445 69.1978 91.7259 69.7917 91.7047 70.8911L91.6234 74.974C91.6163 75.2532 91.6516 75.5467 91.7188 75.8365C91.9981 77.0596 92.8535 78.3181 93.8787 78.9084L95.0664 79.5907C96.1163 80.1952 97.0248 79.9265 97.3324 79.018C97.0602 78.9862 96.7632 78.8837 96.4522 78.7069ZM93.1964 61.184L91.9981 60.4946C90.9729 59.9008 90.1068 58.6317 89.8064 57.3944C89.7286 57.0869 89.6897 56.7829 89.6897 56.493V52.4242C89.6897 52.145 89.7286 51.894 89.7958 51.6819C88.9226 51.5582 88.304 52.1733 88.304 53.3115V57.3803C88.304 57.6702 88.3429 57.9707 88.4207 58.2782C88.7211 59.5154 89.5872 60.7845 90.6123 61.3784L91.8107 62.0677C92.8429 62.6651 93.7267 62.3894 94.0272 61.488C93.7691 61.4526 93.4898 61.3536 93.1964 61.184Z" fill="#92BC4A"/>
<path opacity="0.2" d="M135.259 85.4659L134.1 84.7977C133.064 84.2003 132.251 82.9772 132.046 81.8248C132.004 81.5668 131.989 81.3122 132.011 81.0648L132.382 76.943C132.4 76.745 132.438 76.5683 132.499 76.4092C131.689 76.3526 131.081 76.8687 130.996 77.8267L130.625 81.9485C130.604 82.196 130.618 82.4505 130.66 82.7086C130.865 83.861 131.678 85.0841 132.714 85.6815L133.874 86.3496C134.973 86.9859 135.97 86.7278 136.313 85.8088C135.988 85.7911 135.631 85.678 135.259 85.4659ZM117.489 90.8497L116.315 90.1709C115.283 89.5771 114.456 88.3433 114.226 87.1662C114.173 86.8975 114.152 86.6253 114.17 86.3708L114.435 82.2561C114.449 82.0369 114.488 81.8425 114.551 81.6693C113.728 81.595 113.113 82.1359 113.049 83.1398L112.784 87.2546C112.766 87.5091 112.784 87.7813 112.84 88.0499C113.07 89.2271 113.897 90.4608 114.93 91.0582L116.103 91.7334C117.178 92.3556 118.143 92.0975 118.479 91.1855C118.171 91.1572 117.839 91.0511 117.489 90.8497ZM127.97 96.9086L126.811 96.2405C125.775 95.6431 124.962 94.42 124.757 93.2676C124.714 93.0095 124.7 92.755 124.722 92.5076L125.093 88.3858C125.11 88.1878 125.149 88.0111 125.209 87.852C124.4 87.7954 123.792 88.3115 123.707 89.2695L123.336 93.3913C123.315 93.6388 123.329 93.8968 123.371 94.1513C123.576 95.3037 124.389 96.5269 125.425 97.1243L126.584 97.7924C127.684 98.4287 128.681 98.1706 129.024 97.2515C128.698 97.2338 128.338 97.1207 127.97 96.9086ZM124.778 79.4033L123.604 78.7282C122.572 78.1343 121.745 76.897 121.515 75.7199C121.462 75.4512 121.441 75.179 121.459 74.9245L121.724 70.8098C121.738 70.5906 121.777 70.3962 121.841 70.2229C121.013 70.1522 120.402 70.6931 120.338 71.697L120.073 75.8082C120.055 76.0628 120.077 76.335 120.13 76.6036C120.359 77.7808 121.187 79.018 122.219 79.6119L123.392 80.2871C124.467 80.9092 125.432 80.6512 125.768 79.7392C125.464 79.7109 125.125 79.6048 124.778 79.4033ZM106.979 84.7871L105.799 84.1013C104.77 83.5075 103.929 82.2631 103.674 81.0648C103.614 80.782 103.589 80.5063 103.6 80.2341L103.766 76.137C103.777 75.8966 103.816 75.681 103.879 75.4936C103.038 75.4017 102.423 75.9709 102.38 77.0243L102.214 81.1178C102.204 81.39 102.228 81.6657 102.288 81.9521C102.543 83.1504 103.384 84.3947 104.413 84.9886L105.594 85.6709C106.654 86.2824 107.591 86.0208 107.913 85.1124C107.623 85.0841 107.308 84.978 106.979 84.7871ZM114.269 73.3443L113.088 72.6586C112.059 72.0647 111.218 70.8239 110.963 69.622C110.903 69.3392 110.878 69.0635 110.889 68.7913L111.055 64.6942C111.066 64.4538 111.105 64.2382 111.168 64.0508C110.327 63.9589 109.712 64.5281 109.67 65.5815L109.503 69.675C109.493 69.9472 109.518 70.223 109.578 70.5093C109.832 71.7077 110.673 72.952 111.702 73.5458L112.883 74.2281C113.943 74.8397 114.88 74.5781 115.202 73.6696C114.912 73.6413 114.597 73.5352 114.269 73.3443ZM85.9073 72.6267L84.7089 71.9374C83.6838 71.3435 82.8177 70.0745 82.5172 68.8372C82.4394 68.5332 82.4006 68.2292 82.4006 67.9393V63.8706C82.4006 63.5878 82.4394 63.3368 82.5101 63.1247C81.637 63.001 81.0148 63.6125 81.0148 64.7543V68.8231C81.0148 69.113 81.0537 69.417 81.1315 69.721C81.432 70.9582 82.298 72.2273 83.3232 72.8212L84.5215 73.514C85.5573 74.1079 86.4375 73.8357 86.738 72.9308C86.4799 72.8954 86.2007 72.7964 85.9073 72.6267ZM82.0965 54.7786L80.8982 54.0892C79.873 53.4953 79.0034 52.2228 78.7065 50.989C78.6287 50.6815 78.5898 50.381 78.5898 50.0911V46.0224C78.5898 45.7396 78.6287 45.4886 78.6994 45.2765C77.8263 45.1528 77.2041 45.7643 77.2041 46.9061V50.9749C77.2041 51.2648 77.243 51.5688 77.3208 51.8728C77.6177 53.1065 78.4873 54.3791 79.5125 54.973L80.7108 55.6623C81.743 56.2597 82.6268 55.9875 82.9273 55.0826C82.6692 55.0472 82.3899 54.9482 82.0965 54.7786ZM103.741 67.2606L102.554 66.5784C101.528 65.9916 100.673 64.7296 100.394 63.51C100.327 63.2166 100.291 62.9232 100.298 62.6475L100.38 58.561C100.387 58.2994 100.426 58.0661 100.493 57.8646C99.6337 57.755 99.015 58.3489 98.9938 59.4447L98.9125 63.5312C98.9055 63.8105 98.9408 64.1003 99.008 64.3937C99.2872 65.6133 100.143 66.8753 101.168 67.4657L102.356 68.1479C103.406 68.7524 104.314 68.4837 104.625 67.5752C104.353 67.5434 104.052 67.4374 103.741 67.2606ZM96.4522 78.7069L95.2644 78.0247C94.2393 77.4343 93.3838 76.1759 93.1045 74.9528C93.0374 74.6594 93.002 74.3695 93.0091 74.0902L93.0904 70.0073C93.0975 69.7422 93.1363 69.5089 93.2035 69.3039C92.3445 69.1978 91.7259 69.7917 91.7047 70.8911L91.6234 74.974C91.6163 75.2532 91.6516 75.5467 91.7188 75.8365C91.9981 77.0596 92.8535 78.3181 93.8787 78.9084L95.0664 79.5907C96.1163 80.1952 97.0248 79.9265 97.3324 79.018C97.0602 78.9862 96.7632 78.8837 96.4522 78.7069ZM93.1964 61.184L91.9981 60.4946C90.9729 59.9008 90.1068 58.6317 89.8064 57.3944C89.7286 57.0869 89.6897 56.7829 89.6897 56.493V52.4242C89.6897 52.145 89.7286 51.894 89.7958 51.6819C88.9226 51.5582 88.304 52.1733 88.304 53.3115V57.3803C88.304 57.6702 88.3429 57.9707 88.4207 58.2782C88.7211 59.5154 89.5872 60.7845 90.6123 61.3784L91.8107 62.0677C92.8429 62.6651 93.7267 62.3894 94.0272 61.488C93.7691 61.4526 93.4898 61.3536 93.1964 61.184Z" fill="white"/>
<path d="M27.7065 102.321L91.2941 139.032L136.913 112.686L75.6694 77.3251C74.2165 76.4873 72.4278 76.4873 70.9749 77.3251L27.7065 102.321Z" fill="#92BC4A"/>
<path opacity="0.2" d="M27.7065 102.321L91.2941 139.032L136.913 112.686L75.6694 77.3251C74.2165 76.4873 72.4278 76.4873 70.9749 77.3251L27.7065 102.321Z" fill="#010F09"/>
<path d="M142.329 74.413L73.3223 34.5736V26.5845L142.329 66.4239V74.413Z" fill="#92BC4A"/>
<path d="M23.1255 55.5644V63.5535L73.3224 34.5736V26.5845L23.1255 55.5644Z" fill="#92BC4A"/>
<path opacity="0.2" d="M23.1255 55.5644V63.5535L73.3224 34.5736V26.5845L23.1255 55.5644Z" fill="white"/>
<path d="M145.659 65.5216H140.77L74.8493 27.4638C73.8807 26.9088 72.7177 26.9371 71.7456 27.4886L23.8534 55.1429H18.915C18.915 54.4641 19.4665 54.0187 19.9048 53.7677L70.9042 24.3071C72.2263 23.5471 74.3544 23.5471 75.6694 24.3071L144.676 64.1465C144.924 64.2879 145.662 64.8747 145.662 65.5216H145.659Z" fill="#92BC4A"/>
<path opacity="0.4" d="M145.659 65.5216H140.77L74.8493 27.4638C73.8807 26.9088 72.7177 26.9371 71.7456 27.4886L23.8534 55.1429H18.915C18.915 54.4641 19.4665 54.0187 19.9048 53.7677L70.9042 24.3071C72.2263 23.5471 74.3544 23.5471 75.6694 24.3071L144.676 64.1465C144.924 64.2879 145.662 64.8747 145.662 65.5216H145.659Z" fill="white"/>
<path d="M39.2485 104.845L38.089 104.177C36.8164 103.442 35.6746 101.657 35.5402 100.193L35.1125 95.5728C35.0878 95.3042 35.0984 95.0638 35.1408 94.8588C35.3105 94.9082 35.4872 94.986 35.6746 95.0956L36.9472 95.8309C38.2198 96.5662 39.3474 98.3513 39.4676 99.8184L39.8388 104.368C39.86 104.64 39.8459 104.88 39.8035 105.089C39.6267 105.04 39.4429 104.958 39.2485 104.845ZM49.7439 110.897L48.5702 110.218C47.2976 109.483 46.1841 107.698 46.0781 106.231L45.7635 101.748C45.7458 101.476 45.7635 101.232 45.813 101.024C45.9932 101.073 46.1841 101.155 46.3821 101.271L47.6618 102.01C48.9344 102.745 50.0373 104.531 50.1256 105.998L50.3908 110.416C50.4084 110.692 50.3872 110.939 50.3342 111.148C50.1469 111.102 49.9489 111.017 49.7439 110.897ZM60.2605 116.97L59.0833 116.291C57.8072 115.556 56.7184 113.771 56.6442 112.304L56.4285 107.949C56.4144 107.67 56.4392 107.419 56.4992 107.206C56.6901 107.26 56.8916 107.344 57.1037 107.465L58.3834 108.207C59.6595 108.942 60.7377 110.727 60.7943 112.198L60.9604 116.486C60.971 116.769 60.9463 117.016 60.8862 117.232C60.6882 117.182 60.4797 117.097 60.2605 116.97ZM70.7983 123.054L69.607 122.368C68.3344 121.629 67.2668 119.844 67.2244 118.374L67.1042 114.142C67.0972 113.859 67.1255 113.608 67.1926 113.393C67.3941 113.439 67.6097 113.527 67.8324 113.658L69.1157 114.397C70.3883 115.132 71.4417 116.921 71.47 118.391L71.5513 122.57C71.5583 122.856 71.523 123.107 71.4558 123.323C71.2473 123.277 71.0281 123.188 70.7983 123.054ZM81.3538 129.155L80.1554 128.462C78.8793 127.727 77.8365 125.938 77.8223 124.471L77.7835 120.35C77.7835 120.06 77.8188 119.805 77.8895 119.586C78.1016 119.636 78.3314 119.727 78.5647 119.862L79.8514 120.608C81.1276 121.343 82.1598 123.128 82.1598 124.599V128.667C82.1598 128.957 82.1209 129.215 82.0431 129.431C81.8275 129.385 81.5942 129.293 81.3538 129.155ZM34.4868 85.1163C34.3101 85.0668 34.1262 84.9855 33.9318 84.8724L32.7723 84.2043C31.4997 83.469 30.3579 81.6838 30.2236 80.2203L29.7959 75.6001C29.7711 75.3314 29.7817 75.0911 29.8242 74.886C29.9938 74.9355 30.1706 75.0133 30.3579 75.1229L31.6305 75.8581C32.9031 76.5934 34.0308 78.3786 34.151 79.8456L34.5222 84.3952C34.5434 84.6674 34.5292 84.9077 34.4868 85.1163ZM45.0176 91.1718C44.8302 91.1258 44.6323 91.041 44.4272 90.9208L43.2536 90.242C41.981 89.5068 40.8675 87.7216 40.7614 86.2546L40.4468 81.7722C40.4291 81.5 40.4468 81.2561 40.4963 81.0475C40.6766 81.097 40.8675 81.1783 41.0654 81.295L42.3451 82.0338C43.6177 82.7691 44.7206 84.5542 44.809 86.0213L45.0741 90.44C45.0918 90.7157 45.0741 90.9632 45.0176 91.1718ZM55.5695 97.259C55.3716 97.2095 55.163 97.1247 54.9438 96.9974L53.7667 96.3187C52.4906 95.5834 51.4018 93.7983 51.3275 92.3312L51.1119 87.9761C51.0978 87.6968 51.1225 87.4459 51.1826 87.2338C51.3735 87.2868 51.575 87.3716 51.7871 87.4918L53.0668 88.2342C54.3429 88.9695 55.4211 90.7546 55.4776 92.2252L55.6438 96.5131C55.6544 96.7959 55.6296 97.0434 55.5695 97.259ZM66.1392 103.35C65.9306 103.304 65.7115 103.215 65.4817 103.081L64.2904 102.395C63.0178 101.657 61.9502 99.8714 61.9078 98.4008L61.7876 94.1694C61.7805 93.8866 61.8088 93.6356 61.876 93.42C62.0775 93.466 62.2931 93.5543 62.5158 93.6851L63.799 94.4239C65.0716 95.1592 66.125 96.9479 66.1533 98.4185L66.2346 102.597C66.2417 102.883 66.2064 103.134 66.1392 103.35ZM76.8432 108.695C76.8432 108.985 76.8043 109.243 76.7265 109.458C76.5109 109.412 76.2776 109.32 76.0372 109.183L74.8388 108.49C73.5627 107.754 72.5199 105.966 72.5057 104.499L72.4668 100.377C72.4668 100.087 72.5022 99.8325 72.5729 99.6133C72.785 99.6628 73.0148 99.7547 73.2481 99.8891L74.5348 100.635C75.8109 101.37 76.8432 103.155 76.8432 104.626V108.695ZM87.943 115.107C87.943 115.397 87.9042 115.655 87.8264 115.871C87.6108 115.825 87.3774 115.733 87.1371 115.595L85.9387 114.902C84.6626 114.167 83.6197 112.378 83.6056 110.911L83.5667 106.789C83.5632 106.499 83.6021 106.245 83.6728 106.026C83.8849 106.075 84.1146 106.167 84.348 106.302L85.6347 107.047C86.9108 107.783 87.943 109.568 87.943 111.038V115.107ZM91.2978 95.1522L21.9941 55.1431L26.0099 98.7013C26.2644 101.717 28.6081 105.421 31.2346 106.934L86.5326 138.866C88.8975 140.234 92.6234 140.368 95.2605 139.251C95.3312 139.223 95.3984 139.195 95.462 139.166C95.5009 139.152 95.5397 139.135 95.5786 139.113C95.7377 139.046 95.8968 138.958 96.0629 138.866L133.35 117.32C135.977 115.807 138.32 112.095 138.575 109.08L142.591 65.5218L91.2978 95.1522ZM129.465 95.3819L129.836 90.8324C129.956 89.3654 131.084 87.5802 132.357 86.8449L133.629 86.1096C133.817 86 133.993 85.9223 134.163 85.8728C134.206 86.0778 134.216 86.3182 134.191 86.5869L133.764 91.2071C133.629 92.6706 132.488 94.4558 131.215 95.191L130.055 95.8592C129.861 95.9723 129.677 96.0536 129.5 96.1031C129.458 95.8945 129.444 95.6541 129.465 95.3819ZM119.178 97.008C119.267 95.541 120.37 93.7558 121.642 93.0206L122.922 92.2817C123.12 92.1651 123.311 92.0838 123.491 92.0343C123.54 92.2429 123.558 92.4868 123.54 92.759L123.226 97.2413C123.12 98.7084 122.006 100.494 120.734 101.229L119.56 101.908C119.355 102.028 119.157 102.113 118.97 102.159C118.917 101.95 118.895 101.703 118.913 101.427L119.178 97.008ZM108.51 103.212C108.566 101.741 109.644 99.9562 110.921 99.2209L112.2 98.4786C112.412 98.3584 112.614 98.2736 112.805 98.2205C112.865 98.4326 112.89 98.6836 112.875 98.9629L112.66 103.318C112.586 104.785 111.497 106.57 110.221 107.305L109.043 107.984C108.824 108.111 108.616 108.196 108.418 108.246C108.358 108.03 108.333 107.783 108.344 107.5L108.51 103.212ZM97.7527 113.584L97.834 109.405C97.8622 107.935 98.9157 106.146 100.188 105.411L101.471 104.672C101.694 104.541 101.91 104.453 102.111 104.407C102.178 104.622 102.207 104.873 102.2 105.156L102.079 109.388C102.037 110.858 100.97 112.643 99.6969 113.382L98.5056 114.068C98.2758 114.202 98.0567 114.291 97.8481 114.337C97.7809 114.121 97.7456 113.87 97.7527 113.584ZM103.027 127.473L103.193 123.185C103.25 121.714 104.328 119.929 105.604 119.194L106.884 118.451C107.096 118.331 107.297 118.246 107.488 118.193C107.548 118.405 107.573 118.656 107.559 118.936L107.343 123.291C107.269 124.758 106.18 126.543 104.904 127.278L103.727 127.957C103.508 128.084 103.299 128.169 103.101 128.219C103.041 128.003 103.016 127.755 103.027 127.473ZM113.597 121.403L113.862 116.984C113.95 115.517 115.053 113.732 116.326 112.997L117.605 112.258C117.803 112.141 117.994 112.06 118.174 112.011C118.224 112.219 118.241 112.463 118.224 112.735L117.909 117.218C117.803 118.685 116.69 120.47 115.417 121.205L114.243 121.884C114.038 122.004 113.84 122.089 113.653 122.135C113.6 121.926 113.579 121.679 113.597 121.403ZM124.148 115.355L124.52 110.805C124.64 109.338 125.768 107.553 127.04 106.818L128.313 106.082C128.5 105.973 128.677 105.895 128.847 105.846C128.889 106.051 128.9 106.291 128.875 106.56L128.447 111.18C128.313 112.643 127.171 114.428 125.898 115.164L124.739 115.832C124.544 115.945 124.361 116.026 124.184 116.076C124.141 115.867 124.127 115.627 124.148 115.355Z" fill="#92BC4A"/>
<path opacity="0.45" d="M39.2485 104.845L38.089 104.177C36.8164 103.442 35.6746 101.657 35.5402 100.193L35.1125 95.5728C35.0878 95.3042 35.0984 95.0638 35.1408 94.8588C35.3105 94.9082 35.4872 94.986 35.6746 95.0956L36.9472 95.8309C38.2198 96.5662 39.3474 98.3513 39.4676 99.8184L39.8388 104.368C39.86 104.64 39.8459 104.88 39.8035 105.089C39.6267 105.04 39.4429 104.958 39.2485 104.845ZM49.7439 110.897L48.5702 110.218C47.2976 109.483 46.1841 107.698 46.0781 106.231L45.7635 101.748C45.7458 101.476 45.7635 101.232 45.813 101.024C45.9932 101.073 46.1841 101.155 46.3821 101.271L47.6618 102.01C48.9344 102.745 50.0373 104.531 50.1256 105.998L50.3908 110.416C50.4084 110.692 50.3872 110.939 50.3342 111.148C50.1469 111.102 49.9489 111.017 49.7439 110.897ZM60.2605 116.97L59.0833 116.291C57.8072 115.556 56.7184 113.771 56.6442 112.304L56.4285 107.949C56.4144 107.67 56.4392 107.419 56.4992 107.206C56.6901 107.26 56.8916 107.344 57.1037 107.465L58.3834 108.207C59.6595 108.942 60.7377 110.727 60.7943 112.198L60.9604 116.486C60.971 116.769 60.9463 117.016 60.8862 117.232C60.6882 117.182 60.4797 117.097 60.2605 116.97ZM70.7983 123.054L69.607 122.368C68.3344 121.629 67.2668 119.844 67.2244 118.374L67.1042 114.142C67.0972 113.859 67.1255 113.608 67.1926 113.393C67.3941 113.439 67.6097 113.527 67.8324 113.658L69.1157 114.397C70.3883 115.132 71.4417 116.921 71.47 118.391L71.5513 122.57C71.5583 122.856 71.523 123.107 71.4558 123.323C71.2473 123.277 71.0281 123.188 70.7983 123.054ZM81.3538 129.155L80.1554 128.462C78.8793 127.727 77.8365 125.938 77.8223 124.471L77.7835 120.35C77.7835 120.06 77.8188 119.805 77.8895 119.586C78.1016 119.636 78.3314 119.727 78.5647 119.862L79.8514 120.608C81.1276 121.343 82.1598 123.128 82.1598 124.599V128.667C82.1598 128.957 82.1209 129.215 82.0431 129.431C81.8275 129.385 81.5942 129.293 81.3538 129.155ZM34.4868 85.1163C34.3101 85.0668 34.1262 84.9855 33.9318 84.8724L32.7723 84.2043C31.4997 83.469 30.3579 81.6838 30.2236 80.2203L29.7959 75.6001C29.7711 75.3314 29.7817 75.0911 29.8242 74.886C29.9938 74.9355 30.1706 75.0133 30.3579 75.1229L31.6305 75.8581C32.9031 76.5934 34.0308 78.3786 34.151 79.8456L34.5222 84.3952C34.5434 84.6674 34.5292 84.9077 34.4868 85.1163ZM45.0176 91.1718C44.8302 91.1258 44.6323 91.041 44.4272 90.9208L43.2536 90.242C41.981 89.5068 40.8675 87.7216 40.7614 86.2546L40.4468 81.7722C40.4291 81.5 40.4468 81.2561 40.4963 81.0475C40.6766 81.097 40.8675 81.1783 41.0654 81.295L42.3451 82.0338C43.6177 82.7691 44.7206 84.5542 44.809 86.0213L45.0741 90.44C45.0918 90.7157 45.0741 90.9632 45.0176 91.1718ZM55.5695 97.259C55.3716 97.2095 55.163 97.1247 54.9438 96.9974L53.7667 96.3187C52.4906 95.5834 51.4018 93.7983 51.3275 92.3312L51.1119 87.9761C51.0978 87.6968 51.1225 87.4459 51.1826 87.2338C51.3735 87.2868 51.575 87.3716 51.7871 87.4918L53.0668 88.2342C54.3429 88.9695 55.4211 90.7546 55.4776 92.2252L55.6438 96.5131C55.6544 96.7959 55.6296 97.0434 55.5695 97.259ZM66.1392 103.35C65.9306 103.304 65.7115 103.215 65.4817 103.081L64.2904 102.395C63.0178 101.657 61.9502 99.8714 61.9078 98.4008L61.7876 94.1694C61.7805 93.8866 61.8088 93.6356 61.876 93.42C62.0775 93.466 62.2931 93.5543 62.5158 93.6851L63.799 94.4239C65.0716 95.1592 66.125 96.9479 66.1533 98.4185L66.2346 102.597C66.2417 102.883 66.2064 103.134 66.1392 103.35ZM76.8432 108.695C76.8432 108.985 76.8043 109.243 76.7265 109.458C76.5109 109.412 76.2776 109.32 76.0372 109.183L74.8388 108.49C73.5627 107.754 72.5199 105.966 72.5057 104.499L72.4668 100.377C72.4668 100.087 72.5022 99.8325 72.5729 99.6133C72.785 99.6628 73.0148 99.7547 73.2481 99.8891L74.5348 100.635C75.8109 101.37 76.8432 103.155 76.8432 104.626V108.695ZM87.943 115.107C87.943 115.397 87.9042 115.655 87.8264 115.871C87.6108 115.825 87.3774 115.733 87.1371 115.595L85.9387 114.902C84.6626 114.167 83.6197 112.378 83.6056 110.911L83.5667 106.789C83.5632 106.499 83.6021 106.245 83.6728 106.026C83.8849 106.075 84.1146 106.167 84.348 106.302L85.6347 107.047C86.9108 107.783 87.943 109.568 87.943 111.038V115.107ZM91.2978 95.1522L21.9941 55.1431L26.0099 98.7013C26.2644 101.717 28.6081 105.421 31.2346 106.934L86.5326 138.866C88.8975 140.234 92.6234 140.368 95.2605 139.251C95.3312 139.223 95.3984 139.195 95.462 139.166C95.5009 139.152 95.5397 139.135 95.5786 139.113C95.7377 139.046 95.8968 138.958 96.0629 138.866L133.35 117.32C135.977 115.807 138.32 112.095 138.575 109.08L142.591 65.5218L91.2978 95.1522ZM129.465 95.3819L129.836 90.8324C129.956 89.3654 131.084 87.5802 132.357 86.8449L133.629 86.1096C133.817 86 133.993 85.9223 134.163 85.8728C134.206 86.0778 134.216 86.3182 134.191 86.5869L133.764 91.2071C133.629 92.6706 132.488 94.4558 131.215 95.191L130.055 95.8592C129.861 95.9723 129.677 96.0536 129.5 96.1031C129.458 95.8945 129.444 95.6541 129.465 95.3819ZM119.178 97.008C119.267 95.541 120.37 93.7558 121.642 93.0206L122.922 92.2817C123.12 92.1651 123.311 92.0838 123.491 92.0343C123.54 92.2429 123.558 92.4868 123.54 92.759L123.226 97.2413C123.12 98.7084 122.006 100.494 120.734 101.229L119.56 101.908C119.355 102.028 119.157 102.113 118.97 102.159C118.917 101.95 118.895 101.703 118.913 101.427L119.178 97.008ZM108.51 103.212C108.566 101.741 109.644 99.9562 110.921 99.2209L112.2 98.4786C112.412 98.3584 112.614 98.2736 112.805 98.2205C112.865 98.4326 112.89 98.6836 112.875 98.9629L112.66 103.318C112.586 104.785 111.497 106.57 110.221 107.305L109.043 107.984C108.824 108.111 108.616 108.196 108.418 108.246C108.358 108.03 108.333 107.783 108.344 107.5L108.51 103.212ZM97.7527 113.584L97.834 109.405C97.8622 107.935 98.9157 106.146 100.188 105.411L101.471 104.672C101.694 104.541 101.91 104.453 102.111 104.407C102.178 104.622 102.207 104.873 102.2 105.156L102.079 109.388C102.037 110.858 100.97 112.643 99.6969 113.382L98.5056 114.068C98.2758 114.202 98.0567 114.291 97.8481 114.337C97.7809 114.121 97.7456 113.87 97.7527 113.584ZM103.027 127.473L103.193 123.185C103.25 121.714 104.328 119.929 105.604 119.194L106.884 118.451C107.096 118.331 107.297 118.246 107.488 118.193C107.548 118.405 107.573 118.656 107.559 118.936L107.343 123.291C107.269 124.758 106.18 126.543 104.904 127.278L103.727 127.957C103.508 128.084 103.299 128.169 103.101 128.219C103.041 128.003 103.016 127.755 103.027 127.473ZM113.597 121.403L113.862 116.984C113.95 115.517 115.053 113.732 116.326 112.997L117.605 112.258C117.803 112.141 117.994 112.06 118.174 112.011C118.224 112.219 118.241 112.463 118.224 112.735L117.909 117.218C117.803 118.685 116.69 120.47 115.417 121.205L114.243 121.884C114.038 122.004 113.84 122.089 113.653 122.135C113.6 121.926 113.579 121.679 113.597 121.403ZM124.148 115.355L124.52 110.805C124.64 109.338 125.768 107.553 127.04 106.818L128.313 106.082C128.5 105.973 128.677 105.895 128.847 105.846C128.889 106.051 128.9 106.291 128.875 106.56L128.447 111.18C128.313 112.643 127.171 114.428 125.898 115.164L124.739 115.832C124.544 115.945 124.361 116.026 124.184 116.076C124.141 115.867 124.127 115.627 124.148 115.355Z" fill="#A7CE64"/>
<path opacity="0.4" d="M91.2979 95.1523V136.112C91.2979 138.82 93.0159 140.103 95.2606 139.251C95.3313 139.223 95.3984 139.195 95.4621 139.167C95.501 139.152 95.5398 139.135 95.5787 139.114C95.7378 139.046 95.8969 138.958 96.063 138.866L133.35 117.32C135.977 115.807 138.32 112.096 138.575 109.08L142.591 65.522L91.2979 95.1523ZM129.465 95.3821L129.836 90.8326C129.957 89.3655 131.084 87.5803 132.357 86.8451L133.629 86.1098C133.817 86.0002 133.994 85.9224 134.163 85.8729C134.206 86.078 134.216 86.3184 134.192 86.587L133.764 91.2073C133.629 92.6707 132.488 94.4559 131.215 95.1912L130.056 95.8593C129.861 95.9724 129.677 96.0537 129.501 96.1032C129.458 95.8947 129.444 95.6543 129.465 95.3821ZM119.178 97.0082C119.267 95.5412 120.37 93.756 121.642 93.0207L122.922 92.2819C123.12 92.1652 123.311 92.0839 123.491 92.0344C123.541 92.243 123.558 92.4869 123.541 92.7591L123.226 97.2415C123.12 98.7085 122.006 100.494 120.734 101.229L119.56 101.908C119.355 102.028 119.157 102.113 118.97 102.159C118.917 101.95 118.896 101.703 118.913 101.427L119.178 97.0082ZM108.51 103.212C108.566 101.742 109.644 99.9564 110.921 99.2211L112.2 98.4787C112.412 98.3586 112.614 98.2737 112.805 98.2207C112.865 98.4328 112.89 98.6838 112.875 98.963L112.66 103.318C112.586 104.785 111.497 106.57 110.221 107.306L109.044 107.984C108.824 108.112 108.616 108.196 108.418 108.246C108.358 108.03 108.333 107.783 108.344 107.5L108.51 103.212ZM97.7528 113.584L97.8341 109.405C97.8623 107.935 98.9158 106.146 100.188 105.411L101.472 104.672C101.694 104.541 101.91 104.453 102.111 104.407C102.179 104.623 102.207 104.874 102.2 105.156L102.08 109.388C102.037 110.858 100.97 112.643 99.697 113.382L98.5057 114.068C98.2759 114.202 98.0568 114.291 97.8482 114.337C97.781 114.121 97.7457 113.87 97.7528 113.584ZM103.027 127.473L103.193 123.185C103.25 121.714 104.328 119.929 105.604 119.194L106.884 118.451C107.096 118.331 107.297 118.246 107.488 118.193C107.548 118.406 107.573 118.657 107.559 118.936L107.343 123.291C107.269 124.758 106.18 126.543 104.904 127.278L103.727 127.957C103.508 128.084 103.299 128.169 103.101 128.219C103.041 128.003 103.016 127.756 103.027 127.473ZM113.597 121.403L113.862 116.984C113.95 115.517 115.053 113.732 116.326 112.997L117.605 112.258C117.803 112.142 117.994 112.06 118.174 112.011C118.224 112.219 118.242 112.463 118.224 112.735L117.909 117.218C117.803 118.685 116.69 120.47 115.417 121.205L114.244 121.884C114.038 122.004 113.841 122.089 113.653 122.135C113.6 121.926 113.579 121.679 113.597 121.403ZM124.149 115.355L124.52 110.805C124.64 109.338 125.768 107.553 127.04 106.818L128.313 106.083C128.5 105.973 128.677 105.895 128.847 105.846C128.889 106.051 128.9 106.291 128.875 106.56L128.447 111.18C128.313 112.643 127.171 114.429 125.898 115.164L124.739 115.832C124.545 115.945 124.361 116.026 124.184 116.076C124.142 115.867 124.127 115.627 124.149 115.355Z" fill="#A7CE64"/>
<path d="M130.374 107.405L129.95 112.025C129.812 113.489 128.674 115.27 127.397 116.006L126.238 116.677C125.202 117.275 124.389 116.992 124.184 116.076C124.361 116.027 124.545 115.946 124.739 115.832L125.899 115.164C127.171 114.429 128.313 112.644 128.447 111.18L128.875 106.56C128.9 106.291 128.889 106.051 128.847 105.846C129.833 105.542 130.487 106.157 130.374 107.405Z" fill="#92BC4A"/>
<path d="M109.058 119.781L108.842 124.133C108.772 125.603 107.679 127.388 106.407 128.124L105.226 128.802C104.197 129.396 103.356 129.124 103.102 128.219C103.3 128.169 103.508 128.085 103.727 127.957L104.904 127.279C106.181 126.543 107.269 124.758 107.344 123.291L107.559 118.936C107.573 118.657 107.549 118.406 107.488 118.194C108.454 117.939 109.122 118.558 109.058 119.781Z" fill="#92BC4A"/>
<path d="M119.723 113.58L119.408 118.062C119.306 119.529 118.189 121.315 116.916 122.05L115.743 122.729C114.71 123.326 113.883 123.047 113.653 122.135C113.841 122.089 114.039 122.004 114.244 121.884L115.417 121.205C116.69 120.47 117.803 118.685 117.909 117.218L118.224 112.735C118.242 112.463 118.224 112.219 118.175 112.011C119.147 111.728 119.808 112.343 119.723 113.58Z" fill="#92BC4A"/>
<path d="M103.702 106.001L103.578 110.232C103.536 111.703 102.468 113.488 101.196 114.223L100.008 114.913C98.9829 115.507 98.1274 115.234 97.8481 114.337C98.0567 114.291 98.2759 114.202 98.5056 114.068L99.697 113.382C100.97 112.643 102.037 110.858 102.08 109.388L102.2 105.156C102.207 104.873 102.179 104.622 102.111 104.407C103.062 104.173 103.737 104.788 103.702 106.001Z" fill="#92BC4A"/>
<path d="M125.039 93.6045L124.725 98.0869C124.622 99.5539 123.505 101.339 122.233 102.074L121.059 102.753C120.027 103.35 119.2 103.071 118.97 102.159C119.157 102.113 119.355 102.028 119.56 101.908L120.734 101.229C122.006 100.494 123.12 98.709 123.226 97.242L123.54 92.7596C123.558 92.4874 123.54 92.2435 123.491 92.035C124.463 91.7522 125.124 92.3673 125.039 93.6045Z" fill="#92BC4A"/>
<path d="M114.374 99.8078L114.159 104.159C114.088 105.63 112.996 107.415 111.723 108.15L110.543 108.829C109.514 109.423 108.672 109.151 108.418 108.246C108.616 108.196 108.824 108.111 109.044 107.984L110.221 107.306C111.497 106.57 112.586 104.785 112.66 103.318L112.876 98.9629C112.89 98.6837 112.865 98.4327 112.805 98.2206C113.77 97.966 114.438 98.5847 114.374 99.8078Z" fill="#92BC4A"/>
<path d="M135.69 87.4321L135.266 92.0523C135.128 93.5158 133.99 95.2975 132.714 96.0327L131.554 96.7044C130.519 97.3018 129.706 97.019 129.5 96.1034C129.677 96.0539 129.861 95.9726 130.055 95.8595L131.215 95.1914C132.488 94.4561 133.629 92.671 133.764 91.2075L134.191 86.5872C134.216 86.3186 134.206 86.0782 134.163 85.8732C135.149 85.5691 135.803 86.1842 135.69 87.4321Z" fill="#92BC4A"/>
<path opacity="0.2" d="M118.174 112.011C118.224 112.219 118.242 112.463 118.224 112.736L117.909 117.218C117.803 118.685 116.69 120.47 115.417 121.205L114.243 121.884C114.038 122.004 113.84 122.089 113.653 122.135C113.883 123.047 114.71 123.326 115.742 122.729L116.916 122.05C118.189 121.315 119.306 119.53 119.408 118.063L119.723 113.58C119.808 112.343 119.147 111.728 118.174 112.011ZM128.847 105.846C128.889 106.051 128.9 106.291 128.875 106.56L128.447 111.18C128.313 112.644 127.171 114.429 125.898 115.164L124.739 115.832C124.544 115.945 124.361 116.027 124.184 116.076C124.389 116.992 125.202 117.275 126.238 116.677L127.397 116.005C128.673 115.27 129.812 113.489 129.949 112.025L130.374 107.405C130.487 106.157 129.833 105.542 128.847 105.846ZM107.488 118.194C107.548 118.406 107.573 118.657 107.559 118.936L107.343 123.291C107.269 124.758 106.18 126.543 104.904 127.279L103.727 127.957C103.508 128.085 103.299 128.169 103.101 128.219C103.356 129.124 104.197 129.396 105.226 128.802L106.406 128.123C107.679 127.388 108.771 125.603 108.842 124.132L109.058 119.781C109.121 118.558 108.453 117.939 107.488 118.194ZM114.374 99.8081C114.438 98.585 113.77 97.9664 112.805 98.2209C112.865 98.433 112.89 98.684 112.875 98.9632L112.66 103.318C112.586 104.785 111.497 106.571 110.221 107.306L109.043 107.985C108.824 108.112 108.616 108.197 108.418 108.246C108.672 109.151 109.514 109.423 110.542 108.829L111.723 108.151C112.996 107.415 114.088 105.63 114.159 104.16L114.374 99.8081ZM103.702 106.001C103.737 104.789 103.062 104.174 102.111 104.407C102.179 104.623 102.207 104.874 102.2 105.157L102.08 109.388C102.037 110.859 100.97 112.644 99.697 113.382L98.5056 114.068C98.2759 114.203 98.0567 114.291 97.8481 114.337C98.1274 115.235 98.9829 115.507 100.008 114.913L101.196 114.224C102.468 113.489 103.536 111.703 103.578 110.233L103.702 106.001ZM134.163 85.8732C134.206 86.0782 134.216 86.3186 134.191 86.5872L133.764 91.2075C133.629 92.671 132.488 94.4561 131.215 95.1914L130.056 95.8595C129.861 95.9726 129.677 96.0539 129.501 96.1034C129.706 97.019 130.519 97.3018 131.554 96.7044L132.714 96.0327C133.99 95.2975 135.128 93.5158 135.266 92.0523L135.69 87.4321C135.803 86.1842 135.149 85.5691 134.163 85.8732ZM125.039 93.6042C125.124 92.3669 124.463 91.7519 123.491 92.0347C123.541 92.2432 123.558 92.4871 123.541 92.7593L123.226 97.2417C123.12 98.7087 122.006 100.494 120.734 101.229L119.56 101.908C119.355 102.028 119.157 102.113 118.97 102.159C119.2 103.071 120.027 103.35 121.059 102.753L122.233 102.074C123.505 101.339 124.622 99.5536 124.725 98.0866L125.039 93.6042Z" fill="white"/>
<path d="M38.0886 104.178C36.816 103.443 35.6742 101.658 35.5399 100.194L35.1121 95.5738C35.0874 95.3051 35.098 95.0648 35.1404 94.8597C34.1541 94.5557 33.5002 95.1708 33.6133 96.4187L34.0375 101.039C34.1753 102.502 35.3136 104.284 36.5897 105.019L37.7492 105.691C38.785 106.288 39.598 106.006 39.8031 105.09C39.6263 105.041 39.4425 104.959 39.2481 104.846L38.0886 104.178ZM59.0829 116.292C57.8068 115.557 56.718 113.772 56.6438 112.305L56.4282 107.95C56.414 107.671 56.4388 107.42 56.4989 107.207C55.5338 106.953 54.8657 107.572 54.9293 108.795L55.1449 113.146C55.2156 114.617 56.308 116.402 57.5806 117.137L58.7612 117.816C59.7899 118.41 60.6313 118.138 60.8858 117.233C60.6878 117.183 60.4793 117.098 60.2601 116.971L59.0829 116.292ZM48.5698 110.219C47.2972 109.484 46.1837 107.699 46.0777 106.232L45.7631 101.749C45.7454 101.477 45.7631 101.233 45.8126 101.025C44.8404 100.742 44.1794 101.357 44.2642 102.594L44.5788 107.077C44.6814 108.544 45.7984 110.329 47.071 111.064L48.2446 111.743C49.2768 112.34 50.104 112.061 50.3338 111.149C50.1465 111.103 49.9485 111.018 49.7435 110.898L48.5698 110.219ZM81.3534 129.16L80.1551 128.467C78.8789 127.732 77.8361 125.943 77.8219 124.476L77.7831 120.354C77.7831 120.064 77.8184 119.81 77.8891 119.591C76.9488 119.386 76.2736 120.001 76.2842 121.199L76.3231 125.317C76.3373 126.788 77.3801 128.577 78.6527 129.312L79.851 130.005C80.8762 130.595 81.7423 130.326 82.0427 129.436C81.8271 129.39 81.5938 129.298 81.3534 129.16ZM69.6066 122.373C68.334 121.634 67.2665 119.849 67.224 118.378L67.1038 114.147C67.0968 113.864 67.1251 113.613 67.1922 113.397C66.2413 113.164 65.5661 113.779 65.6015 114.992L65.7252 119.223C65.7676 120.693 66.8352 122.479 68.1078 123.214L69.2955 123.903C70.3207 124.497 71.1762 124.225 71.4554 123.327C71.2469 123.281 71.0277 123.193 70.7979 123.058L69.6066 122.373Z" fill="#92BC4A"/>
<path d="M32.7722 84.2048C31.4996 83.4696 30.3578 81.6844 30.2234 80.2209L29.7957 75.6007C29.771 75.332 29.7816 75.0916 29.824 74.8866C28.8377 74.5826 28.1838 75.1977 28.2969 76.4455L28.7211 81.0658C28.8589 82.5292 29.9972 84.3109 31.2733 85.0462L32.4328 85.7178C33.4686 86.3152 34.2816 86.0324 34.4866 85.1169C34.3099 85.0674 34.1261 84.9861 33.9317 84.8729L32.7722 84.2048ZM53.7665 96.3193C52.4904 95.584 51.4016 93.7988 51.3274 92.3318L51.1117 87.9767C51.0976 87.6974 51.1224 87.4464 51.1824 87.2343C50.2174 86.9798 49.5493 87.5984 49.6129 88.8215L49.8285 93.1731C49.8992 94.6437 50.9916 96.4288 52.2642 97.1641L53.4448 97.8429C54.4735 98.4367 55.3149 98.1645 55.5694 97.2596C55.3714 97.2101 55.1629 97.1253 54.9437 96.998L53.7665 96.3193ZM43.2534 90.2426C41.9808 89.5073 40.8673 87.7222 40.7613 86.2551L40.4467 81.7728C40.429 81.5006 40.4467 81.2566 40.4961 81.0481C39.524 80.7653 38.863 81.3804 38.9478 82.6176L39.2624 87.1C39.3649 88.567 40.482 90.3522 41.7546 91.0875L42.9282 91.7662C43.9604 92.3636 44.7876 92.0843 45.0174 91.1723C44.8301 91.1264 44.6321 91.0415 44.4271 90.9213L43.2534 90.2426ZM64.2902 102.396C63.0176 101.657 61.9501 99.8719 61.9076 98.4014L61.7874 94.17C61.7804 93.8872 61.8087 93.6362 61.8758 93.4206C60.9249 93.1873 60.2497 93.8023 60.2851 95.0149L60.4088 99.2462C60.4512 100.717 61.5188 102.502 62.7914 103.237L63.9791 103.927C65.0043 104.52 65.8598 104.248 66.139 103.35C65.9305 103.304 65.7113 103.216 65.4815 103.082L64.2902 102.396ZM74.8387 108.49C73.5625 107.755 72.5197 105.966 72.5056 104.499L72.4667 100.377C72.4667 100.088 72.502 99.8331 72.5727 99.6139C71.6324 99.4089 70.9572 100.024 70.9678 101.222L71.0067 105.341C71.0209 106.811 72.0637 108.6 73.3363 109.335L74.5346 110.028C75.5598 110.618 76.4259 110.35 76.7263 109.459C76.5107 109.413 76.2774 109.321 76.037 109.183L74.8387 108.49ZM87.1369 115.596L85.9385 114.903C84.6624 114.167 83.6196 112.379 83.6054 110.912L83.5666 106.79C83.563 106.5 83.6019 106.246 83.6726 106.026C82.7323 105.821 82.0571 106.436 82.0677 107.635L82.1066 111.753C82.1208 113.224 83.1636 115.012 84.4362 115.748L85.6345 116.44C86.6597 117.031 87.5293 116.762 87.8262 115.871C87.6106 115.825 87.3773 115.733 87.1369 115.596Z" fill="#92BC4A"/>
<path opacity="0.2" d="M69.6069 122.369C68.3343 121.63 67.2667 119.845 67.2243 118.374L67.1041 114.143C67.097 113.86 67.1253 113.609 67.1925 113.393C66.2415 113.16 65.5664 113.775 65.6017 114.987L65.7254 119.219C65.7678 120.689 66.8354 122.475 68.108 123.21L69.2958 123.899C70.3209 124.493 71.1764 124.221 71.4557 123.323C71.2471 123.277 71.0279 123.189 70.7982 123.054L69.6069 122.369ZM59.0832 116.292C57.807 115.557 56.7183 113.771 56.644 112.304L56.4284 107.949C56.4142 107.67 56.439 107.419 56.4991 107.207C55.534 106.952 54.8659 107.571 54.9295 108.794L55.1452 113.146C55.2159 114.616 56.3082 116.401 57.5808 117.137L58.7615 117.815C59.7902 118.409 60.6315 118.137 60.886 117.232C60.6881 117.183 60.4795 117.098 60.2603 116.971L59.0832 116.292ZM38.0888 104.177C36.8162 103.442 35.6744 101.657 35.5401 100.193L35.1123 95.5732C35.0876 95.3046 35.0982 95.0642 35.1406 94.8592C34.1544 94.5552 33.5004 95.1703 33.6135 96.4181L34.0377 101.038C34.1756 102.502 35.3138 104.283 36.59 105.019L37.7495 105.69C38.7852 106.288 39.5983 106.005 39.8033 105.089C39.6265 105.04 39.4427 104.959 39.2483 104.846L38.0888 104.177ZM80.1553 128.463C78.8792 127.728 77.8363 125.939 77.8222 124.472L77.7833 120.35C77.7833 120.06 77.8187 119.806 77.8894 119.586C76.949 119.381 76.2739 119.997 76.2845 121.195L76.3234 125.313C76.3375 126.784 77.3803 128.572 78.6529 129.308L79.8513 130.001C80.8764 130.591 81.7425 130.322 82.043 129.431C81.8273 129.386 81.594 129.294 81.3537 129.156L80.1553 128.463ZM48.5701 110.215C47.2975 109.48 46.184 107.695 46.0779 106.228L45.7633 101.745C45.7456 101.473 45.7633 101.229 45.8128 101.021C44.8407 100.738 44.1796 101.353 44.2645 102.59L44.5791 107.073C44.6816 108.54 45.7986 110.325 47.0712 111.06L48.2449 111.739C49.2771 112.336 50.1043 112.057 50.334 111.145C50.1467 111.099 49.9487 111.014 49.7437 110.894L48.5701 110.215ZM34.4866 85.1132C34.3099 85.0637 34.1261 84.9824 33.9317 84.8693L32.7722 84.2012C31.4996 83.4659 30.3578 81.6807 30.2234 80.2172L29.7957 75.597C29.771 75.3283 29.7816 75.0879 29.824 74.8829C28.8377 74.5789 28.1838 75.194 28.2969 76.4419L28.7211 81.0621C28.8589 82.5256 29.9972 84.3072 31.2733 85.0425L32.4328 85.7141C33.4686 86.3116 34.2816 86.0288 34.4866 85.1132ZM45.0174 91.1686C44.8301 91.1227 44.6321 91.0379 44.4271 90.9177L43.2534 90.2389C41.9808 89.5037 40.8673 87.7185 40.7613 86.2515L40.4467 81.7691C40.429 81.4969 40.4467 81.253 40.4961 81.0444C39.524 80.7616 38.863 81.3767 38.9478 82.614L39.2624 87.0963C39.3649 88.5634 40.482 90.3485 41.7546 91.0838L42.9282 91.7625C43.9604 92.3599 44.7876 92.0807 45.0174 91.1686ZM66.139 103.347C65.9305 103.301 65.7113 103.212 65.4815 103.078L64.2902 102.392C63.0176 101.653 61.9501 99.8683 61.9076 98.3977L61.7874 94.1663C61.7804 93.8835 61.8087 93.6325 61.8758 93.4169C60.9249 93.1836 60.2497 93.7987 60.2851 95.0112L60.4088 99.2426C60.4512 100.713 61.5188 102.498 62.7914 103.234L63.9791 103.923C65.0043 104.517 65.8598 104.245 66.139 103.347ZM55.5694 97.2559C55.3714 97.2064 55.1629 97.1216 54.9437 96.9943L53.7665 96.3156C52.4904 95.5803 51.4016 93.7951 51.3274 92.3281L51.1117 87.973C51.0976 87.6937 51.1224 87.4428 51.1824 87.2307C50.2174 86.9761 49.5493 87.5948 49.6129 88.8179L49.8285 93.1695C49.8992 94.64 50.9916 96.4252 52.2642 97.1605L53.4448 97.8392C54.4735 98.4331 55.3149 98.1609 55.5694 97.2559ZM76.7263 109.455C76.5107 109.409 76.2774 109.317 76.037 109.179L74.8387 108.487C73.5625 107.751 72.5197 105.963 72.5056 104.496L72.4667 100.374C72.4667 100.084 72.502 99.8294 72.5727 99.6102C71.6324 99.4052 70.9572 100.02 70.9678 101.219L71.0067 105.337C71.0209 106.807 72.0637 108.596 73.3363 109.331L74.5346 110.024C75.5598 110.615 76.4259 110.346 76.7263 109.455ZM87.1369 115.592L85.9385 114.899C84.6624 114.164 83.6196 112.375 83.6054 110.908L83.5666 106.786C83.563 106.496 83.6019 106.242 83.6726 106.023C82.7323 105.818 82.0571 106.433 82.0677 107.631L82.1066 111.749C82.1208 113.22 83.1636 115.009 84.4362 115.744L85.6345 116.437C86.6597 117.027 87.5293 116.758 87.8262 115.868C87.6106 115.822 87.3773 115.73 87.1369 115.592Z" fill="white"/>
<path d="M145.666 65.5221V73.5112C145.666 74.0131 145.337 74.508 144.676 74.8863L93.6804 104.343C93.0194 104.722 92.1569 104.916 91.2979 104.916V96.9199C92.1569 96.9199 93.0194 96.7326 93.6804 96.3543L144.676 66.8937C145.376 66.4907 145.705 65.9533 145.655 65.4231C145.666 65.4514 145.666 65.4832 145.666 65.5185V65.5221Z" fill="#92BC4A"/>
<path opacity="0.2" d="M145.666 65.5221V73.5112C145.666 74.0131 145.337 74.508 144.676 74.8863L93.6804 104.343C93.0194 104.722 92.1569 104.916 91.2979 104.916V96.9199C92.1569 96.9199 93.0194 96.7326 93.6804 96.3543L144.676 66.8937C145.376 66.4907 145.705 65.9533 145.655 65.4231C145.666 65.4514 145.666 65.4832 145.666 65.5185V65.5221Z" fill="#92BC4A"/>
<path d="M91.2976 96.9228V104.919C90.4351 104.919 89.569 104.728 88.9151 104.346L19.9048 64.5069C19.2438 64.1286 18.915 63.6267 18.915 63.1318C18.9221 62.6298 18.915 55.6376 18.915 55.1427C18.915 55.1109 18.9221 55.072 18.9256 55.0366C18.8762 55.5704 19.2014 56.1113 19.9048 56.5178L88.9115 96.3572C89.5655 96.7354 90.4316 96.9228 91.2941 96.9228H91.2976Z" fill="#92BC4A"/>
<path d="M145.659 65.5216C145.659 66.0165 145.33 66.5184 144.673 66.8967L93.6767 96.3573C92.3546 97.1174 90.2265 97.1174 88.9115 96.3573L19.9048 56.5179C19.2438 56.1397 18.915 55.6448 18.915 55.1428H23.8534L89.7281 93.1971C90.6967 93.7521 91.888 93.752 92.8601 93.2006L140.77 65.5216H145.659Z" fill="#92BC4A"/>
<path opacity="0.4" d="M145.659 65.5216C145.659 66.0165 145.33 66.5184 144.673 66.8967L93.6767 96.3573C92.3546 97.1174 90.2265 97.1174 88.9115 96.3573L19.9048 56.5179C19.2438 56.1397 18.915 55.6448 18.915 55.1428H23.8534L89.7281 93.1971C90.6967 93.7521 91.888 93.752 92.8601 93.2006L140.77 65.5216H145.659Z" fill="white"/>
<path d="M115.523 6.46578V47.3091L113.749 46.2875L113.756 6.75918C113.756 6.41629 113.384 6.20065 113.087 6.37387L106.937 9.91947L62.233 35.6967C60.9321 36.4461 59.8787 38.6767 59.8787 40.6775V86.8587C59.8787 87.2687 59.6595 87.647 59.306 87.8485L58.1112 88.5378L57.6587 88.7994L58.1112 87.7672V39.6841C58.1112 37.6833 59.1611 35.4527 60.4619 34.7033L113.165 4.19984C113.42 4.05137 113.664 3.9736 113.893 3.95593C113.929 3.95239 113.968 3.95239 114.003 3.95239C114.056 3.95239 114.106 3.95593 114.159 3.963C114.261 3.97714 114.364 4.00542 114.459 4.04784C114.47 4.05137 114.477 4.05491 114.487 4.06198C115.113 4.35185 115.523 5.21792 115.523 6.46578Z" fill="#01100A"/>
<path d="M113.165 4.19991L60.4618 34.7034C59.1609 35.4528 58.111 37.6834 58.111 39.6842V87.8026C58.111 88.7782 57.4252 89.1742 56.5803 88.6863L52.8226 86.5194C51.9778 86.0316 51.292 84.8438 51.292 83.8681V35.7392C51.292 33.7383 52.3419 31.5078 53.6428 30.7583L106.484 0.173552C106.883 -0.056223 107.375 -0.056223 107.778 0.173552L113.95 3.7439L114.576 4.10447C114.12 3.84641 113.646 3.93832 113.165 4.19991Z" fill="#555F5B"/>
<path d="M113.088 6.3734L106.937 9.919L106.93 42.3491L113.749 46.287L113.756 6.75871C113.756 6.41582 113.385 6.20018 113.088 6.3734Z" fill="#555F5B"/>
<path d="M52.8294 80.3583C52.4865 80.5563 52.2744 80.9805 52.2744 81.5814C52.2744 82.7869 53.1193 84.2539 54.1656 84.8548C54.6888 85.1553 55.159 85.1836 55.5019 84.9856C55.7104 84.8655 56.4987 84.4094 56.7073 84.2893C57.0502 84.0913 57.2623 83.6671 57.2623 83.0661C57.2623 81.8607 56.4174 80.3937 55.3711 79.7927C54.8479 79.4923 54.3777 79.464 54.0348 79.6619C53.8263 79.7821 53.038 80.2381 52.8294 80.3583Z" fill="#555F5B"/>
<path d="M54.1656 84.8552C54.6888 85.1557 55.159 85.184 55.5019 84.986C55.8448 84.7881 56.0569 84.3639 56.0569 83.7629C56.0569 82.5575 55.212 81.0905 54.1656 80.4895C53.6425 80.189 53.1723 80.1608 52.8294 80.3587C52.4865 80.5567 52.2744 80.9809 52.2744 81.5818C52.2744 82.7873 53.1193 84.2543 54.1656 84.8552Z" fill="#01100A"/>
<path d="M13.644 66.5107L10.8089 66.1961C10.5367 66.1678 10.3175 65.9451 10.2928 65.6693L9.96758 62.053C9.96051 61.9541 9.87567 61.8798 9.77669 61.8798C9.67771 61.8798 9.59287 61.9541 9.5858 62.053L9.26058 65.6729C9.23584 65.9451 9.0202 66.1678 8.74447 66.1961L5.9094 66.5107C5.81396 66.5213 5.73973 66.6026 5.73973 66.7016C5.73973 66.8005 5.81396 66.8818 5.9094 66.8924L8.74447 67.2071C9.01667 67.2353 9.23584 67.458 9.26058 67.7302L9.5858 71.3465C9.59287 71.4455 9.67771 71.5198 9.77669 71.5198C9.87567 71.5198 9.96051 71.4455 9.96758 71.3465L10.2928 67.7267C10.3175 67.4545 10.5332 67.2318 10.8089 67.2035L13.644 66.8889C13.7394 66.8783 13.8137 66.797 13.8137 66.698C13.8137 66.599 13.7394 66.5177 13.644 66.5071V66.5107ZM10.7665 66.8253C10.314 66.8748 9.95344 67.2424 9.91102 67.6984L9.77669 69.1973L9.64236 67.6984C9.59994 67.2424 9.24291 66.8748 8.78689 66.8253L7.6769 66.7016L8.78689 66.5778C9.23937 66.5283 9.59994 66.1607 9.64236 65.7047L9.77669 64.2059L9.91102 65.7047C9.95344 66.1607 10.3105 66.5283 10.7665 66.5778L11.8765 66.7016L10.7665 66.8253ZM138.419 21.0047L134.962 20.6229C134.594 20.584 134.301 20.2835 134.269 19.9159L133.873 15.5042C133.866 15.4229 133.795 15.3593 133.714 15.3593C133.632 15.3593 133.562 15.4229 133.555 15.5042L133.159 19.9159C133.127 20.2835 132.833 20.5805 132.466 20.6229L129.009 21.0047C128.927 21.0153 128.867 21.0824 128.867 21.1637C128.867 21.245 128.927 21.3122 129.009 21.3228L132.466 21.7046C132.833 21.747 133.127 22.044 133.159 22.4116L133.555 26.8233C133.562 26.9046 133.632 26.9682 133.714 26.9682C133.795 26.9682 133.866 26.9046 133.873 26.8233L134.269 22.4116C134.301 22.044 134.594 21.747 134.962 21.7046L138.419 21.3228C138.5 21.3122 138.56 21.245 138.56 21.1637C138.56 21.0824 138.5 21.0153 138.419 21.0047ZM134.926 21.3864C134.407 21.443 133.996 21.8637 133.951 22.3798L133.714 25.031L133.473 22.3798C133.427 21.8601 133.017 21.443 132.498 21.3864L130.472 21.1637L132.498 20.941C133.017 20.8845 133.427 20.4638 133.473 19.9442L133.714 17.2929L133.951 19.9442C133.996 20.4638 134.407 20.8809 134.926 20.941L136.952 21.1637L134.926 21.3864ZM7.48248 32.4651L9.28886 32.6666C9.46208 32.6843 9.59994 32.8257 9.61762 33.0024L9.82618 35.3108C9.83325 35.3744 9.88628 35.4239 9.94637 35.4239C10.0065 35.4239 10.063 35.3744 10.0666 35.3108L10.2751 33.0024C10.2893 32.8292 10.4271 32.6878 10.6039 32.6666L12.4138 32.4651C12.4774 32.458 12.5234 32.405 12.5234 32.3449C12.5234 32.2848 12.4774 32.2318 12.4138 32.2247L10.6039 32.0232C10.4307 32.0056 10.2928 31.8642 10.2751 31.6874L10.0666 29.3791C10.0595 29.3154 10.0065 29.2659 9.94637 29.2659C9.88628 29.2659 9.82972 29.3154 9.82618 29.3791L9.61762 31.6874C9.59994 31.8606 9.46561 32.002 9.28886 32.0232L7.48248 32.2247C7.41885 32.2318 7.37289 32.2848 7.37289 32.3449C7.37289 32.405 7.41885 32.458 7.48248 32.4651ZM9.31714 32.2636C9.60701 32.2318 9.83679 31.9985 9.86153 31.7086L9.94637 30.7542L10.0312 31.7086C10.056 31.9985 10.2857 32.2318 10.5756 32.2636L11.2826 32.3414L10.5756 32.4192C10.2857 32.451 10.056 32.6843 10.0312 32.9742L9.94637 33.9286L9.86153 32.9742C9.83679 32.6843 9.60701 32.451 9.31714 32.4192L8.61014 32.3414L9.31714 32.2636ZM53.9571 9.28615L55.7635 9.48764C55.9367 9.50532 56.0745 9.64672 56.0922 9.82347L56.3008 12.1318C56.3079 12.1954 56.3609 12.2449 56.421 12.2449C56.4811 12.2449 56.5376 12.1954 56.5412 12.1318L56.7497 9.82347C56.7639 9.65025 56.9017 9.50885 57.0785 9.48764L58.8884 9.28615C58.952 9.27908 58.998 9.22605 58.998 9.16596C58.998 9.10586 58.952 9.05284 58.8884 9.04577L57.0785 8.84427C56.9053 8.8266 56.7674 8.6852 56.7497 8.50845L56.5412 6.2001C56.5341 6.13647 56.4811 6.08697 56.421 6.08697C56.3609 6.08697 56.3043 6.13647 56.3008 6.2001L56.0922 8.50845C56.0745 8.68166 55.9402 8.82306 55.7635 8.84427L53.9571 9.04577C53.8935 9.05284 53.8475 9.10586 53.8475 9.16596C53.8475 9.22605 53.8935 9.27908 53.9571 9.28615ZM55.7917 9.08465C56.0816 9.05284 56.3114 8.81953 56.3361 8.52966L56.421 7.57521L56.5058 8.52966C56.5306 8.81953 56.7603 9.05284 57.0502 9.08465L57.7572 9.16242L57.0502 9.24019C56.7603 9.27201 56.5306 9.50532 56.5058 9.79519L56.421 10.7496L56.3361 9.79519C56.3114 9.50532 56.0816 9.27201 55.7917 9.24019L55.0848 9.16242L55.7917 9.08465ZM17.0199 37.9691L18.8263 38.1706C18.9995 38.1883 19.1374 38.3297 19.155 38.5064L19.3636 40.8148C19.3707 40.8784 19.4237 40.9279 19.4838 40.9279C19.5439 40.9279 19.6004 40.8784 19.604 40.8148L19.8125 38.5064C19.8267 38.3332 19.9646 38.1918 20.1413 38.1706L21.9512 37.9691C22.0149 37.962 22.0608 37.909 22.0608 37.8489C22.0608 37.7888 22.0149 37.7358 21.9512 37.7287L20.1413 37.5272C19.9681 37.5096 19.8302 37.3682 19.8125 37.1914L19.604 34.8831C19.5969 34.8194 19.5439 34.7699 19.4838 34.7699C19.4237 34.7699 19.3671 34.8194 19.3636 34.8831L19.155 37.1914C19.1374 37.3646 19.003 37.506 18.8263 37.5272L17.0199 37.7287C16.9563 37.7358 16.9103 37.7888 16.9103 37.8489C16.9103 37.909 16.9563 37.962 17.0199 37.9691ZM18.8546 37.7676C19.1444 37.7358 19.3742 37.5025 19.399 37.2126L19.4838 36.2582L19.5686 37.2126C19.5934 37.5025 19.8232 37.7358 20.113 37.7676L20.82 37.8454L20.113 37.9232C19.8232 37.955 19.5934 38.1883 19.5686 38.4781L19.4838 39.4326L19.399 38.4781C19.3742 38.1883 19.1444 37.955 18.8546 37.9232L18.1476 37.8454L18.8546 37.7676ZM148.395 36.8379L150.201 37.0394C150.374 37.0571 150.512 37.1985 150.53 37.3752L150.738 39.6836C150.745 39.7472 150.798 39.7967 150.858 39.7967C150.919 39.7967 150.975 39.7472 150.979 39.6836L151.187 37.3752C151.201 37.202 151.339 37.0606 151.516 37.0394L153.326 36.8379C153.389 36.8308 153.435 36.7778 153.435 36.7177C153.435 36.6576 153.389 36.6046 153.326 36.5975L151.516 36.396C151.343 36.3784 151.205 36.237 151.187 36.0602L150.979 33.7519C150.972 33.6882 150.919 33.6387 150.858 33.6387C150.798 33.6387 150.742 33.6882 150.738 33.7519L150.53 36.0602C150.512 36.2334 150.378 36.3748 150.201 36.396L148.395 36.5975C148.331 36.6046 148.285 36.6576 148.285 36.7177C148.285 36.7778 148.331 36.8308 148.395 36.8379ZM150.229 36.6364C150.519 36.6046 150.749 36.3713 150.774 36.0814L150.858 35.127L150.943 36.0814C150.968 36.3713 151.198 36.6046 151.488 36.6364L152.195 36.7142L151.488 36.792C151.198 36.8238 150.968 37.0571 150.943 37.347L150.858 38.3014L150.774 37.347C150.749 37.0571 150.519 36.8238 150.229 36.792L149.522 36.7142L150.229 36.6364ZM124.017 12.3581L125.442 12.5171C125.58 12.5313 125.689 12.6444 125.7 12.7823L125.862 14.5992C125.866 14.6487 125.908 14.6876 125.958 14.6876C126.007 14.6876 126.05 14.6487 126.053 14.5992L126.216 12.7823C126.227 12.6444 126.336 12.5348 126.474 12.5171L127.899 12.3581C127.948 12.351 127.983 12.3121 127.983 12.2626C127.983 12.2131 127.948 12.1707 127.899 12.1672L126.474 12.0081C126.336 11.994 126.227 11.8808 126.216 11.743L126.053 9.92598C126.05 9.87649 126.007 9.83761 125.958 9.83761C125.908 9.83761 125.866 9.87649 125.862 9.92598L125.7 11.743C125.689 11.8808 125.58 11.9904 125.442 12.0081L124.017 12.1672C123.968 12.1742 123.932 12.2131 123.932 12.2626C123.932 12.3121 123.968 12.3545 124.017 12.3581ZM125.463 12.199C125.689 12.1742 125.873 11.9904 125.891 11.7606L125.958 11.0077L126.025 11.7606C126.046 11.9904 126.227 12.1742 126.453 12.199L127.011 12.2591L126.453 12.3227C126.223 12.3475 126.043 12.5313 126.025 12.761L125.958 13.514L125.891 12.761C125.87 12.5313 125.689 12.3475 125.463 12.3227L124.904 12.2591L125.463 12.199ZM145.231 7.80498L146.903 7.9888C147.065 8.00648 147.193 8.13727 147.207 8.29988L147.398 10.435C147.401 10.4951 147.451 10.5375 147.511 10.5375C147.571 10.5375 147.617 10.4916 147.624 10.435L147.815 8.29988C147.829 8.13727 147.956 8.01001 148.119 7.9888L149.791 7.80498C149.847 7.79791 149.893 7.74842 149.893 7.69186C149.893 7.6353 149.851 7.58581 149.791 7.57874L148.119 7.39492C147.956 7.37725 147.829 7.24645 147.815 7.08384L147.624 4.94871C147.617 4.88861 147.571 4.84619 147.511 4.84619C147.451 4.84619 147.405 4.89215 147.398 4.94871L147.207 7.08384C147.193 7.24645 147.065 7.37725 146.903 7.39492L145.231 7.57874C145.174 7.58581 145.128 7.6353 145.128 7.69186C145.128 7.74842 145.171 7.79791 145.231 7.80498ZM146.928 7.62116C147.196 7.59288 147.408 7.37371 147.433 7.10859L147.514 6.22484L147.596 7.10859C147.62 7.37725 147.832 7.59288 148.101 7.62116L148.755 7.69186L148.101 7.7661C147.832 7.79438 147.62 8.01355 147.596 8.27867L147.514 9.16242L147.433 8.27867C147.408 8.01001 147.196 7.79438 146.928 7.7661L146.274 7.69186L146.928 7.62116ZM162.98 75.0265L161.545 74.8674C161.407 74.8533 161.297 74.7401 161.283 74.6023L161.117 72.7711C161.113 72.7217 161.071 72.6828 161.022 72.6828C160.972 72.6828 160.93 72.7217 160.926 72.7711L160.76 74.6023C160.746 74.7401 160.636 74.8533 160.498 74.8674L159.063 75.0265C159.014 75.0335 158.978 75.0724 158.978 75.1219C158.978 75.1714 159.014 75.2138 159.063 75.2174L160.498 75.3764C160.636 75.3906 160.746 75.5037 160.76 75.6416L160.926 77.4727C160.93 77.5222 160.972 77.5611 161.022 77.5611C161.071 77.5611 161.113 77.5222 161.117 77.4727L161.283 75.6416C161.297 75.5037 161.407 75.3906 161.545 75.3764L162.98 75.2174C163.029 75.2103 163.065 75.1714 163.065 75.1219C163.065 75.0724 163.029 75.03 162.98 75.0265ZM161.524 75.1855C161.294 75.2103 161.113 75.3977 161.092 75.6274L161.025 76.3839L160.958 75.6274C160.937 75.3977 160.756 75.2103 160.527 75.1855L159.965 75.1219L160.527 75.0583C160.756 75.0335 160.94 74.8462 160.958 74.6164L161.025 73.8599L161.092 74.6164C161.113 74.8462 161.294 75.0335 161.524 75.0583L162.086 75.1219L161.524 75.1855ZM5.97303 80.1345L4.16312 79.933C3.9899 79.9154 3.85204 79.774 3.83436 79.5972L3.6258 77.2889C3.61873 77.2252 3.5657 77.1758 3.50561 77.1758C3.44551 77.1758 3.38895 77.2252 3.38542 77.2889L3.17685 79.5972C3.15918 79.7704 3.02485 79.9118 2.8481 79.933L1.04171 80.1345C0.978084 80.1416 0.932129 80.1946 0.932129 80.2547C0.932129 80.3148 0.978084 80.3679 1.04171 80.3749L2.8481 80.5764C3.02131 80.5941 3.15918 80.7355 3.17685 80.9122L3.38542 83.2206C3.39249 83.2842 3.44198 83.3337 3.50561 83.3337C3.56924 83.3337 3.62226 83.2842 3.6258 83.2206L3.83436 80.9122C3.8485 80.739 3.98637 80.5976 4.16312 80.5764L5.97303 80.3749C6.03666 80.3679 6.08262 80.3148 6.08262 80.2547C6.08262 80.1946 6.03666 80.1416 5.97303 80.1345ZM4.13837 80.336C3.8485 80.3679 3.61873 80.6012 3.59398 80.891L3.50914 81.8455L3.4243 80.891C3.39956 80.6012 3.16978 80.3679 2.87991 80.336L2.17291 80.2583L2.87991 80.1805C3.16978 80.1487 3.39956 79.9154 3.4243 79.6255L3.50914 78.6711L3.59398 79.6255C3.61873 79.9154 3.8485 80.1487 4.13837 80.1805L4.84537 80.2583L4.13837 80.336ZM158.434 63.916L156.196 63.6685C155.981 63.6438 155.811 63.4706 155.79 63.2549L155.532 60.4022C155.525 60.3244 155.457 60.2643 155.38 60.2643C155.302 60.2643 155.235 60.3244 155.228 60.4022L154.97 63.2549C154.952 63.4706 154.779 63.6438 154.563 63.6685L152.325 63.916C152.248 63.923 152.191 63.9902 152.191 64.068C152.191 64.1458 152.248 64.2094 152.325 64.22L154.563 64.4674C154.779 64.4922 154.948 64.6654 154.97 64.881L155.228 67.7338C155.235 67.8115 155.302 67.8716 155.38 67.8716C155.457 67.8716 155.525 67.8115 155.532 67.7338L155.79 64.881C155.807 64.6654 155.981 64.4922 156.196 64.4674L158.434 64.22C158.512 64.2129 158.568 64.1458 158.568 64.068C158.568 63.9902 158.512 63.9266 158.434 63.916ZM156.164 64.1634C155.807 64.2023 155.525 64.4922 155.489 64.8492L155.383 66.0299L155.277 64.8492C155.245 64.4922 154.963 64.2023 154.606 64.1634L153.729 64.068L154.606 63.9725C154.963 63.9337 155.245 63.6438 155.277 63.2868L155.383 62.1061L155.489 63.2868C155.521 63.6438 155.804 63.9337 156.164 63.9725L157.041 64.068L156.164 64.1634ZM21.3821 10.3042L19.5722 10.1027C19.399 10.0851 19.2611 9.94366 19.2434 9.76691L19.0348 7.45855C19.0278 7.39492 18.9748 7.34543 18.9147 7.34543C18.8546 7.34543 18.798 7.39492 18.7945 7.45855L18.5859 9.76691C18.5682 9.94012 18.4339 10.0815 18.2571 10.1027L16.4508 10.3042C16.3871 10.3113 16.3412 10.3643 16.3412 10.4244C16.3412 10.4845 16.3871 10.5375 16.4508 10.5446L18.2571 10.7461C18.4304 10.7638 18.5682 10.9052 18.5859 11.0819L18.7945 13.3903C18.8015 13.4539 18.851 13.4999 18.9147 13.4999C18.9783 13.4999 19.0313 13.4504 19.0348 13.3903L19.2434 11.0819C19.2576 10.9087 19.3954 10.7673 19.5722 10.7461L21.3821 10.5446C21.4457 10.5375 21.4917 10.4845 21.4917 10.4244C21.4917 10.3643 21.4457 10.3113 21.3821 10.3042ZM19.5474 10.5057C19.2576 10.5375 19.0278 10.7708 19.003 11.0607L18.9182 12.0152L18.8334 11.0607C18.8086 10.7708 18.5788 10.5375 18.289 10.5057L17.582 10.428L18.289 10.3502C18.5788 10.3184 18.8086 10.0851 18.8334 9.79519L18.9182 8.84074L19.003 9.79519C19.0278 10.0851 19.2576 10.3184 19.5474 10.3502L20.2544 10.428L19.5474 10.5057ZM145.885 45.1522L142.184 44.7422C141.791 44.6997 141.477 44.3816 141.441 43.9857L141.017 39.2629C141.01 39.1745 140.936 39.1074 140.847 39.1074C140.759 39.1074 140.685 39.1745 140.678 39.2629L140.253 43.9857C140.218 44.3816 139.907 44.6997 139.511 44.7422L135.81 45.1522C135.725 45.1628 135.658 45.2335 135.658 45.3219C135.658 45.4103 135.722 45.481 135.81 45.4916L139.511 45.9016C139.903 45.9441 140.218 46.2622 140.253 46.6581L140.678 51.3809C140.685 51.4693 140.759 51.5364 140.847 51.5364C140.936 51.5364 141.01 51.4693 141.017 51.3809L141.441 46.6581C141.477 46.2622 141.788 45.9441 142.184 45.9016L145.885 45.4916C145.97 45.481 146.037 45.4103 146.037 45.3219C146.037 45.2335 145.973 45.1628 145.885 45.1522ZM142.145 45.5623C141.59 45.6224 141.151 46.0713 141.102 46.6263L140.847 49.4649L140.593 46.6263C140.543 46.0713 140.105 45.6224 139.55 45.5623L137.383 45.3219L139.55 45.0815C140.105 45.0214 140.543 44.5725 140.593 44.0175L140.847 41.1789L141.102 44.0175C141.151 44.5725 141.59 45.0214 142.145 45.0815L144.312 45.3219L142.145 45.5623ZM50.3196 16.9217L46.6361 16.5152C46.2826 16.4763 45.9998 16.19 45.968 15.833L45.5438 11.135C45.5332 11.0077 45.4236 10.9087 45.2963 10.9087C45.1691 10.9087 45.0595 11.0077 45.0489 11.135L44.6247 15.833C44.5929 16.1865 44.3101 16.4763 43.9566 16.5152L40.2731 16.9217C40.1459 16.9359 40.0504 17.0419 40.0504 17.1692C40.0504 17.2964 40.1459 17.4025 40.2731 17.4166L43.9566 17.8232C44.3101 17.862 44.5929 18.1484 44.6247 18.5054L45.0489 23.2034C45.0595 23.3342 45.1691 23.4297 45.2963 23.4297C45.4236 23.4297 45.5332 23.3307 45.5438 23.2034L45.968 18.5054C45.9998 18.1519 46.2826 17.862 46.6361 17.8232L50.3196 17.4166C50.4468 17.4025 50.5423 17.2964 50.5423 17.1692C50.5423 17.0419 50.4468 16.9359 50.3196 16.9217ZM46.5831 17.3283C45.9927 17.3919 45.5261 17.8691 45.4731 18.4595L45.2963 20.4072L45.1196 18.463C45.0666 17.8727 44.5999 17.3954 44.0096 17.3318L42.5673 17.1727L44.0096 17.0136C44.5999 16.95 45.0666 16.4728 45.1196 15.8825L45.2963 13.9347L45.4731 15.8789C45.5261 16.4728 45.9927 16.9465 46.5831 17.0101L48.0254 17.1692L46.5831 17.3283Z" fill="#D9D9D9"/>
</g>
<defs>
<clipPath id="clip0_402_5586">
<rect width="162.136" height="140" fill="white" transform="translate(0.932129)"/>
</clipPath>
</defs>
</svg>
