<svg width="13" height="22" viewBox="0 0 13 22" fill="none" xmlns="http://www.w3.org/2000/svg">
<path d="M12.8875 0.592721C12.8875 0.437359 12.8257 0.28836 12.7159 0.178503C12.606 0.0686449 12.457 0.00692738 12.3017 0.00692738H9.3727C7.89782 -0.0665418 6.4538 0.446731 5.35617 1.4346C4.25854 2.42247 3.59652 3.80462 3.51476 5.27907V8.44236H0.585794C0.430432 8.44236 0.281433 8.50408 0.171575 8.61393C0.0617175 8.72379 0 8.87279 0 9.02815V12.0743C0 12.2296 0.0617175 12.3786 0.171575 12.4885C0.281433 12.5984 0.430432 12.6601 0.585794 12.6601H3.51476V20.5097C3.51476 20.6651 3.57648 20.8141 3.68634 20.9239C3.7962 21.0338 3.94519 21.0955 4.10056 21.0955H7.61532C7.77068 21.0955 7.91968 21.0338 8.02954 20.9239C8.1394 20.8141 8.20111 20.6651 8.20111 20.5097V12.6601H11.2707C11.4009 12.6619 11.5281 12.6203 11.6321 12.5418C11.7361 12.4633 11.8109 12.3524 11.8448 12.2266L12.6883 9.18046C12.7116 9.0939 12.7147 9.00315 12.6975 8.9152C12.6802 8.82724 12.6429 8.74443 12.5886 8.67313C12.5343 8.60183 12.4643 8.54394 12.3841 8.50393C12.3039 8.46393 12.2156 8.44286 12.1259 8.44236H8.20111V5.27907C8.23026 4.98908 8.36644 4.72036 8.58308 4.52538C8.79972 4.33041 9.08125 4.22318 9.3727 4.22464H12.3017C12.457 4.22464 12.606 4.16293 12.7159 4.05307C12.8257 3.94321 12.8875 3.79421 12.8875 3.63885V0.592721Z" fill="#E1E1E1"/>
</svg>
