<svg width="130" height="168" viewBox="0 0 130 168" fill="none" xmlns="http://www.w3.org/2000/svg">
<path d="M-60.0349 84.5044C-61.313 86.8309 -60.4646 89.7476 -58.1382 91.0257C-55.8118 92.3038 -52.895 91.4554 -51.617 89.129C-49.7315 85.697 -38.7922 85.216 -25.9476 92.2725C-13.103 99.329 -7.64194 108.82 -9.52739 112.252C-10.8055 114.578 -9.95715 117.495 -7.63072 118.773C-5.30429 120.051 -2.38755 119.203 -1.10947 116.877C10.1833 96.3208 25.1463 87.4666 30.2963 90.2959C35.4464 93.1252 35.9982 110.503 24.7055 131.059C23.4274 133.385 24.2757 136.302 26.6021 137.58C28.9286 138.858 31.8453 138.01 33.1234 135.683C35.0088 132.251 45.9481 131.77 58.7928 138.827C71.6374 145.883 77.0984 155.374 75.213 158.806C73.9349 161.132 74.7832 164.049 77.1096 165.327C79.4361 166.605 82.3528 165.757 83.6309 163.431C109.132 117.013 97.4986 61.4638 58.0438 39.7884C18.5891 18.113 -34.5342 38.0866 -60.0349 84.5044Z" fill="url(#paint0_linear_305_1314)"/>
<defs>
<linearGradient id="paint0_linear_305_1314" x1="105.598" y1="123.446" x2="-38.0681" y2="44.5193" gradientUnits="userSpaceOnUse">
<stop stop-color="#A93AFF"/>
<stop offset="1" stop-color="#FF81FF"/>
</linearGradient>
</defs>
</svg>
