<svg width="283" height="207" viewBox="0 0 283 207" fill="none" xmlns="http://www.w3.org/2000/svg">
<path d="M86.6223 22.8782L86.6234 22.8754L50.2828 2.48725L50.2552 2.54252C44.9174 -0.778309 37.8778 -0.643439 30.1329 3.82763C13.4911 13.4364 0 39.2137 0 61.4032C0 72.7221 3.52368 80.8959 9.17152 84.937L9.16157 84.9574L9.62587 85.2244C10.2151 85.6163 10.8187 85.9761 11.451 86.2785L45.8665 105.555C51.2755 109.319 58.5981 109.329 66.6681 104.67C83.3103 95.062 96.8015 69.2846 96.8015 47.0951C96.8015 35.1129 92.8621 26.6362 86.6223 22.8782Z" fill="url(#paint0_linear_288_1591)"/>
<path d="M96.8015 47.0956C96.8015 69.2851 83.3104 95.0625 66.6681 104.671C50.0258 114.279 36.5347 104.08 36.5347 81.8902C36.5347 59.7007 50.0258 33.9234 66.6681 24.3152C83.3104 14.707 96.8015 24.9061 96.8015 47.0956Z" fill="url(#paint1_linear_288_1591)"/>
<path d="M107.672 44.9898L107.673 44.9876L90.5212 34.9378L90.4997 34.9815C86.3171 32.3798 80.8019 32.4848 74.734 35.9886C61.695 43.5168 51.1245 63.7137 51.1245 81.0994C51.1245 89.9675 53.8854 96.372 58.3106 99.5381L58.3029 99.5541L58.6666 99.7636C59.1281 100.07 59.6012 100.352 60.0965 100.589L75.74 109.769C79.9778 112.718 85.7152 112.726 92.0379 109.076C105.077 101.547 115.647 81.3509 115.647 63.9652C115.648 54.5759 112.562 47.9348 107.672 44.9898Z" fill="url(#paint2_linear_288_1591)"/>
<path d="M110.926 85.7004C118.773 67.2842 116.688 48.7562 106.269 44.3169C95.8505 39.8776 81.0432 51.208 73.1963 69.6242C65.3494 88.0404 67.4344 106.568 77.8532 111.008C88.272 115.447 103.079 104.117 110.926 85.7004Z" fill="white"/>
<path d="M101.272 118.611C101.272 118.611 98.4574 124.642 93.0765 127.26C87.6957 129.878 81.798 125.624 78.9614 123.825C76.1247 122.025 74.5035 118.816 76.5299 116.381C78.5556 113.945 82.5994 112.019 86.8732 113.575C91.1469 115.131 95.3964 118.999 101.272 118.611Z" fill="url(#paint3_linear_288_1591)"/>
<path d="M174.982 83.9924C174.982 83.9924 171.515 69.0409 166.964 65.1402C162.413 61.2402 134.244 59.2895 122.543 58.8562C118.214 58.6959 114.361 57.5164 111.224 56.0942C103.08 52.4003 93.4731 54.4227 87.4228 61.0069C83.6007 65.1662 80.0881 70.7649 78.3387 78.1417C73.3547 99.1605 84.1893 108.695 84.1893 108.695C84.1893 108.695 106.741 149.329 118.659 156.047C118.659 156.047 128.472 167.108 136.469 166.032C140.934 165.431 141.961 163.801 143.501 162.968C143.746 162.959 146.318 164.501 153.312 163.853C159.468 163.282 161.448 158.166 161.448 158.166C161.448 158.166 167.18 159.353 171.534 157.975C177.543 156.073 180.586 148.652 180.27 142.951C183.114 119.14 174.982 83.9924 174.982 83.9924Z" fill="url(#paint4_linear_288_1591)"/>
<path opacity="0.5" d="M151.368 161.335C146.508 161.072 143.717 159.48 139.383 156.065C135.048 152.65 123.556 138.569 123.556 138.569C123.556 138.569 135.893 158.575 143.501 162.967C143.746 162.959 146.318 164.5 153.312 163.852C159.468 163.281 161.448 158.165 161.448 158.165C161.448 158.165 156.227 161.597 151.368 161.335Z" fill="url(#paint5_linear_288_1591)"/>
<path opacity="0.5" d="M187.758 146.194C187.74 146.277 182.365 149.327 174.467 146.194C166.57 143.062 150.875 121.165 150.875 121.165C150.875 121.165 169.328 141.88 177.997 143.324C186.665 144.768 189.817 142.178 189.817 142.178L187.758 146.194Z" fill="url(#paint6_linear_288_1591)"/>
<path opacity="0.5" d="M179.438 149.088L178.062 146.214C178.062 146.214 177.294 153.433 170.182 154.488C158.625 156.202 136.099 129.073 136.099 129.073C136.099 129.073 152.969 153.27 161.448 158.166C161.452 158.167 167.182 159.352 171.533 157.975C175.496 156.721 178.168 153.067 179.438 149.088Z" fill="url(#paint7_linear_288_1591)"/>
<path d="M155.479 102.05L130.777 99.7381C130.777 99.7381 123.12 110.284 114.308 109.417C105.497 108.55 117.487 99.7381 117.487 99.7381C117.487 99.7381 119.365 82.4033 136.411 85.87C153.457 89.3368 156.346 92.6598 156.346 93.0931C156.345 93.5265 155.479 102.05 155.479 102.05Z" fill="url(#paint8_linear_288_1591)"/>
<path d="M217.592 111.607L191.233 100.677C191.233 100.677 182.782 88.3257 175.415 80.9589C168.047 73.5915 161.33 71.2081 155.479 71.6415C149.629 72.0748 129.26 74.0249 127.418 75.8671C125.576 77.7088 117.017 90.9269 113.767 94.3937C110.516 97.8604 111.058 100.569 113.117 102.736C115.175 104.903 122.651 105.228 126.551 101.978C130.451 98.7277 134.027 92.9853 134.027 92.9853L150.495 96.127C150.495 96.127 151.145 132.964 184.515 135.997C217.885 139.031 217.592 111.607 217.592 111.607Z" fill="url(#paint9_linear_288_1591)"/>
<path d="M106.103 140.235C106.103 140.235 99.853 142.525 94.193 140.585C88.533 138.645 87.3529 131.469 86.6117 128.193C85.8705 124.917 86.9848 121.499 90.1393 121.201C93.2937 120.904 97.5183 122.392 99.4495 126.509C101.381 130.627 101.664 136.366 106.103 140.235Z" fill="url(#paint10_linear_288_1591)"/>
<path d="M113.162 153.188C113.162 153.188 106.561 154.041 101.469 150.899C96.3766 147.757 96.8099 140.498 96.8099 137.139C96.8099 133.78 98.6517 130.692 101.794 131.099C104.936 131.505 108.728 133.889 109.703 138.331C110.678 142.773 109.687 148.433 113.162 153.188Z" fill="url(#paint11_linear_288_1591)"/>
<path d="M124.899 161.694C124.899 161.694 114.742 164.6 109.65 161.458C104.557 158.316 104.991 151.057 104.991 147.698C104.991 144.339 106.832 141.252 109.975 141.658C113.116 142.064 116.909 144.448 117.884 148.89C118.859 153.332 121.424 156.939 124.899 161.694Z" fill="url(#paint12_linear_288_1591)"/>
<path d="M243.419 116.635L243.42 116.632L214.947 100.658L214.925 100.701C210.743 98.0998 205.228 98.2054 199.16 101.709C186.121 109.237 175.55 129.434 175.55 146.819C175.55 155.688 178.311 162.092 182.736 165.258L182.729 165.274L183.092 165.484C183.554 165.79 184.027 166.072 184.522 166.309L211.487 181.413C215.725 184.362 221.462 184.37 227.785 180.72C240.824 173.191 251.394 152.995 251.394 135.609C251.394 126.221 248.308 119.579 243.419 116.635Z" fill="url(#paint13_linear_288_1591)"/>
<path d="M246.723 157.398C254.57 138.982 252.485 120.454 242.066 116.015C231.647 111.575 216.84 122.906 208.993 141.322C201.146 159.738 203.231 178.266 213.65 182.706C224.069 187.145 238.876 175.814 246.723 157.398Z" fill="white"/>
<path d="M272.821 121.352L272.822 121.349L236.481 100.961L236.453 101.017C231.115 97.6962 224.076 97.8306 216.331 102.302C199.689 111.911 186.198 137.688 186.198 159.878C186.198 171.197 189.721 179.37 195.369 183.412L195.359 183.432L195.824 183.699C196.413 184.091 197.017 184.451 197.649 184.753L232.064 204.03C237.473 207.794 244.796 207.804 252.866 203.145C269.509 193.537 283 167.76 283 145.57C283 133.587 279.061 125.111 272.821 121.352Z" fill="url(#paint14_linear_288_1591)"/>
<path d="M283 145.57C283 167.759 269.509 193.537 252.867 203.145C236.225 212.753 222.733 202.554 222.733 180.364C222.733 158.175 236.225 132.398 252.867 122.789C269.509 113.181 283 123.38 283 145.57Z" fill="url(#paint15_linear_288_1591)"/>
<defs>
<linearGradient id="paint0_linear_288_1591" x1="22.7157" y1="98.7376" x2="51.2025" y2="49.3967" gradientUnits="userSpaceOnUse">
<stop stop-color="#001D2F"/>
<stop offset="1" stop-color="#00395E"/>
</linearGradient>
<linearGradient id="paint1_linear_288_1591" x1="66.6681" y1="97.762" x2="66.6681" y2="-12.77" gradientUnits="userSpaceOnUse">
<stop stop-color="#001A2F"/>
<stop offset="0.3965" stop-color="#00223F"/>
<stop offset="1" stop-color="#0072BC"/>
</linearGradient>
<linearGradient id="paint2_linear_288_1591" x1="63.3305" y1="107.269" x2="85.5698" y2="68.7497" gradientUnits="userSpaceOnUse">
<stop stop-color="#A996EB"/>
<stop offset="0.39" stop-color="#C5BAEB"/>
<stop offset="1" stop-color="#F2EFFA"/>
</linearGradient>
<linearGradient id="paint3_linear_288_1591" x1="83.2075" y1="126.278" x2="91.977" y2="112.453" gradientUnits="userSpaceOnUse">
<stop stop-color="#DEA861"/>
<stop offset="1" stop-color="#EBCBA0"/>
</linearGradient>
<linearGradient id="paint4_linear_288_1591" x1="168.202" y1="147.651" x2="140.226" y2="109.036" gradientUnits="userSpaceOnUse">
<stop stop-color="#CC8241"/>
<stop offset="1" stop-color="#DEA861"/>
</linearGradient>
<linearGradient id="paint5_linear_288_1591" x1="157.185" y1="175.741" x2="133.736" y2="132.027" gradientUnits="userSpaceOnUse">
<stop stop-color="#8B451C"/>
<stop offset="1" stop-color="#8B451C" stop-opacity="0"/>
</linearGradient>
<linearGradient id="paint6_linear_288_1591" x1="186.057" y1="160.959" x2="161.14" y2="114.509" gradientUnits="userSpaceOnUse">
<stop stop-color="#8B451C"/>
<stop offset="1" stop-color="#8B451C" stop-opacity="0"/>
</linearGradient>
<linearGradient id="paint7_linear_288_1591" x1="178.145" y1="172.019" x2="144.569" y2="117.226" gradientUnits="userSpaceOnUse">
<stop stop-color="#8B451C"/>
<stop offset="1" stop-color="#8B451C" stop-opacity="0"/>
</linearGradient>
<linearGradient id="paint8_linear_288_1591" x1="146.269" y1="75.1398" x2="126.401" y2="119.918" gradientUnits="userSpaceOnUse">
<stop stop-color="#8B451C"/>
<stop offset="1" stop-color="#8B451C" stop-opacity="0"/>
</linearGradient>
<linearGradient id="paint9_linear_288_1591" x1="164.522" y1="158.75" x2="164.522" y2="61.4507" gradientUnits="userSpaceOnUse">
<stop stop-color="#DEA861"/>
<stop offset="1" stop-color="#EBCBA0"/>
</linearGradient>
<linearGradient id="paint10_linear_288_1591" x1="87.6974" y1="133.071" x2="103.649" y2="129.455" gradientUnits="userSpaceOnUse">
<stop stop-color="#DEA861"/>
<stop offset="1" stop-color="#EBCBA0"/>
</linearGradient>
<linearGradient id="paint11_linear_288_1591" x1="96.8011" y1="142.178" x2="113.162" y2="142.178" gradientUnits="userSpaceOnUse">
<stop stop-color="#DEA861"/>
<stop offset="1" stop-color="#EBCBA0"/>
</linearGradient>
<linearGradient id="paint12_linear_288_1591" x1="104.982" y1="152.27" x2="124.899" y2="152.27" gradientUnits="userSpaceOnUse">
<stop stop-color="#DEA861"/>
<stop offset="1" stop-color="#EBCBA0"/>
</linearGradient>
<linearGradient id="paint13_linear_288_1591" x1="193.348" y1="176.071" x2="215.668" y2="137.412" gradientUnits="userSpaceOnUse">
<stop stop-color="#A996EB"/>
<stop offset="0.39" stop-color="#C5BAEB"/>
<stop offset="1" stop-color="#F2EFFA"/>
</linearGradient>
<linearGradient id="paint14_linear_288_1591" x1="208.914" y1="197.212" x2="237.401" y2="147.871" gradientUnits="userSpaceOnUse">
<stop stop-color="#43386B"/>
<stop offset="0.3965" stop-color="#594A8E"/>
<stop offset="1" stop-color="#A996EB"/>
</linearGradient>
<linearGradient id="paint15_linear_288_1591" x1="252.867" y1="196.237" x2="252.867" y2="85.7042" gradientUnits="userSpaceOnUse">
<stop stop-color="#43386B"/>
<stop offset="0.3965" stop-color="#594A8E"/>
<stop offset="1" stop-color="#A996EB"/>
</linearGradient>
</defs>
</svg>
