<svg width="108" height="190" viewBox="0 0 108 190" fill="none" xmlns="http://www.w3.org/2000/svg">
<path d="M-57.72 50.0962V139.902C-57.72 141.892 -56.6601 143.729 -54.9367 144.724L22.2167 189.256C23.9416 190.249 26.0606 190.248 27.7832 189.256L104.937 144.724C106.66 143.729 107.72 141.892 107.72 139.902V50.0962H-57.72Z" fill="url(#paint0_linear_288_1526)"/>
<path d="M104.937 45.274L27.7832 0.742013C26.0654 -0.247338 23.9345 -0.247338 22.2167 0.742013L-54.9367 45.274C-56.6601 46.2689 -57.72 48.1062 -57.72 50.0956C-57.72 52.0851 -56.6601 53.9224 -54.9367 54.9173L22.2167 99.4493C23.9416 100.443 26.0606 100.442 27.7832 99.4493L104.937 54.9173C106.66 53.9224 107.72 52.0851 107.72 50.0956C107.72 48.1062 106.66 46.2685 104.937 45.274Z" fill="url(#paint1_linear_288_1526)"/>
<defs>
<linearGradient id="paint0_linear_288_1526" x1="25" y1="190.001" x2="25" y2="50.0962" gradientUnits="userSpaceOnUse">
<stop stop-color="#A93AFF"/>
<stop offset="1" stop-color="#FF81FF"/>
</linearGradient>
<linearGradient id="paint1_linear_288_1526" x1="25" y1="100.194" x2="25" y2="-0.000185133" gradientUnits="userSpaceOnUse">
<stop stop-color="#FFBEF9"/>
<stop offset="1" stop-color="#FFF1FF"/>
</linearGradient>
</defs>
</svg>
