<svg width="68" height="190" viewBox="0 0 68 190" fill="none" xmlns="http://www.w3.org/2000/svg">
<path d="M-97.7202 50.0962V139.902C-97.7202 141.892 -96.6604 143.729 -94.937 144.724L-17.7835 189.256C-16.0586 190.249 -13.9397 190.248 -12.217 189.256L64.9364 144.724C66.6598 143.729 67.7197 141.892 67.7197 139.902V50.0962H-97.7202Z" fill="url(#paint0_linear_305_1328)"/>
<path d="M64.9368 45.274L-12.217 0.742013C-13.9348 -0.247338 -16.0657 -0.247338 -17.7835 0.742013L-94.937 45.274C-96.6604 46.2689 -97.7202 48.1062 -97.7202 50.0956C-97.7202 52.0851 -96.6604 53.9224 -94.937 54.9173L-17.7835 99.4493C-16.0586 100.443 -13.9397 100.442 -12.217 99.4493L64.9364 54.9173C66.6598 53.9224 67.7197 52.0851 67.7197 50.0956C67.7197 48.1062 66.6598 46.2685 64.9368 45.274Z" fill="url(#paint1_linear_305_1328)"/>
<defs>
<linearGradient id="paint0_linear_305_1328" x1="-15.0003" y1="190.001" x2="-15.0003" y2="50.0962" gradientUnits="userSpaceOnUse">
<stop stop-color="#A93AFF"/>
<stop offset="1" stop-color="#FF81FF"/>
</linearGradient>
<linearGradient id="paint1_linear_305_1328" x1="-15.0003" y1="100.194" x2="-15.0003" y2="-0.000185133" gradientUnits="userSpaceOnUse">
<stop stop-color="#FFBEF9"/>
<stop offset="1" stop-color="#FFF1FF"/>
</linearGradient>
</defs>
</svg>
