<svg width="37" height="37" viewBox="0 0 37 37" fill="none" xmlns="http://www.w3.org/2000/svg">
<g clip-path="url(#clip0_224_1788)">
<path d="M18.5 37C13.5935 37 8.88795 35.0509 5.41852 31.5815C1.9491 28.1121 0 23.4065 0 18.5C0 13.5935 1.9491 8.88795 5.41852 5.41852C8.88795 1.9491 13.5935 0 18.5 0C23.4065 0 28.1121 1.9491 31.5815 5.41852C35.0509 8.88795 37 13.5935 37 18.5C37 23.4065 35.0509 28.1121 31.5815 31.5815C28.1121 35.0509 23.4065 37 18.5 37ZM18.5 33.3C22.4252 33.3 26.1896 31.7407 28.9652 28.9652C31.7407 26.1896 33.3 22.4252 33.3 18.5C33.3 14.5748 31.7407 10.8104 28.9652 8.03482C26.1896 5.25928 22.4252 3.7 18.5 3.7C14.5748 3.7 10.8104 5.25928 8.03482 8.03482C5.25928 10.8104 3.7 14.5748 3.7 18.5C3.7 22.4252 5.25928 26.1896 8.03482 28.9652C10.8104 31.7407 14.5748 33.3 18.5 33.3ZM27.75 16.65V20.35H9.25V16.65H27.75Z" fill="#E4E1EE"/>
</g>
<defs>
<clipPath id="clip0_224_1788">
<rect width="37" height="37" fill="white"/>
</clipPath>
</defs>
</svg>
