<svg width="72" height="72" viewBox="0 0 72 72" fill="none" xmlns="http://www.w3.org/2000/svg">
<g clip-path="url(#clip0_285_819)">
<path d="M25.5408 52.5464H45.8571V68.1898H25.5408V52.5464Z" fill="#918291"/>
<path d="M25.5408 52.5464H45.8571V57.756H25.5408V52.5464Z" fill="#7A6D79"/>
<path d="M71.3975 3.48286C71.3975 1.55931 69.8382 0 67.9146 0H3.48286C1.55931 0 0 1.55931 0 3.48286V48.294L0.988409 49.4493L0 50.3856V50.5006C0 52.4242 1.55931 53.9835 3.48286 53.9835H67.9148C69.8383 53.9835 71.3976 52.4242 71.3976 50.5006V50.3856L70.2485 49.3397L71.3976 48.2939L71.3975 3.48286Z" fill="#EAF6FF"/>
<path d="M71.3976 48.2939V3.48286C71.3976 1.55931 69.8383 0 67.9148 0H64.1487C66.0722 0 67.6315 1.55931 67.6315 3.48286V50.5008C67.6315 52.4243 66.0722 53.9836 64.1487 53.9836H67.9148C69.8383 53.9836 71.3976 52.4243 71.3976 50.5008V50.3857L70.2484 49.3399L71.3976 48.2939Z" fill="#D8ECFE"/>
<path d="M35.6987 14.3941C35.1211 14.3941 34.6528 13.9258 34.6528 13.3483V6.95455C34.6528 6.37696 35.1211 5.90869 35.6987 5.90869C36.2763 5.90869 36.7446 6.37696 36.7446 6.95455V13.3483C36.7446 13.9258 36.2763 14.3941 35.6987 14.3941Z" fill="#9FACBA"/>
<path d="M21.0107 31.5192C20.6236 31.5192 20.2515 31.3034 20.0702 30.9322C19.8167 30.4132 20.0319 29.7869 20.5509 29.5334L26.7647 26.4979C27.2838 26.2445 27.91 26.4596 28.1635 26.9786C28.417 27.4976 28.2019 28.1239 27.6829 28.3774L21.469 31.4129C21.3212 31.485 21.1648 31.5192 21.0107 31.5192Z" fill="#9FACBA"/>
<path d="M50.3867 31.5194C50.2326 31.5194 50.0761 31.4852 49.9283 31.413L43.7145 28.3775C43.1955 28.1239 42.9803 27.4977 43.2338 26.9786C43.4873 26.4596 44.1139 26.2445 44.6326 26.498L50.8464 29.5335C51.3655 29.787 51.5806 30.4133 51.3271 30.9323C51.1457 31.3035 50.7736 31.5194 50.3867 31.5194Z" fill="#9FACBA"/>
<path d="M54.8544 71.3975H16.5435C15.9023 71.3975 15.3826 70.8778 15.3826 70.2366V67.9148C15.3826 67.2736 15.9023 66.7539 16.5435 66.7539H54.8544C55.4956 66.7539 56.0153 67.2736 56.0153 67.9148V70.2366C56.0153 70.8778 55.4956 71.3975 54.8544 71.3975Z" fill="#A79BA7"/>
<path d="M54.8541 66.7534H51.0811C51.7222 66.7534 52.242 67.2731 52.242 67.9143V70.2361C52.242 70.8773 51.7222 71.397 51.0811 71.397H54.8541C55.4953 71.397 56.015 70.8773 56.015 70.2361V67.9143C56.015 67.2733 55.4953 66.7534 54.8541 66.7534Z" fill="#918291"/>
<path d="M26.5449 16.6914C26.3715 16.9579 26.2734 17.2732 26.2734 17.6037V26.8572C26.2734 27.4966 26.6378 28.0801 27.2123 28.3607L34.9643 32.1476C35.196 32.2608 35.4475 32.3174 35.6987 32.3174L37.0319 20.0808L26.5449 16.6914Z" fill="#FFD15B"/>
<path d="M44.8525 16.6914L37.7778 17.5288L35.6987 21.1631V32.3174C35.9502 32.3174 36.2014 32.2608 36.4332 32.1476L44.1851 28.3607C44.7597 28.08 45.124 27.4966 45.124 26.8572V17.6037C45.124 17.273 45.026 16.9579 44.8525 16.6914Z" fill="#FFC344"/>
<path d="M44.1853 16.0999L36.4332 12.3129C35.9697 12.0865 35.4278 12.0865 34.9643 12.3129L27.2122 16.0999C26.9347 16.2355 26.707 16.4421 26.5449 16.6912L34.9643 20.8041C35.4278 21.0305 35.9698 21.0305 36.4332 20.8041L44.8525 16.6912C44.6905 16.4421 44.4628 16.2355 44.1853 16.0999Z" fill="#FFE177"/>
<path d="M65.5927 18.5752H53.4029C52.7617 18.5752 52.2419 18.0555 52.2419 17.4143V5.80495C52.2419 5.16377 52.7617 4.64404 53.4029 4.64404H65.5927C66.2339 4.64404 66.7536 5.16377 66.7536 5.80495V17.4143C66.7536 18.0555 66.2339 18.5752 65.5927 18.5752Z" fill="#8AC9FE"/>
<path d="M14.5117 32.5065H5.80471C5.16352 32.5065 4.6438 31.9868 4.6438 31.3456V5.80495C4.6438 5.16377 5.16352 4.64404 5.80471 4.64404H14.5117C15.1529 4.64404 15.6726 5.16377 15.6726 5.80495V31.3455C15.6726 31.9866 15.1529 32.5065 14.5117 32.5065Z" fill="#FD8087"/>
<path d="M5.80471 40.0527H65.5929C66.2341 40.0527 66.7538 40.5725 66.7538 41.2136V43.5355C66.7538 44.1766 66.2341 44.6964 65.5929 44.6964H5.80471C5.16352 44.6964 4.6438 44.1766 4.6438 43.5355V41.2136C4.6438 40.5725 5.16352 40.0527 5.80471 40.0527Z" fill="#8AC9FE"/>
<path d="M65.5931 40.0527H61.8201C62.4613 40.0527 62.981 40.5725 62.981 41.2136V43.5355C62.981 44.1766 62.4613 44.6964 61.8201 44.6964H65.5931C66.2343 44.6964 66.754 44.1766 66.754 43.5355V41.2136C66.754 40.5725 66.2343 40.0527 65.5931 40.0527Z" fill="#60B7FF"/>
<path d="M62.1101 10.3329H56.8859C56.3084 10.3329 55.8401 9.86467 55.8401 9.28707C55.8401 8.70948 56.3084 8.24121 56.8859 8.24121H62.1101C62.6877 8.24121 63.156 8.70948 63.156 9.28707C63.156 9.86467 62.6878 10.3329 62.1101 10.3329Z" fill="#EAF6FF"/>
<path d="M62.1101 14.977H56.8859C56.3084 14.977 55.8401 14.5087 55.8401 13.9311C55.8401 13.3535 56.3084 12.8853 56.8859 12.8853H62.1101C62.6877 12.8853 63.156 13.3535 63.156 13.9311C63.156 14.5087 62.6878 14.977 62.1101 14.977Z" fill="#EAF6FF"/>
<path d="M11.0289 10.3329H9.28756C8.70997 10.3329 8.2417 9.86467 8.2417 9.28707C8.2417 8.70948 8.70997 8.24121 9.28756 8.24121H11.029C11.6066 8.24121 12.0749 8.70948 12.0749 9.28707C12.0749 9.86467 11.6064 10.3329 11.0289 10.3329Z" fill="#EAF6FF"/>
<path d="M11.0289 14.977H9.28756C8.70997 14.977 8.2417 14.5087 8.2417 13.9311C8.2417 13.3535 8.70997 12.8853 9.28756 12.8853H11.029C11.6066 12.8853 12.0749 13.3535 12.0749 13.9311C12.0749 14.5087 11.6064 14.977 11.0289 14.977Z" fill="#EAF6FF"/>
<path d="M11.0289 28.9086H9.28756C8.70997 28.9086 8.2417 28.4404 8.2417 27.8628C8.2417 27.2852 8.70997 26.8169 9.28756 26.8169H11.029C11.6066 26.8169 12.0749 27.2852 12.0749 27.8628C12.0749 28.4404 11.6064 28.9086 11.0289 28.9086Z" fill="#EAF6FF"/>
<path d="M11.0289 24.2646H9.28756C8.70997 24.2646 8.2417 23.7963 8.2417 23.2187C8.2417 22.6411 8.70997 22.1729 9.28756 22.1729H11.029C11.6066 22.1729 12.0749 22.6411 12.0749 23.2187C12.0749 23.7963 11.6064 24.2646 11.0289 24.2646Z" fill="#EAF6FF"/>
<path d="M11.0289 19.621H9.28756C8.70997 19.621 8.2417 19.1528 8.2417 18.5752C8.2417 17.9976 8.70997 17.5293 9.28756 17.5293H11.029C11.6066 17.5293 12.0749 17.9976 12.0749 18.5752C12.0749 19.1528 11.6064 19.621 11.0289 19.621Z" fill="#EAF6FF"/>
<path d="M0 48.2939H71.3975V50.3857H0V48.2939Z" fill="#B3DAFE"/>
</g>
<defs>
<clipPath id="clip0_285_819">
<rect width="71.3975" height="71.3975" fill="white"/>
</clipPath>
</defs>
</svg>
