<svg width="20" height="20" viewBox="0 0 20 20" fill="none" xmlns="http://www.w3.org/2000/svg">
<path d="M10.387 6.38559C8.63639 6.38559 7.22503 7.81059 7.22503 9.54773C7.22503 11.2849 8.64996 12.7099 10.387 12.7099C12.1241 12.7099 13.549 11.2849 13.549 9.54773C13.549 7.81059 12.1241 6.38559 10.387 6.38559ZM19.8866 9.54773C19.8866 8.2313 19.8866 6.94202 19.8187 5.62559C19.7509 4.10559 19.3981 2.74844 18.2852 1.64916C17.1724 0.536301 15.8289 0.183444 14.309 0.115587C12.9926 0.0477294 11.7034 0.0477295 10.387 0.0477295C9.07066 0.0477295 7.78143 0.0477294 6.46506 0.115587C4.94513 0.183444 3.58804 0.536301 2.48881 1.64916C1.376 2.76202 1.02316 4.10559 0.955305 5.62559C0.887451 6.94202 0.887451 8.2313 0.887451 9.54773C0.887451 10.8642 0.887451 12.1534 0.955305 13.4699C1.02316 14.9899 1.376 16.347 2.48881 17.4463C3.60162 18.5592 4.94513 18.912 6.46506 18.9799C7.78143 19.0477 9.07066 19.0477 10.387 19.0477C11.7034 19.0477 12.9926 19.0477 14.309 18.9799C15.8289 18.912 17.186 18.5592 18.2852 17.4463C19.3981 16.3334 19.7509 14.9899 19.8187 13.4699C19.9002 12.167 19.8866 10.8642 19.8866 9.54773ZM10.387 14.4199C7.68643 14.4199 5.5151 12.2484 5.5151 9.54773C5.5151 6.84701 7.68643 4.67559 10.387 4.67559C13.0876 4.67559 15.259 6.84701 15.259 9.54773C15.259 12.2484 13.0876 14.4199 10.387 14.4199ZM15.4625 5.61201C14.8383 5.61201 14.3226 5.10987 14.3226 4.47202C14.3226 3.83416 14.8247 3.33202 15.4625 3.33202C16.1003 3.33202 16.6025 3.83416 16.6025 4.47202C16.6059 4.62067 16.5788 4.76845 16.5227 4.90619C16.4667 5.04392 16.383 5.16868 16.2768 5.27273C16.1727 5.37896 16.048 5.46268 15.9102 5.51871C15.7725 5.57474 15.6247 5.60188 15.4761 5.59844L15.4625 5.61201Z" fill="#E1E1E1"/>
</svg>
