<svg width="19" height="19" viewBox="0 0 19 19" fill="none" xmlns="http://www.w3.org/2000/svg">
<path d="M16.8875 0.547729C17.4179 0.547729 17.9266 0.758443 18.3017 1.13352C18.6767 1.50859 18.8875 2.0173 18.8875 2.54773V16.5477C18.8875 17.0782 18.6767 17.5869 18.3017 17.9619C17.9266 18.337 17.4179 18.5477 16.8875 18.5477H2.88745C2.35702 18.5477 1.84831 18.337 1.47324 17.9619C1.09816 17.5869 0.887451 17.0782 0.887451 16.5477V2.54773C0.887451 2.0173 1.09816 1.50859 1.47324 1.13352C1.84831 0.758443 2.35702 0.547729 2.88745 0.547729H16.8875ZM16.3875 16.0477V10.7477C16.3875 9.88312 16.044 9.05393 15.4326 8.44256C14.8213 7.83119 13.9921 7.48773 13.1275 7.48773C12.2775 7.48773 11.2875 8.00773 10.8075 8.78773V7.67773H8.01745V16.0477H10.8075V11.1177C10.8075 10.3477 11.4275 9.71773 12.1975 9.71773C12.5688 9.71773 12.9248 9.86523 13.1874 10.1278C13.45 10.3903 13.5975 10.7464 13.5975 11.1177V16.0477H16.3875ZM4.76745 6.10773C5.21302 6.10773 5.64033 5.93073 5.95539 5.61567C6.27045 5.30061 6.44745 4.87329 6.44745 4.42773C6.44745 3.49773 5.69745 2.73773 4.76745 2.73773C4.31924 2.73773 3.88938 2.91578 3.57244 3.23272C3.2555 3.54966 3.07745 3.97951 3.07745 4.42773C3.07745 5.35773 3.83745 6.10773 4.76745 6.10773ZM6.15745 16.0477V7.67773H3.38745V16.0477H6.15745Z" fill="white"/>
</svg>
