<svg width="297" height="83" viewBox="0 0 297 83" fill="none" xmlns="http://www.w3.org/2000/svg">
<path d="M49.0157 54.2652V72.4043C49.0157 73.5592 48.5741 74.6802 47.7758 75.5294C45.9246 77.4996 44.0563 79.4867 42.205 81.4569C41.2539 82.459 39.9291 82.9855 38.5534 82.8836C33.3223 82.5099 21.6032 80.6077 11.7523 70.8587C4.07547 63.2838 1.18816 54.5369 0.0841834 48.8302C-0.459311 46.0108 1.69768 43.3953 4.56801 43.3953H38.1288C39.3347 43.3953 40.5066 43.8708 41.3558 44.737L47.6739 51.0551C48.5231 51.9044 49.0157 53.0763 49.0157 54.2821V54.2652Z" fill="white"/>
<path d="M49.0157 10.5995V28.7386C49.0157 29.9445 48.5401 31.0995 47.6739 31.9656C45.5679 34.0717 43.4619 36.1777 41.3558 38.3008C40.5066 39.167 39.3347 39.6425 38.1288 39.6425H4.56801C1.69768 39.6425 -0.459311 37.0269 0.0841834 34.2076C1.18816 28.4839 4.07547 19.737 11.7523 12.1451C21.5862 2.41312 33.3053 0.510885 38.5534 0.137232C39.9291 0.0353272 41.2539 0.561837 42.205 1.56391C44.0733 3.53407 45.9246 5.52123 47.7928 7.50838C48.5911 8.35759 49.0327 9.47855 49.0327 10.6335L49.0157 10.5995Z" fill="white"/>
<path d="M102.958 10.9039V29.043C102.958 30.1979 102.516 31.3189 101.735 32.1681C99.8495 34.1722 97.9643 36.1764 96.079 38.1805C95.2128 39.0976 94.0239 39.6242 92.7501 39.6242H63.7411C62.4843 39.6242 61.2784 39.0976 60.4122 38.1975C58.5269 36.1933 56.6247 34.1892 54.7565 32.1681C53.9582 31.3189 53.5166 30.1979 53.5166 29.043V10.9039C53.5166 9.69798 53.9922 8.54306 54.8584 7.67686C56.9644 5.57082 59.0704 3.46478 61.1765 1.34175C62.0257 0.475559 63.1976 0 64.4035 0H92.0708C93.2766 0 94.4486 0.492543 95.2978 1.34175C97.4038 3.46478 99.5098 5.55384 101.616 7.65988C102.465 8.50909 102.958 9.681 102.958 10.8869V10.9039Z" fill="white"/>
<path d="M102.958 73.9814V53.957C102.958 52.8021 102.516 51.6811 101.718 50.8319C99.8666 48.8448 97.9984 46.8746 96.1301 44.8875C95.196 43.9024 93.8712 43.3589 92.5125 43.4608C89.4383 43.6816 84.1053 44.4289 78.2287 46.9935C74.1186 48.7938 69.7366 51.4603 65.6774 55.4856C60.1066 61.0055 57.0494 67.1538 55.385 72.3C54.8585 73.9474 55.2661 75.7478 56.4889 76.9706C58.0515 78.5332 59.614 80.0957 61.1596 81.6583C62.0088 82.5245 63.1807 83 64.3866 83H92.0369C93.2428 83 94.4147 82.5075 95.2639 81.6583C97.4549 79.4503 99.6458 77.2594 101.854 75.0684C102.21 74.7117 102.567 74.3551 102.924 73.9984L102.958 73.9814Z" fill="white"/>
<path d="M133.692 35.5V17.6729H126.163V15.0068H144.137V17.6729H136.607V35.5H133.692ZM152.106 34.0645C151.208 34.6406 150.28 35.0752 149.323 35.3682C148.376 35.6514 147.394 35.793 146.379 35.793C144.24 35.793 142.531 35.1338 141.252 33.8154C139.982 32.4873 139.347 30.7197 139.347 28.5127C139.347 26.4912 139.958 24.8506 141.178 23.5908C142.409 22.3311 144.01 21.7012 145.983 21.7012C147.936 21.7012 149.484 22.3408 150.627 23.6201C151.769 24.8994 152.34 26.6279 152.34 28.8057V29.2012H142.204C142.282 30.4805 142.702 31.4814 143.463 32.2041C144.225 32.917 145.246 33.2734 146.525 33.2734C147.384 33.2734 148.278 33.1172 149.206 32.8047C150.143 32.4824 151.11 31.999 152.106 31.3545V34.0645ZM142.204 27.2822H149.367C149.279 26.2959 148.922 25.5049 148.297 24.9092C147.672 24.3135 146.891 24.0156 145.954 24.0156C144.919 24.0156 144.084 24.2939 143.449 24.8506C142.814 25.3975 142.399 26.208 142.204 27.2822ZM164.865 32.292V35.0459C164.182 35.29 163.518 35.4707 162.873 35.5879C162.229 35.7051 161.589 35.7637 160.954 35.7637C158.747 35.7637 156.936 35.1045 155.52 33.7861C154.104 32.458 153.396 30.7686 153.396 28.7178C153.396 26.7158 154.104 25.041 155.52 23.6934C156.936 22.3457 158.708 21.6719 160.837 21.6719C161.491 21.6719 162.136 21.7402 162.771 21.877C163.405 22.0137 164.03 22.2236 164.646 22.5068V25.3926C164.021 25.0117 163.401 24.7334 162.785 24.5576C162.18 24.3721 161.56 24.2793 160.925 24.2793C159.538 24.2793 158.405 24.6943 157.527 25.5244C156.657 26.3545 156.223 27.4189 156.223 28.7178C156.223 30.0459 156.667 31.1299 157.556 31.9697C158.445 32.7998 159.612 33.2148 161.057 33.2148C161.721 33.2148 162.365 33.1416 162.99 32.9951C163.625 32.8389 164.25 32.6045 164.865 32.292ZM166.946 35.5V15.0068H169.641V23.6201C170.315 22.9756 170.984 22.5068 171.648 22.2139C172.322 21.9111 173.045 21.7598 173.816 21.7598C175.291 21.7598 176.453 22.1846 177.303 23.0342C178.152 23.8838 178.577 25.0508 178.577 26.5352V35.5H175.852V27.2236C175.852 26.1201 175.623 25.3096 175.164 24.792C174.715 24.2744 174.007 24.0156 173.04 24.0156C172.327 24.0156 171.702 24.1523 171.165 24.4258C170.628 24.6992 170.12 25.1387 169.641 25.7441V35.5H166.946ZM188.759 35.5V15.0068H191.308L198.676 23.6201L206.059 15.0068H208.607V35.5H205.766V19.5039L198.676 27.7656L191.601 19.5039V35.5H188.759ZM223.813 34.0645C222.915 34.6406 221.987 35.0752 221.03 35.3682C220.083 35.6514 219.101 35.793 218.086 35.793C215.947 35.793 214.238 35.1338 212.959 33.8154C211.689 32.4873 211.054 30.7197 211.054 28.5127C211.054 26.4912 211.665 24.8506 212.885 23.5908C214.116 22.3311 215.717 21.7012 217.69 21.7012C219.643 21.7012 221.191 22.3408 222.334 23.6201C223.476 24.8994 224.047 26.6279 224.047 28.8057V29.2012H213.911C213.989 30.4805 214.409 31.4814 215.171 32.2041C215.932 32.917 216.953 33.2734 218.232 33.2734C219.091 33.2734 219.985 33.1172 220.913 32.8047C221.85 32.4824 222.817 31.999 223.813 31.3545V34.0645ZM213.911 27.2822H221.074C220.986 26.2959 220.629 25.5049 220.004 24.9092C219.379 24.3135 218.598 24.0156 217.661 24.0156C216.626 24.0156 215.791 24.2939 215.156 24.8506C214.521 25.3975 214.106 26.208 213.911 27.2822ZM237.862 34.0645C236.963 34.6406 236.035 35.0752 235.078 35.3682C234.131 35.6514 233.15 35.793 232.134 35.793C229.995 35.793 228.286 35.1338 227.007 33.8154C225.738 32.4873 225.103 30.7197 225.103 28.5127C225.103 26.4912 225.713 24.8506 226.934 23.5908C228.164 22.3311 229.766 21.7012 231.738 21.7012C233.692 21.7012 235.239 22.3408 236.382 23.6201C237.525 24.8994 238.096 26.6279 238.096 28.8057V29.2012H227.959C228.037 30.4805 228.457 31.4814 229.219 32.2041C229.981 32.917 231.001 33.2734 232.28 33.2734C233.14 33.2734 234.033 33.1172 234.961 32.8047C235.899 32.4824 236.865 31.999 237.862 31.3545V34.0645ZM227.959 27.2822H235.122C235.034 26.2959 234.678 25.5049 234.053 24.9092C233.428 24.3135 232.647 24.0156 231.709 24.0156C230.674 24.0156 229.839 24.2939 229.204 24.8506C228.57 25.3975 228.154 26.208 227.959 27.2822ZM247.501 35.0752C247.081 35.3096 246.627 35.4805 246.138 35.5879C245.66 35.7051 245.142 35.7637 244.586 35.7637C243.062 35.7637 241.988 35.4023 241.363 34.6797C240.748 33.957 240.44 32.6387 240.44 30.7246V24.3086H238.14V24.0449L242.872 18.8154H243.179V21.9648H247.413V24.3086H243.179V30.5195C243.179 31.6426 243.316 32.3701 243.59 32.7021C243.873 33.0244 244.395 33.1855 245.157 33.1855C245.567 33.1855 245.968 33.1318 246.358 33.0244C246.749 32.917 247.13 32.751 247.501 32.5264V35.0752ZM248.219 34.5771V31.6914C249.03 32.2285 249.811 32.6387 250.563 32.9219C251.315 33.2051 252.003 33.3467 252.628 33.3467C253.322 33.3467 253.864 33.2197 254.254 32.9658C254.655 32.7021 254.855 32.3457 254.855 31.8965C254.855 31.3301 254.118 30.6807 252.643 29.9482C252.213 29.7334 251.881 29.5625 251.647 29.4355C250.387 28.791 249.523 28.1709 249.054 27.5752C248.585 26.9697 248.351 26.2324 248.351 25.3633C248.351 24.2305 248.756 23.332 249.567 22.668C250.377 22.0039 251.491 21.6719 252.907 21.6719C253.668 21.6719 254.401 21.7646 255.104 21.9502C255.807 22.126 256.496 22.4043 257.169 22.7852V25.4219C256.339 24.9629 255.578 24.626 254.884 24.4111C254.201 24.1865 253.551 24.0742 252.936 24.0742C252.37 24.0742 251.93 24.1719 251.618 24.3672C251.315 24.5625 251.163 24.8457 251.163 25.2168C251.163 25.9004 252.106 26.7061 253.991 27.6338L254.24 27.751C255.714 28.4932 256.676 29.1475 257.125 29.7139C257.575 30.2705 257.799 30.9785 257.799 31.8379C257.799 33.0293 257.35 33.9814 256.452 34.6943C255.563 35.4072 254.381 35.7637 252.907 35.7637C252.057 35.7637 251.246 35.666 250.475 35.4707C249.713 35.2754 248.961 34.9775 248.219 34.5771ZM145.602 64.6367V67.9473C144.4 68.5723 143.175 69.0508 141.925 69.3828C140.685 69.7051 139.454 69.8662 138.233 69.8662C137.062 69.8662 135.943 69.7148 134.879 69.4121C133.814 69.0996 132.809 68.6406 131.861 68.0352C130.338 67.0391 129.151 65.7695 128.302 64.2266C127.462 62.6738 127.042 60.9893 127.042 59.1729C127.042 57.7959 127.32 56.4629 127.877 55.1738C128.434 53.875 129.225 52.7422 130.25 51.7754C131.344 50.7402 132.569 49.9688 133.927 49.4609C135.284 48.9434 136.788 48.6846 138.438 48.6846C139.591 48.6846 140.733 48.8164 141.866 49.0801C142.999 49.3438 144.186 49.7588 145.426 50.3252V53.5039C144.127 52.8008 142.906 52.2832 141.764 51.9512C140.621 51.6094 139.513 51.4385 138.438 51.4385C136.046 51.4385 134.068 52.1855 132.506 53.6797C130.943 55.1641 130.162 57.0293 130.162 59.2754C130.162 61.4922 130.929 63.3477 132.462 64.8418C134.005 66.3262 135.938 67.0684 138.263 67.0684C139.454 67.0684 140.66 66.8682 141.881 66.4678C143.102 66.0674 144.342 65.457 145.602 64.6367ZM149.85 62.7178C149.85 63.9775 150.275 65.0518 151.125 65.9404C151.974 66.8291 153 67.2734 154.201 67.2734C155.392 67.2734 156.413 66.8291 157.262 65.9404C158.122 65.042 158.551 63.9678 158.551 62.7178C158.551 61.4775 158.127 60.4131 157.277 59.5244C156.427 58.6357 155.402 58.1914 154.201 58.1914C153 58.1914 151.974 58.6357 151.125 59.5244C150.275 60.4131 149.85 61.4775 149.85 62.7178ZM147.023 62.7178C147.023 60.7549 147.721 59.0898 149.118 57.7227C150.514 56.3555 152.218 55.6719 154.23 55.6719C155.177 55.6719 156.081 55.8525 156.94 56.2139C157.809 56.5654 158.586 57.0732 159.269 57.7373C159.962 58.4404 160.49 59.2119 160.851 60.0518C161.212 60.8916 161.393 61.7803 161.393 62.7178C161.393 63.6455 161.208 64.5488 160.837 65.4277C160.465 66.3066 159.943 67.0732 159.269 67.7275C158.586 68.4014 157.814 68.9092 156.955 69.251C156.105 69.5928 155.197 69.7637 154.23 69.7637C152.218 69.7637 150.514 69.0801 149.118 67.7129C147.721 66.3457 147.023 64.6807 147.023 62.7178ZM163.357 69.5V55.9648H166.052V57.6201C166.726 56.9756 167.395 56.5068 168.059 56.2139C168.733 55.9111 169.455 55.7598 170.227 55.7598C171.692 55.7598 172.844 56.1846 173.684 57.0342C174.533 57.8838 174.958 59.0508 174.958 60.5352V69.5H172.263V61.2236C172.263 60.1299 172.029 59.3242 171.56 58.8066C171.101 58.2793 170.383 58.0156 169.406 58.0156C168.713 58.0156 168.103 58.1523 167.575 58.4258C167.058 58.6895 166.55 59.1289 166.052 59.7441V69.5H163.357ZM176.848 68.5771V65.6914C177.659 66.2285 178.44 66.6387 179.192 66.9219C179.944 67.2051 180.633 67.3467 181.258 67.3467C181.951 67.3467 182.493 67.2197 182.884 66.9658C183.284 66.7021 183.484 66.3457 183.484 65.8965C183.484 65.3301 182.747 64.6807 181.272 63.9482C180.843 63.7334 180.511 63.5625 180.276 63.4355C179.016 62.791 178.152 62.1709 177.683 61.5752C177.215 60.9697 176.98 60.2324 176.98 59.3633C176.98 58.2305 177.386 57.332 178.196 56.668C179.007 56.0039 180.12 55.6719 181.536 55.6719C182.298 55.6719 183.03 55.7646 183.733 55.9502C184.436 56.126 185.125 56.4043 185.799 56.7852V59.4219C184.969 58.9629 184.207 58.626 183.513 58.4111C182.83 58.1865 182.18 58.0742 181.565 58.0742C180.999 58.0742 180.559 58.1719 180.247 58.3672C179.944 58.5625 179.793 58.8457 179.793 59.2168C179.793 59.9004 180.735 60.7061 182.62 61.6338L182.869 61.751C184.344 62.4932 185.305 63.1475 185.755 63.7139C186.204 64.2705 186.429 64.9785 186.429 65.8379C186.429 67.0293 185.979 67.9814 185.081 68.6943C184.192 69.4072 183.011 69.7637 181.536 69.7637C180.686 69.7637 179.876 69.666 179.104 69.4707C178.343 69.2754 177.591 68.9775 176.848 68.5771ZM195.877 69.0752C195.457 69.3096 195.003 69.4805 194.515 69.5879C194.037 69.7051 193.519 69.7637 192.962 69.7637C191.439 69.7637 190.365 69.4023 189.74 68.6797C189.124 67.957 188.817 66.6387 188.817 64.7246V58.3086H186.517V58.0449L191.248 52.8154H191.556V55.9648H195.789V58.3086H191.556V64.5195C191.556 65.6426 191.693 66.3701 191.966 66.7021C192.249 67.0244 192.772 67.1855 193.534 67.1855C193.944 67.1855 194.344 67.1318 194.735 67.0244C195.125 66.917 195.506 66.751 195.877 66.5264V69.0752ZM197.504 69.5V55.9648H200.199V58.9092C200.951 57.7275 201.625 56.9023 202.221 56.4336C202.826 55.9648 203.48 55.7305 204.184 55.7305C204.672 55.7305 205.165 55.8379 205.663 56.0527C206.171 56.2676 206.708 56.5996 207.274 57.0488L205.81 59.4512C205.37 59.0703 204.95 58.7969 204.55 58.6309C204.149 58.4551 203.729 58.3672 203.29 58.3672C202.558 58.3672 201.918 58.6748 201.371 59.29C200.824 59.9053 200.434 60.7598 200.199 61.8535V69.5H197.504ZM216.972 67.8447C216.298 68.4893 215.625 68.9629 214.951 69.2656C214.287 69.5586 213.569 69.7051 212.797 69.7051C211.323 69.7051 210.161 69.2803 209.311 68.4307C208.462 67.5811 208.037 66.4189 208.037 64.9443V55.9648H210.761V64.2559C210.761 65.3496 210.991 66.1602 211.45 66.6875C211.919 67.2051 212.641 67.4639 213.618 67.4639C214.311 67.4639 214.917 67.332 215.434 67.0684C215.962 66.7949 216.474 66.3457 216.972 65.7207V55.9648H219.668V69.5H216.972V67.8447ZM233.086 66.292V69.0459C232.403 69.29 231.738 69.4707 231.094 69.5879C230.449 69.7051 229.81 69.7637 229.175 69.7637C226.968 69.7637 225.156 69.1045 223.74 67.7861C222.324 66.458 221.616 64.7686 221.616 62.7178C221.616 60.7158 222.324 59.041 223.74 57.6934C225.156 56.3457 226.929 55.6719 229.058 55.6719C229.712 55.6719 230.357 55.7402 230.991 55.877C231.626 56.0137 232.251 56.2236 232.866 56.5068V59.3926C232.241 59.0117 231.621 58.7334 231.006 58.5576C230.401 58.3721 229.78 58.2793 229.146 58.2793C227.759 58.2793 226.626 58.6943 225.747 59.5244C224.878 60.3545 224.444 61.4189 224.444 62.7178C224.444 64.0459 224.888 65.1299 225.777 65.9697C226.665 66.7998 227.832 67.2148 229.278 67.2148C229.942 67.2148 230.586 67.1416 231.211 66.9951C231.846 66.8389 232.471 66.6045 233.086 66.292ZM242.579 69.0752C242.159 69.3096 241.705 69.4805 241.217 69.5879C240.738 69.7051 240.221 69.7637 239.664 69.7637C238.14 69.7637 237.066 69.4023 236.441 68.6797C235.826 67.957 235.518 66.6387 235.518 64.7246V58.3086H233.219V58.0449L237.95 52.8154H238.258V55.9648H242.491V58.3086H238.258V64.5195C238.258 65.6426 238.394 66.3701 238.668 66.7021C238.951 67.0244 239.473 67.1855 240.235 67.1855C240.645 67.1855 241.046 67.1318 241.436 67.0244C241.827 66.917 242.208 66.751 242.579 66.5264V69.0752ZM244.088 51.9805C244.088 51.5508 244.235 51.1895 244.528 50.8965C244.821 50.6035 245.182 50.457 245.612 50.457C246.041 50.457 246.403 50.6035 246.696 50.8965C246.989 51.1895 247.135 51.5508 247.135 51.9805C247.135 52.4102 246.989 52.7715 246.696 53.0645C246.403 53.3574 246.041 53.5039 245.612 53.5039C245.182 53.5039 244.821 53.3574 244.528 53.0645C244.235 52.7715 244.088 52.4102 244.088 51.9805ZM244.264 69.5V55.9648H246.959V69.5H244.264ZM251.853 62.7178C251.853 63.9775 252.277 65.0518 253.127 65.9404C253.977 66.8291 255.002 67.2734 256.203 67.2734C257.395 67.2734 258.415 66.8291 259.265 65.9404C260.124 65.042 260.554 63.9678 260.554 62.7178C260.554 61.4775 260.129 60.4131 259.279 59.5244C258.43 58.6357 257.404 58.1914 256.203 58.1914C255.002 58.1914 253.977 58.6357 253.127 59.5244C252.277 60.4131 251.853 61.4775 251.853 62.7178ZM249.025 62.7178C249.025 60.7549 249.724 59.0898 251.12 57.7227C252.517 56.3555 254.221 55.6719 256.232 55.6719C257.18 55.6719 258.083 55.8525 258.942 56.2139C259.812 56.5654 260.588 57.0732 261.271 57.7373C261.965 58.4404 262.492 59.2119 262.854 60.0518C263.215 60.8916 263.396 61.7803 263.396 62.7178C263.396 63.6455 263.21 64.5488 262.839 65.4277C262.468 66.3066 261.945 67.0732 261.271 67.7275C260.588 68.4014 259.816 68.9092 258.957 69.251C258.107 69.5928 257.199 69.7637 256.232 69.7637C254.221 69.7637 252.517 69.0801 251.12 67.7129C249.724 66.3457 249.025 64.6807 249.025 62.7178ZM265.359 69.5V55.9648H268.054V57.6201C268.728 56.9756 269.397 56.5068 270.061 56.2139C270.735 55.9111 271.458 55.7598 272.229 55.7598C273.694 55.7598 274.846 56.1846 275.686 57.0342C276.536 57.8838 276.961 59.0508 276.961 60.5352V69.5H274.265V61.2236C274.265 60.1299 274.031 59.3242 273.562 58.8066C273.103 58.2793 272.385 58.0156 271.409 58.0156C270.715 58.0156 270.105 58.1523 269.578 58.4258C269.06 58.6895 268.552 59.1289 268.054 59.7441V69.5H265.359Z" fill="white"/>
</svg>
