<svg width="199" height="104" viewBox="0 0 199 104" fill="none" xmlns="http://www.w3.org/2000/svg">
<g clip-path="url(#clip0_222_1589)">
<path d="M89.1896 103.451C89.0641 103.451 88.9372 103.446 88.8118 103.438C85.06 103.168 77.8554 101.814 71.758 95.7793C66.934 91.0093 65.0508 85.5129 64.32 81.7421C64.0195 80.1886 64.4236 78.5972 65.4301 77.3791C66.4352 76.1611 67.9187 75.4624 69.4985 75.4624H88.7622C90.1713 75.4624 91.4958 76.0109 92.4906 77.0072L96.1155 80.6321C97.1118 81.6284 97.6603 82.9529 97.6603 84.3605V94.7743C97.6603 96.1221 97.1527 97.4043 96.2322 98.386C95.1659 99.5209 94.0967 100.656 93.0274 101.791C92.034 102.845 90.6351 103.449 89.1896 103.449V103.451Z" fill="#211742"/>
<path d="M69.4985 78.6127C67.9187 78.6127 66.4352 77.914 65.4301 76.696C64.4236 75.4765 64.0195 73.8865 64.32 72.333C65.0494 68.5593 66.9326 63.0585 71.758 58.2856C77.8423 52.2641 85.0527 50.906 88.8088 50.6318C88.9372 50.623 89.0656 50.6172 89.1925 50.6172C90.6366 50.6172 92.0355 51.2211 93.0289 52.2757C94.101 53.4121 95.1703 54.5499 96.238 55.6906C97.1556 56.6708 97.6603 57.9516 97.6603 59.295V69.7044C97.6603 71.112 97.1118 72.4351 96.117 73.4314C94.9092 74.6392 93.7014 75.8485 92.4935 77.0607C91.5104 78.0468 90.1494 78.6127 88.7592 78.6127H69.497H69.4985Z" fill="#211742"/>
<path d="M103.455 78.6081C102.008 78.6081 100.609 78.0042 99.6175 76.951C98.5308 75.7972 97.4441 74.6434 96.3617 73.4851C95.4442 72.5034 94.9395 71.2241 94.9395 69.8792V59.4699C94.9395 58.0622 95.4879 56.7392 96.4828 55.7443C97.6906 54.5365 98.8999 53.3272 100.108 52.1151C101.089 51.129 102.45 50.563 103.842 50.563H119.716C121.107 50.563 122.468 51.129 123.451 52.1165C124.659 53.3287 125.863 54.5336 127.072 55.7414C128.054 56.7246 128.617 58.0841 128.617 59.4713V69.8792C128.617 71.2241 128.112 72.5049 127.194 73.4851C126.636 74.0818 126.077 74.6754 125.517 75.2691C124.993 75.8249 124.471 76.3792 123.949 76.9364C122.955 77.9969 121.554 78.6067 120.104 78.6067H103.458L103.455 78.6081Z" fill="#211742"/>
<path d="M103.84 103.502C102.428 103.502 101.102 102.951 100.106 101.95C99.2128 101.055 98.3186 100.159 97.4259 99.2663C96.0182 97.8586 95.5266 95.7975 96.1451 93.8909C97.4798 89.7745 99.6883 86.17 102.709 83.1767C105.017 80.8953 107.711 79.0719 110.718 77.7576C114.312 76.1866 117.632 75.6731 119.785 75.5185C119.909 75.5098 120.034 75.5054 120.158 75.5054C121.595 75.5054 122.99 76.1093 123.983 77.1639C125.054 78.3003 126.125 79.4381 127.192 80.5788C128.11 81.559 128.615 82.8398 128.615 84.1832V96.7763L127.226 98.165C125.964 99.4267 124.71 100.681 123.449 101.946C122.465 102.933 121.104 103.499 119.712 103.499H103.84V103.502Z" fill="#211742"/>
<path d="M196.997 39.4244L128.614 84.1863L99.8365 95.6561L64.3199 81.7415L4.65137 37.5266L6.95175 23.3611L10.9938 20.7164L38.4249 21.5596L50.3323 20.7164L58.7709 22.9774L66.877 20.7164H79.3942H90.4526H108.315L116.8 22.2802L119.622 20.7164H131.298L140.138 23.9956L145.089 22.2802L152.763 20.7164L171.077 19.9302L186.989 20.7164L189.995 23.1116L191.585 26.9261L196.997 39.4244Z" fill="#211742"/>
<path d="M95.0072 84.36V94.7737C95.0072 95.4403 94.7548 96.0822 94.2968 96.5694C93.2319 97.7028 92.1642 98.8362 91.0964 99.9696C90.5552 100.544 89.7879 100.845 89.0017 100.788C85.9953 100.572 79.2721 99.4809 73.6254 93.8912C69.2201 89.534 67.5616 84.5146 66.927 81.2369C66.6134 79.6162 67.8489 78.1152 69.4987 78.1152H88.7625C89.4568 78.1152 90.1234 78.3909 90.615 78.8825L94.2414 82.5089C94.733 83.0004 95.0086 83.6656 95.0086 84.3614L95.0072 84.36Z" fill="#5B45AB"/>
<path d="M95.0072 59.297V69.7063C95.0072 70.4007 94.7315 71.0644 94.2414 71.556C93.0321 72.7652 91.8228 73.9745 90.615 75.1882C90.1249 75.6812 89.4568 75.9584 88.761 75.9584H69.4987C67.8489 75.9584 66.6134 74.4573 66.927 72.8367C67.5616 69.5561 69.2201 64.5308 73.6254 60.1722C79.2736 54.5824 85.9967 53.4972 89.0031 53.2783C89.7909 53.2215 90.5567 53.5205 91.0993 54.0952C92.1685 55.2301 93.2363 56.365 94.3012 57.5028C94.7548 57.9885 95.0072 58.6289 95.0072 59.2941V59.297Z" fill="#A576FF"/>
<path d="M125.96 59.4718V69.8796C125.96 70.5448 125.707 71.1881 125.254 71.6739C124.174 72.8277 123.088 73.9728 122.01 75.1237C121.515 75.6518 120.825 75.9537 120.102 75.9537H103.456C102.734 75.9537 102.044 75.6561 101.55 75.131C100.464 73.9801 99.3807 72.8277 98.2998 71.6724C97.8461 71.1866 97.5938 70.5463 97.5938 69.8811V59.4718C97.5938 58.7774 97.868 58.1137 98.3596 57.6221C99.5688 56.4128 100.78 55.2021 101.987 53.9899C102.478 53.4969 103.146 53.2197 103.84 53.2197H119.714C120.409 53.2197 121.078 53.4983 121.569 53.9914C122.778 55.205 123.983 56.4114 125.193 57.6207C125.684 58.1122 125.96 58.7789 125.96 59.4732V59.4718Z" fill="#A576FF"/>
<path d="M125.96 95.6799V84.1867C125.96 83.5215 125.707 82.8811 125.254 82.3954C124.189 81.2561 123.119 80.1213 122.05 78.9864C121.513 78.4175 120.755 78.1126 119.976 78.1681C118.212 78.295 115.151 78.7195 111.781 80.1913C109.424 81.2211 106.909 82.7586 104.578 85.0634C101.377 88.2346 99.6284 91.7589 98.67 94.7113C98.3637 95.6565 98.6015 96.6893 99.3031 97.3909C100.197 98.2851 101.091 99.1808 101.986 100.078C102.477 100.571 103.144 100.848 103.84 100.848H119.712C120.408 100.848 121.077 100.569 121.567 100.076C122.828 98.8103 124.085 97.5543 125.348 96.2911C125.55 96.0898 125.758 95.8812 125.96 95.6799Z" fill="#5B45AB"/>
<path d="M12.4058 40.2679C9.01579 40.2679 6.0692 39.0397 3.64774 36.6182C1.22774 34.1982 -0.000488281 31.2516 -0.000488281 27.8616C-0.000488281 24.4715 1.23066 21.525 3.65795 19.1181C6.07795 16.7185 9.02017 15.5005 12.4058 15.5005H29.3794C30.6134 15.5005 31.7366 15.9469 32.6265 16.7929C33.5527 17.6769 34.0589 18.8599 34.0589 20.1348C34.0589 21.4097 33.5717 22.5563 32.6863 23.4417C31.8008 24.3271 30.6266 24.8143 29.3794 24.8143H15.5216V30.957H29.3794C30.6134 30.957 31.7366 31.4033 32.6265 32.2494C33.5513 33.1304 34.0589 34.3149 34.0589 35.5913C34.0589 36.8677 33.5717 38.0127 32.6863 38.8982C31.8037 39.7836 30.6295 40.2708 29.3794 40.2708H12.4058V40.2679Z" fill="#211742"/>
<path d="M188.157 40.2677C186.909 40.2677 185.733 39.779 184.847 38.8936C183.965 38.0125 183.478 36.8382 183.478 35.5881V24.8593H180.464V35.5881C180.464 36.8353 179.977 38.0096 179.091 38.895C178.209 39.7804 177.035 40.2677 175.784 40.2677H169.621C168.383 40.2677 167.257 39.8184 166.367 38.9694C165.451 38.1 164.942 36.9141 164.942 35.6348V4.67954C164.942 3.43234 165.429 2.25808 166.315 1.37264C167.197 0.487209 168.371 0 169.621 0H175.784C177.032 0 178.206 0.487209 179.091 1.37264C179.977 2.25954 180.464 3.4338 180.464 4.67954V15.5002H186.64C190.02 15.5002 192.956 16.7299 195.371 19.1543C197.78 21.5772 199.001 24.5209 199.001 27.9066V35.5881C199.001 36.8353 198.514 38.0096 197.629 38.895C196.743 39.7804 195.569 40.2677 194.322 40.2677H188.159H188.157Z" fill="#211742"/>
<path d="M148.831 40.2674C145.441 40.2674 142.494 39.0392 140.073 36.6177C137.652 34.1977 136.423 31.2511 136.423 27.8596C136.423 24.4681 137.654 21.523 140.082 19.1161C142.502 16.7166 145.444 15.4985 148.83 15.4985H165.803C167.037 15.4985 168.16 15.9449 169.05 16.791C169.977 17.6749 170.483 18.8579 170.483 20.1329C170.483 21.4078 169.996 22.5543 169.11 23.4397C168.225 24.3252 167.05 24.8124 165.803 24.8124H151.945V30.955H165.803C167.037 30.955 168.16 31.4014 169.05 32.2474C169.975 33.1285 170.483 34.313 170.483 35.5893C170.483 36.8657 169.996 38.0108 169.11 38.8962C168.228 39.7817 167.053 40.2689 165.803 40.2689H148.83L148.831 40.2674Z" fill="#211742"/>
<path d="M120.312 40.2674C116.922 40.2674 113.976 39.0392 111.554 36.6177C109.133 34.1963 107.905 31.2497 107.905 27.8596C107.905 24.4696 109.139 21.5215 111.572 19.1132C113.998 16.7151 116.944 15.4985 120.334 15.4985H129.603C132.978 15.4985 135.912 16.718 138.324 19.1205C140.74 21.5288 141.964 24.4681 141.964 27.8596C141.964 29.1068 141.477 30.2811 140.591 31.1665C139.706 32.052 138.532 32.5392 137.284 32.5392H136.29C136.943 33.3313 137.318 34.3786 137.318 35.5879C137.318 36.7971 136.87 37.9495 136.021 38.8408C135.15 39.7598 133.963 40.2674 132.684 40.2674H120.311H120.312Z" fill="#211742"/>
<path d="M94.8768 40.2677C93.6252 40.2677 92.4495 39.779 91.5655 38.8906C90.6859 38.0125 90.1973 36.8382 90.1973 35.5881V24.7237C89.9362 24.6916 89.675 24.658 89.4125 24.6216C87.1063 24.305 85.5527 22.5006 85.5527 20.1331C85.5527 17.7656 87.0144 16.0823 89.2768 15.6476L89.4402 15.6155C89.4402 15.6155 89.9989 15.5673 90.1987 15.5469V15.0262C90.1987 10.7915 92.7354 9.28906 94.9089 9.28906H101.057C103.209 9.28906 105.721 10.7142 105.721 14.733V15.4521H108.77C109.988 15.4521 111.099 15.8839 111.986 16.7022C112.93 17.5731 113.449 18.759 113.449 20.0412C113.449 22.2001 111.983 24.7193 107.849 24.7193H105.721V31.2966C107.985 32.1835 108.803 34.0288 108.803 35.5823C108.803 36.8266 108.319 37.9994 107.436 38.8863C106.544 39.779 105.369 40.2662 104.124 40.2662H94.8783L94.8768 40.2677Z" fill="#211742"/>
<path d="M80.2503 40.2677C79.0133 40.2677 77.8872 39.8184 76.9959 38.968C76.0754 38.0869 75.5722 36.901 75.5722 35.6261V24.7222H72.557V35.5853C72.557 36.8631 72.0509 38.049 71.1304 38.9257C70.2421 39.7747 69.1159 40.2239 67.8775 40.2239L61.7378 40.2692C60.4629 40.2692 59.2857 39.779 58.4017 38.8892C57.5236 38.0111 57.0349 36.8354 57.0349 35.5853V20.0908C57.0349 18.813 57.5425 17.6256 58.4644 16.7489C59.3528 15.9014 60.4775 15.4536 61.7144 15.4536H78.688C82.0751 15.4536 85.0188 16.676 87.4417 19.0887C89.8661 21.5058 91.0958 24.4553 91.0958 27.8599V35.6261C91.0958 36.9025 90.591 38.0869 89.6735 38.9636C88.7779 39.817 87.6517 40.2663 86.4162 40.2663H80.2517L80.2503 40.2677Z" fill="#211742"/>
<path d="M34.5476 27.8965V24.7807C34.5476 19.3222 38.9762 14.895 44.4187 14.895C47.0896 14.9009 49.5665 15.9336 51.4263 17.8022C53.2862 19.6708 54.3073 22.1521 54.3014 24.788L54.2941 27.8965H34.5476Z" fill="#211742"/>
<path d="M44.3912 41.4335C35.9015 41.4335 28.7932 35.0633 27.8538 26.6174C27.8348 26.4452 27.8246 26.2629 27.8261 26.0791C27.8421 23.6533 29.842 21.6665 32.2824 21.6665H40.7619V24.7823C40.7619 26.7968 42.4 28.4349 44.4145 28.4349C46.429 28.4349 48.0671 26.7968 48.0671 24.7823V21.6665H56.5276C56.6925 21.6665 56.8573 21.6753 57.0221 21.6942C59.4596 21.9626 61.229 24.1711 60.9606 26.6144C60.0927 34.4156 54.042 40.4663 46.2452 41.3328C45.6296 41.4014 45.0053 41.4349 44.3897 41.4349L44.3912 41.4335Z" fill="#211742"/>
<path d="M12.8436 33.6117C13.1354 33.9181 13.4942 34.0712 13.9245 34.0712H29.3795C29.8084 34.0712 30.176 34.2171 30.4838 34.5089C30.7901 34.8006 30.9433 35.1609 30.9433 35.5898C30.9433 36.0186 30.7901 36.3877 30.4838 36.694C30.1774 37.0003 29.8084 37.1535 29.3795 37.1535H12.406C9.86055 37.1535 7.6754 36.2418 5.85202 34.417C4.02717 32.5936 3.11548 30.4084 3.11548 27.863C3.11548 25.3175 4.02717 23.1411 5.85202 21.3309C7.6754 19.5221 9.86055 18.6177 12.406 18.6177H29.3795C29.8084 18.6177 30.176 18.7635 30.4838 19.0553C30.7901 19.347 30.9433 19.7073 30.9433 20.1362C30.9433 20.5651 30.7901 20.9341 30.4838 21.2404C30.1774 21.5468 29.8084 21.6999 29.3795 21.6999H13.9245C12.9122 21.6999 12.406 22.2061 12.406 23.2184V32.5104C12.406 32.9407 12.5519 33.3083 12.8436 33.6147V33.6117Z" fill="#D9C5FF"/>
<path d="M70.9587 21.6064C70.5284 21.6064 70.1695 21.7595 69.8778 22.0673C69.586 22.3751 69.4402 22.7442 69.4402 23.1745V35.5852C69.4402 36.0155 69.287 36.3773 68.9807 36.669C68.6744 36.9622 68.3053 37.1081 67.8764 37.1081L61.7134 37.1533C61.2831 37.1533 60.9155 37.0001 60.6092 36.6923C60.3028 36.3846 60.1497 36.0155 60.1497 35.5852V20.0908C60.1497 19.6605 60.3028 19.3002 60.6092 19.0084C60.9155 18.7167 61.2831 18.5708 61.7134 18.5708H78.6855C81.2309 18.5708 83.4146 19.4796 85.2394 21.2986C87.0628 23.1161 87.976 25.3057 87.976 27.8628V35.6289C87.976 36.0607 87.8228 36.4225 87.5165 36.7157C87.2102 37.0089 86.8411 37.1548 86.4123 37.1548H80.2492C79.8189 37.1548 79.4513 37.0089 79.145 36.7157C78.8386 36.4225 78.6855 36.0607 78.6855 35.6275V23.227C78.6855 22.7952 78.5323 22.4174 78.226 22.0936C77.9197 21.7698 77.5506 21.6078 77.1217 21.6078H70.9587V21.6064Z" fill="#D9C5FF"/>
<path d="M94.877 37.1533C94.4466 37.1533 94.079 37.0001 93.7727 36.6938C93.4664 36.3874 93.3132 36.0198 93.3132 35.5895V23.2168C93.3132 22.4203 92.915 21.9448 92.1171 21.7916C91.3804 21.7303 90.6219 21.6457 89.84 21.5392C89.0582 21.4328 88.6672 20.9645 88.6672 20.136C88.6672 19.3074 89.0655 18.864 89.8634 18.7108C90.5986 18.6495 91.3586 18.5649 92.1404 18.4584C92.9223 18.352 93.3132 17.8837 93.3132 17.0552V15.0319C93.3132 13.2844 93.8442 12.4092 94.9076 12.4092H101.056C102.089 12.4092 102.605 13.1852 102.605 14.7373V16.2893C102.605 17.8122 103.111 18.5722 104.124 18.5722H108.77C109.199 18.5722 109.566 18.7137 109.874 18.9967C110.18 19.2797 110.333 19.6298 110.333 20.0455C110.333 21.087 109.505 21.6078 107.849 21.6078H105.044C103.419 21.6078 102.607 22.1315 102.607 23.1759V32.4956C102.607 33.295 103.12 33.8187 104.147 34.0637C105.174 34.3102 105.687 34.8164 105.687 35.5851C105.687 36.0155 105.534 36.3845 105.228 36.6923C104.922 37.0001 104.553 37.1533 104.124 37.1533H94.8784H94.877Z" fill="#D9C5FF"/>
<path d="M120.404 32.967C120.588 33.7036 121.063 34.0712 121.829 34.0712H132.685C133.697 34.0712 134.203 34.5774 134.203 35.5898C134.203 36.0201 134.057 36.3877 133.766 36.694C133.474 37.0003 133.114 37.1535 132.685 37.1535H120.312C117.767 37.1535 115.581 36.2418 113.758 34.417C111.933 32.5936 111.021 30.4084 111.021 27.863C111.021 25.3175 111.936 23.1411 113.765 21.3309C115.595 19.5221 117.786 18.6177 120.337 18.6177H129.605C132.138 18.6177 134.313 19.5221 136.127 21.3309C137.942 23.1411 138.851 25.3175 138.851 27.863C138.851 28.2933 138.698 28.6609 138.391 28.9672C138.085 29.2735 137.716 29.4267 137.287 29.4267H121.832C121.403 29.4267 121.043 29.5799 120.751 29.8862C120.459 30.1925 120.313 30.5616 120.313 30.9904C120.313 32.0334 120.344 32.6928 120.405 32.9685L120.404 32.967ZM120.312 24.7793C120.312 25.2096 120.458 25.5772 120.75 25.8835C121.041 26.1898 121.4 26.343 121.831 26.343H128.04C128.469 26.343 128.829 26.1898 129.121 25.8835C129.413 25.5772 129.559 25.2096 129.559 24.7793V23.2155C129.559 22.2032 129.053 21.697 128.04 21.697H121.831C120.818 21.697 120.312 22.2032 120.312 23.2155V24.7793Z" fill="#D9C5FF"/>
<path d="M149.266 33.6117C149.558 33.9181 149.917 34.0712 150.347 34.0712H165.802C166.231 34.0712 166.598 34.2171 166.906 34.5089C167.212 34.8006 167.366 35.1609 167.366 35.5898C167.366 36.0186 167.212 36.3877 166.906 36.694C166.6 37.0003 166.231 37.1535 165.802 37.1535H148.83C146.284 37.1535 144.099 36.2418 142.276 34.417C140.451 32.5936 139.539 30.4084 139.539 27.863C139.539 25.3175 140.451 23.1411 142.276 21.3309C144.101 19.5221 146.284 18.6177 148.83 18.6177H165.802C166.231 18.6177 166.598 18.7635 166.906 19.0553C167.212 19.347 167.366 19.7073 167.366 20.1362C167.366 20.5651 167.212 20.9341 166.906 21.2404C166.6 21.5468 166.231 21.6999 165.802 21.6999H150.347C149.335 21.6999 148.828 22.2061 148.828 23.2184V32.5104C148.828 32.9407 148.974 33.3083 149.266 33.6147V33.6117Z" fill="#D9C5FF"/>
<path d="M195.883 35.5895C195.883 36.0198 195.73 36.3874 195.424 36.6937C195.118 37.0001 194.749 37.1532 194.32 37.1532H188.157C187.726 37.1532 187.359 37.0001 187.052 36.6937C186.746 36.3874 186.593 36.0198 186.593 35.5895V23.3086C186.593 22.8798 186.447 22.5122 186.155 22.2044C185.864 21.8981 185.503 21.7449 185.074 21.7449H178.865C178.436 21.7449 178.076 21.8981 177.784 22.2044C177.492 22.5107 177.346 22.8783 177.346 23.3086V35.5895C177.346 36.0198 177.193 36.3874 176.887 36.6937C176.58 37.0001 176.211 37.1532 175.782 37.1532H169.619C169.191 37.1532 168.821 37.0074 168.515 36.7156C168.209 36.4239 168.056 36.065 168.056 35.6347V4.67946C168.056 4.2506 168.209 3.883 168.515 3.57522C168.821 3.26889 169.189 3.11572 169.619 3.11572H175.782C176.211 3.11572 176.579 3.26889 176.887 3.57522C177.193 3.88154 177.346 4.2506 177.346 4.67946V17.0522C177.346 17.4825 177.492 17.8501 177.785 18.1565C178.078 18.4628 178.44 18.616 178.872 18.616H186.638C189.17 18.616 191.345 19.5291 193.16 21.3525C194.975 23.1773 195.883 25.3625 195.883 27.9065V35.588V35.5895Z" fill="#D9C5FF"/>
<path d="M44.4176 18.0107C40.6877 18.0107 37.6624 21.0346 37.6624 24.766C37.6624 24.7719 37.6624 24.7762 37.6624 24.7821H51.1831C51.1919 21.0522 48.1738 18.021 44.4439 18.0122C44.4351 18.0122 44.4249 18.0122 44.4162 18.0122L44.4176 18.0107Z" fill="#D9C5FF"/>
<path d="M51.1842 24.7803C51.1842 28.519 48.1544 31.5487 44.4157 31.5487C40.6771 31.5487 37.6473 28.519 37.6473 24.7803H32.2924C31.5514 24.7759 30.9475 25.3725 30.9417 26.1136C30.9417 26.1661 30.9446 26.22 30.9504 26.2726C31.776 33.7047 38.4715 39.0596 45.9036 38.234C52.1965 37.5338 57.1649 32.5669 57.865 26.2726C57.9467 25.5344 57.4143 24.8693 56.6762 24.789C56.6281 24.7832 56.5785 24.7803 56.5303 24.7803H51.1856H51.1842Z" fill="#D9C5FF"/>
</g>
<defs>
<clipPath id="clip0_222_1589">
<rect width="199" height="103.503" fill="white"/>
</clipPath>
</defs>
</svg>
