<svg width="343" height="102" viewBox="0 0 343 102" fill="none" xmlns="http://www.w3.org/2000/svg">
<path d="M25.4752 30.9468L23.185 40.5145C23.0392 41.1236 22.6648 41.6591 22.1365 42.0063C20.9113 42.8117 19.675 43.624 18.4498 44.4294C17.8216 44.8379 17.0563 44.9483 16.3436 44.7209C13.6315 43.8634 7.69037 41.3804 3.72532 34.9945C0.632483 30.0298 0.213888 25.0517 0.352091 21.9022C0.421383 20.3465 1.88934 19.2392 3.40332 19.6016L21.1052 23.8389C21.7413 23.9911 22.2994 24.3899 22.6379 24.954L25.1728 29.0843C25.5135 29.6394 25.6253 30.3197 25.4731 30.9558L25.4752 30.9468Z" fill="#A576FF"/>
<path d="M30.988 7.91416L28.6978 17.4818C28.5455 18.1178 28.1489 18.667 27.5826 19.0145C26.2059 19.8594 24.8291 20.7044 23.4502 21.5583C22.893 21.908 22.2148 22.0108 21.5787 21.8586L3.87682 17.6213C2.36285 17.259 1.55535 15.607 2.19799 14.1885C3.50293 11.3089 6.13021 7.05985 11.138 4.02467C17.5536 0.133052 23.9751 0.609307 26.7905 1.07483C27.529 1.19477 28.1613 1.63974 28.5364 2.28837C29.2731 3.56343 29.9987 4.84531 30.7332 6.12933C31.047 6.67803 31.1384 7.32505 30.9926 7.93422L30.988 7.91416Z" fill="#A576FF"/>
<path d="M57.1118 24.4539C56.9659 25.0631 56.5915 25.5986 56.0722 25.9479C54.8248 26.767 53.5773 27.586 52.3299 28.4051C51.7572 28.7795 51.0637 28.9071 50.3918 28.7463L35.0907 25.0837C34.4278 24.9251 33.8582 24.4951 33.515 23.9109C32.7737 22.6158 32.0233 21.3186 31.2931 20.0166C30.9793 19.4679 30.8879 18.8209 31.0337 18.2117L33.3239 8.64409C33.4761 8.00804 33.8728 7.4589 34.439 7.11138C35.8157 6.26644 37.1925 5.42149 38.5714 4.56758C39.1287 4.21792 39.8068 4.11504 40.4429 4.26729L55.0362 7.76044C55.6723 7.91269 56.2282 8.32045 56.5689 8.87559C57.4117 10.2613 58.2588 11.6291 59.1038 13.0058C59.4445 13.561 59.5563 14.2413 59.4041 14.8773L57.1118 24.4539Z" fill="#A576FF"/>
<path d="M51.4381 48.1578L53.9663 37.5958C54.1121 36.9866 54.0207 36.3396 53.7069 35.7909C52.9813 34.509 52.2446 33.234 51.51 31.9499C51.1417 31.3124 50.5116 30.8585 49.782 30.7407C48.1327 30.469 45.2254 30.1899 41.8019 30.8006C39.4067 31.2313 36.7587 32.0845 34.1095 33.6952C30.4742 35.9033 28.0854 38.7603 26.5577 41.2646C26.072 42.0671 26.0597 43.0681 26.5503 43.8675C27.1772 44.889 27.8041 45.9105 28.4221 46.9298C28.7606 47.4939 29.3187 47.8927 29.9548 48.0449L44.5391 51.5359C45.1752 51.6882 45.8555 51.5763 46.4106 51.2356C47.845 50.3477 49.2773 49.4686 50.7185 48.5918C50.9517 48.4487 51.1848 48.3056 51.418 48.1625L51.4381 48.1578Z" fill="#A576FF"/>
<path d="M74.4334 43.4141C74.6812 43.8428 75.0504 44.1206 75.5432 44.2385L93.2361 48.4736C93.7288 48.5916 94.1091 48.8626 94.3792 49.2777C94.6492 49.6927 94.7297 50.1477 94.6118 50.6404C94.4938 51.1332 94.2139 51.5113 93.7809 51.7771C93.3479 52.0428 92.8839 52.1212 92.3912 52.0033L72.9603 47.3522C70.0488 46.6552 67.8003 45.0088 66.2126 42.4219C64.6249 39.8349 64.1751 37.0846 64.872 34.1731C65.5689 31.2616 67.2132 29.0221 69.798 27.4433C72.3807 25.8736 75.1288 25.4327 78.0403 26.1296L97.4712 30.7807C97.9639 30.8986 98.3442 31.1696 98.6143 31.5847C98.8843 31.9998 98.9648 32.4548 98.8469 32.9475C98.7289 33.4402 98.449 33.8184 98.016 34.0841C97.583 34.3499 97.119 34.4282 96.6263 34.3103L78.9334 30.0752C77.7777 29.7986 77.056 30.2415 76.7794 31.3971L74.2341 42.0308C74.1161 42.5235 74.1856 42.9853 74.4334 43.4141Z" fill="white"/>
<path d="M144.237 45.6029C143.745 45.4849 143.29 45.5655 142.874 45.8355C142.459 46.1055 142.186 46.4948 142.07 46.9786L138.669 61.1867C138.552 61.6794 138.274 62.0486 137.845 62.2964C137.416 62.5443 136.954 62.6137 136.462 62.4957L129.39 60.8597C128.897 60.7418 128.519 60.4618 128.253 60.0288C127.987 59.5958 127.909 59.1319 128.027 58.6392L132.273 40.9014C132.391 40.4087 132.668 40.0395 133.097 39.7917C133.526 39.5438 133.988 39.4744 134.48 39.5924L153.911 44.2435C156.823 44.9404 159.073 46.5778 160.663 49.1558C162.253 51.7338 162.701 54.4931 162 57.4225L159.872 66.3093C159.754 66.802 159.477 67.1712 159.046 67.428C158.617 67.6758 158.155 67.7453 157.663 67.6273L150.603 65.9376C150.111 65.8196 149.73 65.5486 149.46 65.1335C149.19 64.7184 149.112 64.2545 149.23 63.7618L152.626 49.5716C152.744 49.0789 152.668 48.606 152.409 48.1461C152.147 47.6952 151.771 47.4063 151.279 47.2883L144.219 45.5986L144.237 45.6029Z" fill="white"/>
<path d="M167.356 69.9472C166.863 69.8293 166.485 69.5493 166.219 69.1163C165.953 68.6833 165.875 68.2194 165.993 67.7267L169.383 53.5634C169.602 52.6496 169.276 51.9938 168.403 51.6048C167.578 51.3316 166.733 51.025 165.865 50.6941C164.999 50.3543 164.677 49.7185 164.905 48.7689C165.132 47.8193 165.711 47.4181 166.666 47.4666C167.525 47.5965 168.417 47.7059 169.341 47.8039C170.267 47.8929 170.841 47.4716 171.069 46.522L171.624 44.2018C172.102 42.204 172.952 41.3465 174.17 41.6381L181.211 43.3236C182.394 43.6066 182.773 44.6351 182.346 46.4178L181.921 48.1916C181.503 49.9385 181.878 50.9468 183.033 51.2234L188.355 52.4972C188.847 52.6151 189.23 52.8772 189.502 53.2833C189.774 53.6894 189.857 54.1354 189.743 54.6102C189.458 55.8017 188.365 56.1746 186.474 55.7222L183.267 54.9545C181.404 54.5085 180.338 54.8878 180.052 56.0793L177.498 66.7488C177.28 67.6626 177.727 68.4043 178.834 68.9629C179.941 69.5216 180.393 70.2454 180.183 71.1233C180.065 71.616 179.785 71.9942 179.352 72.26C178.919 72.5257 178.455 72.6041 177.963 72.4861L167.356 69.9472Z" fill="white"/>
<path d="M197.726 72.1495C197.739 73.0431 198.176 73.5928 199.054 73.8029L211.479 76.7771C212.635 77.0538 213.078 77.7754 212.801 78.9311C212.683 79.4238 212.412 79.8041 211.997 80.0741C211.582 80.3442 211.127 80.4247 210.635 80.3068L196.471 76.9166C193.56 76.2196 191.311 74.5732 189.724 71.9863C188.136 69.3993 187.686 66.649 188.383 63.7375C189.08 60.826 190.724 58.5865 193.318 57.0099C195.91 55.4423 198.667 55.0035 201.587 55.7025L212.194 58.2415C215.096 58.9362 217.329 60.5694 218.912 63.1363C220.495 65.7032 220.938 68.4424 220.239 71.3628C220.121 71.8556 219.841 72.2337 219.408 72.4995C218.975 72.7652 218.511 72.8436 218.019 72.7257L200.326 68.4906C199.833 68.3726 199.378 68.4531 198.963 68.7232C198.548 68.9932 198.277 69.3735 198.159 69.8662C197.874 71.0577 197.729 71.8188 197.724 72.1585L197.726 72.1495ZM199.861 62.7532C199.744 63.2459 199.813 63.7077 200.061 64.1365C200.309 64.5652 200.678 64.843 201.171 64.9609L208.275 66.6614C208.767 66.7793 209.222 66.6988 209.637 66.4288C210.053 66.1587 210.323 65.7784 210.441 65.2857L210.87 63.494C211.147 62.3384 210.704 61.6167 209.548 61.3401L202.444 59.6396C201.289 59.363 200.567 59.8059 200.29 60.9615L199.861 62.7532Z" fill="white"/>
<path d="M230.589 80.7926C230.837 81.2213 231.206 81.4991 231.699 81.6171L249.392 85.8522C249.884 85.9701 250.265 86.2411 250.535 86.6562C250.805 87.0713 250.885 87.5262 250.767 88.019C250.649 88.5117 250.369 88.8898 249.936 89.1556C249.503 89.4213 249.039 89.4997 248.547 89.3818L229.116 84.7307C226.204 84.0338 223.956 82.3874 222.368 79.8004C220.78 77.2134 220.33 74.4631 221.027 71.5516C221.724 68.6401 223.369 66.4006 225.953 64.8219C228.536 63.2521 231.284 62.8112 234.196 63.5081L253.627 68.1592C254.119 68.2771 254.5 68.5481 254.77 68.9632C255.04 69.3783 255.12 69.8333 255.002 70.326C254.884 70.8187 254.604 71.1969 254.171 71.4626C253.738 71.7284 253.274 71.8068 252.782 71.6888L235.089 67.4537C233.933 67.1771 233.211 67.62 232.935 68.7757L230.39 79.4094C230.272 79.9021 230.341 80.3639 230.589 80.7926Z" fill="white"/>
<path d="M283.402 95.8305C283.284 96.3232 283.004 96.7014 282.571 96.9671C282.138 97.2329 281.674 97.3113 281.181 97.1933L274.122 95.5036C273.629 95.3857 273.251 95.1057 272.986 94.6727C272.72 94.2397 272.641 93.7757 272.759 93.283L276.124 79.2272C276.242 78.7345 276.172 78.2727 275.925 77.844C275.677 77.4153 275.307 77.1374 274.815 77.0195L267.711 75.319C267.218 75.2011 266.763 75.2816 266.348 75.5517C265.933 75.8217 265.662 76.202 265.544 76.6947L262.179 90.7505C262.061 91.2433 261.782 91.6214 261.349 91.8872C260.916 92.1529 260.452 92.2313 259.959 92.1134L252.9 90.4236C252.407 90.3057 252.027 90.0347 251.757 89.6196C251.487 89.2045 251.406 88.7495 251.524 88.2568L260.005 52.8261C260.123 52.3334 260.403 51.9552 260.836 51.6895C261.269 51.4237 261.733 51.3453 262.225 51.4633L269.285 53.153C269.777 53.271 270.156 53.5509 270.421 53.9839C270.687 54.417 270.765 54.8809 270.647 55.3736L267.257 69.5369C267.139 70.0296 267.209 70.4914 267.457 70.9201C267.704 71.3489 268.083 71.6288 268.575 71.7467L277.462 73.874C280.365 74.5687 282.595 76.2108 284.174 78.7957C285.753 81.3805 286.194 84.1286 285.497 87.0401L283.393 95.8284L283.402 95.8305Z" fill="white"/>
<path d="M114.845 34.2104C110.572 33.1876 106.286 35.8178 105.263 40.091C105.263 40.091 105.261 40.1 105.259 40.1089L120.739 43.8144C121.771 39.5433 119.152 35.2508 114.881 34.219C114.872 34.2169 114.863 34.2147 114.845 34.2104Z" fill="white"/>
<path d="M120.739 43.8144C119.714 48.0965 115.418 50.7336 111.135 49.7086C106.853 48.6836 104.216 44.3868 105.241 40.1047L99.1137 38.6379C98.2626 38.4342 97.4099 38.9499 97.1993 39.7899C97.1843 39.8526 97.1693 39.9153 97.1654 39.9712C96.0779 48.709 102.271 56.67 111.008 57.7576C118.402 58.6843 125.452 54.3574 127.974 47.3456C128.265 46.525 127.838 45.6177 127.019 45.3176C126.966 45.3047 126.914 45.2829 126.851 45.2679L120.733 43.8033L120.739 43.8144Z" fill="white"/>
<path d="M300.331 82.6605C300.158 82.9533 298.355 92.0976 298.355 92.0976C304.699 91.1498 306.628 94.4004 308.525 101.043L317.686 101.156C322.315 92.7256 325.152 92.976 327.372 96.2536L329.096 96.3852C331.218 92.2042 334.931 86.901 339.22 81.1763L342.408 80.1752L341.584 77.3161L338.399 71.7336L335.159 73.6554C330.462 70.3891 327.839 71.629 325.393 73.259C322.241 70.2799 319.347 69.8025 316.645 71.2017C316.311 67.3074 307.513 65.4425 306.578 70.1993C304.287 71.0023 304.435 73.2812 303.735 75.0535C304.441 78.15 303.139 80.2852 300.331 82.6605Z" fill="#008751"/>
<path d="M316.556 71.1476L318.605 70.454L320.869 70.5535L323.416 71.5412L325.423 73.2888L322.046 94.9613L317.627 101.11L311.895 101.061L316.556 71.1476Z" fill="white"/>
</svg>
