<svg width="343" height="102" viewBox="0 0 343 102" fill="none" xmlns="http://www.w3.org/2000/svg">
<path d="M25.4762 30.9468L23.186 40.5145C23.0402 41.1236 22.6658 41.6591 22.1375 42.0063C20.9123 42.8117 19.676 43.624 18.4507 44.4294C17.8225 44.8379 17.0573 44.9484 16.3445 44.7209C13.6325 43.8634 7.69135 41.3804 3.7263 34.9945C0.633459 30.0298 0.214866 25.0517 0.353068 21.9022C0.42236 20.3465 1.89032 19.2392 3.4043 19.6016L21.1062 23.8389C21.7423 23.9911 22.3003 24.3899 22.6389 24.954L25.1738 29.0843C25.5145 29.6394 25.6263 30.3197 25.474 30.9558L25.4762 30.9468Z" fill="#A576FF"/>
<path d="M30.9889 7.91416L28.6988 17.4818C28.5465 18.1178 28.1499 18.667 27.5836 19.0145C26.2069 19.8594 24.8301 20.7044 23.4512 21.5583C22.8939 21.908 22.2158 22.0108 21.5797 21.8586L3.8778 17.6213C2.36382 17.259 1.55633 15.607 2.19896 14.1885C3.50391 11.3089 6.13119 7.05985 11.1389 4.02467C17.5546 0.133053 23.9761 0.609309 26.7914 1.07483C27.5299 1.19477 28.1622 1.63974 28.5374 2.28837C29.2741 3.56343 29.9996 4.84531 30.7342 6.12933C31.048 6.67804 31.1394 7.32505 30.9936 7.93422L30.9889 7.91416Z" fill="#A576FF"/>
<path d="M57.1127 24.4539C56.9669 25.0631 56.5925 25.5986 56.0732 25.9479C54.8257 26.767 53.5783 27.586 52.3309 28.4051C51.7582 28.7795 51.0647 28.9071 50.3928 28.7463L35.0917 25.0837C34.4288 24.9251 33.8592 24.4951 33.516 23.9109C32.7746 22.6158 32.0243 21.3186 31.2941 20.0166C30.9802 19.4679 30.8888 18.8209 31.0347 18.2117L33.3248 8.64409C33.4771 8.00804 33.8737 7.45891 34.44 7.11138C35.8167 6.26644 37.1935 5.42149 38.5724 4.56758C39.1296 4.21792 39.8078 4.11504 40.4439 4.26729L55.0372 7.76044C55.6733 7.91269 56.2292 8.32045 56.5699 8.87559C57.4127 10.2613 58.2598 11.6291 59.1048 13.0058C59.4455 13.561 59.5573 14.2413 59.405 14.8773L57.1127 24.4539Z" fill="#A576FF"/>
<path d="M51.439 48.1578L53.9672 37.5958C54.1131 36.9866 54.0217 36.3396 53.7078 35.7909C52.9822 34.509 52.2456 33.234 51.511 31.9499C51.1427 31.3124 50.5125 30.8585 49.783 30.7407C48.1336 30.469 45.2263 30.1899 41.8029 30.8006C39.4077 31.2313 36.7597 32.0845 34.1104 33.6952C30.4751 35.9033 28.0864 38.7603 26.5587 41.2646C26.073 42.0671 26.0607 43.0681 26.5513 43.8675C27.1782 44.889 27.8051 45.9105 28.423 46.9298C28.7616 47.4939 29.3197 47.8927 29.9557 48.0449L44.5401 51.5359C45.1762 51.6882 45.8565 51.5763 46.4116 51.2356C47.846 50.3477 49.2783 49.4686 50.7195 48.5918C50.9527 48.4487 51.1858 48.3056 51.419 48.1625L51.439 48.1578Z" fill="#A576FF"/>
<path d="M74.4344 43.4141C74.6822 43.8428 75.0514 44.1206 75.5441 44.2385L93.2371 48.4736C93.7298 48.5916 94.1101 48.8626 94.3801 49.2777C94.6502 49.6927 94.7307 50.1477 94.6128 50.6404C94.4948 51.1332 94.2149 51.5113 93.7819 51.7771C93.3489 52.0428 92.8849 52.1212 92.3922 52.0033L72.9613 47.3522C70.0498 46.6552 67.8013 45.0088 66.2136 42.4219C64.6259 39.8349 64.176 37.0846 64.873 34.1731C65.5699 31.2616 67.2142 29.0221 69.799 27.4433C72.3816 25.8736 75.1298 25.4327 78.0413 26.1296L97.4722 30.7807C97.9649 30.8986 98.3452 31.1696 98.6152 31.5847C98.8853 31.9998 98.9658 32.4548 98.8479 32.9475C98.7299 33.4402 98.45 33.8184 98.017 34.0841C97.5839 34.3499 97.12 34.4282 96.6273 34.3103L78.9344 30.0752C77.7787 29.7986 77.057 30.2415 76.7804 31.3971L74.2351 42.0308C74.1171 42.5235 74.1865 42.9853 74.4344 43.4141Z" fill="white"/>
<path d="M144.238 45.6029C143.746 45.4849 143.291 45.5655 142.875 45.8355C142.46 46.1055 142.187 46.4948 142.071 46.9786L138.67 61.1867C138.553 61.6794 138.275 62.0486 137.846 62.2964C137.417 62.5443 136.955 62.6137 136.463 62.4957L129.391 60.8597C128.898 60.7418 128.52 60.4618 128.254 60.0288C127.988 59.5958 127.91 59.1319 128.028 58.6392L132.274 40.9014C132.392 40.4087 132.669 40.0395 133.098 39.7917C133.527 39.5438 133.989 39.4744 134.481 39.5924L153.912 44.2435C156.824 44.9404 159.074 46.5778 160.664 49.1558C162.254 51.7338 162.702 54.4931 162.001 57.4225L159.873 66.3093C159.755 66.802 159.478 67.1712 159.047 67.428C158.618 67.6758 158.156 67.7453 157.664 67.6273L150.604 65.9376C150.112 65.8196 149.731 65.5486 149.461 65.1335C149.191 64.7184 149.113 64.2545 149.231 63.7618L152.627 49.5716C152.745 49.0789 152.669 48.606 152.41 48.1461C152.148 47.6952 151.772 47.4063 151.28 47.2883L144.22 45.5986L144.238 45.6029Z" fill="white"/>
<path d="M167.357 69.9472C166.864 69.8293 166.486 69.5493 166.22 69.1163C165.954 68.6833 165.876 68.2194 165.994 67.7267L169.384 53.5634C169.603 52.6496 169.277 51.9938 168.404 51.6048C167.579 51.3316 166.734 51.025 165.866 50.6941C165 50.3543 164.678 49.7185 164.906 48.7689C165.133 47.8193 165.712 47.4181 166.667 47.4666C167.526 47.5965 168.418 47.7059 169.342 47.8039C170.268 47.8929 170.842 47.4716 171.07 46.522L171.625 44.2018C172.103 42.204 172.953 41.3465 174.171 41.6381L181.212 43.3236C182.395 43.6066 182.774 44.6351 182.347 46.4178L181.922 48.1916C181.504 49.9385 181.879 50.9468 183.034 51.2234L188.356 52.4972C188.848 52.6151 189.231 52.8772 189.503 53.2833C189.775 53.6894 189.858 54.1354 189.744 54.6102C189.459 55.8017 188.366 56.1746 186.475 55.7222L183.268 54.9545C181.405 54.5085 180.339 54.8878 180.053 56.0793L177.499 66.7488C177.281 67.6626 177.728 68.4043 178.835 68.9629C179.942 69.5216 180.394 70.2454 180.184 71.1233C180.066 71.616 179.786 71.9942 179.353 72.26C178.92 72.5257 178.456 72.6041 177.964 72.4861L167.357 69.9472Z" fill="white"/>
<path d="M197.727 72.1495C197.74 73.0431 198.177 73.5928 199.055 73.8029L211.48 76.7771C212.636 77.0538 213.079 77.7754 212.802 78.9311C212.684 79.4238 212.413 79.8041 211.998 80.0741C211.583 80.3442 211.128 80.4247 210.636 80.3068L196.472 76.9166C193.561 76.2196 191.312 74.5732 189.725 71.9863C188.137 69.3993 187.687 66.649 188.384 63.7375C189.081 60.826 190.725 58.5865 193.319 57.0099C195.91 55.4422 198.668 55.0035 201.588 55.7025L212.195 58.2415C215.097 58.9362 217.33 60.5694 218.913 63.1363C220.496 65.7032 220.939 68.4424 220.24 71.3628C220.122 71.8556 219.842 72.2337 219.409 72.4995C218.976 72.7652 218.512 72.8436 218.02 72.7257L200.327 68.4906C199.834 68.3726 199.379 68.4531 198.964 68.7232C198.549 68.9932 198.278 69.3735 198.16 69.8662C197.875 71.0577 197.73 71.8188 197.725 72.1585L197.727 72.1495ZM199.862 62.7532C199.745 63.2459 199.814 63.7077 200.062 64.1365C200.31 64.5652 200.679 64.843 201.172 64.9609L208.276 66.6614C208.768 66.7793 209.223 66.6988 209.638 66.4288C210.053 66.1587 210.324 65.7784 210.442 65.2857L210.871 63.494C211.148 62.3384 210.705 61.6167 209.549 61.3401L202.445 59.6396C201.29 59.363 200.568 59.8059 200.291 60.9615L199.862 62.7532Z" fill="white"/>
<path d="M230.59 80.7926C230.838 81.2213 231.207 81.4991 231.7 81.6171L249.393 85.8522C249.885 85.9701 250.265 86.2411 250.536 86.6562C250.806 87.0713 250.886 87.5262 250.768 88.019C250.65 88.5117 250.37 88.8898 249.937 89.1556C249.504 89.4213 249.04 89.4997 248.548 89.3818L229.117 84.7307C226.205 84.0338 223.957 82.3874 222.369 79.8004C220.781 77.2134 220.331 74.4631 221.028 71.5516C221.725 68.6401 223.37 66.4006 225.954 64.8219C228.537 63.2521 231.285 62.8112 234.197 63.5081L253.628 68.1592C254.12 68.2771 254.501 68.5481 254.771 68.9632C255.041 69.3783 255.121 69.8333 255.003 70.326C254.885 70.8187 254.605 71.1969 254.172 71.4626C253.739 71.7284 253.275 71.8068 252.783 71.6888L235.09 67.4537C233.934 67.1771 233.212 67.62 232.936 68.7757L230.39 79.4094C230.273 79.9021 230.342 80.3639 230.59 80.7926Z" fill="white"/>
<path d="M283.403 95.8305C283.285 96.3232 283.005 96.7014 282.572 96.9671C282.139 97.2329 281.675 97.3113 281.182 97.1933L274.123 95.5036C273.63 95.3856 273.252 95.1057 272.987 94.6727C272.721 94.2397 272.642 93.7757 272.76 93.283L276.125 79.2272C276.243 78.7345 276.173 78.2727 275.926 77.844C275.678 77.4152 275.308 77.1374 274.816 77.0195L267.712 75.319C267.219 75.2011 266.764 75.2816 266.349 75.5517C265.934 75.8217 265.663 76.202 265.545 76.6947L262.18 90.7505C262.062 91.2433 261.783 91.6214 261.35 91.8872C260.917 92.1529 260.453 92.2313 259.96 92.1134L252.901 90.4236C252.408 90.3057 252.028 90.0347 251.758 89.6196C251.487 89.2045 251.407 88.7495 251.525 88.2568L260.006 52.8261C260.124 52.3334 260.404 51.9552 260.837 51.6895C261.27 51.4237 261.734 51.3453 262.226 51.4633L269.286 53.153C269.778 53.271 270.157 53.5509 270.422 53.9839C270.688 54.4169 270.766 54.8809 270.648 55.3736L267.258 69.5369C267.14 70.0296 267.21 70.4914 267.458 70.9201C267.705 71.3489 268.084 71.6288 268.576 71.7467L277.463 73.874C280.366 74.5687 282.596 76.2108 284.175 78.7957C285.754 81.3805 286.195 84.1286 285.498 87.0401L283.394 95.8284L283.403 95.8305Z" fill="white"/>
<path d="M114.846 34.2104C110.573 33.1876 106.287 35.8178 105.264 40.091C105.264 40.091 105.262 40.1 105.26 40.1089L120.74 43.8144C121.772 39.5433 119.153 35.2508 114.882 34.219C114.873 34.2169 114.864 34.2147 114.846 34.2104Z" fill="white"/>
<path d="M120.74 43.8144C119.715 48.0965 115.419 50.7336 111.136 49.7086C106.854 48.6836 104.217 44.3868 105.242 40.1047L99.1147 38.6379C98.2636 38.4342 97.4108 38.9499 97.2003 39.7899C97.1853 39.8526 97.1703 39.9153 97.1664 39.9712C96.0788 48.709 102.272 56.6701 111.009 57.7576C118.403 58.6843 125.453 54.3574 127.975 47.3456C128.266 46.525 127.839 45.6177 127.02 45.3176C126.967 45.3047 126.915 45.2829 126.852 45.2679L120.734 43.8033L120.74 43.8144Z" fill="white"/>
<path d="M300.332 82.6605C300.159 82.9533 298.356 92.0976 298.356 92.0976C304.7 91.1498 306.629 94.4004 308.526 101.043L317.687 101.156C322.316 92.7256 325.153 92.976 327.373 96.2536L329.097 96.3852C331.219 92.2042 334.932 86.901 339.221 81.1763L342.409 80.1752L341.585 77.3161L338.4 71.7336L335.16 73.6554C330.463 70.3891 327.84 71.629 325.394 73.259C322.242 70.2799 319.348 69.8025 316.646 71.2017C316.312 67.3074 307.514 65.4425 306.579 70.1993C304.288 71.0023 304.436 73.2812 303.736 75.0535C304.442 78.15 303.14 80.2852 300.332 82.6605Z" fill="#008751"/>
<path d="M316.557 71.1476L318.606 70.454L320.87 70.5535L323.417 71.5412L325.424 73.2888L322.047 94.9613L317.628 101.11L311.896 101.061L316.557 71.1476Z" fill="white"/>
</svg>
