<svg width="195" height="35" viewBox="0 0 195 35" fill="none" xmlns="http://www.w3.org/2000/svg">
<path d="M17.7211 24.0255V30.5835C17.7211 31.001 17.5615 31.4063 17.2729 31.7133C16.6036 32.4256 15.9281 33.144 15.2588 33.8563C14.915 34.2186 14.436 34.4089 13.9386 34.3721C12.0474 34.237 7.81054 33.5493 4.24912 30.0247C1.47367 27.2861 0.429804 24.1238 0.0306793 22.0606C-0.165813 21.0413 0.614015 20.0957 1.65174 20.0957H13.7851C14.2211 20.0957 14.6448 20.2676 14.9518 20.5808L17.236 22.865C17.543 23.172 17.7211 23.5957 17.7211 24.0317V24.0255Z" fill="white"/>
<path d="M17.7211 8.23913V14.7971C17.7211 15.233 17.5492 15.6506 17.236 15.9637C16.4746 16.7251 15.7132 17.4865 14.9518 18.2541C14.6448 18.5672 14.2211 18.7392 13.7851 18.7392H1.65174C0.614015 18.7392 -0.165813 17.7936 0.0306793 16.7743C0.429804 14.705 1.47367 11.5427 4.24912 8.79791C7.8044 5.27947 12.0413 4.59175 13.9386 4.45666C14.436 4.41982 14.915 4.61017 15.2588 4.97245C15.9343 5.68473 16.6036 6.40316 17.279 7.12158C17.5676 7.4286 17.7272 7.83387 17.7272 8.25141L17.7211 8.23913Z" fill="white"/>
<path d="M37.223 8.34935V14.9073C37.223 15.3248 37.0634 15.7301 36.7809 16.0371C36.0993 16.7617 35.4178 17.4862 34.7362 18.2108C34.423 18.5424 33.9932 18.7327 33.5327 18.7327H23.0449C22.5905 18.7327 22.1545 18.5424 21.8414 18.2169C21.1598 17.4924 20.4721 16.7678 19.7966 16.0371C19.508 15.7301 19.3484 15.3248 19.3484 14.9073V8.34935C19.3484 7.91338 19.5203 7.49584 19.8335 7.18268C20.5949 6.42127 21.3563 5.65986 22.1177 4.89232C22.4247 4.57916 22.8484 4.40723 23.2844 4.40723H33.287C33.723 4.40723 34.1467 4.5853 34.4537 4.89232C35.2151 5.65986 35.9765 6.41513 36.7379 7.17654C37.045 7.48356 37.223 7.90724 37.223 8.34321V8.34935Z" fill="white"/>
<path d="M37.223 31.1539V23.9144C37.223 23.4968 37.0634 23.0916 36.7748 22.7846C36.1055 22.0661 35.43 21.3539 34.7546 20.6354C34.4169 20.2793 33.9379 20.0828 33.4467 20.1196C32.3353 20.1995 30.4072 20.4696 28.2826 21.3968C26.7967 22.0477 25.2125 23.0118 23.7449 24.467C21.7309 26.4626 20.6256 28.6855 20.0238 30.546C19.8335 31.1416 19.9809 31.7925 20.423 32.2346C20.9879 32.7995 21.5528 33.3644 22.1116 33.9293C22.4186 34.2425 22.8423 34.4144 23.2782 34.4144H33.2748C33.7107 34.4144 34.1344 34.2364 34.4414 33.9293C35.2336 33.1311 36.0257 32.339 36.8239 31.5469C36.9529 31.4179 37.0818 31.289 37.2108 31.16L37.223 31.1539Z" fill="white"/>
<path d="M51.3949 24.5111C51.6221 24.7505 51.9046 24.8733 52.2423 24.8733H64.3696C64.7073 24.8733 64.9959 24.99 65.2354 25.2172C65.4748 25.4444 65.5976 25.7269 65.5976 26.0646C65.5976 26.4023 65.4748 26.6909 65.2354 26.9304C64.9959 27.1698 64.7073 27.2927 64.3696 27.2927H51.0511C49.0555 27.2927 47.3423 26.5742 45.9116 25.1435C44.4809 23.7128 43.7625 21.9996 43.7625 20.004C43.7625 18.0084 44.4809 16.3014 45.9116 14.8768C47.3423 13.4584 49.0555 12.7461 51.0511 12.7461H64.3696C64.7073 12.7461 64.9959 12.8628 65.2354 13.09C65.4748 13.3171 65.5976 13.5996 65.5976 13.9373C65.5976 14.275 65.4748 14.5636 65.2354 14.8031C64.9959 15.0426 64.7073 15.1654 64.3696 15.1654H52.2423C51.4502 15.1654 51.0511 15.5645 51.0511 16.3566V23.6453C51.0511 23.983 51.1677 24.2716 51.3949 24.5111Z" fill="white"/>
<path d="M96.9872 15.0983C96.6495 15.0983 96.367 15.2211 96.1399 15.4606C95.9127 15.7 95.796 15.9948 95.796 16.3264V26.065C95.796 26.4027 95.6732 26.6852 95.4337 26.9124C95.1942 27.1396 94.9056 27.2562 94.5679 27.2562L89.7293 27.2931C89.3916 27.2931 89.103 27.1703 88.8635 26.9308C88.624 26.6913 88.5012 26.4027 88.5012 26.065V13.9071C88.5012 13.5693 88.624 13.2869 88.8635 13.0597C89.103 12.8325 89.3916 12.7158 89.7293 12.7158H103.048C105.043 12.7158 106.757 13.4281 108.187 14.8527C109.618 16.2772 110.336 17.9965 110.336 20.0045V26.0957C110.336 26.4334 110.214 26.7159 109.974 26.9492C109.735 27.1764 109.446 27.2931 109.108 27.2931H104.27C103.932 27.2931 103.643 27.1764 103.404 26.9492C103.164 26.722 103.042 26.4334 103.042 26.0957V16.3693C103.042 16.0316 102.919 15.7369 102.679 15.479C102.44 15.2272 102.151 15.0983 101.814 15.0983H96.9749H96.9872Z" fill="white"/>
<path d="M115.752 27.2925C115.414 27.2925 115.126 27.1697 114.886 26.9303C114.647 26.6908 114.524 26.4022 114.524 26.0645V16.3565C114.524 15.7302 114.211 15.3557 113.585 15.239C113.007 15.1899 112.412 15.1223 111.798 15.0425C111.184 14.9565 110.877 14.5942 110.877 13.9434C110.877 13.2925 111.19 12.9425 111.816 12.8258C112.393 12.7767 112.989 12.7092 113.603 12.6293C114.217 12.5434 114.524 12.1811 114.524 11.5302V9.93984C114.524 8.57053 114.942 7.88281 115.777 7.88281H120.603C121.414 7.88281 121.819 8.49071 121.819 9.71265V10.9284C121.819 12.1258 122.218 12.7214 123.01 12.7214H126.657C126.995 12.7214 127.284 12.832 127.523 13.053C127.763 13.2741 127.886 13.5504 127.886 13.8758C127.886 14.6925 127.235 15.1039 125.939 15.1039H123.741C122.464 15.1039 121.831 15.5153 121.831 16.332V23.6452C121.831 24.2715 122.236 24.6829 123.041 24.8732C123.845 25.0636 124.25 25.4627 124.25 26.0645C124.25 26.4022 124.128 26.6908 123.888 26.9303C123.649 27.1697 123.36 27.2925 123.022 27.2925H115.771H115.752Z" fill="white"/>
<path d="M135.782 24.0075C135.93 24.5847 136.298 24.8733 136.9 24.8733H145.416C146.209 24.8733 146.608 25.2725 146.608 26.0646C146.608 26.4023 146.491 26.6909 146.264 26.9304C146.037 27.1698 145.754 27.2927 145.416 27.2927H135.709C133.713 27.2927 132 26.5742 130.569 25.1435C129.138 23.7128 128.42 21.9996 128.42 20.004C128.42 18.0084 129.138 16.3014 130.575 14.8768C132.012 13.4584 133.731 12.7461 135.733 12.7461H143.003C144.993 12.7461 146.694 13.4584 148.118 14.8768C149.543 16.2952 150.255 18.0023 150.255 20.004C150.255 20.3417 150.132 20.6303 149.893 20.8698C149.653 21.1093 149.365 21.2321 149.027 21.2321H136.9C136.562 21.2321 136.28 21.3549 136.052 21.5944C135.825 21.8339 135.709 22.1225 135.709 22.4602C135.709 23.2768 135.733 23.7926 135.782 24.0137V24.0075ZM135.709 17.5847C135.709 17.9224 135.825 18.211 136.052 18.4505C136.28 18.69 136.562 18.8128 136.9 18.8128H141.769C142.107 18.8128 142.389 18.69 142.616 18.4505C142.844 18.211 142.96 17.9224 142.96 17.5847V16.3566C142.96 15.5645 142.561 15.1654 141.769 15.1654H136.9C136.108 15.1654 135.709 15.5645 135.709 16.3566V17.5847Z" fill="white"/>
<path d="M158.428 24.5111C158.655 24.7505 158.938 24.8733 159.275 24.8733H171.403C171.74 24.8733 172.029 24.99 172.268 25.2172C172.508 25.4444 172.631 25.7269 172.631 26.0646C172.631 26.4023 172.508 26.6909 172.268 26.9304C172.029 27.1698 171.74 27.2927 171.403 27.2927H158.084C156.088 27.2927 154.375 26.5742 152.945 25.1435C151.514 23.7128 150.795 21.9996 150.795 20.004C150.795 18.0084 151.514 16.3014 152.945 14.8768C154.375 13.4584 156.088 12.7461 158.084 12.7461H171.403C171.74 12.7461 172.029 12.8628 172.268 13.09C172.508 13.3171 172.631 13.5996 172.631 13.9373C172.631 14.275 172.508 14.5636 172.268 14.8031C172.029 15.0426 171.74 15.1654 171.403 15.1654H159.275C158.483 15.1654 158.084 15.5645 158.084 16.3566V23.6453C158.084 23.983 158.201 24.2716 158.428 24.5111Z" fill="white"/>
<path d="M195 26.0643C195 26.402 194.877 26.6906 194.638 26.9301C194.398 27.1696 194.11 27.2924 193.772 27.2924H188.933C188.596 27.2924 188.307 27.1696 188.068 26.9301C187.828 26.6906 187.705 26.402 187.705 26.0643V16.4301C187.705 16.0923 187.589 15.8037 187.361 15.5643C187.134 15.3248 186.852 15.202 186.514 15.202H181.645C181.307 15.202 181.025 15.3248 180.797 15.5643C180.57 15.8037 180.453 16.0923 180.453 16.4301V26.0643C180.453 26.402 180.331 26.6906 180.091 26.9301C179.852 27.1696 179.563 27.2924 179.225 27.2924H174.387C174.049 27.2924 173.76 27.1757 173.521 26.9485C173.281 26.7213 173.159 26.4389 173.159 26.1012V1.81597C173.159 1.47825 173.281 1.18965 173.521 0.950173C173.76 0.710698 174.049 0.587891 174.387 0.587891H179.225C179.563 0.587891 179.852 0.710698 180.091 0.950173C180.331 1.18965 180.453 1.47825 180.453 1.81597V11.5239C180.453 11.8616 180.57 12.1502 180.797 12.3897C181.025 12.6292 181.313 12.752 181.651 12.752H187.742C189.732 12.752 191.432 13.4704 192.857 14.9011C194.282 16.3318 194.994 18.045 194.994 20.0406V26.0643H195Z" fill="white"/>
<path d="M76.1651 12.2734C73.2362 12.2734 70.866 14.6436 70.866 17.5726C70.866 17.5726 70.866 17.5787 70.866 17.5849H81.4765C81.4827 14.6559 79.1186 12.2796 76.1897 12.2734C76.1835 12.2734 76.1774 12.2734 76.1651 12.2734Z" fill="white"/>
<path d="M81.4765 17.5852C81.4765 20.5203 79.1001 22.8967 76.165 22.8967C73.2299 22.8967 70.8536 20.5203 70.8536 17.5852H66.6536C66.0703 17.5852 65.5974 18.0519 65.5913 18.6291C65.5913 18.6721 65.5913 18.7151 65.5975 18.7519C66.2483 24.5853 71.4984 28.7853 77.3317 28.1344C82.2686 27.5879 86.1677 23.6888 86.7142 18.7519C86.7756 18.1747 86.3581 17.6528 85.7809 17.5852C85.744 17.5852 85.7072 17.5791 85.6642 17.5791H81.4703L81.4765 17.5852Z" fill="white"/>
</svg>
