<svg width="59" height="59" viewBox="0 0 59 59" fill="none" xmlns="http://www.w3.org/2000/svg">
<path d="M48.7804 22.2106C48.3764 17.6995 46.4005 13.4737 43.1979 10.2713C39.9952 7.0688 35.7694 5.09316 31.2583 4.6894L31.4242 2.85303C36.3653 3.29544 40.994 5.45949 44.5019 8.96725C48.0098 12.475 50.1741 17.1036 50.6168 22.0446L48.7804 22.2106Z" fill="#C8E3FB"/>
<path d="M27.5748 45.0855C22.6337 44.6427 18.0052 42.4784 14.4973 38.9705C10.9894 35.4627 8.82512 30.8341 8.38232 25.893L10.2187 25.7271C10.623 30.2381 12.599 34.4638 15.8015 37.6663C19.0041 40.8689 23.2298 42.8448 27.7408 43.2491L27.5748 45.0855Z" fill="#C8E3FB"/>
<path d="M29.4985 39.6406C38.1539 39.6406 45.1704 32.6241 45.1704 23.9688C45.1704 15.3134 38.1539 8.29688 29.4985 8.29688C20.8432 8.29688 13.8267 15.3134 13.8267 23.9688C13.8267 32.6241 20.8432 39.6406 29.4985 39.6406Z" fill="#C8E3FB"/>
<path d="M29.4985 6.45313C28.9515 6.45313 28.4168 6.29092 27.962 5.98703C27.5072 5.68314 27.1528 5.25121 26.9434 4.74586C26.7341 4.24051 26.6793 3.68443 26.7861 3.14795C26.8928 2.61148 27.1562 2.11869 27.5429 1.73191C27.9297 1.34513 28.4225 1.08173 28.959 0.975017C29.4955 0.868305 30.0515 0.923073 30.5569 1.1324C31.0622 1.34172 31.4942 1.6962 31.7981 2.151C32.102 2.60581 32.2642 3.14051 32.2642 3.6875C32.2642 4.42099 31.9728 5.12444 31.4541 5.64309C30.9355 6.16175 30.232 6.45313 29.4985 6.45313ZM29.4985 2.76563C29.3162 2.76563 29.138 2.81969 28.9864 2.92099C28.8348 3.02229 28.7166 3.16626 28.6468 3.33471C28.5771 3.50317 28.5588 3.68852 28.5944 3.86735C28.6299 4.04618 28.7177 4.21044 28.8467 4.33937C28.9756 4.46829 29.1399 4.55609 29.3187 4.59166C29.4975 4.62723 29.6829 4.60898 29.8513 4.5392C30.0198 4.46943 30.1638 4.35127 30.265 4.19967C30.3663 4.04807 30.4204 3.86983 30.4204 3.6875C30.4204 3.443 30.3233 3.20852 30.1504 3.03564C29.9775 2.86275 29.743 2.76563 29.4985 2.76563Z" fill="#7BB873"/>
<path d="M49.7798 26.7344C49.2328 26.7344 48.6981 26.5722 48.2433 26.2683C47.7885 25.9644 47.434 25.5325 47.2247 25.0271C47.0154 24.5218 46.9606 23.9657 47.0673 23.4292C47.174 22.8927 47.4374 22.3999 47.8242 22.0132C48.211 21.6264 48.7038 21.363 49.2402 21.2563C49.7767 21.1496 50.3328 21.2043 50.8381 21.4136C51.3435 21.623 51.7754 21.9774 52.0793 22.4323C52.3832 22.8871 52.5454 23.4218 52.5454 23.9688C52.5454 24.7022 52.254 25.4057 51.7354 25.9243C51.2167 26.443 50.5133 26.7344 49.7798 26.7344ZM49.7798 23.0469C49.5975 23.0469 49.4192 23.1009 49.2676 23.2022C49.116 23.3035 48.9979 23.4475 48.9281 23.616C48.8583 23.7844 48.8401 23.9698 48.8756 24.1486C48.9112 24.3274 48.999 24.4917 49.1279 24.6206C49.2568 24.7495 49.4211 24.8373 49.5999 24.8729C49.7788 24.9085 49.9641 24.8902 50.1326 24.8205C50.301 24.7507 50.445 24.6325 50.5463 24.4809C50.6476 24.3293 50.7017 24.1511 50.7017 23.9688C50.7017 23.7243 50.6045 23.4898 50.4317 23.3169C50.2588 23.144 50.0243 23.0469 49.7798 23.0469Z" fill="#7BB873"/>
<path d="M29.4985 47.0156C28.9515 47.0156 28.4168 46.8534 27.962 46.5495C27.5072 46.2456 27.1528 45.8137 26.9434 45.3084C26.7341 44.803 26.6793 44.2469 26.7861 43.7105C26.8928 43.174 27.1562 42.6812 27.5429 42.2944C27.9297 41.9076 28.4225 41.6442 28.959 41.5375C29.4955 41.4308 30.0515 41.4856 30.5569 41.6949C31.0622 41.9042 31.4942 42.2587 31.7981 42.7135C32.102 43.1683 32.2642 43.703 32.2642 44.25C32.2642 44.9835 31.9728 45.6869 31.4541 46.2056C30.9355 46.7242 30.232 47.0156 29.4985 47.0156ZM29.4985 43.3281C29.3162 43.3281 29.138 43.3822 28.9864 43.4835C28.8348 43.5848 28.7166 43.7288 28.6468 43.8972C28.5771 44.0657 28.5588 44.251 28.5944 44.4299C28.6299 44.6087 28.7177 44.7729 28.8467 44.9019C28.9756 45.0308 29.1399 45.1186 29.3187 45.1542C29.4975 45.1897 29.6829 45.1715 29.8513 45.1017C30.0198 45.0319 30.1638 44.9138 30.265 44.7622C30.3663 44.6106 30.4204 44.4323 30.4204 44.25C30.4204 44.0055 30.3233 43.771 30.1504 43.5981C29.9775 43.4253 29.743 43.3281 29.4985 43.3281Z" fill="#7BB873"/>
<path d="M9.21729 26.7344C8.6703 26.7344 8.13559 26.5722 7.68079 26.2683C7.22598 25.9644 6.87151 25.5325 6.66218 25.0271C6.45286 24.5218 6.39809 23.9657 6.5048 23.4292C6.61151 22.8927 6.87491 22.3999 7.26169 22.0132C7.64847 21.6264 8.14126 21.363 8.67774 21.2563C9.21422 21.1496 9.77029 21.2043 10.2756 21.4136C10.781 21.623 11.2129 21.9774 11.5168 22.4323C11.8207 22.8871 11.9829 23.4218 11.9829 23.9688C11.9829 24.7022 11.6915 25.4057 11.1729 25.9243C10.6542 26.443 9.95078 26.7344 9.21729 26.7344ZM9.21729 23.0469C9.03496 23.0469 8.85672 23.1009 8.70512 23.2022C8.55352 23.3035 8.43536 23.4475 8.36558 23.616C8.29581 23.7844 8.27755 23.9698 8.31312 24.1486C8.3487 24.3274 8.4365 24.4917 8.56542 24.6206C8.69435 24.7495 8.85861 24.8373 9.03744 24.8729C9.21626 24.9085 9.40162 24.8902 9.57007 24.8205C9.73852 24.7507 9.8825 24.6325 9.9838 24.4809C10.0851 24.3293 10.1392 24.1511 10.1392 23.9688C10.1392 23.7243 10.042 23.4898 9.86915 23.3169C9.69626 23.144 9.46178 23.0469 9.21729 23.0469Z" fill="#7BB873"/>
<path d="M29.4985 7.375C26.2166 7.375 23.0084 8.34821 20.2795 10.1716C17.5507 11.9949 15.4239 14.5865 14.1679 17.6186C12.912 20.6507 12.5834 23.9872 13.2236 27.206C13.8639 30.4249 15.4443 33.3816 17.765 35.7023C20.0857 38.023 23.0424 39.6034 26.2613 40.2437C29.4801 40.8839 32.8166 40.5553 35.8487 39.2994C38.8808 38.0434 41.4724 35.9166 43.2957 33.1877C45.1191 30.4589 46.0923 27.2507 46.0923 23.9688C46.0872 19.5694 44.3373 15.3517 41.2264 12.2409C38.1156 9.13003 33.8979 7.38012 29.4985 7.375ZM43.4318 27.9513C41.0723 30.0151 38.2832 31.5282 35.2667 32.3809C36.0751 30.3336 36.5852 28.1809 36.7814 25.9886C39.4451 25.0996 41.923 23.7291 44.0918 21.9452C44.3801 23.8528 44.267 25.7995 43.7599 27.6609L43.4318 27.9513ZM29.4985 38.2412L29.2026 37.9029C28.3807 36.9625 27.644 35.9509 27.0012 34.8801C28.66 35.0816 30.3371 35.0816 31.9959 34.8801C31.3531 35.9509 30.6163 36.9625 29.7945 37.9029L29.4985 38.2412ZM29.4985 33.1875C28.3076 33.1846 27.1191 33.0809 25.9456 32.8778C25.018 30.8727 24.4098 28.7348 24.1434 26.5417C27.6603 27.4132 31.3368 27.4132 34.8537 26.5417C34.5872 28.7348 33.9791 30.8727 33.0514 32.8778C31.878 33.0809 30.6895 33.1846 29.4985 33.1875ZM15.2362 27.6645C14.7293 25.8032 14.6162 23.8565 14.9043 21.9489C17.073 23.7329 19.551 25.1035 22.2148 25.9923C22.4113 28.1846 22.9217 30.3374 23.7304 32.3845C20.7141 31.533 17.9248 30.0216 15.5644 27.9595L15.2362 27.6645ZM29.4985 9.69628L29.7945 10.0346C31.5867 12.0914 32.9641 14.4756 33.8507 17.0556C32.4197 17.3583 30.9612 17.5124 29.4985 17.5156C28.0361 17.5121 26.578 17.3576 25.1473 17.0547C26.0339 14.4747 27.4113 12.0905 29.2035 10.0337L29.4985 9.69628ZM29.4985 19.3594C31.1395 19.3573 32.7756 19.1799 34.3789 18.8302C34.8059 20.5099 35.0245 22.2357 35.0298 23.9688C35.0298 24.1863 35.0067 24.4011 35.0003 24.6141C31.3977 25.5925 27.5994 25.5925 23.9968 24.6141C23.9903 24.3974 23.9673 24.1826 23.9673 23.9688C23.9726 22.2357 24.1912 20.5099 24.6181 18.8302C26.2215 19.1799 27.8575 19.3573 29.4985 19.3594ZM36.1637 18.3711C38.1389 17.769 40.0237 16.9025 41.7669 15.7954C42.6093 17.0613 43.2506 18.4502 43.6678 19.9125L43.4318 20.1181C41.5009 21.8071 39.2785 23.1303 36.8735 24.0231C36.8735 24.0047 36.8735 23.9872 36.8735 23.9688C36.8677 22.0808 36.6293 20.2008 36.1637 18.3711ZM22.1235 24.0231C19.7172 23.1296 17.4936 21.8054 15.5616 20.1153L15.3293 19.9125C15.7466 18.4508 16.3878 17.0626 17.2302 15.7972C18.9733 16.9044 20.8581 17.7708 22.8334 18.373C22.368 20.202 22.1296 22.0814 22.1235 23.9688V24.0231ZM40.6385 14.3305C39.0786 15.3031 37.3982 16.0674 35.6401 16.6039C34.7521 13.978 33.3959 11.5347 31.6373 9.39206C35.1332 9.90457 38.328 11.6574 40.6385 14.3305ZM27.3635 9.39206C25.6048 11.5347 24.2487 13.978 23.3607 16.6039C21.6025 16.0674 19.9221 15.3031 18.3623 14.3305C20.6718 11.6582 23.8653 9.90541 27.3598 9.39206H27.3635ZM16.5425 31.011C19.0085 32.6954 21.7795 33.8822 24.7002 34.5049C25.4418 35.9417 26.3333 37.2961 27.3598 38.5454C25.0965 38.2128 22.9413 37.3592 21.0641 36.0517C19.187 34.7442 17.6391 33.0186 16.5425 31.011ZM31.6373 38.5454C32.6637 37.2961 33.5552 35.9417 34.2969 34.5049C37.2179 33.8822 39.9892 32.6954 42.4555 31.011C41.3586 33.0186 39.8105 34.744 37.9332 36.0515C36.0559 37.359 33.9007 38.2127 31.6373 38.5454Z" fill="#92C8F4"/>
<path d="M29.4985 57.1562C37.1356 57.1562 43.3267 50.9652 43.3267 43.3281C43.3267 35.6911 37.1356 29.5 29.4985 29.5C21.8615 29.5 15.6704 35.6911 15.6704 43.3281C15.6704 50.9652 21.8615 57.1562 29.4985 57.1562Z" fill="#A3CEF9"/>
<path d="M29.4987 29.5C26.5082 29.4995 23.5992 30.4744 21.2129 32.2767C19.2111 34.9357 18.237 38.2283 18.4699 41.5484C18.7028 44.8685 20.1271 47.9928 22.4805 50.3463C24.834 52.6997 27.9583 54.124 31.2784 54.3569C34.5986 54.5898 37.8911 53.6157 40.5501 51.6139C42.0947 49.5622 43.0366 47.1203 43.2698 44.5627C43.503 42.005 43.0183 39.4331 41.8702 37.1358C40.7222 34.8385 38.9562 32.9068 36.7707 31.558C34.5852 30.2091 32.0669 29.4964 29.4987 29.5Z" fill="#C8E3FB"/>
<path d="M28.5767 46.0938H30.4204V51.625H28.5767V46.0938Z" fill="#886F65"/>
<path d="M21.6774 51.1491C19.6029 49.0745 18.4375 46.2608 18.4375 43.327C18.4375 40.3932 19.6029 37.5795 21.6774 35.5049L22.9809 36.8084C21.2521 38.5373 20.2809 40.8821 20.2809 43.327C20.2809 45.7719 21.2521 48.1167 22.9809 49.8456L21.6774 51.1491Z" fill="#FCEF88"/>
<path d="M37.3221 51.1491L36.0186 49.8456C37.7474 48.1167 38.7186 45.7719 38.7186 43.327C38.7186 40.8821 37.7474 38.5373 36.0186 36.8084L37.3221 35.5049C39.3965 37.5795 40.562 40.3932 40.562 43.327C40.562 46.2608 39.3965 49.0745 37.3221 51.1491Z" fill="#FCEF88"/>
<path d="M35.5465 47.5424L34.0347 46.4878C34.6828 45.5614 35.0304 44.4582 35.0304 43.3276C35.0304 42.197 34.6828 41.0938 34.0347 40.1674L35.5465 39.1128C36.4106 40.3484 36.8741 41.8198 36.8741 43.3276C36.8741 44.8354 36.4106 46.3068 35.5465 47.5424Z" fill="#FCEF88"/>
<path d="M23.451 47.5424C22.587 46.3068 22.1235 44.8354 22.1235 43.3276C22.1235 41.8198 22.587 40.3484 23.451 39.1128L24.9629 40.1674C24.3148 41.0938 23.9672 42.197 23.9672 43.3276C23.9672 44.4582 24.3148 45.5614 24.9629 46.4878L23.451 47.5424Z" fill="#FCEF88"/>
<path d="M32.2642 40.5625C32.2642 39.0351 31.0259 37.7969 29.4985 37.7969C27.9711 37.7969 26.7329 39.0351 26.7329 40.5625V44.25C26.7329 45.7774 27.9711 47.0156 29.4985 47.0156C31.0259 47.0156 32.2642 45.7774 32.2642 44.25V40.5625Z" fill="#BABABA"/>
<path d="M29.4985 37.7969C29.422 37.7969 29.351 37.8135 29.2754 37.819C28.8275 38.3203 28.5789 38.9684 28.5767 39.6406V43.3281C28.5767 44.0616 28.868 44.7651 29.3867 45.2837C29.9053 45.8024 30.6088 46.0938 31.3423 46.0938C31.4188 46.0938 31.4898 46.0772 31.5654 46.0716C32.0133 45.5704 32.262 44.9223 32.2642 44.25V40.5625C32.2642 39.829 31.9728 39.1256 31.4541 38.6069C30.9355 38.0883 30.232 37.7969 29.4985 37.7969Z" fill="#CCCCCC"/>
<path d="M28.5767 47.9375H30.4204V51.625H28.5767V47.9375Z" fill="#9D8980"/>
<path d="M32.7749 53.3763L32.5804 53.2786C31.6212 52.809 30.5674 52.5649 29.4995 52.5649C28.4315 52.5649 27.3777 52.809 26.4186 53.2786L26.2241 53.3763L25.3999 51.7262L25.5944 51.634C26.8101 51.0386 28.1458 50.729 29.4995 50.729C30.8531 50.729 32.1889 51.0386 33.4045 51.634L33.5991 51.7262L32.7749 53.3763Z" fill="#745749"/>
<path d="M29.4993 7.37501C26.283 7.37085 23.135 8.30267 20.4392 10.0568C17.7434 11.811 15.6162 14.3117 14.3172 17.254C13.0182 20.1963 12.6033 23.453 13.1234 26.627C13.6434 29.801 15.0757 32.755 17.2457 35.129C16.7049 35.9374 16.2448 36.797 15.8721 37.6955C12.825 34.6873 10.872 30.746 10.3243 26.4993C10.9264 26.2405 11.4176 25.777 11.711 25.191C12.0045 24.6049 12.0812 23.934 11.9276 23.2968C11.7741 22.6597 11.4002 22.0973 10.8721 21.7092C10.3439 21.3211 9.69557 21.1323 9.04164 21.1761C8.3877 21.2199 7.77032 21.4936 7.29868 21.9486C6.82703 22.4037 6.53149 23.0109 6.46433 23.6629C6.39717 24.3148 6.56272 24.9695 6.93169 25.5112C7.30066 26.0529 7.84928 26.4466 8.48056 26.6228C9.0993 31.6283 11.4962 36.2446 15.2342 39.6305C14.6155 42.0128 14.603 44.5121 15.198 46.9004C15.7931 49.2887 16.9766 51.4901 18.6406 53.3037C20.3047 55.1173 22.3963 56.4854 24.7247 57.2832C27.0532 58.081 29.5443 58.2831 31.9709 57.8712C34.3975 57.4592 36.6824 56.4463 38.6171 54.9247C40.5518 53.4032 42.0747 51.4214 43.047 49.1603C44.0193 46.8991 44.41 44.4305 44.1835 41.9797C43.9569 39.5288 43.1204 37.1736 41.7501 35.129C43.92 32.7552 45.3523 29.8014 45.8724 26.6277C46.3925 23.4539 45.9779 20.1975 44.6792 17.2553C43.3805 14.3131 41.2538 11.8124 38.5584 10.058C35.863 8.3036 32.7154 7.37139 29.4993 7.37501ZM9.21806 23.0469C9.40039 23.0469 9.57862 23.101 9.73022 23.2023C9.88182 23.3035 9.99998 23.4475 10.0698 23.616C10.1395 23.7844 10.1578 23.9698 10.1222 24.1486C10.0866 24.3274 9.99885 24.4917 9.86992 24.6206C9.74099 24.7496 9.57673 24.8374 9.3979 24.8729C9.21908 24.9085 9.03372 24.8902 8.86527 24.8205C8.69682 24.7507 8.55284 24.6325 8.45154 24.4809C8.35025 24.3293 8.29618 24.1511 8.29618 23.9688C8.29618 23.7243 8.39331 23.4898 8.56619 23.3169C8.73908 23.144 8.97356 23.0469 9.21806 23.0469ZM43.4325 27.9513C41.83 29.3494 40.0252 30.4969 38.0792 31.3548C37.4281 30.8868 36.7396 30.473 36.0207 30.1177C36.398 28.7682 36.6511 27.387 36.7766 25.9914C39.4427 25.102 41.9228 23.7305 44.0935 21.9452C44.1921 22.6153 44.2442 23.2915 44.2493 23.9688C44.2447 25.2132 44.0833 26.4521 43.769 27.6563L43.4325 27.9513ZM20.9203 31.3539C18.9738 30.4964 17.1683 29.3492 15.5652 27.9513L15.2296 27.6563C14.9153 26.4521 14.7539 25.2132 14.7493 23.9688C14.7542 23.2899 14.8063 22.6123 14.9051 21.9406C17.0758 23.7259 19.5559 25.0974 22.222 25.9867C22.3473 27.3825 22.6007 28.7637 22.9789 30.1131C22.26 30.4699 21.5716 30.8849 20.9203 31.3539ZM29.4993 9.69629L29.7952 10.0346C31.5874 12.0912 32.9648 14.475 33.8515 17.0547C32.4205 17.358 30.962 17.5125 29.4993 17.5156C28.0366 17.5125 26.5781 17.358 25.1471 17.0547C26.0338 14.475 27.4112 12.0912 29.2034 10.0346L29.4993 9.69629ZM29.4993 19.3594C31.1403 19.3573 32.7764 19.1799 34.3797 18.8302C34.8066 20.5099 35.0252 22.2357 35.0306 23.9688C35.0306 24.1854 35.0121 24.4011 35.0057 24.6141C31.4001 25.5937 27.5985 25.5937 23.9929 24.6141C23.9865 24.4011 23.9681 24.1854 23.9681 23.9688C23.9734 22.2357 24.192 20.5099 24.6189 18.8302C26.2222 19.1799 27.8583 19.3573 29.4993 19.3594ZM36.1645 18.3711C38.1398 17.7692 40.0246 16.9027 41.7676 15.7954C42.6101 17.0614 43.2513 18.4502 43.6685 19.9125L43.4325 20.1181C41.5015 21.807 39.2792 23.1302 36.8743 24.0232C36.8743 24.0047 36.8743 23.9872 36.8743 23.9688C36.8684 22.0808 36.63 20.2008 36.1645 18.3711ZM22.1243 24.0232C19.7185 23.1296 17.4956 21.8054 15.5642 20.1153L15.3301 19.9125C15.7474 18.4511 16.3886 17.0632 17.231 15.7982C18.974 16.9055 20.8588 17.7719 22.8341 18.3739C22.3688 20.2027 22.1304 22.0817 22.1243 23.9688V24.0232ZM24.6899 29.3986C24.44 28.4599 24.2552 27.505 24.1368 26.5408C27.6565 27.4147 31.3366 27.4147 34.8563 26.5408C34.7379 27.505 34.5531 28.4599 34.3032 29.3986C31.1915 28.3047 27.7997 28.3047 24.688 29.3986H24.6899ZM40.6383 14.3306C39.0783 15.3027 37.3979 16.067 35.6399 16.6039C34.7523 13.9779 33.3961 11.5345 31.6371 9.39208C35.1333 9.90437 38.3276 11.6573 40.6383 14.3306ZM27.3633 9.39208C25.6043 11.5345 24.2482 13.9779 23.3605 16.6039C21.6025 16.067 19.9222 15.3027 18.3621 14.3306C20.6719 11.658 23.8657 9.90521 27.3606 9.39208H27.3633ZM16.535 31.0073C17.4319 31.6227 18.3715 32.1735 19.3467 32.6556C19.013 32.9727 18.6949 33.3052 18.3926 33.6531C17.6784 32.8418 17.0555 31.9545 16.535 31.0073ZM29.4993 56.2344C26.9467 56.2344 24.4514 55.4774 22.329 54.0593C20.2066 52.6411 18.5523 50.6255 17.5755 48.2671C16.5986 45.9088 16.3431 43.3138 16.841 40.8102C17.339 38.3067 18.5682 36.007 20.3732 34.202C22.1782 32.3971 24.4779 31.1679 26.9814 30.6699C29.485 30.1719 32.08 30.4275 34.4383 31.4043C36.7966 32.3812 38.8123 34.0354 40.2305 36.1578C41.6486 38.2802 42.4056 40.7755 42.4056 43.3281C42.4019 46.75 41.041 50.0306 38.6214 52.4502C36.2018 54.8698 32.9211 56.2307 29.4993 56.2344ZM39.651 32.6547C40.6265 32.1732 41.5665 31.6226 42.4636 31.0073C41.9433 31.9547 41.3204 32.8419 40.6061 33.6531C40.3031 33.3052 39.9847 32.9724 39.651 32.6547Z" fill="black"/>
<path d="M50.518 21.315C49.9371 16.6465 47.8153 12.3052 44.4888 8.97866C41.1622 5.65209 36.8209 3.53033 32.1524 2.94937C31.9754 2.32521 31.5836 1.78364 31.0462 1.4202C30.5088 1.05677 29.8602 0.894841 29.2151 0.962986C28.5699 1.03113 27.9695 1.32497 27.5198 1.79266C27.0702 2.26035 26.8002 2.87182 26.7574 3.51919C26.7147 4.16656 26.902 4.80822 27.2863 5.33095C27.6706 5.85368 28.2271 6.22387 28.8578 6.37622C29.4884 6.52857 30.1526 6.45328 30.7331 6.16364C31.3137 5.87399 31.7732 5.3886 32.0308 4.79312C36.2524 5.34233 40.1738 7.27237 43.1842 10.2826C46.1946 13.2928 48.1249 17.2141 48.6743 21.4357C48.0715 21.6937 47.5794 22.1565 47.2849 22.7423C46.9904 23.3281 46.9126 23.9992 47.0652 24.6368C47.2178 25.2745 47.591 25.8376 48.1187 26.2267C48.6465 26.6157 49.2948 26.8056 49.949 26.7628C50.6033 26.7199 51.2213 26.4471 51.6938 25.9925C52.1663 25.5379 52.4628 24.9309 52.5309 24.2788C52.5991 23.6267 52.4344 22.9715 52.066 22.4291C51.6976 21.8867 51.1493 21.4921 50.518 21.315ZM29.4993 4.60875C29.317 4.60875 29.1387 4.55468 28.9871 4.45338C28.8355 4.35209 28.7174 4.20811 28.6476 4.03966C28.5778 3.87121 28.5596 3.68585 28.5951 3.50702C28.6307 3.3282 28.7185 3.16393 28.8474 3.03501C28.9764 2.90608 29.1406 2.81828 29.3194 2.78271C29.4983 2.74714 29.6836 2.7654 29.8521 2.83517C30.0205 2.90495 30.1645 3.0231 30.2658 3.17471C30.3671 3.32631 30.4212 3.50454 30.4212 3.68687C30.4212 3.93137 30.324 4.16585 30.1512 4.33874C29.9783 4.51162 29.7438 4.60875 29.4993 4.60875ZM49.7805 24.89C49.5982 24.89 49.42 24.8359 49.2684 24.7346C49.1168 24.6333 48.9986 24.4894 48.9288 24.3209C48.8591 24.1525 48.8408 23.9671 48.8764 23.7883C48.912 23.6094 48.9998 23.4452 49.1287 23.3163C49.2576 23.1873 49.4219 23.0995 49.6007 23.064C49.7795 23.0284 49.9649 23.0466 50.1333 23.1164C50.3018 23.1862 50.4458 23.3044 50.5471 23.456C50.6484 23.6076 50.7024 23.7858 50.7024 23.9681C50.7024 24.2126 50.6053 24.4471 50.4324 24.62C50.2595 24.7929 50.025 24.89 49.7805 24.89Z" fill="black"/>
<path d="M30.4214 50.7723V47.8066C31.2106 47.6028 31.9101 47.1433 32.4105 46.4998C32.9109 45.8563 33.1839 45.0651 33.187 44.25V40.5625C33.187 39.5845 32.7985 38.6466 32.1069 37.955C31.4154 37.2635 30.4775 36.875 29.4995 36.875C28.5215 36.875 27.5836 37.2635 26.892 37.955C26.2005 38.6466 25.812 39.5845 25.812 40.5625V44.25C25.815 45.0651 26.0881 45.8563 26.5885 46.4998C27.0889 47.1433 27.7883 47.6028 28.5776 47.8066V50.7723C27.5399 50.8742 26.5292 51.1631 25.5944 51.625L25.3999 51.7172L26.2241 53.3673L26.4186 53.2696C27.3777 52.8 28.4315 52.5559 29.4995 52.5559C30.5674 52.5559 31.6212 52.8 32.5804 53.2696L32.7749 53.3673L33.5991 51.7172L33.4045 51.625C32.4697 51.1631 31.4591 50.8742 30.4214 50.7723ZM27.6557 44.25V40.5625C27.6557 40.0735 27.85 39.6045 28.1958 39.2588C28.5415 38.913 29.0105 38.7187 29.4995 38.7187C29.9885 38.7187 30.4574 38.913 30.8032 39.2588C31.149 39.6045 31.3432 40.0735 31.3432 40.5625V44.25C31.3432 44.739 31.149 45.208 30.8032 45.5537C30.4574 45.8995 29.9885 46.0937 29.4995 46.0937C29.0105 46.0937 28.5415 45.8995 28.1958 45.5537C27.85 45.208 27.6557 44.739 27.6557 44.25Z" fill="black"/>
<path d="M22.9804 36.8084L21.6759 35.5049C19.6014 37.5795 18.436 40.3932 18.436 43.327C18.436 46.2608 19.6014 49.0745 21.6759 51.1491L22.9794 49.8456C21.2506 48.1167 20.2794 45.7719 20.2794 43.327C20.2794 40.8821 21.2506 38.5373 22.9794 36.8084H22.9804Z" fill="black"/>
<path d="M36.0186 36.8084C37.7474 38.5373 38.7186 40.8821 38.7186 43.327C38.7186 45.7719 37.7474 48.1167 36.0186 49.8456L37.3221 51.1491C39.3965 49.0745 40.562 46.2608 40.562 43.327C40.562 40.3932 39.3965 37.5795 37.3221 35.5049L36.0186 36.8084Z" fill="black"/>
<path d="M35.5465 39.1128L34.0347 40.1674C34.6828 41.0938 35.0304 42.197 35.0304 43.3276C35.0304 44.4582 34.6828 45.5614 34.0347 46.4878L35.5465 47.5424C36.4106 46.3068 36.8741 44.8354 36.8741 43.3276C36.8741 41.8198 36.4106 40.3484 35.5465 39.1128Z" fill="black"/>
<path d="M23.451 39.1128C22.587 40.3484 22.1235 41.8198 22.1235 43.3276C22.1235 44.8354 22.587 46.3068 23.451 47.5424L24.9629 46.4878C24.3148 45.5614 23.9672 44.4582 23.9672 43.3276C23.9672 42.197 24.3148 41.0938 24.9629 40.1674L23.451 39.1128Z" fill="black"/>
</svg>
