<svg width="54" height="54" viewBox="0 0 54 54" fill="none" xmlns="http://www.w3.org/2000/svg">
<path d="M29.5313 4.21875C29.5313 5.61672 28.398 6.75 27 6.75C25.602 6.75 24.4688 5.61672 24.4688 4.21875C24.4688 2.82078 25.602 1.6875 27 1.6875C28.398 1.6875 29.5313 2.82078 29.5313 4.21875Z" fill="#427096"/>
<path d="M51.4688 14.3438C51.4688 15.7417 50.3355 16.875 48.9375 16.875C47.5395 16.875 46.4062 15.7417 46.4062 14.3438C46.4062 12.9458 47.5395 11.8125 48.9375 11.8125C50.3355 11.8125 51.4688 12.9458 51.4688 14.3438Z" fill="#549AD4"/>
<path d="M7.59375 14.3438C7.59375 15.7417 6.46047 16.875 5.0625 16.875C3.66453 16.875 2.53125 15.7417 2.53125 14.3438C2.53125 12.9458 3.66453 11.8125 5.0625 11.8125C6.46047 11.8125 7.59375 12.9458 7.59375 14.3438Z" fill="#549AD4"/>
<path d="M7.82241 35.0156C5.26042 35.6645 3.375 37.9856 3.375 40.7652V41.7536C3.375 43.3963 4.69211 44.7188 6.32812 44.7188H12.2344C13.8704 44.7188 15.1875 43.3963 15.1875 41.7536V40.7652C15.1875 37.9856 13.3021 35.6645 10.7401 35.0156H7.82241Z" fill="#427096"/>
<path d="M13.4659 36.5947C12.6568 41.3441 8.43803 43.7106 4.12207 43.7106C4.66238 44.3249 5.44447 44.7191 6.32865 44.7191H12.2349C13.8709 44.7191 15.188 43.3971 15.188 41.7545V40.7657C15.188 39.131 14.5244 37.6654 13.4659 36.5947Z" fill="#365B7A"/>
<path d="M48.0937 32.9062C48.0937 34.7702 46.5827 36.2812 44.7188 36.2812C42.8548 36.2812 41.3438 34.7702 41.3438 32.9062C41.3438 31.0423 42.8548 29.5312 44.7188 29.5312C46.5827 29.5312 48.0937 31.0423 48.0937 32.9062Z" fill="#FFD1B5"/>
<path d="M43.2599 35.0156C40.6979 35.6645 38.8125 37.9856 38.8125 40.7652V41.7536C38.8125 43.3963 40.1296 44.7188 41.7656 44.7188H47.6719C49.3079 44.7188 50.625 43.3963 50.625 41.7536V40.7652C50.625 37.9856 48.7396 35.6645 46.1776 35.0156H43.2599Z" fill="#427096"/>
<path d="M12.6548 25.4429C12.6222 21.7205 14.27 24.3442 15.6949 20.8335C17.1199 17.3227 14.1044 18.069 16.7699 15.3686C19.4353 12.6682 18.7376 15.6837 22.2378 14.2049C25.7379 12.7259 22.9492 11.0977 26.999 11.0977C31.0488 11.0977 28.2601 12.7259 31.7602 14.2049C35.2603 15.6838 34.5627 12.6682 37.2281 15.3686C39.8936 18.069 36.878 17.3227 38.303 20.8335C39.728 24.3442 41.3757 21.7205 41.3432 25.4429C41.3757 29.1653 39.728 26.5416 38.303 30.0523C36.9055 33.4954 39.779 32.844 37.3759 35.3648H16.622C14.219 32.844 17.0925 33.4954 15.6949 30.0523C14.27 26.5416 12.6222 29.1653 12.6548 25.4429Z" fill="#E4EFF8"/>
<path d="M35.4842 14.2006C34.7633 14.1314 34.3457 14.8306 32.9546 14.5764C33.2078 14.7572 33.5 15.01 33.8544 15.369C36.5198 18.0694 33.5039 17.3229 34.9288 20.8336C36.3538 24.3444 38.0018 21.7206 37.9693 25.4429C38.0018 29.1653 36.3538 26.5415 34.9288 30.0522C33.5313 33.4954 36.4041 32.8444 34.001 35.3652H37.376C39.7791 32.8444 36.9063 33.4954 38.3038 30.0522C39.7288 26.5415 41.3768 29.1653 41.3443 25.4429C41.3768 21.7206 39.7288 24.3444 38.3038 20.8336C36.8788 17.3229 39.8948 18.0694 37.2293 15.369C36.3964 14.5252 35.891 14.2397 35.4842 14.2006Z" fill="#C4DCF0"/>
<path d="M34.5937 25.3108C34.5937 29.0388 31.5716 32.061 27.8437 32.061C24.1158 32.061 21.0938 29.0388 21.0938 25.3108C21.0938 21.5827 24.1158 18.5605 27.8437 18.5605C31.5716 18.5605 34.5937 21.5827 34.5937 25.3108Z" fill="#C4DCF0"/>
<path d="M46.4063 31.2191C46.4063 33.0831 44.8952 34.5942 43.0313 34.5942C42.5537 34.5927 42.0819 34.4899 41.647 34.2925C42.1914 35.5013 43.393 36.2794 44.7188 36.2815C46.5827 36.2816 48.0938 34.7705 48.0938 32.9066C48.0926 31.5793 47.3135 30.3759 46.103 29.8315C46.3013 30.2674 46.4047 30.7404 46.4063 31.2191Z" fill="#FFB98D"/>
<path d="M48.9034 36.5947C48.0943 41.3441 43.8755 43.7106 39.5596 43.7106C40.0999 44.3249 40.882 44.7191 41.7662 44.7191H47.6724C49.3084 44.7191 50.6255 43.3971 50.6255 41.7545V40.7657C50.6255 39.131 49.9619 37.6654 48.9034 36.5947Z" fill="#365B7A"/>
<path d="M24.4688 4.2188C24.4696 5.33361 25.1997 6.31664 26.2667 6.63961C26.1941 6.40191 26.1569 6.15481 26.1563 5.90628C26.1563 4.50831 27.2896 3.37503 28.6876 3.37503C28.9361 3.3756 29.1832 3.41278 29.4209 3.48536C29.0979 2.41835 28.1149 1.68827 27 1.6875C25.602 1.68755 24.4688 2.82083 24.4688 4.2188Z" fill="#365B7A"/>
<path d="M46.4062 14.3438C46.4071 15.4586 47.1372 16.4416 48.2042 16.7646C48.1316 16.5269 48.0944 16.2798 48.0938 16.0313C48.0938 14.6333 49.2271 13.5 50.6251 13.5C50.8736 13.5006 51.1207 13.5378 51.3584 13.6104C51.0354 12.5433 50.0524 11.8133 48.9375 11.8125C47.5395 11.8125 46.4062 12.9458 46.4062 14.3438Z" fill="#3588CB"/>
<path d="M2.53125 14.3438C2.53208 15.4586 3.26216 16.4416 4.32916 16.7646C4.25658 16.5269 4.2194 16.2798 4.21882 16.0313C4.21882 14.6333 5.3521 13.5 6.75007 13.5C6.99861 13.5006 7.24571 13.5378 7.48341 13.6104C7.16043 12.5433 6.17739 11.8133 5.06253 11.8125C3.66453 11.8125 2.53125 12.9458 2.53125 14.3438Z" fill="#3588CB"/>
<path d="M21.3266 5.90533L10.0281 11.1186C9.0065 11.5919 9.71655 13.1241 10.7382 12.6508L22.0367 7.43754C22.9091 7.05358 22.5754 5.74395 21.6255 5.82435C21.5217 5.83269 21.4203 5.86013 21.3266 5.90533Z" fill="#549AD4"/>
<path d="M6.46995 19.0899C5.93571 19.127 5.57066 19.6459 5.7163 20.1612L7.19867 25.7793C7.47398 26.8863 9.1362 26.4485 8.83053 25.3496L7.34817 19.7315C7.25065 19.3323 6.87983 19.0615 6.46995 19.0899Z" fill="#549AD4"/>
<path d="M47.4152 19.0897C47.0471 19.1131 46.7368 19.3729 46.6492 19.7312L45.1668 25.3493C44.8611 26.4483 46.5233 26.886 46.7986 25.7791L48.281 20.161C48.439 19.6009 47.996 19.0527 47.4152 19.0897Z" fill="#549AD4"/>
<path d="M31.9611 7.43826L43.2658 12.6515C44.311 13.1869 45.0568 11.5634 43.9696 11.1193L32.6711 5.90606C32.5431 5.84493 32.4017 5.81707 32.26 5.82507C31.3752 5.8725 31.1521 7.07712 31.9611 7.43826Z" fill="#549AD4"/>
<path d="M34.5928 46.404L21.842 43.127C20.4416 42.7671 19.0221 43.5731 18.6495 44.9702C18.277 46.3672 19.1011 47.7945 20.4971 48.1705L35.5328 52.219C37.7902 52.6584 38.8115 51.4643 38.8115 49.7791V41.342C38.8115 36.1069 35.4399 31.6881 30.7408 30.1299H23.2572C18.5581 31.6881 15.1865 36.1069 15.1865 41.342V49.7791C15.1865 51.4643 16.2078 52.6584 18.4652 52.219L33.5009 48.1705C34.897 47.7945 35.721 46.3672 35.3485 44.9702C34.9759 43.5731 33.5564 42.7671 32.1561 43.127L19.4053 46.404H34.5928Z" fill="#549AD4"/>
<path d="M19.5229 41.438V46.3765L21.0934 45.5611V43.0694C21.0934 42.372 20.5847 41.6805 19.5229 41.438Z" fill="#3588CB"/>
<path d="M19.8558 44.6021L19.5229 46.3749L32.1561 43.1288C32.585 43.0185 33.0113 43.0293 33.4119 43.1225C32.847 42.1442 31.488 41.6133 30.8397 41.7797L19.8558 44.6021Z" fill="#3588CB"/>
<path d="M28.2124 30.1329C32.9115 31.6911 36.2824 36.1087 36.2824 41.3439V49.782C36.2824 50.8343 35.8837 51.6947 35.0349 52.0858L35.5342 52.221C37.7916 52.6605 38.8136 51.4673 38.8136 49.7821V41.344C38.8136 36.1088 35.4427 31.6895 30.7436 30.1313L27.3711 30.1322L28.2124 30.1329Z" fill="#3588CB"/>
<path d="M31.8133 46.4853L16.779 50.5343C16.199 50.6472 15.7031 50.6491 15.2827 50.5662C15.5694 51.8112 16.5823 52.5891 18.4666 52.2224L33.5008 48.1734C34.8969 47.7975 35.7223 46.3701 35.3498 44.973C35.1109 44.077 34.4385 43.43 33.6195 43.1719C33.6322 43.2111 33.6517 43.2455 33.6622 43.2857C34.0347 44.6828 33.2094 46.1094 31.8133 46.4853Z" fill="#3588CB"/>
<path d="M29.5293 37.9701C29.5309 38.4363 29.9101 38.8124 30.3763 38.8106H32.904C33.3701 38.8124 33.7494 38.4363 33.751 37.9701C33.7529 37.5015 33.3726 37.1212 32.904 37.1231H30.354C29.8835 37.1454 29.5275 37.5162 29.5293 37.9701Z" fill="#E4EFF8"/>
<path d="M23.2577 30.1333C23.2258 30.1429 23.1968 30.1588 23.1655 30.1681C24.4213 31.3811 26.0981 32.0603 27.844 32.0632C29.3459 32.0618 30.8043 31.5596 31.9886 30.6361C31.5837 30.4479 31.1713 30.2755 30.7428 30.1335L23.2577 30.1333Z" fill="#3588CB"/>
<path d="M33.7499 25.3108C33.7499 29.0388 30.7279 32.061 27 32.061C23.2721 32.061 20.25 29.0388 20.25 25.3108C20.25 21.5827 23.2721 18.5605 27 18.5605C30.7279 18.5605 33.7499 21.5827 33.7499 25.3108Z" fill="#FFD1B5"/>
<path d="M24.9099 22.8749C24.1638 23.621 23.1741 23.8409 22.6994 23.3662C22.2246 22.8914 22.4445 21.9017 23.1906 21.1556C23.9367 20.4095 24.9264 20.1896 25.4012 20.6644C25.8759 21.1391 25.656 22.1288 24.9099 22.8749Z" fill="#FFE5DD"/>
<path d="M26.638 20.3772C26.3432 20.569 26.0052 20.5723 25.8832 20.3847C25.7612 20.1971 25.9013 19.8895 26.1961 19.6978C26.491 19.506 26.8289 19.5027 26.9509 19.6903C27.0729 19.8779 26.9329 20.1855 26.638 20.3772Z" fill="#FFE5DD"/>
<path d="M26.9984 11.0977C26.2046 11.0977 25.6797 11.1624 25.3125 11.274C26.8163 11.7327 25.5727 13.0171 28.3859 14.2057C30.5064 15.1017 31.0868 14.3569 31.8071 14.2249C31.7911 14.2185 31.7784 14.2153 31.7608 14.2057C28.2607 12.7268 31.0482 11.0977 26.9984 11.0977Z" fill="#C4DCF0"/>
<path d="M12.6562 32.9062C12.6562 34.7702 11.1452 36.2812 9.28125 36.2812C7.41729 36.2812 5.90625 34.7702 5.90625 32.9062C5.90625 31.0423 7.41729 29.5313 9.28125 29.5313C11.1452 29.5312 12.6562 31.0423 12.6562 32.9062Z" fill="#FFD1B5"/>
<path d="M10.9687 31.2191C10.9687 33.0831 9.45771 34.5942 7.59374 34.5942C7.11617 34.5927 6.64436 34.4899 6.20947 34.2925C6.75387 35.5013 7.95554 36.2794 9.28125 36.2815C11.1452 36.2815 12.6562 34.7705 12.6562 32.9066C12.6551 31.5793 11.876 30.3759 10.6655 29.8315C10.8638 30.2674 10.9672 30.7404 10.9687 31.2191Z" fill="#FFB98D"/>
<path d="M30.8381 19.7603C31.6325 20.8925 32.0599 22.2415 32.0625 23.6247C32.0624 27.3527 29.0403 30.3747 25.3125 30.3747C23.9419 30.3747 22.6038 29.9574 21.4761 29.1783C22.737 30.9829 24.7986 32.0592 27 32.0622C30.7278 32.0622 33.7499 29.0402 33.75 25.3122C33.7497 23.0957 32.6613 21.0206 30.8381 19.7603Z" fill="#FFB98D"/>
</svg>
