<svg width="54" height="54" viewBox="0 0 54 54" fill="none" xmlns="http://www.w3.org/2000/svg">
<g clip-path="url(#clip0_351_1733)">
<path d="M49.4994 35.0994C48.2395 35.0994 47.1233 34.4512 46.4843 33.4616C46.1156 32.8942 45.8994 32.2192 45.8994 31.4994C45.8994 29.5104 47.5104 27.8994 49.4994 27.8994C51.4884 27.8994 53.0994 29.5104 53.0994 31.4994C53.0994 33.4884 51.4884 35.0994 49.4994 35.0994Z" fill="#AAD3E2"/>
<path d="M49.4829 18.4588C47.773 19.8541 45.5858 20.7 43.2009 20.7C42.0131 20.7 40.8789 20.493 39.8347 20.1151V20.1059C38.7638 19.7279 37.7829 19.161 36.9189 18.4588C37.1439 15.6872 39.4748 13.5 42.3009 13.5H44.1009C46.9271 13.5 49.2579 15.6872 49.4829 18.4588Z" fill="#ED8C4A"/>
<path d="M46.8006 9.8998C46.8006 11.8879 45.1887 13.4998 43.2006 13.4998C41.2125 13.4998 39.6006 11.8879 39.6006 9.8998C39.6006 7.91172 41.2125 6.2998 43.2006 6.2998C45.1887 6.2998 46.8006 7.91172 46.8006 9.8998Z" fill="#ED8C4A"/>
<path d="M43.1998 0.899414C48.6719 0.899414 53.0998 5.32734 53.0998 10.7994C53.0998 13.8866 51.6958 16.6406 49.4818 18.4582C49.2568 15.6866 46.9259 13.4994 44.0998 13.4994H43.1998C45.1888 13.4994 46.7998 11.8884 46.7998 9.89941C46.7998 7.91045 45.1888 6.29941 43.1998 6.29941C41.2108 6.29941 39.5998 7.91045 39.5998 9.89941C39.5998 11.8884 41.2108 13.4994 43.1998 13.4994H42.2998C39.4737 13.4994 37.1428 15.6866 36.9178 18.4582C35.6939 17.4505 34.7126 16.1546 34.0829 14.6692C33.5789 13.4814 33.2998 12.1762 33.2998 10.7994C33.2998 9.59356 33.516 8.44131 33.912 7.37959C35.298 3.59063 38.9336 0.899414 43.1998 0.899414Z" fill="#F3F3FB"/>
<path d="M31.4997 53.0994C29.1056 53.0994 26.9096 52.2535 25.1997 50.8406C25.4335 48.0773 27.7648 45.8994 30.5817 45.8994H32.3817C35.2078 45.8994 37.5387 48.0866 37.7637 50.8582L37.7729 50.8674C36.0625 52.2623 33.8846 53.0994 31.4997 53.0994Z" fill="#FFCA55"/>
<path d="M30.5826 45.8998C27.7657 45.8998 25.4344 48.0777 25.2006 50.841C23.5627 49.491 22.3745 47.6277 21.8704 45.4946C21.6907 44.7568 21.6006 43.9917 21.6006 43.1998C21.6006 40.2928 22.8517 37.6829 24.8407 35.8737C26.5954 34.2719 28.9355 33.2998 31.5006 33.2998C32.6884 33.2998 33.8227 33.5068 34.8668 33.8847V33.8939C36.9094 34.623 38.6377 36.0178 39.7988 37.8086C40.8157 39.3568 41.4006 41.2108 41.4006 43.1998C41.4006 46.287 39.9877 49.0498 37.7738 50.8678L37.7646 50.8586C37.5396 48.087 35.2087 45.8998 32.3826 45.8998H31.4826C33.4715 45.8998 35.0826 44.2888 35.0826 42.2998C35.0826 40.3108 33.4715 38.6998 31.4826 38.6998C29.4936 38.6998 27.8826 40.3108 27.8826 42.2998C27.8826 44.2888 29.4936 45.8998 31.4826 45.8998H30.5826Z" fill="#F3F3FB"/>
<path d="M35.0813 42.2997C35.0813 44.2878 33.4694 45.8997 31.4813 45.8997C29.4933 45.8997 27.8813 44.2878 27.8813 42.2997C27.8813 40.3116 29.4933 38.6997 31.4813 38.6997C33.4694 38.6997 35.0813 40.3116 35.0813 42.2997Z" fill="#FFCA55"/>
<path d="M26.0995 0.899414C28.0885 0.899414 29.6995 2.51045 29.6995 4.49941C29.6995 4.94063 29.6187 5.35459 29.4745 5.74131C28.9705 7.11856 27.6477 8.09941 26.0995 8.09941C24.1105 8.09941 22.4995 6.48838 22.4995 4.49941C22.4995 2.51045 24.1105 0.899414 26.0995 0.899414Z" fill="#AAD3E2"/>
<path d="M13.5002 33.3006C11.7542 33.3006 10.1164 32.8506 8.69434 32.0587C8.16304 31.7704 7.66821 31.4285 7.2002 31.0418C7.43398 28.2785 9.76528 26.1006 12.5822 26.1006H14.3822C17.2083 26.1006 19.5392 28.2877 19.7642 31.0594L19.7734 31.0686C18.063 32.4634 15.8851 33.3006 13.5002 33.3006Z" fill="#64C1E2"/>
<path d="M17.0818 22.4994C17.0818 24.4875 15.4699 26.0994 13.4818 26.0994C11.4938 26.0994 9.88184 24.4875 9.88184 22.4994C9.88184 20.5113 11.4938 18.8994 13.4818 18.8994C15.4699 18.8994 17.0818 20.5113 17.0818 22.4994Z" fill="#64C1E2"/>
<path d="M12.5995 51.2991C10.6105 51.2991 8.99951 49.6881 8.99951 47.6991C8.99951 45.7102 10.6105 44.0991 12.5995 44.0991C14.3006 44.0991 15.7227 45.2782 16.1006 46.862C16.1635 47.1322 16.1995 47.4113 16.1995 47.6991C16.1995 49.6881 14.5885 51.2991 12.5995 51.2991Z" fill="#AAD3E2"/>
<path d="M12.5811 26.1C9.76421 26.1 7.43291 28.2779 7.19912 31.0412C5.00317 29.2232 3.59912 26.4779 3.59912 23.4C3.59912 19.4489 5.90317 16.0471 9.24214 14.4541C10.5293 13.8419 11.9782 13.5 13.4991 13.5C17.5939 13.5 21.1043 15.9838 22.616 19.5302C23.1201 20.718 23.3991 22.0232 23.3991 23.4C23.3991 26.307 22.148 28.9169 20.159 30.7261C20.0329 30.843 19.9072 30.9511 19.7723 31.068L19.7631 31.0588C19.5381 28.2872 17.2072 26.1 14.3811 26.1H13.4811C15.4701 26.1 17.0811 24.489 17.0811 22.5C17.0811 20.511 15.4701 18.9 13.4811 18.9C11.4921 18.9 9.8811 20.511 9.8811 22.5C9.8811 24.489 11.4921 26.1 13.4811 26.1H12.5811Z" fill="#F3F3FB"/>
<path d="M4.49941 35.9995C5.12959 35.9995 5.73252 36.1617 6.24536 36.4583C7.35234 37.0705 8.09941 38.2495 8.09941 39.5995C8.09941 41.5885 6.48838 43.1995 4.49941 43.1995C2.51045 43.1995 0.899414 41.5885 0.899414 39.5995C0.899414 37.6105 2.51045 35.9995 4.49941 35.9995Z" fill="#AAD3E2"/>
<path d="M4.49941 0.899414C6.48838 0.899414 8.09941 2.51045 8.09941 4.49941C8.09941 5.93027 7.26226 7.17261 6.04761 7.7395C5.57959 7.97329 5.04829 8.09941 4.49941 8.09941C2.51045 8.09941 0.899414 6.48838 0.899414 4.49941C0.899414 2.51045 2.51045 0.899414 4.49941 0.899414Z" fill="#AAD3E2"/>
<path d="M43.2 21.6C49.1555 21.6 54 16.7555 54 10.8C54 4.84453 49.1555 0 43.2 0C38.8753 0 35.1466 2.56069 33.4235 6.24067L30.5314 5.17324C30.5657 4.95176 30.6 4.73027 30.6 4.5C30.6 2.01885 28.5812 0 26.1 0C23.6188 0 21.6 2.01885 21.6 4.5C21.6 6.98115 23.6188 9 26.1 9C27.7119 9 29.1177 8.14043 29.9123 6.86338L32.7995 7.92905C32.5459 8.84531 32.4 9.80464 32.4 10.8C32.4 11.9791 32.596 13.1111 32.9471 14.1741L23.0489 18.3691C21.2366 14.9427 17.6392 12.6 13.5 12.6C12.1588 12.6 10.8791 12.8575 9.69302 13.3058L7.20352 8.07407C8.28809 7.25142 9 5.9625 9 4.5C9 2.01885 6.98115 0 4.5 0C2.01885 0 0 2.01885 0 4.5C0 6.98115 2.01885 9 4.5 9C4.87441 9 5.23345 8.94067 5.58193 8.85322L8.06836 14.0796C4.86343 15.9552 2.7 19.4256 2.7 23.4C2.7 27.1332 4.60459 30.4282 7.4918 32.3684L5.84561 35.3276C5.41714 35.1927 4.97153 35.1 4.5 35.1C2.01885 35.1 0 37.1188 0 39.6C0 42.0812 2.01885 44.1 4.5 44.1C6.98115 44.1 9 42.0812 9 39.6C9 38.2373 8.37817 37.0288 7.41885 36.2035L9.06855 33.238C10.4221 33.8506 11.9197 34.2 13.5 34.2C15.9697 34.2 18.2413 33.3576 20.0628 31.957L23.6052 35.8541C21.8087 37.7837 20.7 40.3616 20.7 43.2C20.7 43.7506 20.7549 44.2872 20.834 44.8154L16.6663 45.8046C15.9491 44.2709 14.4018 43.2 12.6 43.2C10.1188 43.2 8.1 45.2188 8.1 47.7C8.1 50.1812 10.1188 52.2 12.6 52.2C15.0812 52.2 17.1 50.1812 17.1 47.7C17.1 47.6503 17.0864 47.6038 17.0855 47.5541L21.2454 46.568C22.6639 50.8777 26.7209 54 31.5 54C37.4555 54 42.3 49.1555 42.3 43.2C42.3 41.3534 41.8329 39.6145 41.012 38.0936L46.2986 34.6562C47.116 35.4841 48.248 36 49.5 36C51.9812 36 54 33.9812 54 31.5C54 29.0188 51.9812 27 49.5 27C47.0188 27 45 29.0188 45 31.5C45 32.0814 45.1195 32.6338 45.3212 33.1444L40.0223 36.5893C38.9619 35.2261 37.5851 34.1253 36 33.3945L40.3928 21.2168C41.2893 21.4585 42.2279 21.6 43.2 21.6ZM26.1 7.2C24.6116 7.2 23.4 5.98843 23.4 4.5C23.4 3.01157 24.6116 1.8 26.1 1.8C27.5884 1.8 28.8 3.01157 28.8 4.5C28.8 5.98843 27.5884 7.2 26.1 7.2ZM1.8 4.5C1.8 3.01157 3.01157 1.8 4.5 1.8C5.98843 1.8 7.2 3.01157 7.2 4.5C7.2 5.98843 5.98843 7.2 4.5 7.2C3.01157 7.2 1.8 5.98843 1.8 4.5ZM4.5 42.3C3.01157 42.3 1.8 41.0884 1.8 39.6C1.8 38.1116 3.01157 36.9 4.5 36.9C5.98843 36.9 7.2 38.1116 7.2 39.6C7.2 41.0884 5.98843 42.3 4.5 42.3ZM12.6 50.4C11.1116 50.4 9.9 49.1884 9.9 47.7C9.9 46.2116 11.1116 45 12.6 45C14.0884 45 15.3 46.2116 15.3 47.7C15.3 49.1884 14.0884 50.4 12.6 50.4ZM49.5 28.8C50.9884 28.8 52.2 30.0116 52.2 31.5C52.2 32.9884 50.9884 34.2 49.5 34.2C48.0116 34.2 46.8 32.9884 46.8 31.5C46.8 30.0116 48.0116 28.8 49.5 28.8ZM37.8998 18.0576C38.3014 15.9759 40.1366 14.4 42.3 14.4H44.1C46.2634 14.4 48.0986 15.9759 48.5002 18.0576C47.0114 19.1474 45.1828 19.8 43.2 19.8C41.2172 19.8 39.3886 19.1474 37.8998 18.0576ZM43.2 12.6C41.7116 12.6 40.5 11.3884 40.5 9.9C40.5 8.41157 41.7116 7.2 43.2 7.2C44.6884 7.2 45.9 8.41157 45.9 9.9C45.9 11.3884 44.6884 12.6 43.2 12.6ZM43.2 1.8C48.1627 1.8 52.2 5.83726 52.2 10.8C52.2 13.05 51.3637 15.1058 49.9931 16.6852C49.3624 15.0245 48.0476 13.6991 46.4093 13.0447C47.2061 12.2326 47.7 11.1239 47.7 9.9C47.7 7.41885 45.6812 5.4 43.2 5.4C40.7188 5.4 38.7 7.41885 38.7 9.9C38.7 11.1239 39.1939 12.2326 39.9907 13.0447C38.3524 13.6991 37.0375 15.0245 36.4069 16.6852C35.0363 15.1058 34.2 13.05 34.2 10.8C34.2 5.83726 38.2373 1.8 43.2 1.8ZM4.5 23.4C4.5 18.4373 8.53726 14.4 13.5 14.4C18.4627 14.4 22.5 18.4373 22.5 23.4C22.5 25.657 21.6584 27.7181 20.2808 29.2997C19.6523 27.6328 18.3349 26.3008 16.6922 25.6447C17.488 24.8326 17.982 23.7239 17.982 22.5C17.982 20.0188 15.9631 18 13.482 18C11.0008 18 8.98198 20.0188 8.98198 22.5C8.98198 23.7239 9.47593 24.8326 10.2727 25.6447C8.63921 26.296 7.32612 27.6166 6.69331 29.2707C5.33057 27.693 4.5 25.6438 4.5 23.4ZM10.782 22.5C10.782 21.0116 11.9936 19.8 13.482 19.8C14.9704 19.8 16.182 21.0116 16.182 22.5C16.182 23.9884 14.9704 25.2 13.482 25.2C11.9936 25.2 10.782 23.9884 10.782 22.5ZM8.18481 30.6457C8.59043 28.5697 10.4229 27 12.582 27H14.382C16.5494 27 18.388 28.5812 18.784 30.6694C17.2982 31.7527 15.4753 32.4 13.5 32.4C11.5102 32.4 9.67588 31.743 8.18481 30.6457ZM26.1848 50.4457C26.5904 48.3697 28.4229 46.8 30.582 46.8H32.382C34.5494 46.8 36.388 48.3811 36.784 50.4694C35.2982 51.5527 33.4753 52.2 31.5 52.2C29.5102 52.2 27.6759 51.543 26.1848 50.4457ZM31.482 45C29.9936 45 28.782 43.7884 28.782 42.3C28.782 40.8116 29.9936 39.6 31.482 39.6C32.9704 39.6 34.182 40.8116 34.182 42.3C34.182 43.7884 32.9704 45 31.482 45ZM40.5 43.2C40.5 45.457 39.6584 47.5181 38.2808 49.0997C37.6523 47.4328 36.3349 46.1008 34.6922 45.4447C35.488 44.6326 35.982 43.5239 35.982 42.3C35.982 39.8188 33.9631 37.8 31.482 37.8C29.0008 37.8 26.982 39.8188 26.982 42.3C26.982 43.5239 27.4759 44.6326 28.2727 45.4447C26.6392 46.096 25.3261 47.4165 24.6933 49.0707C23.3306 47.493 22.5 45.4438 22.5 43.2C22.5 38.2373 26.5373 34.2 31.5 34.2C36.4627 34.2 40.5 38.2373 40.5 43.2ZM34.3072 32.7832C33.4107 32.5415 32.4721 32.4 31.5 32.4C29.0303 32.4 26.7587 33.2424 24.9372 34.643L21.3948 30.7459C23.1913 28.8163 24.3 26.2384 24.3 23.4C24.3 22.2209 24.104 21.0889 23.7529 20.0259L33.6511 15.8309C34.7599 17.927 36.5392 19.6093 38.7009 20.6055L34.3072 32.7832Z" fill="#0D2C33"/>
</g>
<defs>
<clipPath id="clip0_351_1733">
<rect width="54" height="54" fill="white"/>
</clipPath>
</defs>
</svg>
