<svg width="18" height="24" viewBox="0 0 18 24" fill="none" xmlns="http://www.w3.org/2000/svg">
<path d="M14.4595 4.1382L15.1896 4.62154C16.0822 5.21305 16.8042 6.02826 17.2836 6.98587C17.7629 7.94348 17.9827 9.01002 17.9212 10.0791L17.8708 10.9521L16.1244 10.852L16.1741 9.97874C16.2179 9.21506 16.0608 8.45322 15.7183 7.76923C15.3759 7.08523 14.86 6.50298 14.2223 6.08055L13.4934 5.59665L14.4595 4.1382ZM1.90265 0.160509L9.02685 2.5287L8.41502 8.49402L6.35723 9.52504C6.795 11.2403 7.59729 12.8411 8.70946 14.2184L10.767 13.1882L15.9114 16.2694L13.5432 23.3936L12.7129 23.1176C9.51484 22.0601 6.69194 20.0981 4.586 17.4692C3.03319 15.5311 1.90839 13.2861 1.28562 10.882C0.440727 7.62131 0.559181 4.1856 1.62664 0.990835L1.90265 0.160509ZM3.0337 2.38064C2.31224 5.01766 2.29383 7.79764 2.98032 10.444C3.54109 12.6082 4.55366 14.6291 5.95144 16.374C7.66009 18.5082 9.89786 20.1578 12.4421 21.1585L13.808 17.0493L10.6911 15.1833L8.28569 16.3892L7.83924 15.8932C6.14396 14.0104 4.98873 11.7048 4.49562 9.21972L4.36558 8.56515L6.7716 7.36035L7.14298 3.74663L3.0337 2.38064ZM12.7682 6.69077L13.4983 7.17411C13.9446 7.46986 14.3056 7.87747 14.5453 8.35627C14.7849 8.83508 14.8949 9.36835 14.8641 9.9029L14.8136 10.7759L13.0673 10.6758L13.1169 9.80252C13.1301 9.57338 13.0828 9.34482 12.98 9.13963C12.8772 8.93444 12.7224 8.75979 12.531 8.63311L11.8018 8.15005L12.7682 6.69077Z" fill="white"/>
</svg>
