<svg width="45" height="45" viewBox="0 0 45 45" fill="none" xmlns="http://www.w3.org/2000/svg">
<path d="M22.5 4.21875C12.42 4.21875 4.21875 12.42 4.21875 22.5C4.21875 32.58 12.42 40.7812 22.5 40.7812C32.58 40.7812 40.7812 32.58 40.7812 22.5C40.7812 12.42 32.58 4.21875 22.5 4.21875ZM22.5 7.03125C31.0598 7.03125 37.9688 13.9402 37.9688 22.5C37.9688 31.0598 31.0598 37.9688 22.5 37.9688C13.9402 37.9688 7.03125 31.0598 7.03125 22.5C7.03125 13.9402 13.9402 7.03125 22.5 7.03125ZM21.0938 14.0625V21.0938H14.0625V23.9062H21.0938V30.9375H23.9062V23.9062H30.9375V21.0938H23.9062V14.0625H21.0938Z" fill="#E4E1EE"/>
</svg>
