<svg width="69" height="89" viewBox="0 0 69 89" fill="none" xmlns="http://www.w3.org/2000/svg">
<g clip-path="url(#clip0_362_1847)">
<path d="M31.1559 52.4737C32.0268 52.3493 32.6318 51.5422 32.5073 50.6712C32.3829 49.8002 31.5805 49.1874 30.7048 49.3197C20.2739 50.8096 11.8425 59.1348 10.3526 69.5657C10.2282 70.4366 10.8332 71.2438 11.7041 71.3683C12.5711 71.4922 13.3817 70.8895 13.5067 70.0168C14.796 60.9778 22.117 53.763 31.1559 52.4737ZM57.8628 69.5657C56.3729 59.1348 47.9416 50.8096 37.5106 49.3197C36.6366 49.2016 35.8325 49.8034 35.7081 50.6712C35.5836 51.5421 36.1886 52.3493 37.0595 52.4737C46.0985 53.7631 53.4194 60.9778 54.7087 70.0167C54.8339 70.894 55.6475 71.4916 56.5112 71.3682C57.3822 71.2438 57.9872 70.4366 57.8628 69.5657ZM53.3246 71.376H14.8909C14.0106 71.376 13.2983 72.0883 13.2983 72.9686C13.2983 73.8488 14.0106 74.5611 14.8909 74.5611H53.3246C54.2049 74.5611 54.9172 73.8488 54.9172 72.9686C54.9172 72.0883 54.2049 71.376 53.3246 71.376Z" fill="url(#paint0_linear_362_1847)"/>
<path d="M11.7059 68.1908C9.07138 68.1908 6.92822 70.334 6.92822 72.9685C6.92822 75.603 9.07138 77.7462 11.7059 77.7462C14.3404 77.7462 16.4836 75.603 16.4836 72.9685C16.4836 70.334 14.3404 68.1908 11.7059 68.1908ZM56.5098 68.1908C53.8753 68.1908 51.7322 70.334 51.7322 72.9685C51.7322 75.603 53.8753 77.7462 56.5098 77.7462C59.1443 77.7462 61.2875 75.603 61.2875 72.9685C61.2875 70.334 59.1443 68.1908 56.5098 68.1908ZM34.1079 45.895C31.4733 45.895 29.3302 48.0382 29.3302 50.6727C29.3302 53.3072 31.4733 55.4504 34.1079 55.4504C36.7424 55.4504 38.8855 53.3072 38.8855 50.6727C38.8855 48.0382 36.7424 45.895 34.1079 45.895Z" fill="url(#paint1_linear_362_1847)"/>
</g>
<g clip-path="url(#clip1_362_1847)">
<path d="M45.7126 16.7972V29.2831C45.7126 29.5659 45.5616 29.8281 45.316 29.9681L34.5031 36.2118C34.381 36.2818 34.2451 36.3175 34.1078 36.3175L32.0371 21.8454L45.6069 16.4019C45.6756 16.5199 45.7126 16.6558 45.7126 16.7972Z" fill="#80D261"/>
<path d="M0 25.4553V44.0547C0 45.0333 0.336281 45.9818 0.949822 46.7435L12.1525 60.8121C12.6768 61.4709 12.9636 62.289 12.9636 63.1317V67.6665C12.9636 67.9698 13.2094 68.2156 13.5127 68.2156H23.3785C23.6817 68.2156 23.9275 67.9698 23.9275 67.6665V57.135C23.9275 54.7097 22.9585 52.3845 21.236 50.6771L10.0675 39.6034C8.98327 38.5288 7.23591 38.526 6.15033 39.5993C5.60673 40.1346 5.32961 40.8401 5.32135 41.551L4.65545 39.568L5.32135 36.6456V27.8887C5.32135 25.7475 3.58651 24.0127 1.44385 24.0127C1.04442 24.0127 0.68482 24.1732 0.42275 24.4354C0.162012 24.6963 0 25.0572 0 25.4553Z" fill="#D78878"/>
<path d="M3.93352 45.4161L10.7997 52.888C11.3384 53.4741 12.2501 53.5127 12.8363 52.9742C13.4228 52.4355 13.4613 51.5234 12.9225 50.9371L6.05553 43.4656C5.56549 42.9317 5.32128 42.255 5.32128 41.5811V36.6455C4.89306 36.8857 4.4895 37.1863 4.12444 37.5472C1.94194 39.7022 1.85827 43.1582 3.93352 45.4161Z" fill="#CA6E59"/>
<path d="M68.2156 25.4553V44.0547C68.2156 45.0333 67.8793 45.9818 67.2658 46.7435L56.0631 60.8121C55.5389 61.4709 55.252 62.289 55.252 63.1317V67.6665C55.252 67.9698 55.0062 68.2156 54.703 68.2156H44.8371C44.5339 68.2156 44.2881 67.9698 44.2881 67.6665V57.135C44.2881 54.7097 45.2571 52.3845 46.9797 50.6771L58.1481 39.6034C59.2324 38.5288 60.9797 38.526 62.0653 39.5993C62.6089 40.1346 62.886 40.8401 62.8943 41.551L63.5602 39.568L62.8943 36.6456V27.8887C62.8943 25.7475 64.6291 24.0127 66.7718 24.0127C67.1712 24.0127 67.5308 24.1732 67.7929 24.4354C68.0536 24.6963 68.2156 25.0572 68.2156 25.4553Z" fill="#D78878"/>
<path d="M64.2823 45.4161L57.4161 52.888C56.8774 53.4741 55.9657 53.5127 55.3795 52.9742C54.793 52.4355 54.7545 51.5234 55.2933 50.9371L62.1603 43.4656C62.6503 42.9317 62.8945 42.255 62.8945 41.5811V36.6455C63.3227 36.8857 63.7263 37.1863 64.0913 37.5472C66.2738 39.7022 66.3575 43.1582 64.2823 45.4161Z" fill="#CA6E59"/>
<path d="M34.1082 23.0409V36.3175C33.971 36.3175 33.8351 36.2818 33.7129 36.2118L22.9001 29.9681C22.6544 29.8281 22.5034 29.566 22.5034 29.2831V16.7972C22.5034 16.6558 22.5405 16.5199 22.6091 16.4019L29.2401 18.2794L34.1082 23.0409Z" fill="#97DA7B"/>
<path d="M45.6071 16.4021L34.108 23.0411L22.6089 16.4021C22.6775 16.2827 22.7764 16.1825 22.8999 16.1124L33.7127 9.86869C33.9571 9.72866 34.259 9.72866 34.5033 9.86869L45.3161 16.1124C45.4397 16.1825 45.5385 16.2827 45.6071 16.4021Z" fill="#ADE194"/>
<path d="M56.8881 27.8227C54.7236 38.6287 45.0815 46.676 33.6743 46.4619C20.9015 46.2245 10.7295 35.7217 10.8763 22.9708H10.8735L8.70872 22.5561C8.39576 22.4961 8.26652 22.1187 8.47716 21.8795L11.3277 18.6431L15.1692 13.2021L16.343 17.9651L18.3951 23.7785C18.5009 24.0781 18.2417 24.3796 17.9295 24.32L16.1094 23.9722C15.8446 23.9216 15.6037 24.1352 15.6203 24.4042C16.2131 33.9378 24.044 41.5708 33.762 41.7526C42.361 41.9146 49.7013 36.1883 51.9345 28.2839L56.8881 27.8227Z" fill="#8AC9FE"/>
<path d="M59.5063 23.9104C59.8194 23.9702 59.9488 24.3478 59.7382 24.587L56.8879 27.8229L53.6184 31.5351C53.4067 31.7754 53.0135 31.6927 52.9168 31.3872L51.9343 28.2842L50.1813 22.7455C50.0873 22.4482 50.3449 22.1582 50.6512 22.2169L52.106 22.4952C52.3709 22.5458 52.6119 22.3324 52.5951 22.0632C52.0037 12.5296 44.1713 4.89531 34.4535 4.71345C25.9342 4.55423 18.65 10.172 16.3428 17.9654L15.3123 15.046C15.2077 14.7495 14.8228 14.6749 14.6149 14.9109L11.3276 18.6434C13.4908 7.83737 23.1329 -0.209933 34.5414 0.0041737C47.2016 0.24093 57.3056 10.5575 57.3409 23.1554C57.3414 23.3532 57.4801 23.5236 57.6745 23.5607L59.5063 23.9104Z" fill="#60B7FF"/>
</g>
<defs>
<linearGradient id="paint0_linear_362_1847" x1="34.1078" y1="74.5611" x2="34.1078" y2="49.3018" gradientUnits="userSpaceOnUse">
<stop stop-color="#FFBEF9"/>
<stop offset="1" stop-color="#FFF1FF"/>
</linearGradient>
<linearGradient id="paint1_linear_362_1847" x1="34.1079" y1="77.7462" x2="34.1079" y2="45.895" gradientUnits="userSpaceOnUse">
<stop stop-color="#A93AFF"/>
<stop offset="1" stop-color="#FF81FF"/>
</linearGradient>
<clipPath id="clip0_362_1847">
<rect width="54.3593" height="54.3593" fill="white" transform="translate(6.92822 34.6406)"/>
</clipPath>
<clipPath id="clip1_362_1847">
<rect width="68.2156" height="68.2156" fill="white"/>
</clipPath>
</defs>
</svg>
