<svg width="45" height="48" viewBox="0 0 45 48" fill="none" xmlns="http://www.w3.org/2000/svg">
<path d="M42.7565 24.0511C38.1391 22.4112 33.4274 20.7378 28.81 19.0978C28.8928 16.4743 28.9757 13.8507 29.0585 11.2271C29.0955 9.33011 29.166 7.33887 29.203 5.44187C29.255 4.39913 29.4347 3.29563 28.2097 2.86055C27.6443 2.65974 27.0727 2.7751 26.5892 3.24009C25.8776 4.04855 25.2267 4.98471 24.5759 5.92088C23.925 6.85704 23.18 7.75973 22.4349 8.66242C20.8108 10.8447 19.126 12.8994 17.502 15.0817C12.8846 13.4417 8.17292 11.7683 3.5555 10.1284C2.04777 9.59292 1.09571 11.3772 1.86453 12.4992C4.66328 16.5707 7.3678 20.6087 10.2 24.5859C7.21353 28.5129 4.09933 32.5006 1.11284 36.4275C0.33429 37.4244 1.3127 39.1515 2.61701 38.7658C7.35691 37.3717 12.2245 35.9169 16.9644 34.5229C19.7632 38.5944 22.6227 42.7936 25.4214 46.865C26.1903 47.9871 28.0388 47.264 28.0635 45.9994C28.223 41.0684 28.3218 36.0097 28.4813 31.0787C33.2212 29.6847 37.8668 28.2572 42.5733 26.9574C43.8776 26.5717 44.2642 24.5866 42.7565 24.0511Z" fill="#FFCB00"/>
<path d="M10.6548 7.76829C12.7279 8.50459 15.0265 7.41082 15.7628 5.33769C16.4991 3.26456 15.4054 0.965936 13.3322 0.229639C11.2591 -0.506657 8.96047 0.587115 8.22418 2.66025C7.48788 4.73338 8.58165 7.032 10.6548 7.76829Z" fill="#FFCB00"/>
<path d="M38.7363 17.7418C40.8094 18.4781 43.108 17.3843 43.8443 15.3112C44.5806 13.238 43.4868 10.9394 41.4137 10.2031C39.3406 9.46682 37.042 10.5606 36.3057 12.6337C35.5694 14.7068 36.5689 16.972 38.7363 17.7418Z" fill="#FFCB00"/>
<path d="M16.1277 36.8787C15.3738 36.611 14.4799 37.0363 14.2122 37.7902L12.5053 42.5961C12.2376 43.35 12.6629 44.2439 13.4168 44.5116C14.1707 44.7794 15.0646 44.354 15.3323 43.6001C15.8343 42.1866 16.3364 40.7731 16.8384 39.3596C16.9053 39.1712 16.9723 38.9827 17.0392 38.7942C17.3069 38.0404 16.8816 37.1465 16.1277 36.8787Z" fill="#FFCB00"/>
</svg>
