<svg width="121" height="181" viewBox="0 0 121 181" fill="none" xmlns="http://www.w3.org/2000/svg">
<path d="M-69.0354 84.5042C-70.3134 86.8306 -69.4651 89.7473 -67.1387 91.0254C-64.8123 92.3035 -61.8955 91.4552 -60.6174 89.1288C-58.732 85.6968 -47.7927 85.2158 -34.9481 92.2723C-22.1035 99.3288 -16.6424 108.82 -18.5279 112.252C-19.806 114.578 -18.9576 117.495 -16.6312 118.773C-14.3048 120.051 -11.388 119.203 -10.11 116.876C1.18281 96.3206 16.1458 87.4663 21.2958 90.2956C26.4459 93.1249 26.9977 110.503 15.705 131.058C14.4269 133.385 15.2752 136.301 17.6016 137.58C19.9281 138.858 22.8448 138.009 24.1229 135.683C26.0083 132.251 36.9476 131.77 49.7923 138.826C62.6369 145.883 68.0979 155.374 66.2125 158.806C64.9344 161.132 65.7827 164.049 68.1091 165.327C70.4356 166.605 73.3523 165.757 74.6304 163.43C100.131 117.013 88.4981 61.4636 49.0433 39.7881C9.58857 18.1127 -43.5346 38.0864 -69.0354 84.5042Z" fill="url(#paint0_linear_288_1631)"/>
<path d="M-10.1098 116.876C-4.83721 107.279 -13.5285 93.0811 -30.3234 83.8545C-47.1183 74.6278 -63.7626 74.9067 -69.0353 84.5043C-74.3079 94.1018 -65.6166 108.299 -48.8217 117.526C-32.0269 126.753 -15.3825 126.474 -10.1098 116.876ZM15.7051 131.058C10.4324 140.656 19.1238 154.854 35.9186 164.08C52.7135 173.307 69.3578 173.028 74.6305 163.43C79.9031 153.833 71.2118 139.635 54.417 130.409C37.6221 121.182 20.9777 121.461 15.7051 131.058Z" fill="url(#paint1_linear_288_1631)"/>
<defs>
<linearGradient id="paint0_linear_288_1631" x1="96.5972" y1="123.445" x2="-47.0686" y2="44.5191" gradientUnits="userSpaceOnUse">
<stop stop-color="#A93AFF"/>
<stop offset="1" stop-color="#FF81FF"/>
</linearGradient>
<linearGradient id="paint1_linear_288_1631" x1="74.6305" y1="163.43" x2="-69.0353" y2="84.5043" gradientUnits="userSpaceOnUse">
<stop stop-color="#FFBEF9"/>
<stop offset="1" stop-color="#FFF1FF"/>
</linearGradient>
</defs>
</svg>
