<svg width="20" height="16" viewBox="0 0 20 16" fill="none" xmlns="http://www.w3.org/2000/svg">
<path d="M19.8875 1.81244C19.1881 2.12126 18.4343 2.3242 17.6532 2.42126C18.4525 1.95361 19.0701 1.21244 19.3607 0.321259C18.6069 0.762435 17.7713 1.07126 16.8903 1.24773C16.1728 0.488906 15.1647 0.0477295 14.0203 0.0477295C11.886 0.0477295 10.1422 1.74185 10.1422 3.83302C10.1422 4.13302 10.1786 4.4242 10.2421 4.69773C7.00887 4.53891 4.1298 3.03008 2.21346 0.744788C1.87741 1.30067 1.68669 1.95361 1.68669 2.64185C1.68669 3.95655 2.36785 5.12126 3.42139 5.78302C2.77655 5.78302 2.17713 5.60655 1.65036 5.34185V5.36832C1.65036 7.20361 2.99453 8.73891 4.77464 9.08302C4.20312 9.23497 3.60312 9.25611 3.02177 9.14479C3.26845 9.89698 3.75156 10.5551 4.40319 11.0268C5.05482 11.4984 5.84221 11.7598 6.65466 11.7742C5.27746 12.8334 3.57034 13.4059 1.81384 13.3977C1.50504 13.3977 1.19625 13.3801 0.887451 13.3448C2.61307 14.4213 4.66565 15.0477 6.86355 15.0477C14.0203 15.0477 17.9529 9.27714 17.9529 4.2742C17.9529 4.10655 17.9529 3.94773 17.9439 3.78008C18.7068 3.25067 19.3607 2.58008 19.8875 1.81244Z" fill="#E1E1E1"/>
</svg>
