<svg width="73" height="73" viewBox="0 0 73 73" fill="none" xmlns="http://www.w3.org/2000/svg">
<path d="M15.9651 26.2385C15.1529 27.0488 15.1529 28.3663 15.9651 29.1767C19.6523 32.8554 30.2168 42.17 42.6567 42.17C55.1163 42.17 65.6704 32.8535 69.3515 29.1756C70.1623 28.3655 70.1623 27.0496 69.3515 26.2395C65.6704 22.5616 55.1163 13.2451 42.6567 13.2451C30.2168 13.2451 19.6523 22.5598 15.9651 26.2385Z" fill="#E5E8F9"/>
<path d="M69.346 29.1763C65.6647 32.8574 55.1109 42.1703 42.6592 42.1703C30.218 42.1703 19.6537 32.8574 15.9622 29.1763C15.7848 28.9991 15.6389 28.7903 15.5449 28.5714C20.5089 32.8365 29.3001 38.8645 39.3117 38.8645C51.7738 38.8645 62.3276 29.5516 66.0087 25.8705C66.6345 25.2447 66.7806 24.3164 66.4364 23.5552C67.646 24.598 68.6265 25.5263 69.346 26.2458C70.1592 27.0488 70.1592 28.3626 69.346 29.1763Z" fill="#D6DBF2"/>
<path d="M42.6572 42.1698C50.7258 42.1698 57.2666 35.6948 57.2666 27.7075C57.2666 19.7201 50.7258 13.2451 42.6572 13.2451C34.5887 13.2451 28.0479 19.7201 28.0479 27.7075C28.0479 35.6948 34.5887 42.1698 42.6572 42.1698Z" fill="#66CCFF"/>
<path d="M42.6577 36.7941C47.7273 36.7941 51.837 32.7255 51.837 27.7066C51.837 22.6877 47.7273 18.6191 42.6577 18.6191C37.5882 18.6191 33.4785 22.6877 33.4785 27.7066C33.4785 32.7255 37.5882 36.7941 42.6577 36.7941Z" fill="#6699FF"/>
<path d="M42.6558 31.9057C44.9976 31.9057 46.896 30.0265 46.896 27.7082C46.896 25.39 44.9976 23.5107 42.6558 23.5107C40.314 23.5107 38.4155 25.39 38.4155 27.7082C38.4155 30.0265 40.314 31.9057 42.6558 31.9057Z" fill="#4E8CF2"/>
<path d="M42.6586 10.2673C42.2268 10.2673 41.8765 9.91721 41.8765 9.48515V5.29386C41.8765 4.8618 42.2268 4.51172 42.6586 4.51172C43.0904 4.51172 43.4408 4.8618 43.4408 5.29386V9.48515C43.4408 9.91721 43.0904 10.2673 42.6586 10.2673Z" fill="#666666"/>
<path d="M35.0279 11.4484C34.7835 11.4484 34.5427 11.3341 34.3899 11.1192L31.6157 7.21537C31.3657 6.86351 31.4482 6.37518 31.8001 6.1249C32.1519 5.87463 32.6403 5.95636 32.8908 6.30949L35.665 10.2133C35.915 10.5652 35.8325 11.0535 35.4806 11.3038C35.3431 11.4016 35.1848 11.4484 35.0279 11.4484Z" fill="#666666"/>
<path d="M50.2879 11.4484C50.1311 11.4484 49.9727 11.4016 49.8352 11.3038C49.4834 11.0535 49.4009 10.5652 49.6509 10.2133L52.4251 6.30949C52.6751 5.95636 53.1639 5.87463 53.5158 6.1249C53.8676 6.37518 53.9501 6.86351 53.7001 7.21537L50.9259 11.1192C50.7737 11.3338 50.5323 11.4484 50.2879 11.4484Z" fill="#666666"/>
<path d="M16.6504 42.2753C16.6504 42.2753 18.5183 42.2252 21.3237 42.2181C23.1558 42.2037 25.3815 42.2181 27.7504 42.2753C30.3983 42.3397 33.1751 43.1771 35.7586 44.5726C37.4046 45.46 38.9719 46.5621 40.3745 47.8288L48.4545 47.8289C50.3653 47.8289 51.9183 49.3389 51.9756 51.2354V51.6147C51.9255 52.223 51.7322 52.7884 51.4174 53.2679H51.4245L51.9756 53.0103L64.6786 47.149C65.2511 46.8699 65.838 46.7696 66.4105 46.8055C68.1353 46.9271 69.6453 48.3513 69.6453 50.2621C69.6453 51.5002 68.9654 52.6596 67.8777 53.2679C67.8777 53.2679 47.4812 67.9676 38.3994 68.4829C32.5095 68.8122 16.6504 59.2723 16.6504 59.2723L16.6504 42.2753Z" fill="#FFC776"/>
<path d="M69.6494 50.2576C69.6494 51.4985 68.9714 52.6559 67.8764 53.2609C67.8764 53.2609 47.478 67.9653 38.4052 68.476C32.5132 68.81 16.6514 59.2675 16.6514 59.2675V57.9018C21.5945 60.6653 30.9802 65.5246 35.2143 65.2853C44.2871 64.7741 64.6852 50.0697 64.6852 50.0697C65.7802 49.4647 66.4582 48.3073 66.4582 47.0664C66.4582 46.9829 66.4582 46.8892 66.4478 46.8057C68.158 46.9411 69.6494 48.3593 69.6494 50.2576Z" fill="#F4B25B"/>
<path d="M53.5085 52.2983C53.3149 53.0411 52.9275 53.7292 52.3897 54.267C51.6259 55.0418 50.561 55.515 49.4852 55.5476C47.5489 55.515 45.774 55.4289 43.913 55.3643L32.8438 54.9556L43.913 54.5575L49.3991 54.3426C50.3028 54.2565 51.0881 53.7291 51.5613 53.0195C51.5185 53.1051 51.4754 53.1913 51.4216 53.2669H51.4324L51.981 53.0085L53.5085 52.2983Z" fill="#F4B25B"/>
<path d="M18.2736 60.0633C18.2736 61.5347 17.0808 62.7275 15.6094 62.7275H5.70763C4.23626 62.7275 3.04346 61.5347 3.04346 60.0633V42.2862C3.04346 40.8149 4.23625 39.6221 5.70763 39.6221H15.6094C17.0808 39.6221 18.2736 40.8149 18.2736 42.2862V60.0633Z" fill="#FF4848"/>
<path d="M18.2701 42.28V60.0611C18.2701 61.5316 17.0811 62.7201 15.6108 62.7201H5.71406C4.52506 62.7201 3.52396 61.9589 3.19043 60.8951C3.45114 60.9893 3.73249 61.0413 4.02451 61.0413H9.16598C13.2643 61.0413 16.591 57.7146 16.591 53.616V40.6012C16.591 40.3094 16.5492 40.0278 16.4553 39.7671C17.5088 40.1113 18.2701 41.1017 18.2701 42.28Z" fill="#F91C1C"/>
<path d="M12.4673 56.4614C12.4673 57.4621 11.6612 58.2683 10.6604 58.2683C9.65966 58.2683 8.85352 57.4621 8.85352 56.4614C8.85352 55.4606 9.65966 54.6475 10.6604 54.6475C11.6612 54.6475 12.4673 55.4606 12.4673 56.4614Z" fill="#FFEB33"/>
<path d="M5.54487 45.5041C5.25665 45.5041 5.02344 45.2706 5.02344 44.9826V43.9008C5.02344 43.6129 5.25665 43.3794 5.54487 43.3794C5.83308 43.3794 6.06629 43.6129 6.06629 43.9008V44.9826C6.06629 45.2706 5.83308 45.5041 5.54487 45.5041Z" fill="white"/>
<path d="M5.54487 51.7966C5.25665 51.7966 5.02344 51.5632 5.02344 51.2752V47.5888C5.02344 47.3009 5.25665 47.0674 5.54487 47.0674C5.83308 47.0674 6.06629 47.3009 6.06629 47.5888V51.2752C6.06629 51.5632 5.83308 51.7966 5.54487 51.7966Z" fill="white"/>
<path d="M39.9886 25.5889C40.6533 25.5889 41.1921 25.0557 41.1921 24.398C41.1921 23.7402 40.6533 23.207 39.9886 23.207C39.324 23.207 38.7852 23.7402 38.7852 24.398C38.7852 25.0557 39.324 25.5889 39.9886 25.5889Z" fill="white"/>
<path d="M40.4029 28.0696C40.8366 28.0696 41.1882 27.7213 41.1882 27.2916C41.1882 26.862 40.8366 26.5137 40.4029 26.5137C39.9693 26.5137 39.6177 26.862 39.6177 27.2916C39.6177 27.7213 39.9693 28.0696 40.4029 28.0696Z" fill="white"/>
<path d="M24.438 23.8822C24.2847 23.8822 24.1329 23.8153 24.0301 23.6865C23.8503 23.4614 23.887 23.1335 24.1121 22.9535C27.2951 20.4087 30.5622 18.53 33.8226 17.3697C34.092 17.273 34.3914 17.4151 34.4887 17.686C34.5849 17.9574 34.4434 18.2555 34.172 18.352C31.0215 19.4735 27.8557 21.2957 24.7628 23.7682C24.6671 23.8448 24.552 23.8822 24.438 23.8822Z" fill="white"/>
<path d="M36.7307 17.5883C36.4923 17.5883 36.2775 17.424 36.2225 17.1819C36.1588 16.9011 36.335 16.6218 36.6161 16.5584C36.9812 16.4756 37.3499 16.4018 37.7216 16.3371C38.0052 16.2888 38.2751 16.4779 38.3245 16.7616C38.3739 17.0452 38.1839 17.3153 37.8998 17.3647C37.5459 17.4263 37.194 17.4966 36.8463 17.5753C36.8076 17.5842 36.7689 17.5883 36.7307 17.5883Z" fill="white"/>
</svg>
